<?xml version="1.0" standalone="no"?>
<!DOCTYPE svg PUBLIC "-//W3C//DTD SVG 1.1//EN" "http://www.w3.org/Graphics/SVG/1.1/DTD/svg11.dtd" >
<svg xmlns="http://www.w3.org/2000/svg" xmlns:xlink="http://www.w3.org/1999/xlink" version="1.1">
<metadata>
Created by FontForge 20170731 at Tue Nov 19 00:49:19 2019
 By Aleksey,,,
Copyright 2019 The Gelasio Project Authors (https://github.com/SorkinType/Gelasio)
</metadata>
<defs>
<font id="Gelasio-Bold" horiz-adv-x="0" >
  <font-face 
    font-family="Gelasio"
    font-weight="700"
    font-stretch="normal"
    units-per-em="2048"
    panose-1="0 0 8 0 0 0 0 0 0 0"
    ascent="1638"
    descent="-410"
    x-height="994"
    cap-height="1419"
    bbox="-988 -659 3039 2506"
    underline-thickness="106"
    underline-position="-296"
    unicode-range="U+000D-FB02"
  />
<missing-glyph horiz-adv-x="2048" 
d="M256 1547h1556v-1547h-1556v1547zM1706 90v1367h-1344v-1367h1344zM946 767l-365 371l92 86l361 -367l361 367l92 -86l-365 -371l365 -370l-92 -85l-361 366l-361 -366l-92 85z" />
    <glyph glyph-name="fi" unicode="fi" horiz-adv-x="1423" 
d="M44 13.5q-9 13.5 -9 27.5q0 17 7 26t26 11q47 5 81.5 19.5t34.5 44.5v743h-154q-11 1 -17.5 15.5t-6.5 28.5q0 18 7 29.5t18 16.5l153 17v53q0 142 67 262t209.5 193t357.5 73q195 0 277 -56.5t82 -139.5q0 -79 -42.5 -115t-126.5 -34l-161 240q-3 1 -11.5 4t-19.5 4.5
t-26 1.5q-68 0 -134 -37.5t-111 -127.5t-45 -236v-85h339q83 0 257 3q66 2 81 2q11 0 20.5 -9.5t9.5 -30.5v-782q0 -40 18.5 -60t43 -26.5t60.5 -10.5q22 -2 29 -8.5t7 -28.5q0 -13 -9.5 -27t-24.5 -14h-535q-16 0 -25 13.5t-9 27.5q0 17 7 26t26 11q95 10 95 64l1 636
q0 44 -14 66.5t-48.5 31.5t-102.5 9h-226v-710q0 -41 11.5 -61t31.5 -26.5t59 -9.5q22 -2 29 -8.5t7 -28.5q0 -14 -9 -27.5t-25 -13.5h-535q-16 0 -25 13.5z" />
    <glyph glyph-name="fl" unicode="fl" horiz-adv-x="1444" 
d="M44 13.5q-9 13.5 -9 27.5q0 17 7 26t26 11q47 5 81.5 19.5t34.5 44.5v743h-154q-11 1 -17.5 15.5t-6.5 28.5q0 18 7 29.5t18 16.5l153 17v83q0 154 73 266.5t207.5 172t314.5 59.5q204 0 312 -89q81 36 69 30l16 8t21 6q29 0 29 -40v-1313q0 -40 18.5 -60t43 -26.5
t60.5 -10.5q22 -2 29 -8.5t7 -28.5q0 -14 -9 -27.5t-25 -13.5h-508q-16 0 -25 13.5t-9 27.5q0 17 7 26t26 11q39 4 58.5 18.5t19.5 45.5v1252q0 19 -18 39t-50 33.5t-72 13.5q-79 0 -139 -26t-100 -108.5t-40 -238.5v-115h232q11 -1 17.5 -11t6.5 -23q0 -21 -7 -45t-17 -28
h-232v-710q0 -40 15 -60.5t39 -27t65 -9.5q22 -2 29 -8.5t7 -28.5q0 -14 -9 -27.5t-25 -13.5h-552q-16 0 -25 13.5z" />
    <glyph glyph-name="f_f" unicode="ff" horiz-adv-x="1629" 
d="M1413.5 1422q-19.5 -27 -30.5 -102t-11 -213v-113h232q11 -1 17.5 -11t6.5 -23q0 -21 -7 -45t-17 -28h-232v-722q0 -35 25 -53.5t57.5 -24.5t79.5 -9q22 -2 29 -8.5t7 -28.5q0 -14 -9 -27.5t-25 -13.5h-595q-16 0 -25 13.5t-9 27.5q0 17 7 26t26 11q47 4 81.5 16.5
t34.5 37.5v755h-508v-722q0 -35 25 -53.5t57.5 -24.5t79.5 -9q22 -2 29 -8.5t7 -28.5q0 -14 -9 -27.5t-25 -13.5h-595q-16 0 -25 13.5t-9 27.5q0 17 7 26t26 11q47 4 81.5 16.5t34.5 37.5v755h-154q-11 1 -17.5 15.5t-6.5 28.5q0 18 7 29.5t18 16.5l153 17v68
q0 129 58.5 240.5t166.5 179t250 67.5q87 0 146.5 -21.5t88 -57t28.5 -76.5q0 -40 -16 -72.5t-43 -50.5t-59 -18l-173 182q-52 0 -91.5 -74.5t-39.5 -267.5v-99h508v82q0 132 48.5 243t146.5 177.5t239 66.5q129 0 189 -41.5t60 -105.5q0 -40 -16 -72.5t-43 -50.5t-59 -18
l-159 174q-29 0 -48.5 -27z" />
    <glyph glyph-name="f_f_i" unicode="ffi" horiz-adv-x="2124" 
d="M2067 69.5q7 -6.5 7 -28.5q0 -13 -9.5 -27t-24.5 -14h-555q-14 0 -22 10q-8 -10 -22 -10h-595q-16 0 -25 13.5t-9 27.5q0 17 7 26t26 11q47 4 81.5 16.5t34.5 37.5v755h-413v-722q0 -35 25 -53.5t57.5 -24.5t79.5 -9q22 -2 29 -8.5t7 -28.5q0 -14 -9 -27.5t-25 -13.5
h-595q-16 0 -25 13.5t-9 27.5q0 17 7 26t26 11q47 4 81.5 16.5t34.5 37.5v755h-154q-11 1 -17.5 15.5t-6.5 28.5q0 18 7 29.5t18 16.5l153 17v68q0 129 58.5 240.5t166.5 179t250 67.5q87 0 146.5 -21.5t88 -57t28.5 -76.5q0 -40 -16 -72.5t-43 -50.5t-59 -18l-173 182
q-52 0 -91.5 -74.5t-39.5 -267.5v-99h413v82q0 132 48.5 243t146.5 177.5t239 66.5q86 0 150 -21t75 -55q26 24 59.5 37t71.5 13q51 0 94 -23.5t68.5 -65.5t25.5 -95t-25.5 -94.5t-68.5 -65t-94 -23.5q-52 0 -94.5 23t-68 64.5t-25.5 94.5q-26 -18 -59 -18l-137 115
q-29 0 -48.5 -27t-30.5 -102t-11 -213v-113h414q124 3 195 3q11 0 20.5 -9.5t9.5 -30.5v-792q0 -35 18.5 -53.5t42.5 -24t61 -9.5q22 -2 29 -8.5zM1600 778q0 53 -20.5 77t-56.5 32h-246v-722q0 -35 25 -53.5t57.5 -24.5t79.5 -9q16 -1 25 -6q8 5 20 6q47 4 81 16.5t34 37.5
z" />
    <glyph glyph-name="f_f_l" unicode="ffl" horiz-adv-x="2124" 
d="M2099 69.5q7 -6.5 7 -28.5q0 -14 -9 -27.5t-25 -13.5h-545q-16 0 -25 13.5t-9 27.5q0 17 7.5 26.5t25.5 10.5q47 4 81 16.5t34 37.5l1 1196q0 82 -68 104q1 -5 1 -16q0 -40 -16 -72.5t-43 -50.5t-59 -18l-159 174q-29 0 -48.5 -27t-30.5 -102t-11 -213v-113h232
q11 -1 17.5 -11t6.5 -23q0 -21 -7 -45t-17 -28h-232v-722q0 -35 25 -53.5t57.5 -24.5t79.5 -9q22 -2 29 -8.5t7 -28.5q0 -14 -9 -27.5t-25 -13.5h-595q-16 0 -25 13.5t-9 27.5q0 17 7 26t26 11q47 4 81.5 16.5t34.5 37.5v755h-395v-722q0 -35 25 -53.5t57.5 -24.5t79.5 -9
q22 -2 29 -8.5t7 -28.5q0 -14 -9 -27.5t-25 -13.5h-595q-16 0 -25 13.5t-9 27.5q0 17 7 26t26 11q47 4 81.5 16.5t34.5 37.5v755h-154q-11 1 -17.5 15.5t-6.5 28.5q0 18 7 29.5t18 16.5l153 17v68q0 129 58.5 240.5t166.5 179t250 67.5q87 0 146.5 -21.5t88 -57t28.5 -76.5
q0 -40 -16 -72.5t-43 -50.5t-59 -18l-173 182q-52 0 -91.5 -74.5t-39.5 -267.5v-99h395v82q0 132 48.5 243t146.5 177.5t239 66.5q103 0 164 -28q212 13 428 13q11 0 20.5 -9.5t9.5 -30.5v-1343q0 -35 18.5 -53.5t42.5 -24t61 -9.5q22 -2 29 -8.5z" />
    <glyph glyph-name=".notdef" horiz-adv-x="2048" 
d="M256 1547h1556v-1547h-1556v1547zM1706 90v1367h-1344v-1367h1344zM946 767l-365 371l92 86l361 -367l361 367l92 -86l-365 -371l365 -370l-92 -85l-361 366l-361 -366l-92 85z" />
    <glyph glyph-name=".null" 
 />
    <glyph glyph-name=".null" 
 />
    <glyph glyph-name="nonmarkingreturn" unicode="&#xd;" horiz-adv-x="1024" 
 />
    <glyph glyph-name="space" unicode=" " horiz-adv-x="520" 
 />
    <glyph glyph-name="exclam" unicode="!" horiz-adv-x="771" 
d="M295 811q-21 112 -42 178t-49 137q-22 57 -31.5 90.5t-9.5 76.5q0 66 29.5 120t80.5 85.5t113 31.5q61 0 112 -31.5t81 -86t30 -119.5q0 -41 -10 -74t-34 -88q-30 -70 -52.5 -136.5t-42.5 -179.5t-29 -273h-112q-13 157 -34 269zM287.5 7q-44.5 27 -70 72t-25.5 97
q0 51 25.5 93.5t69.5 67.5t98 25t98.5 -25t70.5 -67.5t26 -93.5t-26 -96.5t-71 -72.5t-98 -27t-97.5 27z" />
    <glyph glyph-name="quotedbl" unicode="&#x22;" horiz-adv-x="1044" 
d="M196 1206q0 58 -2.5 108.5t-3.5 66.5q-4 62 -4 79q0 31 4 52q11 68 48 113.5t110 45.5q60 0 86 -32t26 -84q0 -13 -4 -43q-4 -24 -15.5 -57.5t-25.5 -71.5q-37 -98 -69 -199.5t-68 -255.5h-96q14 161 14 278zM679 1206q0 58 -2.5 108.5t-3.5 66.5q-4 62 -4 79q0 31 4 52
q11 68 48 113.5t110 45.5q60 0 86 -32t26 -84q0 -13 -4 -43q-4 -24 -15.5 -57.5t-25.5 -71.5q-37 -98 -69 -199.5t-68 -255.5h-96q14 161 14 278z" />
    <glyph glyph-name="numbersign" unicode="#" horiz-adv-x="1440" 
d="M360 400h-209v126h233l70 374h-254v126h278l74 393h147l-74 -393h310l74 393h147l-74 -393h208v-126h-232l-71 -374h233v-126h-257l-76 -400h-145l75 400h-311l-76 -400h-145zM841 526l70 374h-310l-71 -374h311z" />
    <glyph glyph-name="dollar" unicode="$" horiz-adv-x="1312" 
d="M467.5 3q-57.5 17 -87.5 33q-28 15 -40.5 20.5t-23.5 5.5q-10 0 -21.5 -5t-19.5 -16q-15 -20 -35.5 -29t-40.5 -9q-23 0 -38 12.5t-15 32.5l1 59q1 15 1 40q0 74 -5.5 135.5t-14.5 143.5q-4 27 14 42.5t44 15.5q22 0 39 -10t21 -29q5 -25 20 -60t53 -112
q35 -68 94.5 -117.5t126 -75t122.5 -25.5q119 0 188 41t69 150q0 66 -53 121t-134 98.5t-201 94.5q-157 67 -260.5 175.5t-103.5 261.5q0 103 62 182.5t166 123t225 43.5v202h114v-198q55 -2 94.5 -11t90.5 -24q24 -10 37 -11q9 -2 23 -2t21 4t15.5 12t14.5 12q12 6 28 6
q25 0 48 -10.5t23 -24.5q0 -22 7.5 -113.5t16.5 -161.5q1 -5 1 -14q0 -28 -17.5 -41t-42.5 -13q-19 0 -35 6.5t-18 15.5q-24 108 -84 173.5t-132 93t-140 27.5q-103 0 -161 -41t-58 -129q0 -66 50 -122t126.5 -100.5t183.5 -91.5q124 -55 210 -110t140 -129.5t54 -170.5
q0 -115 -68 -208.5t-187 -147t-267 -53.5v-209h-114v214q-69 10 -126.5 27z" />
    <glyph glyph-name="percent" unicode="%" horiz-adv-x="1801" 
d="M269.5 755.5q-85.5 44.5 -132 127t-46.5 193.5q0 113 47.5 197.5t134 130t201.5 45.5q118 0 205 -45.5t134.5 -129.5t47.5 -198q0 -111 -48 -193.5t-136.5 -127t-206.5 -44.5q-115 0 -200.5 44.5zM1263 1419h147l-879 -1419h-145zM554 819q29 31 40.5 93t11.5 164
q0 117 -11.5 180t-39.5 89.5t-81 26.5q-71 0 -100 -71.5t-29 -224.5q0 -150 29 -219t100 -69q51 0 80 31zM1118.5 9.5q-85.5 44.5 -132 127t-46.5 193.5q0 113 47.5 197.5t134 130t201.5 45.5q118 0 205 -45.5t134.5 -129.5t47.5 -198q0 -111 -48 -193.5t-136.5 -127
t-206.5 -44.5q-115 0 -200.5 44.5zM1403 73q29 31 40.5 93t11.5 164q0 117 -11.5 180t-39.5 89.5t-81 26.5q-71 0 -100 -71.5t-29 -224.5q0 -150 29 -219t100 -69q51 0 80 31z" />
    <glyph glyph-name="ampersand" unicode="&#x26;" horiz-adv-x="1637" 
d="M292 15.5q-119 45.5 -186 134t-67 211.5q0 94 48 172.5t130.5 135.5t186.5 89q-82 91 -127.5 179.5t-45.5 186.5q0 108 63 183.5t165 113t220 37.5q200 0 299.5 -72t99.5 -208q0 -78 -46 -144.5t-112 -117t-157 -105.5l379 -399q84 145 88.5 224t4.5 82q2 83 -153 100
q-19 2 -24.5 11.5t-5.5 29.5q0 15 9 26t24 11h453q16 0 25 -12t10 -29q-2 -37 -34 -37q-44 0 -82.5 -28.5t-55.5 -78.5q-27 -82 -47.5 -136t-58 -117.5t-91.5 -110.5l132 -135q50 -50 111.5 -89.5t122.5 -44.5q22 -2 29 -8.5t7 -28.5q0 -16 -9 -28.5t-25 -12.5h-467
l-124 129q-83 -69 -194.5 -114t-221.5 -45q-154 0 -273 45.5zM824.5 1020.5q35.5 76.5 35.5 152.5q0 38 -18.5 84t-54 79t-85.5 33q-84 0 -125 -40t-41 -121q0 -67 17.5 -117.5t46.5 -90.5t88 -108q101 52 136.5 128.5zM805.5 155.5q68.5 15.5 113.5 45.5l-428 462
q-51 -41 -79 -98t-28 -140q0 -89 35.5 -153t99 -98t148.5 -34q70 0 138.5 15.5z" />
    <glyph glyph-name="quotesingle" unicode="'" horiz-adv-x="551" 
d="M183 1206q0 58 -2.5 108.5t-3.5 66.5q-4 62 -4 79q0 31 4 52q11 68 48 113.5t110 45.5q60 0 86 -32t26 -84q0 -13 -4 -43q-4 -24 -15.5 -57.5t-25.5 -71.5q-37 -98 -69 -199.5t-68 -255.5h-96q14 161 14 278z" />
    <glyph glyph-name="parenleft" unicode="(" horiz-adv-x="915" 
d="M489.5 -247q-164.5 93 -279.5 303t-115 540t115 540t279.5 303t318.5 93v-103q-77 0 -161 -58.5t-150.5 -243.5t-66.5 -531t66.5 -531t150.5 -243.5t161 -58.5v-103q-154 0 -318.5 93z" />
    <glyph glyph-name="parenright" unicode=")" horiz-adv-x="915" 
d="M256 -178.5q84 58.5 150.5 243.5t66.5 531t-66.5 531t-150.5 243.5t-161 58.5v103q154 0 318.5 -93t279.5 -303t115 -540t-115 -540t-279.5 -303t-318.5 -93v103q77 0 161 58.5z" />
    <glyph glyph-name="asterisk" unicode="*" horiz-adv-x="987" 
d="M196 646.5q-32 31.5 -32 77.5q0 21 7.5 43t20.5 40q10 13 83 78l39 35q12 10 25 20.5t26 22.5q60 48 76 66q-35 4 -136 4q-12 0 -60.5 0.5t-78.5 2.5t-41 6q-42 13 -68 42t-26 68q0 52 34 82.5t79 30.5q28 0 50 -9q23 -8 142 -87q9 -6 55.5 -36.5t68.5 -41.5
q-8 50 -20.5 96.5t-30.5 103.5q-16 50 -23.5 78.5t-7.5 48.5q0 57 31 94t86 37q54 0 85.5 -37t31.5 -94q0 -27 -8.5 -59t-26.5 -89q-36 -109 -49 -179q17 9 65 41q23 16 73 48q68 43 96 59.5t43.5 21t38.5 4.5q45 0 78.5 -31t33.5 -85q0 -38 -26 -66.5t-69 -40.5
q-19 -5 -60.5 -6.5t-113.5 -1.5q-15 0 -66 -1t-73 -4q25 -25 88 -75q60 -48 97 -82t64 -72.5t27 -75.5q0 -43 -31.5 -76t-75.5 -33q-29 0 -57.5 16.5t-48.5 44.5q-8 11 -26.5 62.5t-37.5 107.5q-7 19 -25.5 71.5t-27.5 72.5q-16 -38 -49 -135q-20 -58 -39.5 -112t-28.5 -67
q-20 -29 -48 -45t-57 -16q-44 0 -76 31.5z" />
    <glyph glyph-name="plus" unicode="+" horiz-adv-x="1440" 
d="M637 501h-402v146h402v415h166v-415h402v-146h-402v-426h-166v426z" />
    <glyph glyph-name="comma" unicode="," horiz-adv-x="672" 
d="M245.5 -368.5q-16.5 10.5 -16.5 26.5q0 15 15 32q37 40 66 105t29 132q0 25 -8 57q-44 0 -84 23t-65 63.5t-25 88.5q0 83 48.5 132t127.5 49q96 0 150 -65.5t54 -194.5q0 -93 -34 -183t-86.5 -160t-106.5 -109q-10 -7 -27 -7q-21 0 -37.5 10.5z" />
    <glyph glyph-name="hyphen" unicode="-" horiz-adv-x="776" 
d="M96 622h584v-146h-584v146z" />
    <glyph glyph-name="period" unicode="." horiz-adv-x="672" 
d="M167.5 269.5q25.5 42.5 69.5 67.5t98 25t98.5 -25t70.5 -67.5t26 -93.5t-26 -96.5t-71 -72.5t-98 -27t-97.5 27t-70 72t-25.5 97q0 51 25.5 93.5z" />
    <glyph glyph-name="slash" unicode="/" horiz-adv-x="966" 
d="M693 1600h157l-579 -2040h-155z" />
    <glyph glyph-name="zero" unicode="0" horiz-adv-x="1436" 
d="M388 45q-138 74 -211.5 212t-73.5 325q0 190 75 330.5t215 216.5t330 76q192 0 329.5 -75.5t209 -216t71.5 -331.5q0 -187 -73.5 -325t-212.5 -212t-331 -74q-190 0 -328 74zM877.5 121.5q55.5 55.5 77 165.5t21.5 295q0 187 -22.5 300.5t-79 170.5t-159.5 57t-158.5 -57
t-77 -170t-21.5 -301q0 -184 22 -294.5t79 -166t160 -55.5t158.5 55.5z" />
    <glyph glyph-name="one" unicode="1" horiz-adv-x="1003" 
d="M138 13.5q-9 13.5 -9 27.5q0 40 33 44q73 6 134 20.5t61 43.5l1 820q-42 -34 -91.5 -55t-84.5 -21q-30 0 -42.5 22t-12.5 42q0 28 8.5 51.5t27.5 24.5q31 2 100 28.5t134 62.5t89 65h199l-1 -1007q0 -50 48 -72t134 -25q20 -1 28 -11t8 -33q0 -14 -9 -27.5t-25 -13.5
h-705q-16 0 -25 13.5z" />
    <glyph glyph-name="two" unicode="2" horiz-adv-x="1283" 
d="M120.5 63q6.5 16 17.5 25q36 29 162 123q165 123 261.5 208t163 194t66.5 237q0 59 -18.5 118t-62.5 100t-116 41q-126 0 -160 -107l-68 -180q-9 -29 -18 -47.5t-28 -31.5t-52 -13q-39 0 -75.5 15t-60 45.5t-23.5 75.5q0 47 29 106q30 61 100.5 114.5t171.5 86t218 32.5
q257 0 384.5 -90.5t127.5 -263.5q0 -128 -92 -236t-221.5 -188.5t-321.5 -177.5h671l-10 -249h-1052v32q0 15 6.5 31z" />
    <glyph glyph-name="three" unicode="3" horiz-adv-x="1279" 
d="M308.5 -354.5q-110.5 37.5 -177 109t-66.5 167.5q0 59 26.5 103.5t64.5 68t70 23.5q59 0 91 -21t41 -50l-63 -243q30 -42 92.5 -71t150.5 -29q95 0 160.5 43t98.5 120.5t33 179.5q0 188 -83.5 267.5t-231.5 79.5h-93q-13 0 -18.5 11t-5.5 45q0 33 5.5 44.5t18.5 11.5h73
q74 0 140 35.5t107.5 107t41.5 173.5q0 61 -20 127t-70 113t-134 47q-57 0 -97 -23.5t-69 -82.5q-4 -12 -26 -89q-18 -61 -24 -79q-14 -40 -42.5 -59.5t-63.5 -19.5t-68.5 18.5t-54.5 51t-21 71.5q0 89 71 159.5t189 110t252 39.5q158 0 273 -45.5t176 -128t61 -191.5
q0 -101 -46 -183t-126.5 -134t-182.5 -67q129 -1 228 -48t153.5 -133.5t54.5 -201.5q0 -130 -74.5 -235.5t-221 -167.5t-354.5 -62q-128 0 -238.5 37.5z" />
    <glyph glyph-name="four" unicode="4" horiz-adv-x="1330" 
d="M98 0q-7 0 -15 20t-8 42t1.5 34.5t9.5 28.5l523 1033q19 25 39 35.5t45 10.5q54 0 115 -31t103 -73.5t42 -71.5l-660 -864h450l20 314l256 32v-346h250l-13 -164h-237v-328h-276v328h-645z" />
    <glyph glyph-name="five" unicode="5" horiz-adv-x="1227" 
d="M320.5 -353.5q-109.5 38.5 -182 110t-72.5 165.5q0 59 24.5 103.5t59.5 68t67 23.5q59 0 91 -21t41 -50l-63 -243q34 -41 93 -70.5t170 -29.5q131 0 195 113.5t64 319.5q0 93 -28 172.5t-88 128.5t-150 49q-88 0 -166 -39t-139 -107l-68 33l69 817h861l-16 -279h-736
l-42 -412q68 47 166 77.5t200 30.5q157 0 265.5 -56.5t163.5 -157.5t55 -233q0 -155 -75 -281t-215 -198.5t-329 -72.5q-106 0 -215.5 38.5z" />
    <glyph glyph-name="six" unicode="6" horiz-adv-x="1327" 
d="M335.5 51q-124.5 80 -182.5 217.5t-58 313.5q0 206 95 422t295.5 370.5t498.5 174.5l1 -92q-248 -46 -367 -208t-153 -382q137 96 310 96q151 0 253.5 -59t153 -163t50.5 -239q0 -146 -71 -267.5t-202.5 -192.5t-306.5 -71q-192 0 -316.5 80zM824 171.5
q51 105.5 51 300.5q0 180 -55.5 276.5t-170.5 96.5q-108 0 -196 -79q-6 -74 -6 -164q0 -252 45.5 -394t155.5 -142q125 0 176 105.5z" />
    <glyph glyph-name="seven" unicode="7" horiz-adv-x="1135" 
d="M356 911q-50 0 -78 -19.5t-41 -50t-26 -85.5l-11 -41q-5 -17 -21 -25t-35 -8q-15 0 -33 9.5t-18 24.5l35 474h937l43 -38l-552 -1502l-242 1l558 1260h-516z" />
    <glyph glyph-name="eight" unicode="8" horiz-adv-x="1385" 
d="M373.5 18.5q-131.5 48.5 -199.5 139t-68 215.5q0 97 50.5 170t125 117t149.5 63q-82 56 -136 104.5t-86.5 111.5t-32.5 143q0 97 61.5 181t179 135t276.5 51q168 0 281 -43t168 -119t55 -176q0 -109 -84 -189t-205 -122q116 -57 192.5 -113t123 -136.5t46.5 -192.5
q0 -108 -73.5 -196.5t-205.5 -140t-300 -51.5q-186 0 -317.5 48.5zM886.5 943q28.5 65 28.5 179q0 100 -55.5 166t-169.5 66q-110 0 -168.5 -51t-58.5 -156q0 -59 34 -105t107 -91t205 -105q49 32 77.5 97zM901.5 126.5q71.5 61.5 71.5 176.5q0 170 -274 283
q-120 52 -192 92q-85 -80 -99 -292q0 -88 34 -161t101 -116.5t161 -43.5q126 0 197.5 61.5z" />
    <glyph glyph-name="nine" unicode="9" horiz-adv-x="1327" 
d="M709 -74q119 162 153 382q-137 -96 -310 -96q-151 0 -253.5 59t-153 163t-50.5 239q0 146 71 267.5t202.5 192.5t306.5 71q192 0 316.5 -80t182.5 -217.5t58 -313.5q0 -206 -95 -422t-295.5 -370.5t-498.5 -174.5l-1 92q248 46 367 208zM874 409q6 74 6 164
q0 252 -45.5 394t-155.5 142q-125 0 -176 -105.5t-51 -300.5q0 -180 55.5 -276.5t170.5 -96.5q108 0 196 79z" />
    <glyph glyph-name="colon" unicode=":" horiz-adv-x="752" 
d="M210.5 269.5q25.5 42.5 69.5 67.5t98 25t98.5 -25t70.5 -67.5t26 -93.5t-26 -96.5t-71 -72.5t-98 -27t-97.5 27t-70 72t-25.5 97q0 51 25.5 93.5zM210.5 901.5q25.5 42.5 69.5 67.5t98 25t98.5 -25t70.5 -67.5t26 -93.5t-26 -96.5t-71 -72.5t-98 -27t-97.5 27t-70 72
t-25.5 97q0 51 25.5 93.5z" />
    <glyph glyph-name="semicolon" unicode=";" horiz-adv-x="752" 
d="M210.5 901.5q25.5 42.5 69.5 67.5t98 25t98.5 -25t70.5 -67.5t26 -93.5t-26 -96.5t-71 -72.5t-98 -27t-97.5 27t-70 72t-25.5 97q0 51 25.5 93.5zM273.5 -368.5q-16.5 10.5 -16.5 26.5q0 15 15 32q37 40 66 105t29 132q0 25 -8 57q-44 0 -84 23t-65 63.5t-25 88.5
q0 83 48.5 132t127.5 49q96 0 150 -65.5t54 -194.5q0 -93 -34 -183t-86.5 -160t-106.5 -109q-10 -7 -27 -7q-21 0 -37.5 10.5z" />
    <glyph glyph-name="less" unicode="&#x3c;" horiz-adv-x="1440" 
d="M209 633l998 527v-176l-800 -414l800 -407v-174l-998 525v119z" />
    <glyph glyph-name="equal" unicode="=" horiz-adv-x="1440" 
d="M240 846h960v-146h-960v146zM240 418h960v-146h-960v146z" />
    <glyph glyph-name="greater" unicode="&#x3e;" horiz-adv-x="1440" 
d="M233 -11v174l800 407l-800 414v176l998 -527v-119z" />
    <glyph glyph-name="question" unicode="?" horiz-adv-x="1123" 
d="M470.5 673.5q19.5 55.5 48 92t75.5 83.5q45 45 71.5 79t45 84.5t18.5 119.5q0 311 -207 311q-60 0 -107.5 -22t-75.5 -54l-20 -280q-9 -22 -36.5 -30t-82.5 -8q-23 0 -49 18.5t-44.5 53t-18.5 79.5q0 40 17 84q23 60 87.5 116.5t158 92t197.5 35.5q156 0 265.5 -47
t164.5 -130.5t55 -190.5q0 -82 -32 -145t-77.5 -107.5t-119.5 -102.5q-65 -52 -102.5 -87.5t-63 -82t-25.5 -103.5v-54h-162v64q0 76 19.5 131.5zM429.5 7q-44.5 27 -70 72t-25.5 97q0 51 25.5 93.5t69.5 67.5t98 25t98.5 -25t70.5 -67.5t26 -93.5t-26 -96.5t-71 -72.5
t-98 -27t-97.5 27z" />
    <glyph glyph-name="at" unicode="@" horiz-adv-x="1980" 
d="M612.5 -268.5q-177.5 69.5 -300.5 224t-136 395.5q-2 44 -2 65q0 303 139 526t358.5 339.5t454.5 116.5q168 0 318.5 -59.5t250.5 -189t110 -327.5q1 -15 1 -44q0 -208 -95 -369t-228.5 -249t-236.5 -88q-58 0 -97.5 24t-60 62.5t-23.5 80.5q-17 -40 -56 -77t-85.5 -59.5
t-85.5 -22.5q-62 0 -119.5 35t-96 105t-43.5 169q-1 11 -1 32q0 139 55.5 269t158.5 211.5t238 81.5q54 0 95 -26t62.5 -64.5t22.5 -74.5l39 139h202l-215 -608q-15 -40 -15 -81q0 -67 79 -67q65 0 157 75t159 205t67 289q0 24 -1 37q-8 155 -90 261.5t-209 159t-271 52.5
q-231 0 -410.5 -116t-279 -315.5t-99.5 -440.5q0 -38 1 -57q12 -228 124.5 -357t257 -175t278.5 -46q169 0 302.5 51.5t212.5 125.5l65 -42q-89 -102 -231.5 -174t-358.5 -72q-184 0 -361.5 69.5zM944.5 243.5q38.5 32.5 68 77t39.5 75.5l103 310q1 9 1 28q0 120 -105 120
q-85 0 -148 -88t-95.5 -202.5t-29.5 -180.5q4 -82 22 -127t70 -45q36 0 74.5 32.5z" />
    <glyph glyph-name="A" unicode="A" horiz-adv-x="1553" 
d="M1557 79.5q7 -6.5 7 -28.5q0 -15 -9.5 -33t-24.5 -18h-622q-15 0 -24.5 18t-9.5 33q0 17 7 26t26 11l40 2q49 1 68 5.5t19 20.5q0 7 -3 16l-125 345l-479 1l-124 -346q-3 -7 -3 -13q0 -18 25 -23t80 -6l42 -2q19 -2 26 -11t7 -26q0 -15 -9.5 -33t-24.5 -18h-423
q-16 0 -25 15t-9 36q0 22 7 28.5t29 8.5q8 1 26 1q31 1 52.5 5.5t41.5 21t33 49.5l480 1276h234l475 -1276q13 -34 34 -50.5t43 -20.5t55 -5q20 0 29 -1q22 -2 29 -8.5zM688 1190l-233 -627h421z" />
    <glyph glyph-name="B" unicode="B" horiz-adv-x="1551" 
d="M1278 713.5q95 -43.5 146.5 -118t51.5 -174.5q0 -212 -145.5 -316.5t-440.5 -104.5h-746q-15 0 -24.5 18t-9.5 33q0 17 7 26t26 11q73 5 124 19.5t51 44.5l1 1082q0 40 -28 60t-64 26.5t-90 10.5q-22 2 -29 8.5t-7 28.5q0 15 9.5 33t24.5 18h694q271 0 410.5 -74.5
t139.5 -234.5q0 -100 -42.5 -174.5t-115.5 -117.5t-165 -53q127 -8 222 -51.5zM655 802h86q132 0 221.5 64.5t89.5 206.5q0 249 -284 249h-113v-520zM1027.5 166q84.5 65 84.5 252q0 136 -57 199t-129.5 76t-181.5 13h-89v-568q4 -15 42 -26t114 -11q132 0 216.5 65z" />
    <glyph glyph-name="C" unicode="C" horiz-adv-x="1465" 
d="M488.5 40.5q-182.5 70.5 -296.5 235t-114 430.5q0 249 118.5 416.5t300 247t371.5 79.5q150 0 242 -20t168 -50q19 -8 35.5 -13t27.5 -5l17 -320q2 -15 -23.5 -27.5t-42.5 -12.5l-14 -1q-26 0 -50 7t-27 22q-27 149 -102.5 236.5t-232.5 87.5q-103 0 -190 -45.5
t-148 -188.5t-61 -413q0 -256 67 -398.5t160.5 -192.5t193.5 -50q97 0 170 47.5t118.5 126t63.5 174.5q6 33 48 33q18 0 44.5 -9.5t26.5 -24.5l-28 -304q-2 -16 -67 -50.5t-165.5 -61t-209.5 -26.5q-218 0 -400.5 70.5z" />
    <glyph glyph-name="D" unicode="D" horiz-adv-x="1708" 
d="M120.5 18q-9.5 18 -9.5 33q0 17 7 26t26 11q60 5 102.5 19.5t42.5 44.5v1082q0 39 -23 59t-50.5 26t-78.5 12q-22 2 -29 8.5t-7 28.5q0 15 9.5 33t24.5 18h696q260 -1 443 -96.5t275 -250.5t92 -334q0 -244 -116 -410.5t-287 -247t-335 -80.5h-758q-15 0 -24.5 18z
M671.5 121q45.5 -20 162.5 -20q141 0 228 42.5t138 180t51 410.5q0 235 -55.5 364.5t-148 176.5t-223.5 47h-197l-1 -1154q0 -27 45.5 -47z" />
    <glyph glyph-name="E" unicode="E" horiz-adv-x="1477" 
d="M117 77q7 9 26 11q60 5 103 19.5t43 44.5v1082q0 39 -23 59t-50.5 26t-78.5 12q-22 2 -29 8.5t-7 28.5q0 15 9.5 33t24.5 18h1159l35 -325q1 -15 -15 -24.5t-31 -9.5q-54 0 -72 33q-13 25 -42 84q-28 58 -45.5 85.5t-43 42.5t-66.5 15h-391v-542h267q24 3 46 35t37 72.5
t18 63.5q4 32 46 32q15 0 35 -9.5t20 -24.5v-443q0 -15 -20 -24.5t-35 -9.5q-19 0 -33 7.5t-16 25.5q-2 25 -17 68.5t-38 77t-49 33.5h-261v-485q0 -88 91 -96h289q60 0 104.5 26t84 84t87.5 162q7 16 28 24.5t40 8.5q21 0 40.5 -9t21.5 -25l-40 -372h-1225q-15 0 -24.5 18
t-9.5 33q0 17 7 26z" />
    <glyph glyph-name="F" unicode="F" horiz-adv-x="1375" 
d="M119.5 18q-9.5 18 -9.5 33q0 17 7 26t26 11q65 4 100.5 18.5t35.5 45.5v1082q0 40 -19 60.5t-47.5 27t-75.5 9.5q-22 2 -29 8.5t-7 28.5q0 15 9.5 33t24.5 18l1132 -1l39 -348q0 -16 -12 -25t-25 -9q-59 0 -77 33q-24 45 -42 84q-31 64 -51 96.5t-48 51.5t-69 19h-367
v-574h269q24 3 46 35t37 72.5t18 63.5q4 32 46 32q14 0 27.5 -9t13.5 -25v-443q0 -16 -13.5 -25t-27.5 -9q-19 0 -33 7.5t-16 25.5q-2 25 -17 68.5t-38 77t-49 33.5h-263v-453q0 -40 44.5 -64t105 -34.5t112.5 -10.5q18 0 27 -8t9 -29q0 -15 -9.5 -33t-24.5 -18h-735
q-15 0 -24.5 18z" />
    <glyph glyph-name="G" unicode="G" horiz-adv-x="1653" 
d="M520.5 44q-186.5 74 -315 239.5t-128.5 422.5t126 424t314 243t379 76q172 0 303.5 -27.5t204.5 -60.5l22 -310q1 -16 -19.5 -28t-36.5 -12l-14 -1q-24 0 -46.5 7t-25.5 22q-39 144 -130 229t-260 85q-93 0 -192 -52.5t-172.5 -196.5t-73.5 -398q0 -227 72.5 -371
t175.5 -207t199 -63q126 0 172.5 36t46.5 93v262q0 40 -28 60t-63.5 26t-94.5 11q-22 2 -29 8.5t-7 28.5q0 15 9.5 33t24.5 18h625q15 0 24.5 -18t9.5 -33q0 -17 -7 -26t-26 -11q-52 -6 -80.5 -20t-28.5 -44l1 -366q-17 -25 -96 -62t-202.5 -64t-267.5 -27q-179 0 -365.5 74
z" />
    <glyph glyph-name="H" unicode="H" horiz-adv-x="1870" 
d="M1771 79.5q7 -6.5 7 -28.5q0 -15 -9.5 -33t-24.5 -18h-635q-15 0 -24.5 18t-9.5 33q0 17 7 26t26 11q60 5 103 19.5t43 44.5v540h-638v-507q0 -40 23 -60t53 -26.5t75 -10.5q22 -2 29 -8.5t7 -28.5q0 -15 -9.5 -33t-24.5 -18h-625q-15 0 -24.5 18t-9.5 33q0 17 7 26
t26 11q136 11 136 64v1082q0 40 -21 60.5t-49.5 26.5t-71.5 10q-22 2 -29 8.5t-7 28.5q0 15 9.5 33t24.5 18h625q15 0 24.5 -18t9.5 -33q0 -17 -7 -26t-26 -11q-145 -11 -145 -64v-453h638v420q0 39 -23 59t-50.5 26t-78.5 12q-22 2 -29 8.5t-7 28.5q0 15 9.5 33t24.5 18
h635q15 0 24.5 -18t9.5 -33q0 -17 -7 -26t-26 -11q-145 -11 -145 -64v-1082q0 -40 23 -59.5t50 -25.5t78 -12q22 -2 29 -8.5z" />
    <glyph glyph-name="I" unicode="I" horiz-adv-x="913" 
d="M119.5 18q-9.5 18 -9.5 33q0 17 7 26t26 11q60 5 102.5 19.5t42.5 44.5l1 1082q0 40 -23.5 60t-53.5 26.5t-75 10.5q-22 2 -29 8.5t-7 28.5q0 15 9.5 33t24.5 18h635q15 0 24.5 -18t9.5 -33q0 -17 -7 -26t-26 -11q-145 -11 -145 -64l-1 -1082q0 -40 23.5 -60t53.5 -26.5
t75 -10.5q22 -2 29 -8.5t7 -28.5q0 -15 -9.5 -33t-24.5 -18h-635q-15 0 -24.5 18z" />
    <glyph glyph-name="J" unicode="J" horiz-adv-x="1219" 
d="M289.5 2.5q-84.5 32.5 -152.5 91.5q-49 42 -73.5 101t-24.5 123q0 105 53.5 164t153.5 59q36 0 64.5 -12t44 -30.5t15.5 -36.5l-59 -378q60 -25 129 -25q107 0 157.5 82.5t50.5 264.5l1 828q0 40 -32 60t-72.5 26.5t-101.5 10.5q-22 2 -29 8.5t-7 28.5q0 15 9.5 33
t24.5 18h705q15 0 24.5 -18t9.5 -33q0 -17 -7.5 -26.5t-25.5 -10.5q-81 -3 -123.5 -18t-42.5 -46v-828q0 -182 -80.5 -286.5t-199 -143.5t-252.5 -39q-75 0 -159.5 32.5z" />
    <glyph glyph-name="K" unicode="K" horiz-adv-x="1673" 
d="M119.5 18q-9.5 18 -9.5 33q0 17 7 26t26 11q55 4 100 24t45 50l1 1072q0 39 -23 59t-50.5 26t-78.5 12q-22 2 -29 8.5t-7 28.5q0 15 9.5 33t24.5 18h625q15 0 24.5 -18t9.5 -33q0 -17 -7.5 -26.5t-25.5 -10.5q-52 -4 -93.5 -19t-41.5 -45l-1 -1082q0 -40 21 -60t47 -25.5
t74 -11.5q22 -2 29 -8.5t7 -28.5q0 -15 -9.5 -33t-24.5 -18h-625q-15 0 -24.5 18zM1154.5 30q-31.5 30 -70.5 92q-37 60 -101 178q-71 132 -121 212t-107.5 134.5t-114.5 50.5l538 579q9 11 9 18q0 17 -30 23.5t-85 12.5q-18 2 -24.5 11t-6.5 26q0 15 9.5 33t24.5 18h492
q15 0 24.5 -18t9.5 -33q0 -37 -33 -37q-54 0 -111 -18.5t-90 -51.5l-397 -399q50 -22 118.5 -116t177.5 -266q91 -143 121 -186q71 -100 126 -150t93 -54q21 -2 28.5 -11t7.5 -32q0 -14 -9.5 -30t-24.5 -16h-383q-39 0 -70.5 30z" />
    <glyph glyph-name="L" unicode="L" horiz-adv-x="1404" 
d="M120.5 18q-9.5 18 -9.5 33q0 17 7 26t26 11q55 4 100 24t45 50v1072q0 40 -21.5 60.5t-52 27t-78.5 9.5q-22 2 -29 8.5t-7 28.5q0 15 9.5 33t24.5 18h685q15 0 24.5 -18t9.5 -33q0 -37 -33 -37q-93 0 -142.5 -21t-49.5 -73v-1060q0 -45 23 -60.5t66 -15.5h274
q44 0 90.5 52t86.5 130t66 157q5 16 31.5 24.5t47.5 8.5q22 0 40.5 -9t16.5 -25l-59 -439h-1167q-15 0 -24.5 18z" />
    <glyph glyph-name="M" unicode="M" horiz-adv-x="2096" 
d="M83.5 18q-9.5 18 -9.5 33q0 17 7 26t26 11q54 3 89 10t60.5 27t25.5 59v1050q0 40 -27.5 60t-63.5 26.5t-90 10.5q-22 2 -29 8.5t-7 28.5q0 15 9.5 32.5t24.5 18.5h640v-5l335 -932l320 849q6 15 11.5 44t5.5 44h577q15 0 24.5 -18t9.5 -33q0 -17 -7 -26t-26 -11
q-145 -11 -145 -64v-1082q0 -40 23 -59.5t50 -25.5t78 -12q22 -2 29 -8.5t7 -28.5q0 -15 -9.5 -33t-24.5 -18h-645q-15 0 -24.5 18t-9.5 33q0 17 7 26t26 11q63 5 109 20t46 44v1129h-28l-480 -1281h-57l-524 1281h-38v-1096q0 -39 30 -59.5t68 -27t94 -10.5q22 -2 29 -8.5
t7 -28.5q0 -15 -9.5 -33t-24.5 -18h-465q-15 0 -24.5 18z" />
    <glyph glyph-name="N" unicode="N" horiz-adv-x="1719" 
d="M58.5 18q-9.5 18 -9.5 33q0 17 7 26t26 11q185 14 185 84v1008q0 40 -33 73t-78.5 53.5t-79.5 24.5q-22 2 -29 8.5t-7 28.5q0 15 9.5 33t24.5 18h488l810 -952h12v767q0 39 -30 59t-58.5 25.5t-93.5 12.5q-22 2 -29 8.5t-7 28.5q0 15 9.5 33t24.5 18h475q15 0 24.5 -18
t9.5 -33q0 -17 -7 -26t-26 -11q-175 -20 -175 -92v-1126q0 -18 3 -38l3 -35q3 -35 -33.5 -52.5t-76.5 -17.5q-15 0 -30.5 6.5t-23.5 15.5l-932 1098h-17v-905q0 -35 28.5 -55t65 -27.5t87.5 -12.5l21 -2q22 -2 29 -8.5t7 -28.5q0 -15 -9.5 -33t-24.5 -18h-515
q-15 0 -24.5 18z" />
    <glyph glyph-name="O" unicode="O" horiz-adv-x="1679" 
d="M445 70.5q-169 99.5 -259.5 269.5t-90.5 376t90 373t259 263.5t395 96.5t395 -96.5t259.5 -263.5t90.5 -373t-91 -376t-260 -269.5t-394 -99.5t-394 99.5zM1114 233.5q87 168.5 87 480.5q0 310 -89.5 476t-274.5 166t-272.5 -165.5t-87.5 -476.5q0 -310 90.5 -479.5
t275.5 -169.5q184 0 271 168.5z" />
    <glyph glyph-name="P" unicode="P" horiz-adv-x="1436" 
d="M129.5 18q-9.5 18 -9.5 33q0 17 7 26t26 11q127 10 127 64v1082q0 40 -21 60t-47.5 25.5t-74.5 11.5q-22 2 -29 8.5t-7 28.5q0 15 9.5 33t24.5 18h295q84 0 228 6q124 4 170 4q553 0 553 -419q0 -138 -62 -239.5t-192.5 -158.5t-328.5 -57h-183v-370q0 -39 38.5 -59.5
t83 -27t110.5 -10.5q22 -2 29 -8.5t7 -28.5q0 -15 -9.5 -33t-24.5 -18h-695q-15 0 -24.5 18zM931.5 728q81.5 77 81.5 261q0 135 -31.5 209.5t-93.5 104t-163 29.5h-110v-681h110q125 0 206.5 77z" />
    <glyph glyph-name="Q" unicode="Q" horiz-adv-x="1679" 
d="M1142.5 -216.5q83.5 -90.5 302.5 -86.5v-90q-23 -10 -80 -18t-133 -8q-210 0 -366 85t-200 322q-176 35 -305 139.5t-197.5 257.5t-68.5 331q0 206 90 373t259 263.5t395 96.5t395 -96.5t259.5 -263.5t90.5 -373q0 -172 -64 -321t-185.5 -253.5t-287.5 -145.5
q12 -122 95.5 -212.5zM567.5 234.5q90.5 -169.5 275.5 -169.5q184 0 271 168.5t87 480.5q0 310 -89.5 476t-274.5 166t-272.5 -165.5t-87.5 -476.5q0 -310 90.5 -479.5z" />
    <glyph glyph-name="R" unicode="R" horiz-adv-x="1633" 
d="M119.5 18q-9.5 18 -9.5 33q0 17 7 26t26 11q136 11 136 64l1 1082q0 40 -21 60t-47.5 25.5t-74.5 11.5q-22 2 -29 8.5t-7 28.5q0 15 9.5 33t24.5 18l109 1q27 1 82 1q54 0 200 4q170 4 274 4q276 0 422.5 -93t146.5 -286q0 -126 -50 -205t-128.5 -121t-187.5 -70
q90 -9 146.5 -49t88.5 -94t71 -146q26 -59 41.5 -92.5t36.5 -66.5q32 -61 65.5 -87t74.5 -30q21 -2 28.5 -11t7.5 -32q0 -14 -9.5 -30t-24.5 -16h-341q-53 0 -90 39t-60.5 96t-54.5 156q-34 110 -62 176t-75.5 112t-117.5 46h-119v-440q0 -40 25 -60.5t59 -26.5t86 -10
q22 -2 29 -8.5t7 -28.5q0 -15 -9.5 -33t-24.5 -18h-637q-15 0 -24.5 18zM957.5 781.5q71.5 70.5 71.5 237.5q0 155 -68.5 234t-210.5 79h-141v-621h144q133 0 204.5 70.5z" />
    <glyph glyph-name="S" unicode="S" horiz-adv-x="1329" 
d="M538 -11q-75 19 -113.5 34t-46.5 18q-16 6 -38 17q-3 1 -13 6t-18 5q-11 0 -18.5 -6t-17.5 -17q-20 -23 -37.5 -32t-36.5 -9q-26 0 -41 13.5t-14 34.5q2 22 2 45v40q0 67 -4.5 135t-5.5 79q-5 62 -5 85q0 70 58 70q48 0 60 -42q11 -42 26 -83t42 -88q61 -105 168 -169
t232 -64q58 0 108 20t80.5 60.5t30.5 98.5q0 80 -44 139.5t-106.5 101t-168.5 96.5l-63 33q-128 68 -203.5 118.5t-132 131.5t-56.5 193q0 117 64.5 207t180 139t263.5 49q77 0 129.5 -10t102.5 -27q5 -2 28.5 -8.5t41.5 -6.5q15 0 22.5 4t16 12.5t14.5 12.5q11 7 28 7
q26 0 48.5 -11.5t22.5 -26.5q1 -51 8 -126t9 -97q8 -66 8 -85q0 -31 -17.5 -44.5t-45.5 -13.5q-36 0 -50 23q38 -76 -10.5 48t-126 192.5t-214.5 68.5q-103 0 -173.5 -41.5t-70.5 -131.5q0 -76 51 -137.5t124.5 -106.5t187.5 -102q134 -66 222.5 -124.5t149 -141.5
t60.5 -193q0 -124 -71.5 -217.5t-192 -144t-263.5 -50.5q-96 0 -171 19z" />
    <glyph glyph-name="T" unicode="T" horiz-adv-x="1401" 
d="M309.5 18q-9.5 18 -9.5 33q0 17 7 26t26 11q91 5 148.5 24.5t57.5 69.5v1138h-250q-52 0 -85.5 -60.5t-49 -134.5t-19.5 -126q-2 -17 -19.5 -25t-37.5 -8q-15 0 -33 9.5t-18 24.5q5 150 12.5 284.5t17.5 134.5h1287q10 0 17.5 -134.5t12.5 -284.5q0 -15 -18 -24.5
t-33 -9.5q-20 0 -37.5 8t-19.5 25q-12 108 -46 214.5t-108 106.5h-237v-1135q0 -40 31 -60t71 -26.5t100 -10.5q22 -2 29 -8.5t7 -28.5q0 -15 -9.5 -33t-24.5 -18h-745q-15 0 -24.5 18z" />
    <glyph glyph-name="U" unicode="U" horiz-adv-x="1707" 
d="M1378 228q-65 -123 -187 -190t-290 -67q-309 0 -485 133t-175 444l1 686q0 40 -21 60.5t-49.5 26.5t-71.5 10q-22 2 -29 8.5t-7 28.5q0 15 9.5 33t24.5 18h634q15 0 24.5 -18t9.5 -33q0 -17 -7.5 -26.5t-25.5 -10.5q-65 -5 -110 -19.5t-45 -44.5l-1 -743
q0 -168 35.5 -268.5t107.5 -145.5t185 -45q141 0 235 62.5t138 164.5t44 222v730q0 43 -53 61t-124 26q-22 2 -29 8.5t-7 28.5q0 15 9.5 33t24.5 18h467q15 0 24.5 -18t9.5 -33q0 -17 -7.5 -26.5t-25.5 -10.5q-79 -3 -122.5 -28.5t-43.5 -72.5l-2 -714q0 -165 -65 -288z" />
    <glyph glyph-name="V" unicode="V" horiz-adv-x="1561" 
d="M120.5 1304q-21.5 16 -44 20.5t-56.5 5.5q-19 0 -27 1q-22 2 -29 8.5t-7 28.5q0 15 9.5 33t24.5 18h655q15 0 24.5 -18t9.5 -33q0 -17 -7 -26t-26 -11l-41 -2q-53 -1 -76.5 -6t-23.5 -23q0 -5 3 -13l403 -940l357 910q2 8 2 11q0 28 -45 43.5t-115 19.5q-19 2 -26 11
t-7 26q0 15 9.5 33t24.5 18h458q15 0 24.5 -18t9.5 -33q0 -22 -7.5 -29t-28.5 -8q-56 -2 -87.5 -10.5t-48 -23.5t-28.5 -43l-527 -1272h-123l-600 1272q-12 34 -33.5 50z" />
    <glyph glyph-name="W" unicode="W" horiz-adv-x="2307" 
d="M123.5 1274.5q-18.5 24.5 -46 37t-75.5 19.5q-23 3 -30 9.5t-7 27.5q0 15 9.5 33t24.5 18h651q15 0 24.5 -18t9.5 -33q0 -17 -7 -26t-26 -11q-79 0 -112.5 -20t-33.5 -52q0 -14 5 -29l315 -812l325 971h174l385 -941l292 785q5 15 5 28q0 70 -184 70q-19 2 -26 11t-7 26
q0 15 9.5 33t24.5 18h485q15 0 24.5 -18t9.5 -33q0 -22 -7.5 -29.5t-28.5 -7.5q-67 0 -104.5 -18t-55.5 -48t-38 -85l-450 -1198h-123l-412 1005l-339 -1005h-123l-502 1223q-17 45 -35.5 69.5z" />
    <glyph glyph-name="X" unicode="X" horiz-adv-x="1656" 
d="M44.5 18q-9.5 18 -9.5 33q0 22 7 28.5t29 8.5q58 6 101 20t80 57l421 492l-436 597q-29 45 -69 58.5t-95 16.5l-22 2q-22 2 -29 8.5t-7 28.5q0 15 9.5 33t24.5 18h695q15 0 24.5 -18t9.5 -33q0 -17 -7 -26t-26 -11q-62 -3 -92.5 -7t-42.5 -12t-12 -22q0 -5 5 -13
l294 -406l293 386q7 10 7 20q0 22 -35 36.5t-90 17.5q-19 2 -26 11t-7 26q0 15 9.5 33t24.5 18h455q15 0 24.5 -18t9.5 -33q0 -22 -7 -28.5t-29 -8.5q-9 -1 -46.5 -4t-73 -20.5t-61.5 -52.5l-388 -468l468 -621q29 -45 67.5 -58.5t91.5 -16.5l22 -2q22 -2 29 -8.5t7 -28.5
q0 -15 -9.5 -33t-24.5 -18h-705q-15 0 -24.5 18t-9.5 33q0 17 7 26t26 11q69 -2 112.5 6.5t43.5 24.5q0 10 -5.5 21t-18.5 30l-304 410l-321 -418q-6 -9 -6 -17q0 -23 41.5 -38.5t102.5 -18.5q19 -2 26 -11t7 -26q0 -15 -9.5 -33t-24.5 -18h-477q-15 0 -24.5 18z" />
    <glyph glyph-name="Y" unicode="Y" horiz-adv-x="1499" 
d="M1523.5 1405q9.5 -14 9.5 -27q0 -22 -7 -28.5t-29 -8.5q-38 -4 -59.5 -8.5t-46 -23t-45.5 -55.5l-405 -719v-370q0 -33 19.5 -49.5t46.5 -21t71 -5.5q24 0 35 -1q25 -3 35.5 -9.5t10.5 -27.5q0 -15 -9.5 -33t-24.5 -18h-695q-15 0 -24.5 18t-9.5 33t12 25t31 12l37 2
q62 1 95 12t33 50v373l-443 729q-23 37 -49.5 55t-49 23t-60.5 9q-22 2 -29 8.5t-7 28.5q0 13 9.5 27t24.5 14h705q16 0 25 -13.5t9 -27.5q0 -17 -7 -26t-26 -11q-9 -1 -27 -1q-66 -4 -94.5 -6.5t-43 -10t-14.5 -22.5q0 -7 9 -22t10 -17l332 -613l348 628q8 15 8 22
q0 18 -36.5 26.5t-114.5 15.5q-18 1 -25.5 10.5t-7.5 26.5q0 14 9 27.5t25 13.5h415q15 0 24.5 -14z" />
    <glyph glyph-name="Z" unicode="Z" horiz-adv-x="1412" 
d="M569 214l-98 -131h494q43 0 94.5 49.5t95.5 130t68 167.5q2 19 11 26t26 7t44 -9.5t27 -24.5l-50 -388q-18 -40 -47 -41h-1135q-20 0 -27 9.5t-7 20.5v6q0 24 42 87l720 1082l99 131h-462q-42 0 -83 -47t-73.5 -120t-50.5 -150q-4 -19 -12.5 -26t-24.5 -7t-38.5 9.5
t-22.5 24.5l29 358q18 40 47 41h1062q13 0 23.5 -6.5t10.5 -19.5v-16q0 -8 -3 -19t-7 -18z" />
    <glyph glyph-name="bracketleft" unicode="[" horiz-adv-x="915" 
d="M190 1535l562 1v-117h-249v-1630h249v-117l-562 1v1862z" />
    <glyph glyph-name="backslash" unicode="\" horiz-adv-x="966" 
d="M761 -540h-155l-579 2040h157z" />
    <glyph glyph-name="bracketright" unicode="]" horiz-adv-x="915" 
d="M163 -211h249v1630h-249v117l562 -1v-1862l-562 -1v117z" />
    <glyph glyph-name="asciicircum" unicode="^" horiz-adv-x="1440" 
d="M660 1428h119l477 -1129h-206l-331 831l-330 -831h-204z" />
    <glyph glyph-name="underscore" unicode="_" horiz-adv-x="1440" 
d="M1465 -190v-106h-1490v106h1490z" />
    <glyph glyph-name="grave" unicode="`" horiz-adv-x="1024" 
d="M490.5 1230.5q-72.5 47.5 -152.5 95.5q-75 46 -87 57q-15 14 -24 37.5t-9 49.5q0 51 32 84t81 33q28 0 54.5 -10t42.5 -26t64 -88q61 -88 105.5 -149t104.5 -135l-56 -58q-83 62 -155.5 109.5z" />
    <glyph glyph-name="a" unicode="a" horiz-adv-x="1220" 
d="M191.5 439q94.5 74 230 107.5t306.5 51.5v165q0 89 -37.5 122.5t-111.5 33.5q-86 0 -114 -17l-159 -267q-71 0 -116.5 39.5t-45.5 101.5q0 80 76.5 133.5t187 79t214.5 25.5q148 0 245 -35.5t143 -98t46 -144.5v-538q0 -39 11 -65.5t27 -26.5q12 0 55 9l26 4
q16 0 23 -17.5t7 -39.5q0 -13 -6 -18q-16 -11 -57.5 -27t-105 -29t-137.5 -13q-75 0 -109 26t-38.5 50t-4.5 58v3q-64 -67 -154.5 -101.5t-197.5 -34.5q-67 0 -136 28t-115.5 88t-46.5 150q0 123 94.5 197zM470.5 159q34.5 -39 96.5 -39q99 0 161 76v322q-85 -13 -146.5 -36
t-103.5 -78t-42 -152q0 -54 34.5 -93z" />
    <glyph glyph-name="b" unicode="b" horiz-adv-x="1322" 
d="M148 25v1304q0 46 -16.5 69.5t-39.5 31.5t-58 12q-31 5 -35 6q-12 5 -18 14t-6 26q0 14 6.5 28.5t17.5 15.5q61 5 214.5 10.5t219.5 5.5q12 0 19.5 -13t7.5 -26q0 -5 -2 -9v-485l-5 -138q44 65 139 101t190 36q157 0 257 -71.5t145.5 -188.5t45.5 -261q0 -139 -57.5 -258
t-172.5 -191.5t-280 -72.5q-267 0 -404 69q-48 -30 -74 -52q-16 -13 -25.5 -16.5t-33.5 -3.5q-35 0 -35 57zM831.5 181.5q61.5 105.5 61.5 311.5q0 182 -59 279t-195 97q-51 0 -104 -24.5t-77 -68.5v-612q9 -15 37 -36t63.5 -36.5t64.5 -15.5q147 0 208.5 105.5z" />
    <glyph glyph-name="c" unicode="c" horiz-adv-x="1088" 
d="M211.5 108q-141.5 137 -141.5 382q0 161 72 279.5t201.5 181.5t299.5 63q154 0 249 -48t137 -146q9 -20 11.5 -33.5t2.5 -31.5q0 -49 -24 -82.5t-57.5 -49.5t-61.5 -16q-34 0 -64 19.5t-39 40.5l-103 245q-19 17 -56 17q-64 0 -114.5 -45t-79.5 -143.5t-29 -250.5
q0 -127 36 -213.5t93.5 -129t124.5 -42.5q81 0 151 26.5t113 76.5q1 1 5.5 6.5t9.5 7.5t11 1l44 -21q10 -4 10 -12q0 -6 -6 -17q-51 -89 -151 -145.5t-213 -56.5q-290 0 -431.5 137z" />
    <glyph glyph-name="d" unicode="d" horiz-adv-x="1358" 
d="M287 42.5q-100 71.5 -145.5 188.5t-45.5 261q0 139 57.5 258t172.5 191.5t280 72.5q85 0 144 -13.5t123 -52.5l-9 157v224q0 66 -51.5 92t-149.5 33q-12 5 -18 14t-6 26q0 14 7 28.5t17 15.5q156 10 402 10h83q11 0 20.5 -9.5t9.5 -30.5v-1333q0 -40 16.5 -60.5t39 -26.5
t56.5 -10q22 -2 29 -8.5t7 -28.5q0 -13 -9.5 -27t-24.5 -14h-344q-38 0 -54.5 11.5t-19.5 31.5t-2 65q-48 -66 -141 -101.5t-187 -35.5q-157 0 -257 71.5zM788 140.5q51 24.5 76 68.5v592q-8 24 -35 49.5t-61.5 42t-64.5 16.5q-146 0 -208 -108.5t-62 -308.5
q0 -376 254 -376q50 0 101 24.5z" />
    <glyph glyph-name="e" unicode="e" horiz-adv-x="1171" 
d="M210 108q-141 137 -141 394q0 161 75.5 277t202.5 175.5t279 59.5q222 0 331 -86.5t137 -253.5q9 -54 9 -165l-694 -1q0 -145 45.5 -235t115.5 -129t148 -39q92 0 154.5 24t109.5 79q1 1 5.5 6.5t9.5 7.5t11 1l44 -21q10 -4 10 -12q0 -6 -6 -17q-54 -94 -158 -148
t-256 -54q-291 0 -432 137zM735 851.5q-35 77.5 -112 77.5q-81 0 -139.5 -80.5t-71.5 -247.5h358q0 173 -35 250.5z" />
    <glyph glyph-name="f" unicode="f" horiz-adv-x="805" 
d="M92 13.5q-9 13.5 -9 27.5q0 17 7 26t26 11q45 4 76 16.5t31 37.5v755h-145q-11 1 -17.5 15.5t-6.5 28.5q0 18 7 29.5t18 16.5l144 17v82q0 132 48.5 243t146.5 177.5t239 66.5q74 0 125.5 -20t77.5 -53.5t26 -73.5t-16 -72.5t-43 -50.5t-59 -18q-11 1 -11 3l-128 171
q-29 0 -48.5 -27t-30.5 -102t-11 -213v-113h221q11 -1 17.5 -11t6.5 -23q0 -21 -7 -45t-17 -28h-221v-722q0 -35 27 -53.5t61.5 -24.5t82.5 -9q22 -2 29 -8.5t7 -28.5q0 -14 -9 -27.5t-25 -13.5h-595q-16 0 -25 13.5z" />
    <glyph glyph-name="g" unicode="g" horiz-adv-x="1181" 
d="M304.5 -451q-115.5 26 -188.5 84.5t-73 151.5q0 82 49.5 135.5t146.5 84.5q-85 35 -113.5 80.5t-28.5 105.5q0 71 58 123t143 79q-105 41 -154.5 119.5t-49.5 175.5t51 170.5t154 114.5t255 41q108 0 177 -20.5t124 -62.5q38 35 84 59t92 24q69 0 118.5 -39t49.5 -121
q0 -68 -22.5 -102t-71.5 -34l-123 176q-44 0 -74 -16q60 -80 60 -186q0 -154 -106 -245t-333 -91q-95 0 -170 18q-23 -19 -37 -46.5t-14 -54.5q0 -38 40 -48.5t128 -10.5h278q105 0 187.5 -38.5t129 -111.5t46.5 -172q0 -90 -64 -175t-191.5 -139.5t-308.5 -54.5
q-133 0 -248.5 26zM645 513.5q34 70.5 34 178.5q0 106 -34 170t-111 64q-76 0 -105.5 -65.5t-29.5 -176.5t29 -176t106 -65t111 70.5zM724.5 -355q61.5 24 96 65.5t34.5 94.5q0 65 -37.5 108.5t-130.5 43.5h-193q-33 0 -91.5 6t-78.5 16q-12 -32 -17.5 -60.5t-5.5 -78.5
q0 -77 44.5 -126t109.5 -71t128 -22q80 0 141.5 24z" />
    <glyph glyph-name="h" unicode="h" horiz-adv-x="1392" 
d="M50 13.5q-9 13.5 -9 27.5q0 17 7 26t26 11q47 4 81.5 16.5t34.5 37.5v1197q0 46 -16.5 70t-39 32t-58.5 13q-31 5 -35 6q-12 5 -18 14t-6 26q0 14 6.5 28.5t17.5 15.5q222 14 430 14q10 0 19 -9t11 -31v-516l-5 -147q25 27 92 67.5t156.5 71t177.5 30.5
q132 0 211.5 -59.5t79.5 -218.5v-571q0 -34 16.5 -52t39.5 -23.5t58 -9.5q9 0 23 -2q18 -2 25.5 -9.5t7.5 -27.5q0 -14 -9 -27.5t-25 -13.5h-547q-16 0 -25 13.5t-9 27.5q0 18 6 26.5t25 10.5q37 3 71.5 17.5t34.5 36.5v589q0 34 -6 60.5t-32.5 48.5t-80.5 22
q-51 0 -108 -20t-104.5 -49t-72.5 -56v-562q0 -35 17.5 -53.5t40.5 -24t59 -9.5q22 -2 29 -8.5t7 -28.5q0 -13 -9.5 -27t-24.5 -14h-545q-16 0 -25 13.5z" />
    <glyph glyph-name="i" unicode="i" horiz-adv-x="724" 
d="M81 13.5q-9 13.5 -9 27.5q0 17 7.5 26.5t25.5 10.5q47 4 81 16.5t34 37.5l1 646q0 46 -16.5 70t-39 32t-58.5 13q-31 5 -35 6q-12 5 -18 14t-6 26q0 14 6.5 28.5t17.5 15.5q222 14 435 14q11 0 20.5 -9.5t9.5 -30.5v-792q0 -35 18.5 -53.5t42.5 -24t61 -9.5
q22 -2 29 -8.5t7 -28.5q0 -13 -9.5 -27t-24.5 -14h-555q-16 0 -25 13.5zM277 1193.5q-43 23.5 -68 65t-25 94.5t25 95t68 65.5t95 23.5q51 0 94 -23.5t68.5 -65.5t25.5 -95t-25.5 -94.5t-68.5 -65t-94 -23.5q-52 0 -95 23.5z" />
    <glyph glyph-name="j" unicode="j" horiz-adv-x="709" 
d="M-41.5 -418.5q-62.5 30.5 -96.5 76t-34 88.5q0 36 17.5 68t47 51t63.5 19q27 0 43.5 -10.5t35.5 -40t65 -109.5l41 -71q41 0 65.5 70t24.5 220l1 835q0 46 -18 70t-42.5 32t-62.5 13q-32 5 -36 6q-12 5 -18 14t-6 26q0 14 6.5 28.5t17.5 15.5q219 14 445 14
q11 0 20.5 -9.5t9.5 -30.5l-1 -869q0 -159 -33.5 -275t-131 -189t-279.5 -73q-82 0 -144.5 30.5zM263 1193.5q-43 23.5 -68 65t-25 94.5t25 95t68 65.5t95 23.5q51 0 94 -23.5t68.5 -65.5t25.5 -95t-25.5 -94.5t-68.5 -65t-94 -23.5q-52 0 -95 23.5z" />
    <glyph glyph-name="k" unicode="k" horiz-adv-x="1294" 
d="M58 13.5q-9 13.5 -9 27.5q0 17 7 26t26 11q96 8 96 54v1197q0 46 -16.5 70t-39 32t-58.5 13q-31 5 -35 6q-12 5 -18 14t-6 26q0 14 6.5 28.5t17.5 15.5q221 14 430 14q11 0 20.5 -9.5t9.5 -30.5v-1023l374 357q9 8 9 15q0 19 -39.5 32.5t-84.5 16.5q-18 2 -24.5 13
t-6.5 30q0 14 9.5 29.5t24.5 15.5h457q16 0 25 -15.5t9 -29.5q0 -19 -8.5 -31t-24.5 -12q-47 0 -98.5 -19.5t-89.5 -49.5l-187 -171q46 -94 99.5 -186t122.5 -203q13 -20 48 -79q30 -49 70 -82t78 -38q18 -2 25.5 -9.5t7.5 -27.5q0 -14 -9 -27.5t-25 -13.5h-399
q-18 0 -56 74.5t-106 222.5q-50 115 -76 164l-125 -121v-175q0 -36 13 -54t32.5 -24t51.5 -9q22 -2 29 -8.5t7 -28.5q0 -14 -9 -27.5t-25 -13.5h-505q-16 0 -25 13.5z" />
    <glyph glyph-name="l" unicode="l" horiz-adv-x="705" 
d="M56 13.5q-9 13.5 -9 27.5q0 17 7.5 26.5t25.5 10.5q47 4 81 16.5t34 37.5l1 1196q0 47 -19 71t-45 32t-67 13q-34 5 -38 6q-12 5 -18 14t-6 26q0 14 7 28.5t17 15.5q216 14 445 14q11 0 20.5 -9.5t9.5 -30.5v-1343q0 -35 18.5 -53.5t42.5 -24t61 -9.5q22 -2 29 -8.5
t7 -28.5q0 -14 -9 -27.5t-25 -13.5h-545q-16 0 -25 13.5z" />
    <glyph glyph-name="m" unicode="m" horiz-adv-x="2080" 
d="M87 13.5q-9 13.5 -9 27.5q0 17 7 26t26 11q45 4 75.5 16.5t30.5 37.5v646q0 46 -17 70t-39.5 32t-58.5 13q-29 4 -34 6q-12 5 -18 14t-6 26q0 14 6.5 28.5t17.5 15.5q279 12 425 14q10 0 19 -9t11 -31v-112q26 28 89.5 68t150.5 70.5t177 30.5q95 0 162 -34t98 -120
q76 57 187.5 105.5t246.5 48.5q83 0 142 -24.5t94.5 -90t35.5 -183.5v-551q0 -50 28.5 -65.5t59 -18t39.5 -3.5q18 -2 25.5 -9.5t7.5 -27.5q0 -14 -9 -27.5t-25 -13.5h-537q-16 0 -25 13.5t-9 27.5q0 17 6.5 26t24.5 11q36 3 66 17.5t30 36.5v579q0 39 -6 70t-32.5 56
t-80.5 25q-124 0 -250 -103q2 -28 2 -43v-551q0 -51 23 -66t50.5 -17.5t35.5 -3.5q18 -2 25.5 -9.5t7.5 -27.5q0 -14 -9 -27.5t-25 -13.5h-517q-16 0 -25 13.5t-9 27.5q0 17 6.5 26t24.5 11q37 3 70.5 17.5t33.5 36.5v579q0 58 -25 104.5t-103 46.5q-54 0 -96.5 -16
t-71.5 -37.5t-67 -55.5q-5 -6 -17 -16v-572q0 -36 14 -54.5t35 -24t53 -8.5q22 -2 29 -8.5t7 -28.5q0 -13 -9.5 -27t-24.5 -14h-525q-16 0 -25 13.5z" />
    <glyph glyph-name="n" unicode="n" horiz-adv-x="1413" 
d="M80 13.5q-9 13.5 -9 27.5q0 17 7 26t26 11q106 13 106 64v636q0 46 -17 70t-39.5 32t-58.5 13q-29 4 -34 6q-12 5 -18 14t-6 26q0 14 6.5 28.5t17.5 15.5q234 14 423 14q10 0 19 -9t11 -31v-112q23 27 86 67.5t146.5 71t164.5 30.5q148 0 235 -63.5t87 -234.5v-541
q0 -56 28 -73t58.5 -20t40.5 -4q18 -2 25.5 -9.5t7.5 -27.5q0 -14 -9 -27.5t-25 -13.5h-537q-16 0 -25 13.5t-9 27.5q0 18 6 26.5t25 10.5q37 4 66.5 21t29.5 43v569q0 39 -6 70t-32.5 56t-80.5 25q-51 0 -104.5 -19.5t-98 -48.5t-69.5 -57v-562q0 -40 14.5 -60.5t35.5 -27
t54 -9.5q22 -2 29 -8.5t7 -28.5q0 -13 -9.5 -27t-24.5 -14h-525q-16 0 -25 13.5z" />
    <glyph glyph-name="o" unicode="o" horiz-adv-x="1302" 
d="M148 779q72 117 202.5 176t306.5 59t304 -59t196.5 -176t68.5 -287t-70.5 -287t-199.5 -175.5t-306 -58.5q-176 0 -305 58.5t-199 175.5t-70 287t72 287zM447 257.5q20 -92.5 69.5 -142t136.5 -49.5q86 0 134.5 49.5t67.5 141.5t19 235q0 142 -20 234.5t-69.5 142
t-135.5 49.5t-135 -49.5t-68 -142t-19 -234.5t20 -234.5z" />
    <glyph glyph-name="p" unicode="p" horiz-adv-x="1347" 
d="M35.5 -412q-9.5 14 -9.5 27q0 22 7 28.5t29 8.5q36 4 60.5 10.5t43 26.5t18.5 60v1029q0 46 -17 70t-39.5 32t-58.5 13q-29 4 -34 6q-12 5 -18 14t-6 26q0 14 6.5 28.5t17.5 15.5q279 12 425 14q10 0 19 -9t11 -31v-81q48 66 141 102t187 36q157 0 257 -71.5
t145.5 -188.5t45.5 -261q0 -139 -57.5 -258t-172.5 -191.5t-280 -72.5q-155 0 -266 38l6 -96v-197q0 -30 52.5 -44.5t127.5 -19.5q19 -2 26 -11t7 -26q0 -14 -9 -27.5t-25 -13.5h-615q-15 0 -24.5 14zM867 184.5q62 108.5 62 308.5q0 376 -254 376q-50 0 -102.5 -24.5
t-76.5 -68.5v-612q8 -19 35.5 -40t62.5 -34.5t65 -13.5q146 0 208 108.5z" />
    <glyph glyph-name="q" unicode="q" horiz-adv-x="1328" 
d="M657 -430.5q-9 13.5 -9 27.5q0 17 7 26t26 11q75 5 132.5 20t57.5 44v302l5 108q-48 -66 -136 -101.5t-181 -35.5q-157 0 -259.5 71.5t-150.5 189t-48 260.5q0 139 57.5 258t172.5 191.5t280 72.5q125 0 202.5 -27.5t131.5 -72.5q37 8 70 31t52.5 41t24.5 22q23 20 53 20
q15 0 26.5 -8t11.5 -22v-1267q0 -40 18 -60t41.5 -26.5t62.5 -10.5q22 -2 29 -8.5t7 -28.5q0 -14 -9 -27.5t-25 -13.5h-625q-16 0 -25 13.5zM794 140.5q52 24.5 77 68.5v592q-8 24 -35.5 49.5t-62.5 42t-65 16.5q-146 0 -208 -108.5t-62 -308.5q0 -376 254 -376
q50 0 102 24.5z" />
    <glyph glyph-name="r" unicode="r" horiz-adv-x="1065" 
d="M77 13.5q-9 13.5 -9 27.5q0 17 7 26t26 11q49 4 82.5 16.5t33.5 37.5v646q0 47 -17 72t-40 33t-60 14q-5 1 -15 2.5t-17 3.5q-12 5 -18 14t-6 26q0 14 7 28.5t17 15.5q181 7 394 10h29q10 0 19 -9t11 -31v-203q29 65 83.5 124.5t126.5 97.5t149 38q86 0 127 -52.5
t41 -129.5q0 -49 -23 -93t-57.5 -70.5t-66.5 -26.5l-146 191q-66 0 -126 -65.5t-96 -155.5v-447q0 -33 22.5 -50t54.5 -23.5t83 -11.5l21 -2q22 -2 29 -8.5t7 -28.5q0 -14 -9 -27.5t-25 -13.5h-614q-16 0 -25 13.5z" />
    <glyph glyph-name="s" unicode="s" horiz-adv-x="1050" 
d="M382 -11q-63 19 -107 41q-16 8 -31 8q-18 0 -27 -5t-18 -16q-10 -12 -20 -17.5t-30 -5.5t-35.5 8.5t-15.5 21.5l-4 114q-5 180 -5 188q0 22 15.5 32.5t36.5 10.5q17 0 30 -6t16 -16q17 -60 51 -131q17 -35 51 -71.5t89.5 -63t127.5 -26.5q84 0 131.5 29t47.5 85
q0 46 -26.5 80.5t-90 67.5t-178.5 74q-117 41 -198.5 117t-81.5 195q0 86 55.5 157.5t153 112.5t216.5 41q56 0 101 -11.5t93 -29.5q7 -2 22.5 -7.5t22.5 -5.5q15 0 20.5 5.5t8.5 14t6 13.5q6 10 19.5 15.5t29.5 5.5q23 0 40 -9.5t17 -25.5q0 -12 -1 -23q-2 -52 -2 -113
q0 -32 3 -61q2 -36 2 -49q0 -28 -15 -41.5t-38 -13.5q-16 0 -28.5 5.5t-15.5 14.5q-20 60 -47.5 108.5t-83 85t-142.5 36.5q-59 0 -103.5 -26t-44.5 -84q0 -45 24 -78t72.5 -59t129.5 -53q169 -56 268.5 -135.5t99.5 -213.5q0 -151 -122 -230t-353 -79q-73 0 -136 19z" />
    <glyph glyph-name="t" unicode="t" horiz-adv-x="814" 
d="M262.5 26q-85.5 56 -85.5 197v662h-107q-10 1 -17 15.5t-7 28.5q0 18 6.5 30t18.5 16l125 37q23 5 52.5 40.5t55.5 92t41 123.5q9 39 77 39q76 0 76 -34v-279h221q11 -1 17.5 -11t6.5 -23q0 -31 -9.5 -52t-20.5 -21h-215v-575q0 -85 8.5 -129.5t28 -61t56.5 -16.5
q33 0 78 13t83 32q6 3 17 -12t17 -32.5t0 -21.5q-25 -27 -77.5 -53.5t-112 -43.5t-104.5 -17q-144 0 -229.5 56z" />
    <glyph glyph-name="u" unicode="u" horiz-adv-x="1386" 
d="M349.5 -3q-72.5 24 -115 89.5t-42.5 183.5v549q0 40 -16 60.5t-38 27t-56 9.5q-22 2 -29 8.5t-7 28.5q0 13 9.5 27t24.5 14h391q37 0 37 -36v-597q0 -234 111 -234q83 0 143.5 28t111.5 83v581q0 40 -20.5 60.5t-49 27t-72.5 9.5q-22 2 -29 8.5t-7 28.5q0 14 9 27.5
t25 13.5h423q37 0 37 -36v-736q0 -63 11.5 -83.5t32.5 -20.5q36 0 52 8q15 8 27 -19t12 -53q0 -14 -5 -17q-34 -22 -105.5 -42t-181.5 -20q-87 0 -115 53.5t-27 118.5q-32 -46 -90.5 -86t-130 -64t-142.5 -24q-106 0 -178.5 24z" />
    <glyph glyph-name="v" unicode="v" horiz-adv-x="1161" 
d="M51 895q-24 17 -64 21q-22 2 -29 8.5t-7 28.5q0 13 9.5 27t24.5 14h569q16 0 25 -13.5t9 -27.5q0 -17 -7 -26t-26 -11q-65 -8 -92 -15t-27 -26l269 -619l253 616q0 21 -34 29.5t-91 14.5q-19 2 -26 11t-7 26q0 14 9 27.5t25 13.5h365q15 0 24.5 -14t9.5 -27
q0 -22 -7 -28.5t-29 -8.5q-43 -4 -71.5 -21.5t-50.5 -65.5l-379 -838h-188l-409 838q-24 49 -48 66z" />
    <glyph glyph-name="w" unicode="w" horiz-adv-x="1768" 
d="M70 894.5q-29 16.5 -74 21.5q-22 2 -29 8.5t-7 28.5q0 13 9.5 27t24.5 14h565q16 0 25 -13.5t9 -27.5q0 -17 -7.5 -26.5t-25.5 -10.5q-54 -3 -81.5 -11.5t-27.5 -28.5l201 -570l199 680h226l256 -664l196 551q0 22 -35.5 31t-102.5 12q-18 1 -25.5 10.5t-7.5 26.5
q0 14 9 27.5t25 13.5h374q15 0 24.5 -14t9.5 -27q0 -22 -7 -28.5t-29 -8.5q-45 -5 -74 -21.5t-47 -65.5l-314 -838h-194l-260 670l-215 -670h-214l-328 838q-19 49 -48 65.5z" />
    <glyph glyph-name="x" unicode="x" horiz-adv-x="1204" 
d="M33 13.5q-9 13.5 -9 27.5q0 37 33 37q45 0 79.5 24.5t73.5 65.5l231 308l-281 351q-40 50 -60.5 66t-55.5 21q-18 2 -25.5 9.5t-7.5 27.5q0 14 9 28.5t25 14.5h541q16 0 25 -14.5t9 -28.5q0 -18 -6 -26.5t-25 -10.5q-9 -1 -28 -2.5t-28 -6t-9 -14.5q0 -19 11 -34
l169 -253l177 242q15 17 15 28q0 33 -91 40q-18 1 -24.5 10.5t-6.5 26.5q0 14 9 28.5t25 14.5h343q16 0 25 -14.5t9 -28.5q0 -37 -33 -37q-85 0 -147 -87l-222 -314l281 -348q19 -25 23 -32q20 -28 34 -40t40 -15q19 -3 28 -10t9 -27q0 -14 -9 -27.5t-25 -13.5h-521
q-16 0 -25 13.5t-9 27.5q0 18 6 26.5t25 10.5q32 3 48.5 8t16.5 20q0 11 -11 26l-189 254l-171 -240q-10 -11 -10 -21q0 -20 35 -32t71 -15q18 -2 24.5 -11t6.5 -26q0 -14 -9 -27.5t-25 -13.5h-369q-16 0 -25 13.5z" />
    <glyph glyph-name="y" unicode="y" horiz-adv-x="1151" 
d="M177 -426q-49 23 -81.5 62t-32.5 85q0 55 30.5 89t81.5 34l112 -127q54 0 94.5 27t74 75.5t85.5 141.5l-411 868q-23 48 -51 65.5t-71 21.5q-22 2 -29 8.5t-7 28.5q0 14 9 27.5t24 13.5h567q16 0 25 -13.5t9 -27.5q0 -17 -7 -26t-26 -11q-49 -6 -78.5 -14.5t-29.5 -28.5
l231 -591l207 590q0 21 -30.5 29.5t-82.5 14.5q-19 2 -26 11t-7 26q0 14 9 27.5t25 13.5h355q15 0 24.5 -14t9.5 -27q0 -22 -7 -28.5t-29 -8.5q-42 -4 -66.5 -21t-45.5 -66l-279 -673l-14 -34q-85 -204 -142 -315t-136 -183.5t-187 -72.5q-48 0 -97 23z" />
    <glyph glyph-name="z" unicode="z" horiz-adv-x="1076" 
d="M999 364q12 -9 11 -25l-20 -298q-1 -18 -15.5 -29t-31.5 -12h-858q-19 0 -33.5 19t-14.5 41t12 45.5t45 72.5l496 660l66 71h-263q-53 0 -97 -49.5t-70.5 -112t-30.5 -95.5q-2 -17 -28 -25t-49 -8q-13 0 -22.5 9t-8.5 25l20 298q1 17 16 29.5t31 13.5h811q52 0 52 -54
q0 -17 -13 -44.5t-34 -56.5l-478 -650l-89 -104l301 8q49 1 91.5 49t69.5 107.5t31 90.5q2 18 22.5 25.5t55.5 7.5q13 0 25 -9z" />
    <glyph glyph-name="braceleft" unicode="{" horiz-adv-x="1024" 
d="M533.5 -297.5q-95.5 30.5 -159 97.5t-63.5 171v387q0 53 -32.5 98t-83.5 71.5t-103 26.5h-20v100h20q52 0 103 26.5t83.5 71.5t32.5 98v387q0 104 63.5 171t159 97.5t194.5 30.5h173v-107h-113q-75 0 -110.5 -51t-35.5 -118v-377q0 -77 -49 -135t-130 -91.5t-173 -38.5
v-31q95 -4 175 -36t128.5 -90t48.5 -136v-377q0 -42 15 -80.5t47.5 -63.5t83.5 -25h113v-107h-173q-99 0 -194.5 30.5z" />
    <glyph glyph-name="bar" unicode="|" horiz-adv-x="794" 
d="M320 1535h155v-1902h-155v1902z" />
    <glyph glyph-name="braceright" unicode="}" horiz-adv-x="1024" 
d="M123 -221h113q51 0 83.5 25t47.5 63.5t15 80.5v377q0 78 48.5 136t128.5 90t175 36v31q-92 5 -173 38.5t-130 91.5t-49 135v377q0 67 -35.5 118t-110.5 51h-113v107h173q99 0 194.5 -30.5t159 -97.5t63.5 -171v-387q0 -53 32.5 -98t83.5 -71.5t103 -26.5h20v-100h-20
q-52 0 -103 -26.5t-83.5 -71.5t-32.5 -98v-387q0 -104 -63.5 -171t-159 -97.5t-194.5 -30.5h-173v107z" />
    <glyph glyph-name="asciitilde" unicode="~" horiz-adv-x="1440" 
d="M805 445.5q-50 20.5 -117 61.5q-9 5 -21.5 12.5t-27.5 15.5q-70 40 -130 40q-55 0 -90.5 -24t-72.5 -66q-24 -30 -39 -37q-4 -1 -11 -1q-16 0 -27.5 14.5t-11.5 32.5q0 13 6 23q26 45 48.5 78t50.5 65q76 87 171 87q58 0 104 -19.5t110 -59.5l54 -32q70 -40 130 -40
q38 0 68 13.5t49.5 31t44.5 45.5q27 30 40 37q4 1 11 1q16 0 27.5 -14.5t11.5 -32.5q0 -9 -6 -23q-12 -28 -26 -48.5t-39 -51.5q-8 -12 -24 -31q-32 -42 -79 -70t-92 -28q-62 0 -112 20.5z" />
    <glyph glyph-name="DEL" horiz-adv-x="1024" 
 />
    <glyph glyph-name="uni00A0" unicode="&#xa0;" horiz-adv-x="520" 
 />
    <glyph glyph-name="exclamdown" unicode="&#xa1;" horiz-adv-x="771" 
d="M454 1420q45 -27 71 -72.5t26 -96.5t-26 -93.5t-70.5 -67.5t-98.5 -25t-98 25t-69.5 67.5t-25.5 93.5q0 52 25.5 97t70 72t97.5 27t98 -27zM412 885q9 -160 29 -273t42.5 -179.5t52.5 -136.5q24 -55 34 -88t10 -74q0 -65 -30 -119.5t-81 -86t-112 -31.5q-62 0 -113 31.5
t-80.5 85.5t-29.5 120q0 43 9.5 76.5t31.5 90.5q28 71 49 137t42 178t34 269h112z" />
    <glyph glyph-name="cent" unicode="&#xa2;" horiz-adv-x="1240" 
d="M253.5 130q-123.5 136 -123.5 370q0 147 66.5 257t181.5 173.5t260 78.5v216h116v-212q141 -4 222 -48t114 -141q13 -39 13 -71q0 -47 -22.5 -78.5t-54.5 -46.5t-58 -15q-32 0 -60 18.5t-37 38.5l-117 242q2 7 -15 12t-55 5q-93 0 -151 -102.5t-58 -336.5
q0 -126 40.5 -213t103.5 -129.5t130 -42.5q172 0 264 103q1 1 5.5 6.5t9.5 7.5t11 1l44 -21q10 -4 10 -12q0 -6 -6 -17q-28 -54 -83.5 -97.5t-122.5 -70t-129 -32.5v-201h-116v203q-259 19 -382.5 155z" />
    <glyph glyph-name="sterling" unicode="&#xa3;" horiz-adv-x="1413" 
d="M679.5 -3q-60.5 13 -104.5 30.5t-100 44.5q-40 19 -61.5 28t-41.5 12h-11q-10 -7 -20.5 -18.5t-13.5 -14.5q-22 -24 -41 -40t-49.5 -27.5t-73.5 -11.5q-44 0 -76 24t-32 67q0 38 26.5 72.5t74.5 57t109 25.5q12 8 19.5 78.5t7.5 168.5v197h-138q-11 1 -17.5 19.5
t-6.5 34.5q0 19 6.5 33.5t17.5 19.5h138v74q0 275 123 426t418 151q133 0 222 -46.5t131 -108t42 -103.5q0 -51 -19 -87.5t-50 -55t-66 -18.5t-66.5 18.5t-51.5 52.5l-150 257h-26q-93 0 -140.5 -101.5t-47.5 -335.5v-123h316q11 -1 17.5 -11t6.5 -23q0 -21 -7 -45t-17 -28
h-316v-87q0 -147 -28 -245.5t-86 -159.5q20 -8 57 -26q77 -36 126 -50.5t123 -14.5q110 0 178 28.5t93 80.5l-78 202q1 12 21 34.5t53.5 40t74.5 17.5q48 0 89 -21.5t65 -60.5t24 -88q0 -111 -64 -191t-179.5 -122.5t-267.5 -42.5q-72 0 -132.5 13z" />
    <glyph glyph-name="currency" unicode="&#xa4;" horiz-adv-x="1440" 
d="M354 377q-61 89 -61 198q0 108 61 197l-161 164l125 117l163 -166q91 52 200 52q105 0 195 -50l162 164l125 -117l-160 -163q60 -90 60 -198q0 -106 -61 -198l161 -164l-125 -116l-162 165q-92 -51 -199 -51q-108 0 -197 50l-162 -164l-125 116zM775 387.5
q43 23.5 69 71.5t26 116t-26.5 115.5t-70.5 71.5t-97 24t-96.5 -23.5t-69 -71.5t-25.5 -116t26.5 -115.5t70.5 -71.5t97 -24t96 23.5z" />
    <glyph glyph-name="yen" unicode="&#xa5;" horiz-adv-x="1500" 
d="M406.5 18q-9.5 18 -9.5 33t12 25t31 12l39 2q68 1 105.5 12t37.5 50v158h-394q-11 1 -17.5 19.5t-6.5 34.5q0 19 6.5 33.5t17.5 19.5h394v209h-394q-11 1 -17.5 19.5t-6.5 34.5q0 19 6.5 33.5t17.5 19.5h333l-407 521q-21 38 -45.5 56t-44.5 22.5t-61 8.5q-23 2 -30 8.5
t-7 28.5q0 13 9.5 27t25.5 14h685q16 0 25 -13.5t9 -27.5q0 -17 -7 -26t-26 -11q-85 -4 -122.5 -11t-37.5 -27q0 -6 5 -16l320 -502l380 502q5 8 5 15q0 20 -38.5 27.5t-114.5 11.5q-19 2 -26 11t-7 26q0 14 9 27.5t25 13.5h415q15 0 24.5 -14t9.5 -27q0 -22 -7 -28.5
t-29 -8.5q-40 -4 -61 -8.5t-45.5 -22.5t-44.5 -56l-409 -521h399q11 -1 17.5 -11t6.5 -23q0 -21 -7 -45t-17 -28h-413v-209h413q11 -1 17.5 -11t6.5 -23q0 -21 -7 -45t-17 -28h-413v-145q0 -33 24 -49.5t56 -21t82 -5.5q27 0 38 -1q25 -3 35.5 -9.5t10.5 -27.5
q0 -15 -9.5 -33t-24.5 -18h-705q-15 0 -24.5 18z" />
    <glyph glyph-name="brokenbar" unicode="&#xa6;" horiz-adv-x="794" 
d="M320 1535h155v-770h-155v770zM320 401h155v-770h-155v770z" />
    <glyph glyph-name="section" unicode="&#xa7;" horiz-adv-x="1154" 
d="M378.5 -406.5q-81.5 31.5 -126.5 86t-45 121.5q0 57 38 89t112 32l202 -266q67 0 103.5 40t36.5 104q0 56 -25 101t-65.5 81.5t-118.5 96.5q-58 44 -97.5 75.5t-81.5 70.5q-91 83 -132 167.5t-41 179.5q0 63 27.5 120t72.5 99t98 64q-68 67 -102 133.5t-34 149.5
q0 87 48 157t136 110.5t204 40.5q106 0 187.5 -31.5t126.5 -86t45 -121.5q0 -35 -25 -62.5t-60.5 -43t-64.5 -15.5l-202 266q-67 0 -103.5 -40t-36.5 -104q0 -55 24 -98.5t63 -78.5t113 -92q59 -45 101 -79.5t87 -76.5q91 -86 132 -169.5t41 -177.5q0 -64 -27.5 -121
t-73 -99t-98.5 -64q68 -66 102.5 -133t34.5 -149q0 -87 -48 -157t-136 -110.5t-204 -40.5q-106 0 -187.5 31.5zM755 307q11 39 11 70q0 74 -34.5 132t-84.5 97q-24 18 -43 33t-34 26q-83 61 -142 110q-18 -35 -29 -74t-11 -70q0 -74 34 -131.5t85 -97.5l117 -90l102 -79
q18 35 29 74z" />
    <glyph glyph-name="dieresis" unicode="&#xa8;" horiz-adv-x="1024" 
d="M176.5 1202q-34.5 22 -53 60t-18.5 83q0 70 41.5 117.5t109.5 47.5q45 0 79.5 -22t53.5 -59.5t19 -83.5q0 -45 -19 -83t-53.5 -60t-79.5 -22t-79.5 22zM653.5 1202q-34.5 22 -53 60t-18.5 83q0 70 41.5 117.5t109.5 47.5q45 0 79.5 -22t53.5 -59.5t19 -83.5
q0 -45 -19 -83t-53.5 -60t-79.5 -22t-79.5 22z" />
    <glyph glyph-name="copyright" unicode="&#xa9;" horiz-adv-x="1929" 
d="M515.5 -161q-205.5 120 -325.5 325.5t-120 448.5t120 448.5t325.5 326t448.5 120.5t448.5 -120.5t326 -326t120.5 -448.5t-120.5 -448.5t-326 -325.5t-448.5 -120t-448.5 120zM1367 -90.5q185 110.5 293.5 297.5t108.5 406t-108.5 406t-293.5 298t-403 111t-402.5 -111
t-293 -298t-108.5 -406t108.5 -406t293 -297.5t402.5 -110.5t403 110.5zM656.5 247q-116.5 125 -116.5 375q0 162 61 270t167.5 160.5t243.5 52.5q76 0 156.5 -28t126.5 -98q49 -75 49 -135q0 -37 -18.5 -59t-44.5 -22q-33 0 -53.5 13t-32 31t-25.5 48q-8 15 -19 54
q-8 26 -14 41t-16 26q-17 15 -41.5 26t-52.5 11q-139 0 -221.5 -88t-82.5 -313q0 -150 42.5 -239t105 -124.5t128.5 -35.5q99 0 171 43.5t95 157.5q1 10 3.5 15.5t10.5 5.5l72 1q11 0 13.5 -6.5t2.5 -17.5q-4 -99 -55.5 -164t-132.5 -95.5t-176 -30.5q-230 0 -346.5 125z
" />
    <glyph glyph-name="ordfeminine" unicode="&#xaa;" horiz-adv-x="1130" 
d="M279.5 639.5q-62.5 26.5 -100 79t-37.5 125.5q0 100 75 163t192 91t251 28v126q0 43 -15.5 66t-46.5 31t-85 8q-20 0 -37.5 -4.5t-27.5 -11.5l-158 -177q-26 0 -50.5 14.5t-40 38t-15.5 48.5q0 62 62 103t148.5 60.5t159.5 19.5q120 0 200.5 -23.5t123.5 -81t43 -156.5
v-361q0 -42 11 -67t34 -25q27 0 56 8q3 2 8 2q10 0 16 -16t6 -39q0 -19 -4 -22q-37 -18 -101 -36t-157 -18q-64 0 -90 30t-27 107q-50 -62 -116.5 -99.5t-141.5 -37.5q-73 0 -135.5 26.5zM605 766.5q32 17.5 54 41.5v248q-124 0 -188 -49t-64 -132q0 -55 35 -90.5t90 -35.5
q41 0 73 17.5z" />
    <glyph glyph-name="guillemotleft" unicode="&#xab;" horiz-adv-x="1250" 
d="M118 614l493 427v-166l-235 -321l235 -320v-164l-493 425v119zM606 614l513 427v-166l-255 -321l255 -320v-164l-513 425v119z" />
    <glyph glyph-name="logicalnot" unicode="&#xac;" horiz-adv-x="1440" 
d="M1049 501h-814v146h970v-522h-156v376z" />
    <glyph glyph-name="uni00AD" unicode="&#xad;" horiz-adv-x="776" 
d="M96 622h584v-146h-584v146z" />
    <glyph glyph-name="registered" unicode="&#xae;" horiz-adv-x="1929" 
d="M515.5 -161q-205.5 120 -325.5 325.5t-120 448.5t120 448.5t325.5 326t448.5 120.5t448.5 -120.5t326 -326t120.5 -448.5t-120.5 -448.5t-326 -325.5t-448.5 -120t-448.5 120zM1367 -90.5q185 110.5 293.5 297.5t108.5 406t-108.5 406t-293.5 298t-403 111t-402.5 -111
t-293 -298t-108.5 -406t108.5 -406t293 -297.5t402.5 -110.5t403 110.5zM569 146.5q-6 10.5 -6 20.5q0 12 5 22.5t16 11.5q89 6 89 42v738q0 37 -25 48.5t-68 14.5q-14 2 -18.5 6.5t-4.5 18.5q0 8 5.5 14t16.5 6h407q152 -1 242 -57t90 -185q0 -96 -65 -151t-182 -88
q60 -5 98 -34.5t59.5 -69.5t46.5 -106q16 -42 28 -69t27 -51q20 -39 44 -56.5t52 -20.5q14 -2 23.5 -11t9.5 -23q0 -9 -6.5 -20t-15.5 -11h-143q-52 0 -85.5 31t-52 75.5t-39.5 118.5q-20 69 -36.5 110t-45 69t-72.5 28h-134v-304q0 -37 30 -48.5t82 -14.5q13 -1 18.5 -10
t5.5 -24q0 -10 -6 -20.5t-16 -10.5h-358q-10 0 -16 10.5zM1097 682q64 37 64 145q0 76 -29 116.5t-77 54.5t-119 14h-107v-367h102q102 0 166 37z" />
    <glyph glyph-name="macron" unicode="&#xaf;" horiz-adv-x="1440" 
d="M-5 1433h587v-151h-587v151z" />
    <glyph glyph-name="degree" unicode="&#xb0;" horiz-adv-x="860" 
d="M248.5 810.5q-78.5 43.5 -122 122.5t-43.5 180t44.5 179.5t124 121.5t181.5 43t180 -43t121 -121.5t43 -179.5t-44 -180t-123 -122.5t-181 -43.5t-180.5 43.5zM567.5 950.5q50.5 55.5 50.5 162.5q0 106 -51.5 161t-138.5 55t-136.5 -54.5t-49.5 -161.5t51 -162.5
t138 -55.5q86 0 136.5 55.5z" />
    <glyph glyph-name="plusminus" unicode="&#xb1;" horiz-adv-x="1440" 
d="M265 146h372v355h-402v146h402v415h166v-415h402v-146h-402v-355h372v-146h-910v146z" />
    <glyph glyph-name="uni00B2" unicode="&#xb2;" horiz-adv-x="1130" 
d="M132 824.5q6 12.5 13 17.5q205 136 344.5 300t139.5 321q0 210 -115 210q-43 0 -70 -13t-39.5 -30t-23.5 -41l-61 -132q-15 -32 -32 -50.5t-46 -18.5q-50 0 -87 27t-37 74q0 38 28 85q25 42 79 79.5t131 61t167 23.5q202 0 298.5 -67t96.5 -206q0 -106 -87 -216.5
t-210 -196t-221 -119.5h576l-8 -181h-842v49q0 11 6 23.5z" />
    <glyph glyph-name="uni00B3" unicode="&#xb3;" horiz-adv-x="1130" 
d="M902 1205.5q78 -59.5 78 -169.5q0 -85 -55.5 -152.5t-168.5 -107t-279 -39.5q-99 0 -180 27.5t-127.5 75t-46.5 107.5q0 46 20.5 79t50 50t52.5 17q42 0 62.5 -8.5t29.5 -16.5t12 -10l-10 -41q-13 -54 -38 -156q3 -2 38.5 -30.5t130.5 -28.5q100 0 148.5 55.5t48.5 155.5
q0 93 -19 138t-58 59t-113 14h-73h-10t-10 8.5t-2 29.5q0 20 2 28t6 9.5t14 1.5h53q53 0 96 13.5t73.5 59t30.5 135.5q0 64 -36.5 114t-118.5 50q-75 0 -107 -75q-7 -16 -23 -63q-9 -33 -20 -57q-24 -55 -85 -55q-25 0 -48.5 13t-38.5 32.5t-17 37.5q-2 16 -2 23
q0 62 54 109.5t142 73.5t186 26q184 0 282.5 -55t98.5 -163q0 -107 -67 -173.5t-186 -80.5q152 -1 230 -60.5z" />
    <glyph glyph-name="acute" unicode="&#xb4;" horiz-adv-x="1024" 
d="M324.5 1280q44.5 61 105.5 149q48 72 64 88t42.5 26t54.5 10q49 0 81 -33t32 -84q0 -26 -9 -49.5t-24 -37.5q-12 -11 -87 -57q-80 -48 -152.5 -95.5t-155.5 -109.5l-56 58q60 74 104.5 135z" />
    <glyph glyph-name="uni00B5" unicode="&#xb5;" horiz-adv-x="1372" 
d="M1185 136q17 -25 40 -33t60 -14q5 -1 15 -2.5t17 -3.5q12 -5 18 -14t6 -26q0 -13 -6.5 -23t-17.5 -11q-151 -10 -350 -10h-75q-10 0 -19 9t-11 31v92q-19 -44 -44 -77t-76.5 -57t-134.5 -24q-68 0 -132.5 34.5t-95.5 119.5q4 -64 11 -160q3 -51 9.5 -151t6.5 -123
q0 -38 -18.5 -70t-50 -50.5t-67.5 -18.5q-37 0 -68 18.5t-49.5 50.5t-18.5 70q0 21 7 131q20 330 20 534v636h308v-693q0 -30 21 -73.5t64 -76.5t105 -33q32 0 73 21t76.5 54t53.5 67v734h306v-786q0 -47 17 -72z" />
    <glyph glyph-name="paragraph" unicode="&#xb6;" horiz-adv-x="1124" 
d="M160.5 -269q-9.5 18 -9.5 33q0 22 7 28.5t29 8.5q52 4 86 10.5t60 26.5t26 60v691q-145 48 -229.5 156t-84.5 255q0 149 62 243t165.5 136t234.5 42l543 -2q15 0 24.5 -18t9.5 -33q0 -22 -7 -28.5t-29 -8.5q-39 -3 -64 -9.5t-41.5 -27t-16.5 -60.5v-1369
q0 -30 39.5 -44.5t96.5 -19.5q19 -2 26 -11t7 -26q0 -15 -9.5 -33t-24.5 -18h-322v1589h-180v-1589h-374q-15 0 -24.5 18z" />
    <glyph glyph-name="periodcentered" unicode="&#xb7;" horiz-adv-x="692" 
d="M177.5 831.5q25.5 42.5 69.5 67.5t98 25t98.5 -25t70.5 -67.5t26 -93.5t-26 -96.5t-71 -72.5t-98 -27t-97.5 27t-70 72t-25.5 97q0 51 25.5 93.5z" />
    <glyph glyph-name="cedilla" unicode="&#xb8;" horiz-adv-x="521" 
d="M101 -478q-61 20 -93 41q-8 5 -8 12l2 8q8 18 32 67q3 7 7 9t11 -1q36 -15 69 -23.5t70 -8.5q57 0 91 25.5t34 65.5q0 39 -46 65.5t-132 25.5l34 210h147l-33 -118q111 -6 173 -57t62 -130q0 -62 -34 -110t-98.5 -74.5t-152.5 -26.5q-74 0 -135 20z" />
    <glyph glyph-name="uni00B9" unicode="&#xb9;" horiz-adv-x="1130" 
d="M152 766.5q-7 14.5 -7 26.5q0 14 5.5 24t18.5 11l39 3q99 7 163.5 19.5t64.5 43.5v660q-39 -32 -115 -61.5t-146 -29.5q-13 0 -29.5 33t-16.5 58q0 42 31 43q39 1 111 14t144.5 40t109.5 69h191v-826q0 -37 82 -51.5t149 -14.5q29 0 26 -47q-1 -11 -7.5 -20t-17.5 -9
h-778q-11 0 -18 14.5z" />
    <glyph glyph-name="ordmasculine" unicode="&#xba;" horiz-adv-x="1130" 
d="M314.5 667.5q-106.5 55.5 -163 151t-56.5 212.5t58 212.5t165.5 151t250.5 55.5t248.5 -55.5t161.5 -151t56 -212.5q0 -116 -57 -211.5t-164 -151.5t-250 -56t-249.5 55.5zM707 782.5q44 84.5 44 248.5q0 163 -45.5 247.5t-142.5 84.5q-98 0 -142 -84t-44 -248
q0 -163 45 -248t143 -85t142 84.5z" />
    <glyph glyph-name="guillemotright" unicode="&#xbb;" horiz-adv-x="1250" 
d="M150 70v164l255 320l-255 321v166l513 -427v-119zM658 70v164l235 320l-235 321v166l493 -427v-119z" />
    <glyph glyph-name="onequarter" unicode="&#xbc;" horiz-adv-x="2194" 
d="M116 528.5q-7 14.5 -7 26.5q0 14 5.5 24t18.5 11l39 3q99 7 163.5 19.5t64.5 43.5v660q-39 -32 -115 -61.5t-146 -29.5q-13 0 -29.5 33t-16.5 58q0 42 31 43q39 1 111 14t144.5 40t109.5 69h191v-826q0 -37 82 -51.5t149 -14.5q29 0 26 -47q-1 -11 -7.5 -20t-17.5 -9
h-778q-11 0 -18 14.5zM1525 1419h147l-829 -1419h-145zM1244 181q-6 0 -10 19t-4 35q0 10 7 25l325 702q16 21 30.5 27.5t34.5 6.5q43 0 84 -23t66.5 -54.5t25.5 -53.5l-356 -575h365v278l220 29v-307h188l-10 -109h-178v-181h-220v181h-568z" />
    <glyph glyph-name="onehalf" unicode="&#xbd;" horiz-adv-x="2194" 
d="M109 528.5q-7 14.5 -7 26.5q0 14 5.5 24t18.5 11l39 3q99 7 163.5 19.5t64.5 43.5v660q-39 -32 -115 -61.5t-146 -29.5q-13 0 -29.5 33t-16.5 58q0 42 31 43q39 1 111 14t144.5 40t109.5 69h191v-826q0 -37 82 -51.5t149 -14.5q29 0 26 -47q-1 -11 -7.5 -20t-17.5 -9
h-778q-11 0 -18 14.5zM1454 1419h147l-829 -1419h-145zM1273 72.5q6 12.5 13 17.5q205 136 344.5 300t139.5 321q0 210 -115 210q-43 0 -70 -13t-39.5 -30t-23.5 -41l-61 -132q-15 -32 -32 -50.5t-46 -18.5q-50 0 -87 27t-37 74q0 38 28 85q25 42 79 79.5t131 61t167 23.5
q202 0 298.5 -67t96.5 -206q0 -106 -87 -216.5t-210 -196t-221 -119.5h576l-8 -181h-842v49q0 11 6 23.5z" />
    <glyph glyph-name="threequarters" unicode="&#xbe;" horiz-adv-x="2194" 
d="M842 967.5q78 -59.5 78 -169.5q0 -85 -55.5 -152.5t-168.5 -107t-279 -39.5q-99 0 -180 27.5t-127.5 75t-46.5 107.5q0 46 20.5 79t50 50t52.5 17q42 0 62.5 -8.5t29.5 -16.5t12 -10l-10 -41q-13 -54 -38 -156q3 -2 38.5 -30.5t130.5 -28.5q100 0 148.5 55.5t48.5 155.5
q0 93 -19 138t-58 59t-113 14h-73h-10t-10 8.5t-2 29.5q0 20 2 28t6 9.5t14 1.5h53q53 0 96 13.5t73.5 59t30.5 135.5q0 64 -36.5 114t-118.5 50q-75 0 -107 -75q-7 -16 -23 -63q-9 -33 -20 -57q-24 -55 -85 -55q-25 0 -48.5 13t-38.5 32.5t-17 37.5q-2 16 -2 23
q0 62 54 109.5t142 73.5t186 26q184 0 282.5 -55t98.5 -163q0 -107 -67 -173.5t-186 -80.5q152 -1 230 -60.5zM1487 1419h147l-829 -1419h-145zM1229 181q-6 0 -10 19t-4 35q0 10 7 25l325 702q16 21 30.5 27.5t34.5 6.5q43 0 84 -23t66.5 -54.5t25.5 -53.5l-356 -575h365
v278l220 29v-307h188l-10 -109h-178v-181h-220v181h-568z" />
    <glyph glyph-name="questiondown" unicode="&#xbf;" horiz-adv-x="1123" 
d="M695.5 1501q44.5 -27 70 -72t25.5 -97q0 -51 -25.5 -93.5t-69.5 -67.5t-98 -25t-98.5 25t-70.5 67.5t-26 93.5t26 96.5t71 72.5t98 27t97.5 -27zM654.5 834.5q-19.5 -55.5 -48 -92t-75.5 -83.5q-45 -45 -71.5 -79t-45 -84.5t-18.5 -119.5q0 -311 207 -311q60 0 107.5 22
t75.5 54l20 280q9 22 36.5 30t82.5 8q23 0 49 -18.5t44.5 -53t18.5 -79.5q0 -40 -17 -84q-23 -60 -87.5 -116.5t-158 -92t-197.5 -35.5q-156 0 -265.5 47t-164.5 130.5t-55 190.5q0 82 32 145t77.5 107.5t119.5 102.5q65 52 102.5 87.5t63 82t25.5 103.5v54h162v-64
q0 -76 -19.5 -131.5z" />
    <glyph glyph-name="Agrave" unicode="&#xc0;" horiz-adv-x="1553" 
d="M1557 79.5q7 -6.5 7 -28.5q0 -15 -9.5 -33t-24.5 -18h-622q-15 0 -24.5 18t-9.5 33q0 17 7 26t26 11l40 2q49 1 68 5.5t19 20.5q0 7 -3 16l-125 345l-479 1l-124 -346q-3 -7 -3 -13q0 -18 25 -23t80 -6l42 -2q19 -2 26 -11t7 -26q0 -15 -9.5 -33t-24.5 -18h-423
q-16 0 -25 15t-9 36q0 22 7 28.5t29 8.5q8 1 26 1q31 1 52.5 5.5t41.5 21t33 49.5l480 1276h234l475 -1276q13 -34 34 -50.5t43 -20.5t55 -5q20 0 29 -1q22 -2 29 -8.5zM688 1190l-233 -627h421zM790.5 1658q-73.5 48 -154.5 97q-69 41 -82 53q-15 14 -24 37.5t-9 49.5
q0 51 32 84t81 33q28 0 54.5 -10t42.5 -26t64 -88q61 -88 105.5 -149t104.5 -135l-56 -58q-85 64 -158.5 112z" />
    <glyph glyph-name="Aacute" unicode="&#xc1;" horiz-adv-x="1553" 
d="M1557 79.5q7 -6.5 7 -28.5q0 -15 -9.5 -33t-24.5 -18h-622q-15 0 -24.5 18t-9.5 33q0 17 7 26t26 11l40 2q49 1 68 5.5t19 20.5q0 7 -3 16l-125 345l-479 1l-124 -346q-3 -7 -3 -13q0 -18 25 -23t80 -6l42 -2q19 -2 26 -11t7 -26q0 -15 -9.5 -33t-24.5 -18h-423
q-16 0 -25 15t-9 36q0 22 7 28.5t29 8.5q8 1 26 1q31 1 52.5 5.5t41.5 21t33 49.5l480 1276h234l475 -1276q13 -34 34 -50.5t43 -20.5t55 -5q20 0 29 -1q22 -2 29 -8.5zM688 1190l-233 -627h421zM645.5 1739q44.5 61 105.5 149q48 72 64 88t42.5 26t54.5 10q49 0 81 -33
t32 -84q0 -26 -9 -49.5t-24 -37.5q-12 -11 -87 -57q-80 -48 -152.5 -95.5t-155.5 -109.5l-56 58q60 74 104.5 135z" />
    <glyph glyph-name="Acircumflex" unicode="&#xc2;" horiz-adv-x="1553" 
d="M1557 79.5q7 -6.5 7 -28.5q0 -15 -9.5 -33t-24.5 -18h-622q-15 0 -24.5 18t-9.5 33q0 17 7 26t26 11l40 2q49 1 68 5.5t19 20.5q0 7 -3 16l-125 345l-479 1l-124 -346q-3 -7 -3 -13q0 -18 25 -23t80 -6l42 -2q19 -2 26 -11t7 -26q0 -15 -9.5 -33t-24.5 -18h-423
q-16 0 -25 15t-9 36q0 22 7 28.5t29 8.5q8 1 26 1q31 1 52.5 5.5t41.5 21t33 49.5l480 1276h234l475 -1276q13 -34 34 -50.5t43 -20.5t55 -5q20 0 29 -1q22 -2 29 -8.5zM688 1190l-233 -627h421zM763 1964q48 0 77.5 -16t49.5 -44l243 -339h-143l-227 201l-222 -201h-148
l247 348q35 51 123 51z" />
    <glyph glyph-name="Atilde" unicode="&#xc3;" horiz-adv-x="1553" 
d="M1557 79.5q7 -6.5 7 -28.5q0 -15 -9.5 -33t-24.5 -18h-622q-15 0 -24.5 18t-9.5 33q0 17 7 26t26 11l40 2q49 1 68 5.5t19 20.5q0 7 -3 16l-125 345l-479 1l-124 -346q-3 -7 -3 -13q0 -18 25 -23t80 -6l42 -2q19 -2 26 -11t7 -26q0 -15 -9.5 -33t-24.5 -18h-423
q-16 0 -25 15t-9 36q0 22 7 28.5t29 8.5q8 1 26 1q31 1 52.5 5.5t41.5 21t33 49.5l480 1276h234l475 -1276q13 -34 34 -50.5t43 -20.5t55 -5q20 0 29 -1q22 -2 29 -8.5zM688 1190l-233 -627h421zM829.5 1587.5q-40.5 18.5 -97.5 54.5q-49 32 -83.5 48t-68.5 16
q-41 0 -63.5 -15.5t-44.5 -44.5q-14 -18 -23.5 -26t-22.5 -8q-19 0 -37.5 23.5t-18.5 48.5q0 40 32.5 90t88.5 85t123 35q43 0 81.5 -18.5t89.5 -53.5q49 -34 83.5 -50.5t71.5 -16.5q43 0 67 16t46 45q15 18 24.5 25.5t22.5 7.5q19 0 37.5 -23.5t18.5 -48.5q0 -40 -33.5 -90
t-89 -84.5t-118.5 -34.5q-45 1 -85.5 19.5z" />
    <glyph glyph-name="Adieresis" unicode="&#xc4;" horiz-adv-x="1553" 
d="M1557 79.5q7 -6.5 7 -28.5q0 -15 -9.5 -33t-24.5 -18h-622q-15 0 -24.5 18t-9.5 33q0 17 7 26t26 11l40 2q49 1 68 5.5t19 20.5q0 7 -3 16l-125 345l-479 1l-124 -346q-3 -7 -3 -13q0 -18 25 -23t80 -6l42 -2q19 -2 26 -11t7 -26q0 -15 -9.5 -33t-24.5 -18h-423
q-16 0 -25 15t-9 36q0 22 7 28.5t29 8.5q8 1 26 1q31 1 52.5 5.5t41.5 21t33 49.5l480 1276h234l475 -1276q13 -34 34 -50.5t43 -20.5t55 -5q20 0 29 -1q22 -2 29 -8.5zM688 1190l-233 -627h421zM435.5 1629.5q-38.5 24.5 -59 66.5t-20.5 92q0 51 20.5 93t59 66.5t88.5 24.5
t88.5 -24.5t59.5 -66.5t21 -93q0 -50 -21 -92t-59.5 -66.5t-88.5 -24.5t-88.5 24.5zM912.5 1629.5q-38.5 24.5 -59 66.5t-20.5 92q0 51 20.5 93t59 66.5t88.5 24.5t88.5 -24.5t59.5 -66.5t21 -93q0 -50 -21 -92t-59.5 -66.5t-88.5 -24.5t-88.5 24.5z" />
    <glyph glyph-name="Aring" unicode="&#xc5;" horiz-adv-x="1553" 
d="M1557 79.5q7 -6.5 7 -28.5q0 -15 -9.5 -33t-24.5 -18h-622q-15 0 -24.5 18t-9.5 33q0 17 7 26t26 11l40 2q49 1 68 5.5t19 20.5q0 7 -3 16l-125 345l-479 1l-124 -346q-3 -7 -3 -13q0 -18 25 -23t80 -6l42 -2q19 -2 26 -11t7 -26q0 -15 -9.5 -33t-24.5 -18h-423
q-16 0 -25 15t-9 36q0 22 7 28.5t29 8.5q8 1 26 1q31 1 52.5 5.5t41.5 21t33 49.5l472 1254q-90 29 -143.5 99t-53.5 168q0 85 41 149t112 99t157 35q85 0 156 -36.5t112.5 -101.5t41.5 -148q0 -91 -47.5 -157.5t-128.5 -98.5l470 -1262q13 -34 34 -50.5t43 -20.5t55 -5
q20 0 29 -1q22 -2 29 -8.5zM655.5 1785q-34.5 -39 -34.5 -100t34.5 -99t107.5 -38t108 39t35 100t-35 99t-108 38t-107.5 -39zM876 563l-188 627l-233 -627h421z" />
    <glyph glyph-name="AE" unicode="&#xc6;" horiz-adv-x="2191" 
d="M-58.5 18q-9.5 18 -9.5 33q0 22 7 28.5t29 8.5l26 2q56 2 96 15.5t64 59.5l611 1145q-116 11 -240 21q-20 1 -28 12.5t-8 34.5q0 14 9 27.5t25 13.5h1485l35 -325q0 -16 -13.5 -25t-27.5 -9q-17 0 -33 8t-27 25q-14 22 -35 69q-24 52 -43 83t-50.5 53t-78.5 22h-396v-542
h277q24 3 46 35t37 72.5t18 63.5q4 32 46 32q14 0 27.5 -9t13.5 -25v-443q0 -16 -13.5 -25t-27.5 -9q-19 0 -33 7.5t-16 25.5q-2 25 -17 68.5t-38 77t-49 33.5h-271v-485q0 -51 25.5 -73.5t63.5 -22.5h389q56 0 92.5 39.5t54.5 88t33 110.5l8 31q6 18 25 27t44 9q18 0 34 -9
t15 -25v-372h-1277q-15 0 -24.5 18t-9.5 33q0 17 7 26t26 11q63 5 109 20t46 44v398h-507l-183 -364q-14 -28 -14 -46q0 -28 39 -39.5t133 -12.5q36 0 36 -37q0 -19 -10.5 -35t-23.5 -16h-504q-15 0 -24.5 18zM1000 1283q-49 8 -130 17l-329 -654h459v637z" />
    <glyph glyph-name="Ccedilla" unicode="&#xc7;" horiz-adv-x="1465" 
d="M1332.5 436.5q26.5 -9.5 26.5 -24.5l-28 -304q-2 -16 -67 -50.5t-165.5 -61t-209.5 -26.5h-19l-20 -70q111 -6 173 -57t62 -130q0 -62 -34 -110t-98.5 -74.5t-152.5 -26.5q-74 0 -135 20t-93 41q-8 5 -8 12l2 8q7 18 32 67q3 7 7 9t11 -1q36 -15 69 -23.5t70 -8.5
q57 0 91 25.5t34 65.5q0 39 -46 65.5t-132 25.5l28 172q-184 23 -330 104t-234 235.5t-88 386.5q0 249 118.5 416.5t300 247t371.5 79.5q150 0 242 -20t168 -50q19 -8 35.5 -13t27.5 -5l17 -320q2 -15 -23.5 -27.5t-42.5 -12.5l-14 -1q-26 0 -50 7t-27 22
q-27 149 -102.5 236.5t-232.5 87.5q-103 0 -190 -45.5t-148 -188.5t-61 -413q0 -256 67 -398.5t160.5 -192.5t193.5 -50q97 0 170 47.5t118.5 126t63.5 174.5q6 33 48 33q18 0 44.5 -9.5z" />
    <glyph glyph-name="Egrave" unicode="&#xc8;" horiz-adv-x="1477" 
d="M117 77q7 9 26 11q60 5 103 19.5t43 44.5v1082q0 39 -23 59t-50.5 26t-78.5 12q-22 2 -29 8.5t-7 28.5q0 15 9.5 33t24.5 18h1159l35 -325q1 -15 -15 -24.5t-31 -9.5q-54 0 -72 33q-13 25 -42 84q-28 58 -45.5 85.5t-43 42.5t-66.5 15h-391v-542h267q24 3 46 35t37 72.5
t18 63.5q4 32 46 32q15 0 35 -9.5t20 -24.5v-443q0 -15 -20 -24.5t-35 -9.5q-19 0 -33 7.5t-16 25.5q-2 25 -17 68.5t-38 77t-49 33.5h-261v-485q0 -88 91 -96h289q60 0 104.5 26t84 84t87.5 162q7 16 28 24.5t40 8.5q21 0 40.5 -9t21.5 -25l-40 -372h-1225q-15 0 -24.5 18
t-9.5 33q0 17 7 26zM818.5 1658q-73.5 48 -154.5 97q-69 41 -82 53q-15 14 -24 37.5t-9 49.5q0 51 32 84t81 33q28 0 54.5 -10t42.5 -26t64 -88q61 -88 105.5 -149t104.5 -135l-56 -58q-85 64 -158.5 112z" />
    <glyph glyph-name="Eacute" unicode="&#xc9;" horiz-adv-x="1477" 
d="M117 77q7 9 26 11q60 5 103 19.5t43 44.5v1082q0 39 -23 59t-50.5 26t-78.5 12q-22 2 -29 8.5t-7 28.5q0 15 9.5 33t24.5 18h1159l35 -325q1 -15 -15 -24.5t-31 -9.5q-54 0 -72 33q-13 25 -42 84q-28 58 -45.5 85.5t-43 42.5t-66.5 15h-391v-542h267q24 3 46 35t37 72.5
t18 63.5q4 32 46 32q15 0 35 -9.5t20 -24.5v-443q0 -15 -20 -24.5t-35 -9.5q-19 0 -33 7.5t-16 25.5q-2 25 -17 68.5t-38 77t-49 33.5h-261v-485q0 -88 91 -96h289q60 0 104.5 26t84 84t87.5 162q7 16 28 24.5t40 8.5q21 0 40.5 -9t21.5 -25l-40 -372h-1225q-15 0 -24.5 18
t-9.5 33q0 17 7 26zM673.5 1739q44.5 61 105.5 149q48 72 64 88t42.5 26t54.5 10q49 0 81 -33t32 -84q0 -26 -9 -49.5t-24 -37.5q-12 -11 -87 -57q-80 -48 -152.5 -95.5t-155.5 -109.5l-56 58q60 74 104.5 135z" />
    <glyph glyph-name="Ecircumflex" unicode="&#xca;" horiz-adv-x="1477" 
d="M117 77q7 9 26 11q60 5 103 19.5t43 44.5v1082q0 39 -23 59t-50.5 26t-78.5 12q-22 2 -29 8.5t-7 28.5q0 15 9.5 33t24.5 18h1159l35 -325q1 -15 -15 -24.5t-31 -9.5q-54 0 -72 33q-13 25 -42 84q-28 58 -45.5 85.5t-43 42.5t-66.5 15h-391v-542h267q24 3 46 35t37 72.5
t18 63.5q4 32 46 32q15 0 35 -9.5t20 -24.5v-443q0 -15 -20 -24.5t-35 -9.5q-19 0 -33 7.5t-16 25.5q-2 25 -17 68.5t-38 77t-49 33.5h-261v-485q0 -88 91 -96h289q60 0 104.5 26t84 84t87.5 162q7 16 28 24.5t40 8.5q21 0 40.5 -9t21.5 -25l-40 -372h-1225q-15 0 -24.5 18
t-9.5 33q0 17 7 26zM791 1964q48 0 77.5 -16t49.5 -44l243 -339h-143l-227 201l-222 -201h-148l247 348q35 51 123 51z" />
    <glyph glyph-name="Edieresis" unicode="&#xcb;" horiz-adv-x="1477" 
d="M117 77q7 9 26 11q60 5 103 19.5t43 44.5v1082q0 39 -23 59t-50.5 26t-78.5 12q-22 2 -29 8.5t-7 28.5q0 15 9.5 33t24.5 18h1159l35 -325q1 -15 -15 -24.5t-31 -9.5q-54 0 -72 33q-13 25 -42 84q-28 58 -45.5 85.5t-43 42.5t-66.5 15h-391v-542h267q24 3 46 35t37 72.5
t18 63.5q4 32 46 32q15 0 35 -9.5t20 -24.5v-443q0 -15 -20 -24.5t-35 -9.5q-19 0 -33 7.5t-16 25.5q-2 25 -17 68.5t-38 77t-49 33.5h-261v-485q0 -88 91 -96h289q60 0 104.5 26t84 84t87.5 162q7 16 28 24.5t40 8.5q21 0 40.5 -9t21.5 -25l-40 -372h-1225q-15 0 -24.5 18
t-9.5 33q0 17 7 26zM463.5 1629.5q-38.5 24.5 -59 66.5t-20.5 92q0 51 20.5 93t59 66.5t88.5 24.5t88.5 -24.5t59.5 -66.5t21 -93q0 -50 -21 -92t-59.5 -66.5t-88.5 -24.5t-88.5 24.5zM940.5 1629.5q-38.5 24.5 -59 66.5t-20.5 92q0 51 20.5 93t59 66.5t88.5 24.5
t88.5 -24.5t59.5 -66.5t21 -93q0 -50 -21 -92t-59.5 -66.5t-88.5 -24.5t-88.5 24.5z" />
    <glyph glyph-name="Igrave" unicode="&#xcc;" horiz-adv-x="913" 
d="M119.5 18q-9.5 18 -9.5 33q0 17 7 26t26 11q60 5 102.5 19.5t42.5 44.5l1 1082q0 40 -23.5 60t-53.5 26.5t-75 10.5q-22 2 -29 8.5t-7 28.5q0 15 9.5 33t24.5 18h635q15 0 24.5 -18t9.5 -33q0 -17 -7 -26t-26 -11q-145 -11 -145 -64l-1 -1082q0 -40 23.5 -60t53.5 -26.5
t75 -10.5q22 -2 29 -8.5t7 -28.5q0 -15 -9.5 -33t-24.5 -18h-635q-15 0 -24.5 18zM483.5 1658q-73.5 48 -154.5 97q-69 41 -82 53q-15 14 -24 37.5t-9 49.5q0 51 32 84t81 33q28 0 54.5 -10t42.5 -26t64 -88q61 -88 105.5 -149t104.5 -135l-56 -58q-85 64 -158.5 112z" />
    <glyph glyph-name="Iacute" unicode="&#xcd;" horiz-adv-x="913" 
d="M119.5 18q-9.5 18 -9.5 33q0 17 7 26t26 11q60 5 102.5 19.5t42.5 44.5l1 1082q0 40 -23.5 60t-53.5 26.5t-75 10.5q-22 2 -29 8.5t-7 28.5q0 15 9.5 33t24.5 18h635q15 0 24.5 -18t9.5 -33q0 -17 -7 -26t-26 -11q-145 -11 -145 -64l-1 -1082q0 -40 23.5 -60t53.5 -26.5
t75 -10.5q22 -2 29 -8.5t7 -28.5q0 -15 -9.5 -33t-24.5 -18h-635q-15 0 -24.5 18zM338.5 1739q44.5 61 105.5 149q48 72 64 88t42.5 26t54.5 10q49 0 81 -33t32 -84q0 -26 -9 -49.5t-24 -37.5q-12 -11 -87 -57q-80 -48 -152.5 -95.5t-155.5 -109.5l-56 58q60 74 104.5 135z
" />
    <glyph glyph-name="Icircumflex" unicode="&#xce;" horiz-adv-x="913" 
d="M119.5 18q-9.5 18 -9.5 33q0 17 7 26t26 11q60 5 102.5 19.5t42.5 44.5l1 1082q0 40 -23.5 60t-53.5 26.5t-75 10.5q-22 2 -29 8.5t-7 28.5q0 15 9.5 33t24.5 18h635q15 0 24.5 -18t9.5 -33q0 -17 -7 -26t-26 -11q-145 -11 -145 -64l-1 -1082q0 -40 23.5 -60t53.5 -26.5
t75 -10.5q22 -2 29 -8.5t7 -28.5q0 -15 -9.5 -33t-24.5 -18h-635q-15 0 -24.5 18zM456 1964q48 0 77.5 -16t49.5 -44l243 -339h-143l-227 201l-222 -201h-148l247 348q35 51 123 51z" />
    <glyph glyph-name="Idieresis" unicode="&#xcf;" horiz-adv-x="913" 
d="M119.5 18q-9.5 18 -9.5 33q0 17 7 26t26 11q60 5 102.5 19.5t42.5 44.5l1 1082q0 40 -23.5 60t-53.5 26.5t-75 10.5q-22 2 -29 8.5t-7 28.5q0 15 9.5 33t24.5 18h635q15 0 24.5 -18t9.5 -33q0 -17 -7 -26t-26 -11q-145 -11 -145 -64l-1 -1082q0 -40 23.5 -60t53.5 -26.5
t75 -10.5q22 -2 29 -8.5t7 -28.5q0 -15 -9.5 -33t-24.5 -18h-635q-15 0 -24.5 18zM128.5 1629.5q-38.5 24.5 -59 66.5t-20.5 92q0 51 20.5 93t59 66.5t88.5 24.5t88.5 -24.5t59.5 -66.5t21 -93q0 -50 -21 -92t-59.5 -66.5t-88.5 -24.5t-88.5 24.5zM605.5 1629.5
q-38.5 24.5 -59 66.5t-20.5 92q0 51 20.5 93t59 66.5t88.5 24.5t88.5 -24.5t59.5 -66.5t21 -93q0 -50 -21 -92t-59.5 -66.5t-88.5 -24.5t-88.5 24.5z" />
    <glyph glyph-name="Eth" unicode="&#xd0;" horiz-adv-x="1708" 
d="M1246 1322.5q183 -95.5 275 -250.5t92 -334q0 -244 -116 -410.5t-287 -247t-335 -80.5h-758q-15 0 -24.5 18t-9.5 33q0 17 7 26t26 11q60 5 102.5 19.5t42.5 44.5v542h-140q-11 1 -17.5 11t-6.5 23q0 20 7 39.5t17 23.5h140v443q0 39 -23 59t-50.5 26t-78.5 12
q-22 2 -29 8.5t-7 28.5q0 15 9.5 33t24.5 18h696q260 -1 443 -96.5zM1034 143.5q87 42.5 138 180t51 410.5q0 235 -55.5 364.5t-148 176.5t-223.5 47h-197v-531h291q11 -1 17.5 -15.5t6.5 -28.5q0 -19 -6.5 -33.5t-17.5 -19.5h-292v-526q0 -27 45.5 -47t162.5 -20
q141 0 228 42.5z" />
    <glyph glyph-name="Ntilde" unicode="&#xd1;" horiz-adv-x="1719" 
d="M58.5 18q-9.5 18 -9.5 33q0 17 7 26t26 11q185 14 185 84v1008q0 40 -33 73t-78.5 53.5t-79.5 24.5q-22 2 -29 8.5t-7 28.5q0 15 9.5 33t24.5 18h488l810 -952h12v767q0 39 -30 59t-58.5 25.5t-93.5 12.5q-22 2 -29 8.5t-7 28.5q0 15 9.5 33t24.5 18h475q15 0 24.5 -18
t9.5 -33q0 -17 -7 -26t-26 -11q-175 -20 -175 -92v-1126q0 -18 3 -38l3 -35q3 -35 -33.5 -52.5t-76.5 -17.5q-15 0 -30.5 6.5t-23.5 15.5l-932 1098h-17v-905q0 -35 28.5 -55t65 -27.5t87.5 -12.5l21 -2q22 -2 29 -8.5t7 -28.5q0 -15 -9.5 -33t-24.5 -18h-515
q-15 0 -24.5 18zM979.5 1587.5q-40.5 18.5 -97.5 54.5q-49 32 -83.5 48t-68.5 16q-41 0 -63.5 -15.5t-44.5 -44.5q-14 -18 -23.5 -26t-22.5 -8q-19 0 -37.5 23.5t-18.5 48.5q0 40 32.5 90t88.5 85t123 35q43 0 81.5 -18.5t89.5 -53.5q49 -34 83.5 -50.5t71.5 -16.5
q43 0 67 16t46 45q15 18 24.5 25.5t22.5 7.5q19 0 37.5 -23.5t18.5 -48.5q0 -40 -33.5 -90t-89 -84.5t-118.5 -34.5q-45 1 -85.5 19.5z" />
    <glyph glyph-name="Ograve" unicode="&#xd2;" horiz-adv-x="1679" 
d="M445 70.5q-169 99.5 -259.5 269.5t-90.5 376t90 373t259 263.5t395 96.5t395 -96.5t259.5 -263.5t90.5 -373t-91 -376t-260 -269.5t-394 -99.5t-394 99.5zM1114 233.5q87 168.5 87 480.5q0 310 -89.5 476t-274.5 166t-272.5 -165.5t-87.5 -476.5q0 -310 90.5 -479.5
t275.5 -169.5q184 0 271 168.5zM867.5 1658q-73.5 48 -154.5 97q-69 41 -82 53q-15 14 -24 37.5t-9 49.5q0 51 32 84t81 33q28 0 54.5 -10t42.5 -26t64 -88q61 -88 105.5 -149t104.5 -135l-56 -58q-85 64 -158.5 112z" />
    <glyph glyph-name="Oacute" unicode="&#xd3;" horiz-adv-x="1679" 
d="M445 70.5q-169 99.5 -259.5 269.5t-90.5 376t90 373t259 263.5t395 96.5t395 -96.5t259.5 -263.5t90.5 -373t-91 -376t-260 -269.5t-394 -99.5t-394 99.5zM1114 233.5q87 168.5 87 480.5q0 310 -89.5 476t-274.5 166t-272.5 -165.5t-87.5 -476.5q0 -310 90.5 -479.5
t275.5 -169.5q184 0 271 168.5zM722.5 1739q44.5 61 105.5 149q48 72 64 88t42.5 26t54.5 10q49 0 81 -33t32 -84q0 -26 -9 -49.5t-24 -37.5q-12 -11 -87 -57q-80 -48 -152.5 -95.5t-155.5 -109.5l-56 58q60 74 104.5 135z" />
    <glyph glyph-name="Ocircumflex" unicode="&#xd4;" horiz-adv-x="1679" 
d="M445 70.5q-169 99.5 -259.5 269.5t-90.5 376t90 373t259 263.5t395 96.5t395 -96.5t259.5 -263.5t90.5 -373t-91 -376t-260 -269.5t-394 -99.5t-394 99.5zM1114 233.5q87 168.5 87 480.5q0 310 -89.5 476t-274.5 166t-272.5 -165.5t-87.5 -476.5q0 -310 90.5 -479.5
t275.5 -169.5q184 0 271 168.5zM840 1964q48 0 77.5 -16t49.5 -44l243 -339h-143l-227 201l-222 -201h-148l247 348q35 51 123 51z" />
    <glyph glyph-name="Otilde" unicode="&#xd5;" horiz-adv-x="1679" 
d="M445 70.5q-169 99.5 -259.5 269.5t-90.5 376t90 373t259 263.5t395 96.5t395 -96.5t259.5 -263.5t90.5 -373t-91 -376t-260 -269.5t-394 -99.5t-394 99.5zM1114 233.5q87 168.5 87 480.5q0 310 -89.5 476t-274.5 166t-272.5 -165.5t-87.5 -476.5q0 -310 90.5 -479.5
t275.5 -169.5q184 0 271 168.5zM906.5 1587.5q-40.5 18.5 -97.5 54.5q-49 32 -83.5 48t-68.5 16q-41 0 -63.5 -15.5t-44.5 -44.5q-14 -18 -23.5 -26t-22.5 -8q-19 0 -37.5 23.5t-18.5 48.5q0 40 32.5 90t88.5 85t123 35q43 0 81.5 -18.5t89.5 -53.5q49 -34 83.5 -50.5
t71.5 -16.5q43 0 67 16t46 45q15 18 24.5 25.5t22.5 7.5q19 0 37.5 -23.5t18.5 -48.5q0 -40 -33.5 -90t-89 -84.5t-118.5 -34.5q-45 1 -85.5 19.5z" />
    <glyph glyph-name="Odieresis" unicode="&#xd6;" horiz-adv-x="1679" 
d="M445 70.5q-169 99.5 -259.5 269.5t-90.5 376t90 373t259 263.5t395 96.5t395 -96.5t259.5 -263.5t90.5 -373t-91 -376t-260 -269.5t-394 -99.5t-394 99.5zM1114 233.5q87 168.5 87 480.5q0 310 -89.5 476t-274.5 166t-272.5 -165.5t-87.5 -476.5q0 -310 90.5 -479.5
t275.5 -169.5q184 0 271 168.5zM512.5 1629.5q-38.5 24.5 -59 66.5t-20.5 92q0 51 20.5 93t59 66.5t88.5 24.5t88.5 -24.5t59.5 -66.5t21 -93q0 -50 -21 -92t-59.5 -66.5t-88.5 -24.5t-88.5 24.5zM989.5 1629.5q-38.5 24.5 -59 66.5t-20.5 92q0 51 20.5 93t59 66.5
t88.5 24.5t88.5 -24.5t59.5 -66.5t21 -93q0 -50 -21 -92t-59.5 -66.5t-88.5 -24.5t-88.5 24.5z" />
    <glyph glyph-name="multiply" unicode="&#xd7;" horiz-adv-x="1440" 
d="M257 208l360 365l-360 366l102 106l361 -367l361 367l102 -106l-360 -366l360 -365l-102 -105l-361 366l-361 -366z" />
    <glyph glyph-name="Oslash" unicode="&#xd8;" horiz-adv-x="1679" 
d="M1501.5 1074q82.5 -162 82.5 -358q0 -206 -91 -376t-260 -269.5t-394 -99.5q-174 0 -322 63l-114 -198q-6 -7 -17 -7q-18 0 -32 9q-16 10 -25.5 23.5t-7.5 24.5l111 192q-160 98 -248.5 266t-88.5 372q0 206 90 373t259 263.5t395 96.5q190 0 344 -70l113 196q6 9 20 9
q11 0 22 -6q16 -9 29 -25.5t12 -27.5l-111 -193q151 -96 233.5 -258zM547 277l545 945q-91 134 -255 134q-185 0 -272.5 -165.5t-87.5 -476.5q0 -278 70 -437zM1114 233.5q87 168.5 87 480.5q0 252 -57 404l-542 -937q91 -116 241 -116q184 0 271 168.5z" />
    <glyph glyph-name="Ugrave" unicode="&#xd9;" horiz-adv-x="1707" 
d="M1378 228q-65 -123 -187 -190t-290 -67q-309 0 -485 133t-175 444l1 686q0 40 -21 60.5t-49.5 26.5t-71.5 10q-22 2 -29 8.5t-7 28.5q0 15 9.5 33t24.5 18h634q15 0 24.5 -18t9.5 -33q0 -17 -7.5 -26.5t-25.5 -10.5q-65 -5 -110 -19.5t-45 -44.5l-1 -743
q0 -168 35.5 -268.5t107.5 -145.5t185 -45q141 0 235 62.5t138 164.5t44 222v730q0 43 -53 61t-124 26q-22 2 -29 8.5t-7 28.5q0 15 9.5 33t24.5 18h467q15 0 24.5 -18t9.5 -33q0 -17 -7.5 -26.5t-25.5 -10.5q-79 -3 -122.5 -28.5t-43.5 -72.5l-2 -714q0 -165 -65 -288z
M933.5 1658q-73.5 48 -154.5 97q-69 41 -82 53q-15 14 -24 37.5t-9 49.5q0 51 32 84t81 33q28 0 54.5 -10t42.5 -26t64 -88q61 -88 105.5 -149t104.5 -135l-56 -58q-85 64 -158.5 112z" />
    <glyph glyph-name="Uacute" unicode="&#xda;" horiz-adv-x="1707" 
d="M1378 228q-65 -123 -187 -190t-290 -67q-309 0 -485 133t-175 444l1 686q0 40 -21 60.5t-49.5 26.5t-71.5 10q-22 2 -29 8.5t-7 28.5q0 15 9.5 33t24.5 18h634q15 0 24.5 -18t9.5 -33q0 -17 -7.5 -26.5t-25.5 -10.5q-65 -5 -110 -19.5t-45 -44.5l-1 -743
q0 -168 35.5 -268.5t107.5 -145.5t185 -45q141 0 235 62.5t138 164.5t44 222v730q0 43 -53 61t-124 26q-22 2 -29 8.5t-7 28.5q0 15 9.5 33t24.5 18h467q15 0 24.5 -18t9.5 -33q0 -17 -7.5 -26.5t-25.5 -10.5q-79 -3 -122.5 -28.5t-43.5 -72.5l-2 -714q0 -165 -65 -288z
M788.5 1739q44.5 61 105.5 149q48 72 64 88t42.5 26t54.5 10q49 0 81 -33t32 -84q0 -26 -9 -49.5t-24 -37.5q-12 -11 -87 -57q-80 -48 -152.5 -95.5t-155.5 -109.5l-56 58q60 74 104.5 135z" />
    <glyph glyph-name="Ucircumflex" unicode="&#xdb;" horiz-adv-x="1707" 
d="M1378 228q-65 -123 -187 -190t-290 -67q-309 0 -485 133t-175 444l1 686q0 40 -21 60.5t-49.5 26.5t-71.5 10q-22 2 -29 8.5t-7 28.5q0 15 9.5 33t24.5 18h634q15 0 24.5 -18t9.5 -33q0 -17 -7.5 -26.5t-25.5 -10.5q-65 -5 -110 -19.5t-45 -44.5l-1 -743
q0 -168 35.5 -268.5t107.5 -145.5t185 -45q141 0 235 62.5t138 164.5t44 222v730q0 43 -53 61t-124 26q-22 2 -29 8.5t-7 28.5q0 15 9.5 33t24.5 18h467q15 0 24.5 -18t9.5 -33q0 -17 -7.5 -26.5t-25.5 -10.5q-79 -3 -122.5 -28.5t-43.5 -72.5l-2 -714q0 -165 -65 -288z
M906 1964q48 0 77.5 -16t49.5 -44l243 -339h-143l-227 201l-222 -201h-148l247 348q35 51 123 51z" />
    <glyph glyph-name="Udieresis" unicode="&#xdc;" horiz-adv-x="1707" 
d="M1378 228q-65 -123 -187 -190t-290 -67q-309 0 -485 133t-175 444l1 686q0 40 -21 60.5t-49.5 26.5t-71.5 10q-22 2 -29 8.5t-7 28.5q0 15 9.5 33t24.5 18h634q15 0 24.5 -18t9.5 -33q0 -17 -7.5 -26.5t-25.5 -10.5q-65 -5 -110 -19.5t-45 -44.5l-1 -743
q0 -168 35.5 -268.5t107.5 -145.5t185 -45q141 0 235 62.5t138 164.5t44 222v730q0 43 -53 61t-124 26q-22 2 -29 8.5t-7 28.5q0 15 9.5 33t24.5 18h467q15 0 24.5 -18t9.5 -33q0 -17 -7.5 -26.5t-25.5 -10.5q-79 -3 -122.5 -28.5t-43.5 -72.5l-2 -714q0 -165 -65 -288z
M578.5 1629.5q-38.5 24.5 -59 66.5t-20.5 92q0 51 20.5 93t59 66.5t88.5 24.5t88.5 -24.5t59.5 -66.5t21 -93q0 -50 -21 -92t-59.5 -66.5t-88.5 -24.5t-88.5 24.5zM1055.5 1629.5q-38.5 24.5 -59 66.5t-20.5 92q0 51 20.5 93t59 66.5t88.5 24.5t88.5 -24.5t59.5 -66.5
t21 -93q0 -50 -21 -92t-59.5 -66.5t-88.5 -24.5t-88.5 24.5z" />
    <glyph glyph-name="Yacute" unicode="&#xdd;" horiz-adv-x="1499" 
d="M1523.5 1405q9.5 -14 9.5 -27q0 -22 -7 -28.5t-29 -8.5q-38 -4 -59.5 -8.5t-46 -23t-45.5 -55.5l-405 -719v-370q0 -33 19.5 -49.5t46.5 -21t71 -5.5q24 0 35 -1q25 -3 35.5 -9.5t10.5 -27.5q0 -15 -9.5 -33t-24.5 -18h-695q-15 0 -24.5 18t-9.5 33t12 25t31 12l37 2
q62 1 95 12t33 50v373l-443 729q-23 37 -49.5 55t-49 23t-60.5 9q-22 2 -29 8.5t-7 28.5q0 13 9.5 27t24.5 14h705q16 0 25 -13.5t9 -27.5q0 -17 -7 -26t-26 -11q-9 -1 -27 -1q-66 -4 -94.5 -6.5t-43 -10t-14.5 -22.5q0 -7 9 -22t10 -17l332 -613l348 628q8 15 8 22
q0 18 -36.5 26.5t-114.5 15.5q-18 1 -25.5 10.5t-7.5 26.5q0 14 9 27.5t25 13.5h415q15 0 24.5 -14zM711.5 1739q44.5 61 105.5 149q48 72 64 88t42.5 26t54.5 10q49 0 81 -33t32 -84q0 -26 -9 -49.5t-24 -37.5q-12 -11 -87 -57q-80 -48 -152.5 -95.5t-155.5 -109.5l-56 58
q60 74 104.5 135z" />
    <glyph glyph-name="Thorn" unicode="&#xde;" horiz-adv-x="1450" 
d="M119.5 18q-9.5 18 -9.5 33q0 17 7 26t26 11q136 11 136 64v1082q0 40 -21 60t-47 25.5t-74 11.5q-22 2 -29 8.5t-7 28.5q0 15 9.5 33t24.5 18h625q15 0 24.5 -18t9.5 -33q0 -17 -7 -26t-26 -11q-145 -11 -145 -64v-129l176 2q302 4 452 -91.5t150 -299.5
q0 -127 -60.5 -224t-188.5 -152t-324 -55h-205v-133q0 -40 23 -59.5t50 -25.5t78 -12q22 -2 29 -8.5t7 -28.5q0 -15 -9.5 -33t-24.5 -18h-625q-15 0 -24.5 18zM844 425.5q70 24.5 126 97.5t56 205q0 195 -97.5 264t-247.5 69h-65v-660h102q56 0 126 24.5z" />
    <glyph glyph-name="germandbls" unicode="&#xdf;" horiz-adv-x="1347" 
d="M-7 13.5q-9 13.5 -9 27.5q0 17 7 26t26 11q6 1 42 5t56.5 16.5t20.5 32.5v899q0 149 67 269t196 189.5t307 69.5q123 0 224.5 -24t163 -75.5t61.5 -129.5q0 -65 -26.5 -111t-64 -75t-97.5 -64q-47 -28 -74 -47t-45 -45.5t-18 -61.5q0 -26 31.5 -49t104.5 -62
q100 -52 170.5 -101t122.5 -130.5t52 -194.5q0 -129 -77 -221.5t-186.5 -139.5t-201.5 -47q-155 0 -229.5 51.5t-74.5 147.5q0 38 22 71t55.5 52.5t64.5 19.5l97 -237q24 -16 53 -16q63 0 98.5 56t35.5 161q0 68 -22.5 122.5t-54.5 94.5t-86 96q-50 52 -80 89t-50.5 85
t-20.5 106q0 51 19.5 85.5t58.5 77.5q32 34 51.5 61.5t33 68.5t13.5 97q0 89 -40 143t-113 54q-60 0 -108.5 -22t-85 -104.5t-36.5 -247.5v-1093h-429q-16 0 -25 13.5z" />
    <glyph glyph-name="agrave" unicode="&#xe0;" horiz-adv-x="1220" 
d="M191.5 439q94.5 74 230 107.5t306.5 51.5v165q0 89 -37.5 122.5t-111.5 33.5q-86 0 -114 -17l-159 -267q-71 0 -116.5 39.5t-45.5 101.5q0 80 76.5 133.5t187 79t214.5 25.5q148 0 245 -35.5t143 -98t46 -144.5v-538q0 -39 11 -65.5t27 -26.5q12 0 55 9l26 4
q16 0 23 -17.5t7 -39.5q0 -13 -6 -18q-16 -11 -57.5 -27t-105 -29t-137.5 -13q-75 0 -109 26t-38.5 50t-4.5 58v3q-64 -67 -154.5 -101.5t-197.5 -34.5q-67 0 -136 28t-115.5 88t-46.5 150q0 123 94.5 197zM470.5 159q34.5 -39 96.5 -39q99 0 161 76v322q-85 -13 -146.5 -36
t-103.5 -78t-42 -152q0 -54 34.5 -93zM533.5 1223q-73.5 48 -154.5 97q-69 41 -82 53q-15 14 -24 37.5t-9 49.5q0 51 32 84t81 33q28 0 54.5 -10t42.5 -26t64 -88q61 -88 105.5 -149t104.5 -135l-56 -58q-85 64 -158.5 112z" />
    <glyph glyph-name="aacute" unicode="&#xe1;" horiz-adv-x="1220" 
d="M191.5 439q94.5 74 230 107.5t306.5 51.5v165q0 89 -37.5 122.5t-111.5 33.5q-86 0 -114 -17l-159 -267q-71 0 -116.5 39.5t-45.5 101.5q0 80 76.5 133.5t187 79t214.5 25.5q148 0 245 -35.5t143 -98t46 -144.5v-538q0 -39 11 -65.5t27 -26.5q12 0 55 9l26 4
q16 0 23 -17.5t7 -39.5q0 -13 -6 -18q-16 -11 -57.5 -27t-105 -29t-137.5 -13q-75 0 -109 26t-38.5 50t-4.5 58v3q-64 -67 -154.5 -101.5t-197.5 -34.5q-67 0 -136 28t-115.5 88t-46.5 150q0 123 94.5 197zM470.5 159q34.5 -39 96.5 -39q99 0 161 76v322q-85 -13 -146.5 -36
t-103.5 -78t-42 -152q0 -54 34.5 -93zM551.5 1304q44.5 61 105.5 149q48 72 64 88t42.5 26t54.5 10q49 0 81 -33t32 -84q0 -26 -9 -49.5t-24 -37.5q-12 -11 -87 -57q-80 -48 -152.5 -95.5t-155.5 -109.5l-56 58q60 74 104.5 135z" />
    <glyph glyph-name="acircumflex" unicode="&#xe2;" horiz-adv-x="1220" 
d="M191.5 439q94.5 74 230 107.5t306.5 51.5v165q0 89 -37.5 122.5t-111.5 33.5q-86 0 -114 -17l-159 -267q-71 0 -116.5 39.5t-45.5 101.5q0 80 76.5 133.5t187 79t214.5 25.5q148 0 245 -35.5t143 -98t46 -144.5v-538q0 -39 11 -65.5t27 -26.5q12 0 55 9l26 4
q16 0 23 -17.5t7 -39.5q0 -13 -6 -18q-16 -11 -57.5 -27t-105 -29t-137.5 -13q-75 0 -109 26t-38.5 50t-4.5 58v3q-64 -67 -154.5 -101.5t-197.5 -34.5q-67 0 -136 28t-115.5 88t-46.5 150q0 123 94.5 197zM470.5 159q34.5 -39 96.5 -39q99 0 161 76v322q-85 -13 -146.5 -36
t-103.5 -78t-42 -152q0 -54 34.5 -93zM609 1559q86 0 127 -60l243 -359h-143l-227 211l-222 -211h-148l247 368q35 51 123 51z" />
    <glyph glyph-name="atilde" unicode="&#xe3;" horiz-adv-x="1220" 
d="M191.5 439q94.5 74 230 107.5t306.5 51.5v165q0 89 -37.5 122.5t-111.5 33.5q-86 0 -114 -17l-159 -267q-71 0 -116.5 39.5t-45.5 101.5q0 80 76.5 133.5t187 79t214.5 25.5q148 0 245 -35.5t143 -98t46 -144.5v-538q0 -39 11 -65.5t27 -26.5q12 0 55 9l26 4
q16 0 23 -17.5t7 -39.5q0 -13 -6 -18q-16 -11 -57.5 -27t-105 -29t-137.5 -13q-75 0 -109 26t-38.5 50t-4.5 58v3q-64 -67 -154.5 -101.5t-197.5 -34.5q-67 0 -136 28t-115.5 88t-46.5 150q0 123 94.5 197zM470.5 159q34.5 -39 96.5 -39q99 0 161 76v322q-85 -13 -146.5 -36
t-103.5 -78t-42 -152q0 -54 34.5 -93zM675.5 1138.5q-40.5 18.5 -97.5 54.5q-49 32 -83.5 48t-68.5 16q-41 0 -63.5 -15.5t-44.5 -44.5q-14 -18 -23.5 -26t-22.5 -8q-19 0 -37.5 23.5t-18.5 48.5q0 40 32.5 90t88.5 85t123 35q43 0 81.5 -18.5t89.5 -53.5q49 -34 83.5 -50.5
t71.5 -16.5q43 0 67 16t46 45q15 18 24.5 25.5t22.5 7.5q19 0 37.5 -23.5t18.5 -48.5q0 -40 -33.5 -90t-89 -84.5t-118.5 -34.5q-45 1 -85.5 19.5z" />
    <glyph glyph-name="adieresis" unicode="&#xe4;" horiz-adv-x="1220" 
d="M191.5 439q94.5 74 230 107.5t306.5 51.5v165q0 89 -37.5 122.5t-111.5 33.5q-86 0 -114 -17l-159 -267q-71 0 -116.5 39.5t-45.5 101.5q0 80 76.5 133.5t187 79t214.5 25.5q148 0 245 -35.5t143 -98t46 -144.5v-538q0 -39 11 -65.5t27 -26.5q12 0 55 9l26 4
q16 0 23 -17.5t7 -39.5q0 -13 -6 -18q-16 -11 -57.5 -27t-105 -29t-137.5 -13q-75 0 -109 26t-38.5 50t-4.5 58v3q-64 -67 -154.5 -101.5t-197.5 -34.5q-67 0 -136 28t-115.5 88t-46.5 150q0 123 94.5 197zM470.5 159q34.5 -39 96.5 -39q99 0 161 76v322q-85 -13 -146.5 -36
t-103.5 -78t-42 -152q0 -54 34.5 -93zM281.5 1204.5q-38.5 24.5 -59 66.5t-20.5 92q0 51 20.5 93t59 66.5t88.5 24.5t88.5 -24.5t59.5 -66.5t21 -93q0 -50 -21 -92t-59.5 -66.5t-88.5 -24.5t-88.5 24.5zM758.5 1204.5q-38.5 24.5 -59 66.5t-20.5 92q0 51 20.5 93t59 66.5
t88.5 24.5t88.5 -24.5t59.5 -66.5t21 -93q0 -50 -21 -92t-59.5 -66.5t-88.5 -24.5t-88.5 24.5z" />
    <glyph glyph-name="aring" unicode="&#xe5;" horiz-adv-x="1220" 
d="M191.5 439q94.5 74 230 107.5t306.5 51.5v165q0 89 -37.5 122.5t-111.5 33.5q-86 0 -114 -17l-159 -267q-71 0 -116.5 39.5t-45.5 101.5q0 80 76.5 133.5t187 79t214.5 25.5q148 0 245 -35.5t143 -98t46 -144.5v-538q0 -39 11 -65.5t27 -26.5q12 0 55 9l26 4
q16 0 23 -17.5t7 -39.5q0 -13 -6 -18q-16 -11 -57.5 -27t-105 -29t-137.5 -13q-75 0 -109 26t-38.5 50t-4.5 58v3q-64 -67 -154.5 -101.5t-197.5 -34.5q-67 0 -136 28t-115.5 88t-46.5 150q0 123 94.5 197zM470.5 159q34.5 -39 96.5 -39q99 0 161 76v322q-85 -13 -146.5 -36
t-103.5 -78t-42 -152q0 -54 34.5 -93zM452 1151q-71 35 -112 99.5t-41 149.5t41 149t112 99t157 35q85 0 156 -36.5t112.5 -101.5t41.5 -148q0 -85 -41.5 -148.5t-112 -98t-156.5 -34.5t-157 35zM717 1301q35 39 35 100t-35 99t-108 38t-107.5 -39t-34.5 -100t34.5 -99
t107.5 -38t108 39z" />
    <glyph glyph-name="ae" unicode="&#xe6;" horiz-adv-x="1756" 
d="M259 4q-69 28 -115.5 88t-46.5 150q0 123 94.5 197t230 107.5t306.5 51.5v165q0 89 -37.5 122.5t-111.5 33.5q-42 0 -72 -5.5t-45 -13.5l-158 -255q-66 0 -111.5 33.5t-45.5 102.5q0 73 75.5 125.5t186.5 80t213 27.5q64 0 109 -11t78.5 -30.5t72.5 -53.5
q66 46 147.5 70.5t171.5 24.5q154 0 252.5 -40t151.5 -114.5t74 -185.5q6 -32 7.5 -70t1.5 -95h-674q0 -145 41.5 -235.5t104.5 -129.5t133 -39q96 0 161 23.5t113 79.5q1 1 5.5 6.5t9.5 7.5t11 1l44 -21q10 -4 10 -12q0 -6 -6 -17q-54 -94 -161 -148t-263 -54
q-171 0 -277 45t-137 131q-47 -59 -100 -96t-127.5 -56t-180.5 -19q-67 0 -136 28zM1317.5 851.5q-37.5 77.5 -119.5 77.5q-70 0 -120 -80t-61 -248h338q0 173 -37.5 250.5zM727 196l1 322q-86 -13 -147.5 -36t-103 -78t-41.5 -152q0 -54 34.5 -93t96.5 -39q100 0 160 76z
" />
    <glyph glyph-name="ccedilla" unicode="&#xe7;" horiz-adv-x="1088" 
d="M1013 190q0 -6 -6 -17q-51 -89 -151 -145.5t-213 -56.5h-24l-20 -71q111 -6 173 -57t62 -130q0 -62 -34 -110t-98.5 -74.5t-152.5 -26.5q-74 0 -135 20t-93 41q-8 5 -8 12l2 8q8 18 32 67q3 7 7 9t11 -1q36 -15 69 -23.5t70 -8.5q57 0 91 25.5t34 65.5q0 39 -46 65.5
t-132 25.5l29 176q-207 36 -308.5 167.5t-101.5 338.5q0 161 72 279.5t201.5 181.5t299.5 63q154 0 249 -48t137 -146q9 -20 11.5 -33.5t2.5 -31.5q0 -49 -24 -82.5t-57.5 -49.5t-61.5 -16q-34 0 -64 19.5t-39 40.5l-103 245q-19 17 -56 17q-64 0 -114.5 -45t-79.5 -143.5
t-29 -250.5q0 -127 36 -213.5t93.5 -129t124.5 -42.5q81 0 151 26.5t113 76.5q1 1 5.5 6.5t9.5 7.5t11 1l44 -21q10 -4 10 -12z" />
    <glyph glyph-name="egrave" unicode="&#xe8;" horiz-adv-x="1171" 
d="M210 108q-141 137 -141 394q0 161 75.5 277t202.5 175.5t279 59.5q222 0 331 -86.5t137 -253.5q9 -54 9 -165l-694 -1q0 -145 45.5 -235t115.5 -129t148 -39q92 0 154.5 24t109.5 79q1 1 5.5 6.5t9.5 7.5t11 1l44 -21q10 -4 10 -12q0 -6 -6 -17q-54 -94 -158 -148
t-256 -54q-291 0 -432 137zM735 851.5q-35 77.5 -112 77.5q-81 0 -139.5 -80.5t-71.5 -247.5h358q0 173 -35 250.5zM557.5 1223q-73.5 48 -154.5 97q-69 41 -82 53q-15 14 -24 37.5t-9 49.5q0 51 32 84t81 33q28 0 54.5 -10t42.5 -26t64 -88q61 -88 105.5 -149t104.5 -135
l-56 -58q-85 64 -158.5 112z" />
    <glyph glyph-name="eacute" unicode="&#xe9;" horiz-adv-x="1171" 
d="M210 108q-141 137 -141 394q0 161 75.5 277t202.5 175.5t279 59.5q222 0 331 -86.5t137 -253.5q9 -54 9 -165l-694 -1q0 -145 45.5 -235t115.5 -129t148 -39q92 0 154.5 24t109.5 79q1 1 5.5 6.5t9.5 7.5t11 1l44 -21q10 -4 10 -12q0 -6 -6 -17q-54 -94 -158 -148
t-256 -54q-291 0 -432 137zM735 851.5q-35 77.5 -112 77.5q-81 0 -139.5 -80.5t-71.5 -247.5h358q0 173 -35 250.5zM575.5 1304q44.5 61 105.5 149q48 72 64 88t42.5 26t54.5 10q49 0 81 -33t32 -84q0 -26 -9 -49.5t-24 -37.5q-12 -11 -87 -57q-80 -48 -152.5 -95.5
t-155.5 -109.5l-56 58q60 74 104.5 135z" />
    <glyph glyph-name="ecircumflex" unicode="&#xea;" horiz-adv-x="1171" 
d="M210 108q-141 137 -141 394q0 161 75.5 277t202.5 175.5t279 59.5q222 0 331 -86.5t137 -253.5q9 -54 9 -165l-694 -1q0 -145 45.5 -235t115.5 -129t148 -39q92 0 154.5 24t109.5 79q1 1 5.5 6.5t9.5 7.5t11 1l44 -21q10 -4 10 -12q0 -6 -6 -17q-54 -94 -158 -148
t-256 -54q-291 0 -432 137zM735 851.5q-35 77.5 -112 77.5q-81 0 -139.5 -80.5t-71.5 -247.5h358q0 173 -35 250.5zM633 1559q86 0 127 -60l243 -359h-143l-227 211l-222 -211h-148l247 368q35 51 123 51z" />
    <glyph glyph-name="edieresis" unicode="&#xeb;" horiz-adv-x="1171" 
d="M210 108q-141 137 -141 394q0 161 75.5 277t202.5 175.5t279 59.5q222 0 331 -86.5t137 -253.5q9 -54 9 -165l-694 -1q0 -145 45.5 -235t115.5 -129t148 -39q92 0 154.5 24t109.5 79q1 1 5.5 6.5t9.5 7.5t11 1l44 -21q10 -4 10 -12q0 -6 -6 -17q-54 -94 -158 -148
t-256 -54q-291 0 -432 137zM735 851.5q-35 77.5 -112 77.5q-81 0 -139.5 -80.5t-71.5 -247.5h358q0 173 -35 250.5zM305.5 1204.5q-38.5 24.5 -59 66.5t-20.5 92q0 51 20.5 93t59 66.5t88.5 24.5t88.5 -24.5t59.5 -66.5t21 -93q0 -50 -21 -92t-59.5 -66.5t-88.5 -24.5
t-88.5 24.5zM782.5 1204.5q-38.5 24.5 -59 66.5t-20.5 92q0 51 20.5 93t59 66.5t88.5 24.5t88.5 -24.5t59.5 -66.5t21 -93q0 -50 -21 -92t-59.5 -66.5t-88.5 -24.5t-88.5 24.5z" />
    <glyph glyph-name="igrave" unicode="&#xec;" horiz-adv-x="724" 
d="M81 13.5q-9 13.5 -9 27.5q0 17 7.5 26.5t25.5 10.5q47 4 81 16.5t34 37.5l1 646q0 46 -16.5 70t-39 32t-58.5 13q-31 5 -35 6q-12 5 -18 14t-6 26q0 14 6.5 28.5t17.5 15.5q222 14 435 14q11 0 20.5 -9.5t9.5 -30.5v-792q0 -35 18.5 -53.5t42.5 -24t61 -9.5
q22 -2 29 -8.5t7 -28.5q0 -13 -9.5 -27t-24.5 -14h-555q-16 0 -25 13.5zM296.5 1223q-73.5 48 -154.5 97q-69 41 -82 53q-15 14 -24 37.5t-9 49.5q0 51 32 84t81 33q28 0 54.5 -10t42.5 -26t64 -88q61 -88 105.5 -149t104.5 -135l-56 -58q-85 64 -158.5 112z" />
    <glyph glyph-name="iacute" unicode="&#xed;" horiz-adv-x="724" 
d="M81 13.5q-9 13.5 -9 27.5q0 17 7.5 26.5t25.5 10.5q47 4 81 16.5t34 37.5l1 646q0 46 -16.5 70t-39 32t-58.5 13q-31 5 -35 6q-12 5 -18 14t-6 26q0 14 6.5 28.5t17.5 15.5q222 14 435 14q11 0 20.5 -9.5t9.5 -30.5v-792q0 -35 18.5 -53.5t42.5 -24t61 -9.5
q22 -2 29 -8.5t7 -28.5q0 -13 -9.5 -27t-24.5 -14h-555q-16 0 -25 13.5zM314.5 1304q44.5 61 105.5 149q48 72 64 88t42.5 26t54.5 10q49 0 81 -33t32 -84q0 -26 -9 -49.5t-24 -37.5q-12 -11 -87 -57q-80 -48 -152.5 -95.5t-155.5 -109.5l-56 58q60 74 104.5 135z" />
    <glyph glyph-name="icircumflex" unicode="&#xee;" horiz-adv-x="724" 
d="M81 13.5q-9 13.5 -9 27.5q0 17 7.5 26.5t25.5 10.5q47 4 81 16.5t34 37.5l1 646q0 46 -16.5 70t-39 32t-58.5 13q-31 5 -35 6q-12 5 -18 14t-6 26q0 14 6.5 28.5t17.5 15.5q222 14 435 14q11 0 20.5 -9.5t9.5 -30.5v-792q0 -35 18.5 -53.5t42.5 -24t61 -9.5
q22 -2 29 -8.5t7 -28.5q0 -13 -9.5 -27t-24.5 -14h-555q-16 0 -25 13.5zM372 1559q86 0 127 -60l243 -359h-143l-227 211l-222 -211h-148l247 368q35 51 123 51z" />
    <glyph glyph-name="idieresis" unicode="&#xef;" horiz-adv-x="724" 
d="M81 13.5q-9 13.5 -9 27.5q0 17 7.5 26.5t25.5 10.5q47 4 81 16.5t34 37.5l1 646q0 46 -16.5 70t-39 32t-58.5 13q-31 5 -35 6q-12 5 -18 14t-6 26q0 14 6.5 28.5t17.5 15.5q222 14 435 14q11 0 20.5 -9.5t9.5 -30.5v-792q0 -35 18.5 -53.5t42.5 -24t61 -9.5
q22 -2 29 -8.5t7 -28.5q0 -13 -9.5 -27t-24.5 -14h-555q-16 0 -25 13.5zM44.5 1204.5q-38.5 24.5 -59 66.5t-20.5 92q0 51 20.5 93t59 66.5t88.5 24.5t88.5 -24.5t59.5 -66.5t21 -93q0 -50 -21 -92t-59.5 -66.5t-88.5 -24.5t-88.5 24.5zM521.5 1204.5q-38.5 24.5 -59 66.5
t-20.5 92q0 51 20.5 93t59 66.5t88.5 24.5t88.5 -24.5t59.5 -66.5t21 -93q0 -50 -21 -92t-59.5 -66.5t-88.5 -24.5t-88.5 24.5z" />
    <glyph glyph-name="eth" unicode="&#xf0;" horiz-adv-x="1306" 
d="M145.5 723.5q67.5 117.5 193.5 182.5t296 65q68 0 130 -24t108 -67q-36 145 -99.5 270.5t-153.5 197.5l-207 -162q-9 0 -19 6.5t-17 14.5q-19 22 -19 44q0 8 2 12l176 142q-67 41 -120 62t-127 28q-8 1 -13 13.5t-5 29.5q0 16 4 28q7 21 14 30.5t21 9.5q103 -7 183 -31
t174 -69l187 145q7 5 14 5q13 0 26 -15q11 -12 17.5 -27t6.5 -27q0 -4 -2 -10l-157 -122q150 -93 255.5 -230.5t159.5 -298t54 -324.5q0 -178 -62 -320.5t-191 -226.5t-320 -84q-171 0 -302 61t-203 170t-72 249q0 155 67.5 272.5zM478.5 151q53.5 -85 173.5 -85
q93 0 142.5 67.5t65.5 176.5t16 266v5q0 105 -19.5 163t-67.5 83.5t-138 25.5q-76 0 -126.5 -57t-75 -154.5t-24.5 -220.5q0 -185 53.5 -270z" />
    <glyph glyph-name="ntilde" unicode="&#xf1;" horiz-adv-x="1413" 
d="M80 13.5q-9 13.5 -9 27.5q0 17 7 26t26 11q106 13 106 64v636q0 46 -17 70t-39.5 32t-58.5 13q-29 4 -34 6q-12 5 -18 14t-6 26q0 14 6.5 28.5t17.5 15.5q234 14 423 14q10 0 19 -9t11 -31v-112q23 27 86 67.5t146.5 71t164.5 30.5q148 0 235 -63.5t87 -234.5v-541
q0 -56 28 -73t58.5 -20t40.5 -4q18 -2 25.5 -9.5t7.5 -27.5q0 -14 -9 -27.5t-25 -13.5h-537q-16 0 -25 13.5t-9 27.5q0 18 6 26.5t25 10.5q37 4 66.5 21t29.5 43v569q0 39 -6 70t-32.5 56t-80.5 25q-51 0 -104.5 -19.5t-98 -48.5t-69.5 -57v-562q0 -40 14.5 -60.5t35.5 -27
t54 -9.5q22 -2 29 -8.5t7 -28.5q0 -13 -9.5 -27t-24.5 -14h-525q-16 0 -25 13.5zM780.5 1138.5q-40.5 18.5 -97.5 54.5q-49 32 -83.5 48t-68.5 16q-41 0 -63.5 -15.5t-44.5 -44.5q-14 -18 -23.5 -26t-22.5 -8q-19 0 -37.5 23.5t-18.5 48.5q0 40 32.5 90t88.5 85t123 35
q43 0 81.5 -18.5t89.5 -53.5q49 -34 83.5 -50.5t71.5 -16.5q43 0 67 16t46 45q15 18 24.5 25.5t22.5 7.5q19 0 37.5 -23.5t18.5 -48.5q0 -40 -33.5 -90t-89 -84.5t-118.5 -34.5q-45 1 -85.5 19.5z" />
    <glyph glyph-name="ograve" unicode="&#xf2;" horiz-adv-x="1302" 
d="M148 779q72 117 202.5 176t306.5 59t304 -59t196.5 -176t68.5 -287t-70.5 -287t-199.5 -175.5t-306 -58.5q-176 0 -305 58.5t-199 175.5t-70 287t72 287zM447 257.5q20 -92.5 69.5 -142t136.5 -49.5q86 0 134.5 49.5t67.5 141.5t19 235q0 142 -20 234.5t-69.5 142
t-135.5 49.5t-135 -49.5t-68 -142t-19 -234.5t20 -234.5zM576.5 1223q-73.5 48 -154.5 97q-69 41 -82 53q-15 14 -24 37.5t-9 49.5q0 51 32 84t81 33q28 0 54.5 -10t42.5 -26t64 -88q61 -88 105.5 -149t104.5 -135l-56 -58q-85 64 -158.5 112z" />
    <glyph glyph-name="oacute" unicode="&#xf3;" horiz-adv-x="1302" 
d="M148 779q72 117 202.5 176t306.5 59t304 -59t196.5 -176t68.5 -287t-70.5 -287t-199.5 -175.5t-306 -58.5q-176 0 -305 58.5t-199 175.5t-70 287t72 287zM447 257.5q20 -92.5 69.5 -142t136.5 -49.5q86 0 134.5 49.5t67.5 141.5t19 235q0 142 -20 234.5t-69.5 142
t-135.5 49.5t-135 -49.5t-68 -142t-19 -234.5t20 -234.5zM594.5 1304q44.5 61 105.5 149q48 72 64 88t42.5 26t54.5 10q49 0 81 -33t32 -84q0 -26 -9 -49.5t-24 -37.5q-12 -11 -87 -57q-80 -48 -152.5 -95.5t-155.5 -109.5l-56 58q60 74 104.5 135z" />
    <glyph glyph-name="ocircumflex" unicode="&#xf4;" horiz-adv-x="1302" 
d="M148 779q72 117 202.5 176t306.5 59t304 -59t196.5 -176t68.5 -287t-70.5 -287t-199.5 -175.5t-306 -58.5q-176 0 -305 58.5t-199 175.5t-70 287t72 287zM447 257.5q20 -92.5 69.5 -142t136.5 -49.5q86 0 134.5 49.5t67.5 141.5t19 235q0 142 -20 234.5t-69.5 142
t-135.5 49.5t-135 -49.5t-68 -142t-19 -234.5t20 -234.5zM652 1559q86 0 127 -60l243 -359h-143l-227 211l-222 -211h-148l247 368q35 51 123 51z" />
    <glyph glyph-name="otilde" unicode="&#xf5;" horiz-adv-x="1302" 
d="M148 779q72 117 202.5 176t306.5 59t304 -59t196.5 -176t68.5 -287t-70.5 -287t-199.5 -175.5t-306 -58.5q-176 0 -305 58.5t-199 175.5t-70 287t72 287zM447 257.5q20 -92.5 69.5 -142t136.5 -49.5q86 0 134.5 49.5t67.5 141.5t19 235q0 142 -20 234.5t-69.5 142
t-135.5 49.5t-135 -49.5t-68 -142t-19 -234.5t20 -234.5zM718.5 1138.5q-40.5 18.5 -97.5 54.5q-49 32 -83.5 48t-68.5 16q-41 0 -63.5 -15.5t-44.5 -44.5q-14 -18 -23.5 -26t-22.5 -8q-19 0 -37.5 23.5t-18.5 48.5q0 40 32.5 90t88.5 85t123 35q43 0 81.5 -18.5t89.5 -53.5
q49 -34 83.5 -50.5t71.5 -16.5q43 0 67 16t46 45q15 18 24.5 25.5t22.5 7.5q19 0 37.5 -23.5t18.5 -48.5q0 -40 -33.5 -90t-89 -84.5t-118.5 -34.5q-45 1 -85.5 19.5z" />
    <glyph glyph-name="odieresis" unicode="&#xf6;" horiz-adv-x="1302" 
d="M148 779q72 117 202.5 176t306.5 59t304 -59t196.5 -176t68.5 -287t-70.5 -287t-199.5 -175.5t-306 -58.5q-176 0 -305 58.5t-199 175.5t-70 287t72 287zM447 257.5q20 -92.5 69.5 -142t136.5 -49.5q86 0 134.5 49.5t67.5 141.5t19 235q0 142 -20 234.5t-69.5 142
t-135.5 49.5t-135 -49.5t-68 -142t-19 -234.5t20 -234.5zM324.5 1204.5q-38.5 24.5 -59 66.5t-20.5 92q0 51 20.5 93t59 66.5t88.5 24.5t88.5 -24.5t59.5 -66.5t21 -93q0 -50 -21 -92t-59.5 -66.5t-88.5 -24.5t-88.5 24.5zM801.5 1204.5q-38.5 24.5 -59 66.5t-20.5 92
q0 51 20.5 93t59 66.5t88.5 24.5t88.5 -24.5t59.5 -66.5t21 -93q0 -50 -21 -92t-59.5 -66.5t-88.5 -24.5t-88.5 24.5z" />
    <glyph glyph-name="divide" unicode="&#xf7;" horiz-adv-x="1440" 
d="M560.5 1056.5q25.5 42.5 69.5 67.5t98 25t98.5 -25t70.5 -67.5t26 -93.5t-26 -96.5t-71 -72.5t-98 -27t-97.5 27t-70 72t-25.5 97q0 51 25.5 93.5zM235 647h970v-146h-970v146zM560.5 289.5q25.5 42.5 69.5 67.5t98 25t98.5 -25t70.5 -67.5t26 -93.5t-26 -96.5t-71 -72.5
t-98 -27t-97.5 27t-70 72t-25.5 97q0 51 25.5 93.5z" />
    <glyph glyph-name="oslash" unicode="&#xf8;" horiz-adv-x="1302" 
d="M1150 791q76 -120 76 -299q0 -170 -70.5 -287t-199.5 -175.5t-306 -58.5q-109 0 -197 22l-81 -165q-6 -7 -17 -7q-18 0 -32 9q-16 10 -25.5 23.5t-7.5 24.5l71 145q-137 57 -211 175.5t-74 293.5q0 170 72 287t202.5 176t306.5 59q101 0 183 -19l78 159q6 9 20 9
q11 0 22 -6q16 -9 29 -25.5t12 -27.5l-68 -137q141 -56 217 -176zM455 214l325 660q-50 44 -131 44q-87 0 -137 -49.5t-70.5 -142.5t-20.5 -234q0 -177 34 -278zM789 115.5q50 49.5 70.5 142.5t20.5 234q0 188 -38 289l-328 -665q53 -50 139 -50t136 49.5z" />
    <glyph glyph-name="ugrave" unicode="&#xf9;" horiz-adv-x="1386" 
d="M349.5 -3q-72.5 24 -115 89.5t-42.5 183.5v549q0 40 -16 60.5t-38 27t-56 9.5q-22 2 -29 8.5t-7 28.5q0 13 9.5 27t24.5 14h391q37 0 37 -36v-597q0 -234 111 -234q83 0 143.5 28t111.5 83v581q0 40 -20.5 60.5t-49 27t-72.5 9.5q-22 2 -29 8.5t-7 28.5q0 14 9 27.5
t25 13.5h423q37 0 37 -36v-736q0 -63 11.5 -83.5t32.5 -20.5q36 0 52 8q15 8 27 -19t12 -53q0 -14 -5 -17q-34 -22 -105.5 -42t-181.5 -20q-87 0 -115 53.5t-27 118.5q-32 -46 -90.5 -86t-130 -64t-142.5 -24q-106 0 -178.5 24zM609.5 1223q-73.5 48 -154.5 97
q-69 41 -82 53q-15 14 -24 37.5t-9 49.5q0 51 32 84t81 33q28 0 54.5 -10t42.5 -26t64 -88q61 -88 105.5 -149t104.5 -135l-56 -58q-85 64 -158.5 112z" />
    <glyph glyph-name="uacute" unicode="&#xfa;" horiz-adv-x="1386" 
d="M349.5 -3q-72.5 24 -115 89.5t-42.5 183.5v549q0 40 -16 60.5t-38 27t-56 9.5q-22 2 -29 8.5t-7 28.5q0 13 9.5 27t24.5 14h391q37 0 37 -36v-597q0 -234 111 -234q83 0 143.5 28t111.5 83v581q0 40 -20.5 60.5t-49 27t-72.5 9.5q-22 2 -29 8.5t-7 28.5q0 14 9 27.5
t25 13.5h423q37 0 37 -36v-736q0 -63 11.5 -83.5t32.5 -20.5q36 0 52 8q15 8 27 -19t12 -53q0 -14 -5 -17q-34 -22 -105.5 -42t-181.5 -20q-87 0 -115 53.5t-27 118.5q-32 -46 -90.5 -86t-130 -64t-142.5 -24q-106 0 -178.5 24zM627.5 1304q44.5 61 105.5 149q48 72 64 88
t42.5 26t54.5 10q49 0 81 -33t32 -84q0 -26 -9 -49.5t-24 -37.5q-12 -11 -87 -57q-80 -48 -152.5 -95.5t-155.5 -109.5l-56 58q60 74 104.5 135z" />
    <glyph glyph-name="ucircumflex" unicode="&#xfb;" horiz-adv-x="1386" 
d="M349.5 -3q-72.5 24 -115 89.5t-42.5 183.5v549q0 40 -16 60.5t-38 27t-56 9.5q-22 2 -29 8.5t-7 28.5q0 13 9.5 27t24.5 14h391q37 0 37 -36v-597q0 -234 111 -234q83 0 143.5 28t111.5 83v581q0 40 -20.5 60.5t-49 27t-72.5 9.5q-22 2 -29 8.5t-7 28.5q0 14 9 27.5
t25 13.5h423q37 0 37 -36v-736q0 -63 11.5 -83.5t32.5 -20.5q36 0 52 8q15 8 27 -19t12 -53q0 -14 -5 -17q-34 -22 -105.5 -42t-181.5 -20q-87 0 -115 53.5t-27 118.5q-32 -46 -90.5 -86t-130 -64t-142.5 -24q-106 0 -178.5 24zM685 1559q86 0 127 -60l243 -359h-143
l-227 211l-222 -211h-148l247 368q35 51 123 51z" />
    <glyph glyph-name="udieresis" unicode="&#xfc;" horiz-adv-x="1386" 
d="M349.5 -3q-72.5 24 -115 89.5t-42.5 183.5v549q0 40 -16 60.5t-38 27t-56 9.5q-22 2 -29 8.5t-7 28.5q0 13 9.5 27t24.5 14h391q37 0 37 -36v-597q0 -234 111 -234q83 0 143.5 28t111.5 83v581q0 40 -20.5 60.5t-49 27t-72.5 9.5q-22 2 -29 8.5t-7 28.5q0 14 9 27.5
t25 13.5h423q37 0 37 -36v-736q0 -63 11.5 -83.5t32.5 -20.5q36 0 52 8q15 8 27 -19t12 -53q0 -14 -5 -17q-34 -22 -105.5 -42t-181.5 -20q-87 0 -115 53.5t-27 118.5q-32 -46 -90.5 -86t-130 -64t-142.5 -24q-106 0 -178.5 24zM357.5 1204.5q-38.5 24.5 -59 66.5t-20.5 92
q0 51 20.5 93t59 66.5t88.5 24.5t88.5 -24.5t59.5 -66.5t21 -93q0 -50 -21 -92t-59.5 -66.5t-88.5 -24.5t-88.5 24.5zM834.5 1204.5q-38.5 24.5 -59 66.5t-20.5 92q0 51 20.5 93t59 66.5t88.5 24.5t88.5 -24.5t59.5 -66.5t21 -93q0 -50 -21 -92t-59.5 -66.5t-88.5 -24.5
t-88.5 24.5z" />
    <glyph glyph-name="yacute" unicode="&#xfd;" horiz-adv-x="1151" 
d="M177 -426q-49 23 -81.5 62t-32.5 85q0 55 30.5 89t81.5 34l112 -127q54 0 94.5 27t74 75.5t85.5 141.5l-411 868q-23 48 -51 65.5t-71 21.5q-22 2 -29 8.5t-7 28.5q0 14 9 27.5t24 13.5h567q16 0 25 -13.5t9 -27.5q0 -17 -7 -26t-26 -11q-49 -6 -78.5 -14.5t-29.5 -28.5
l231 -591l207 590q0 21 -30.5 29.5t-82.5 14.5q-19 2 -26 11t-7 26q0 14 9 27.5t25 13.5h355q15 0 24.5 -14t9.5 -27q0 -22 -7 -28.5t-29 -8.5q-42 -4 -66.5 -21t-45.5 -66l-279 -673l-14 -34q-85 -204 -142 -315t-136 -183.5t-187 -72.5q-48 0 -97 23zM574.5 1304
q44.5 61 105.5 149q48 72 64 88t42.5 26t54.5 10q49 0 81 -33t32 -84q0 -26 -9 -49.5t-24 -37.5q-12 -11 -87 -57q-80 -48 -152.5 -95.5t-155.5 -109.5l-56 58q60 74 104.5 135z" />
    <glyph glyph-name="thorn" unicode="&#xfe;" horiz-adv-x="1321" 
d="M-5.5 -430q-9.5 14 -9.5 27q0 22 7 28.5t29 8.5q36 4 60.5 10.5t43 26.5t18.5 60v1598q0 47 -17 71.5t-40.5 33t-59.5 14.5q-28 5 -32 6q-12 5 -18 14t-6 26q0 14 6.5 28.5t17.5 15.5q173 10 388 10h42q14 0 22 -15t8 -33v-485l-5 -138q48 66 141 101.5t187 35.5
q157 0 257 -71.5t145.5 -188.5t45.5 -261q0 -139 -57.5 -258t-172.5 -191.5t-280 -72.5q-157 0 -271 24l10 -122v-175q0 -54 151 -64q19 -2 26 -11t7 -26q0 -14 -9 -27.5t-25 -13.5h-585q-15 0 -24.5 14zM826.5 181.5q61.5 105.5 61.5 311.5q0 182 -59 279t-195 97
q-50 0 -103 -24.5t-77 -68.5v-612q9 -15 37 -36t63 -36.5t64 -15.5q147 0 208.5 105.5z" />
    <glyph glyph-name="ydieresis" unicode="&#xff;" horiz-adv-x="1151" 
d="M177 -426q-49 23 -81.5 62t-32.5 85q0 55 30.5 89t81.5 34l112 -127q54 0 94.5 27t74 75.5t85.5 141.5l-411 868q-23 48 -51 65.5t-71 21.5q-22 2 -29 8.5t-7 28.5q0 14 9 27.5t24 13.5h567q16 0 25 -13.5t9 -27.5q0 -17 -7 -26t-26 -11q-49 -6 -78.5 -14.5t-29.5 -28.5
l231 -591l207 590q0 21 -30.5 29.5t-82.5 14.5q-19 2 -26 11t-7 26q0 14 9 27.5t25 13.5h355q15 0 24.5 -14t9.5 -27q0 -22 -7 -28.5t-29 -8.5q-42 -4 -66.5 -21t-45.5 -66l-279 -673l-14 -34q-85 -204 -142 -315t-136 -183.5t-187 -72.5q-48 0 -97 23zM304.5 1204.5
q-38.5 24.5 -59 66.5t-20.5 92q0 51 20.5 93t59 66.5t88.5 24.5t88.5 -24.5t59.5 -66.5t21 -93q0 -50 -21 -92t-59.5 -66.5t-88.5 -24.5t-88.5 24.5zM781.5 1204.5q-38.5 24.5 -59 66.5t-20.5 92q0 51 20.5 93t59 66.5t88.5 24.5t88.5 -24.5t59.5 -66.5t21 -93
q0 -50 -21 -92t-59.5 -66.5t-88.5 -24.5t-88.5 24.5z" />
    <glyph glyph-name="Amacron" unicode="&#x100;" horiz-adv-x="1553" 
d="M1557 79.5q7 -6.5 7 -28.5q0 -15 -9.5 -33t-24.5 -18h-622q-15 0 -24.5 18t-9.5 33q0 17 7 26t26 11l40 2q49 1 68 5.5t19 20.5q0 7 -3 16l-125 345l-479 1l-124 -346q-3 -7 -3 -13q0 -18 25 -23t80 -6l42 -2q19 -2 26 -11t7 -26q0 -15 -9.5 -33t-24.5 -18h-423
q-16 0 -25 15t-9 36q0 22 7 28.5t29 8.5q8 1 26 1q31 1 52.5 5.5t41.5 21t33 49.5l480 1276h234l475 -1276q13 -34 34 -50.5t43 -20.5t55 -5q20 0 29 -1q22 -2 29 -8.5zM688 1190l-233 -627h421zM471 1770h587v-151h-587v151z" />
    <glyph glyph-name="amacron" unicode="&#x101;" horiz-adv-x="1220" 
d="M191.5 439q94.5 74 230 107.5t306.5 51.5v165q0 89 -37.5 122.5t-111.5 33.5q-86 0 -114 -17l-159 -267q-71 0 -116.5 39.5t-45.5 101.5q0 80 76.5 133.5t187 79t214.5 25.5q148 0 245 -35.5t143 -98t46 -144.5v-538q0 -39 11 -65.5t27 -26.5q12 0 55 9l26 4
q16 0 23 -17.5t7 -39.5q0 -13 -6 -18q-16 -11 -57.5 -27t-105 -29t-137.5 -13q-75 0 -109 26t-38.5 50t-4.5 58v3q-64 -67 -154.5 -101.5t-197.5 -34.5q-67 0 -136 28t-115.5 88t-46.5 150q0 123 94.5 197zM470.5 159q34.5 -39 96.5 -39q99 0 161 76v322q-85 -13 -146.5 -36
t-103.5 -78t-42 -152q0 -54 34.5 -93zM317 1333h587v-151h-587v151z" />
    <glyph glyph-name="Abreve" unicode="&#x102;" horiz-adv-x="1553" 
d="M1557 79.5q7 -6.5 7 -28.5q0 -15 -9.5 -33t-24.5 -18h-622q-15 0 -24.5 18t-9.5 33q0 17 7 26t26 11l40 2q49 1 68 5.5t19 20.5q0 7 -3 16l-125 345l-479 1l-124 -346q-3 -7 -3 -13q0 -18 25 -23t80 -6l42 -2q19 -2 26 -11t7 -26q0 -15 -9.5 -33t-24.5 -18h-423
q-16 0 -25 15t-9 36q0 22 7 28.5t29 8.5q8 1 26 1q31 1 52.5 5.5t41.5 21t33 49.5l480 1276h234l475 -1276q13 -34 34 -50.5t43 -20.5t55 -5q20 0 29 -1q22 -2 29 -8.5zM688 1190l-233 -627h421zM505.5 1669q-104.5 84 -95.5 289h133q5 -89 58.5 -132t161.5 -43t161.5 43
t58.5 132h133q9 -205 -95.5 -289t-257.5 -84t-257.5 84z" />
    <glyph glyph-name="abreve" unicode="&#x103;" horiz-adv-x="1220" 
d="M191.5 439q94.5 74 230 107.5t306.5 51.5v165q0 89 -37.5 122.5t-111.5 33.5q-86 0 -114 -17l-159 -267q-71 0 -116.5 39.5t-45.5 101.5q0 80 76.5 133.5t187 79t214.5 25.5q148 0 245 -35.5t143 -98t46 -144.5v-538q0 -39 11 -65.5t27 -26.5q12 0 55 9l26 4
q16 0 23 -17.5t7 -39.5q0 -13 -6 -18q-16 -11 -57.5 -27t-105 -29t-137.5 -13q-75 0 -109 26t-38.5 50t-4.5 58v3q-64 -67 -154.5 -101.5t-197.5 -34.5q-67 0 -136 28t-115.5 88t-46.5 150q0 123 94.5 197zM470.5 159q34.5 -39 96.5 -39q99 0 161 76v322q-85 -13 -146.5 -36
t-103.5 -78t-42 -152q0 -54 34.5 -93zM351.5 1264q-104.5 84 -95.5 289h133q5 -89 58.5 -132t161.5 -43t161.5 43t58.5 132h133q9 -205 -95.5 -289t-257.5 -84t-257.5 84z" />
    <glyph glyph-name="Aogonek" unicode="&#x104;" horiz-adv-x="1553" 
d="M1557 79.5q7 -6.5 7 -28.5q0 -15 -9.5 -33t-24.5 -18h-244q-154 -96 -154 -222q0 -38 22.5 -69t57 -48t69.5 -17q33 0 54 4.5t53 22.5q5 3 12.5 -4.5t13 -21.5t5.5 -30q0 -33 -26 -53q-35 -27 -97.5 -44.5t-123.5 -17.5q-93 0 -156.5 26t-95 71t-31.5 101q0 60 38.5 118
t106.5 106t154 78h-280q-15 0 -24.5 18t-9.5 33q0 17 7 26t26 11l40 2q49 1 68 5.5t19 20.5q0 7 -3 16l-125 345l-479 1l-124 -346q-3 -7 -3 -13q0 -18 25 -23t80 -6l42 -2q19 -2 26 -11t7 -26q0 -15 -9.5 -33t-24.5 -18h-423q-16 0 -25 15t-9 36q0 22 7 28.5t29 8.5
q8 1 26 1q31 1 52.5 5.5t41.5 21t33 49.5l480 1276h234l475 -1276q13 -34 34 -50.5t43 -20.5t55 -5q20 0 29 -1q22 -2 29 -8.5zM688 1190l-233 -627h421z" />
    <glyph glyph-name="aogonek" unicode="&#x105;" horiz-adv-x="1220" 
d="M1198 101.5q7 -17.5 7 -39.5q0 -13 -6 -18q-23 -16 -86.5 -37t-145.5 -29q-122 -87 -122 -200q0 -38 22.5 -69t57 -48t69.5 -17q33 0 54 4.5t53 22.5q5 3 12.5 -4.5t13 -21.5t5.5 -30q0 -33 -26 -53q-35 -27 -97.5 -44.5t-123.5 -17.5q-93 0 -156.5 26t-95 71t-31.5 101
q0 80 67.5 155.5t178.5 125.5q-51 9 -73.5 34.5t-25 45t-2.5 50.5v3q-64 -67 -154.5 -101.5t-197.5 -34.5q-67 0 -136 28t-115.5 88t-46.5 150q0 123 94.5 197t230 107.5t306.5 51.5v165q0 89 -37.5 122.5t-111.5 33.5q-86 0 -114 -17l-159 -267q-71 0 -116.5 39.5
t-45.5 101.5q0 80 76.5 133.5t187 79t214.5 25.5q148 0 245 -35.5t143 -98t46 -144.5v-538q0 -39 11 -65.5t27 -26.5q12 0 55 9l26 4q16 0 23 -17.5zM728 518q-85 -13 -146.5 -36t-103.5 -78t-42 -152q0 -54 34.5 -93t96.5 -39q99 0 161 76v322z" />
    <glyph glyph-name="Cacute" unicode="&#x106;" horiz-adv-x="1465" 
d="M488.5 40.5q-182.5 70.5 -296.5 235t-114 430.5q0 249 118.5 416.5t300 247t371.5 79.5q150 0 242 -20t168 -50q19 -8 35.5 -13t27.5 -5l17 -320q2 -15 -23.5 -27.5t-42.5 -12.5l-14 -1q-26 0 -50 7t-27 22q-27 149 -102.5 236.5t-232.5 87.5q-103 0 -190 -45.5
t-148 -188.5t-61 -413q0 -256 67 -398.5t160.5 -192.5t193.5 -50q97 0 170 47.5t118.5 126t63.5 174.5q6 33 48 33q18 0 44.5 -9.5t26.5 -24.5l-28 -304q-2 -16 -67 -50.5t-165.5 -61t-209.5 -26.5q-218 0 -400.5 70.5zM741.5 1739q44.5 61 105.5 149q48 72 64 88t42.5 26
t54.5 10q49 0 81 -33t32 -84q0 -26 -9 -49.5t-24 -37.5q-12 -11 -87 -57q-80 -48 -152.5 -95.5t-155.5 -109.5l-56 58q60 74 104.5 135z" />
    <glyph glyph-name="cacute" unicode="&#x107;" horiz-adv-x="1088" 
d="M211.5 108q-141.5 137 -141.5 382q0 161 72 279.5t201.5 181.5t299.5 63q154 0 249 -48t137 -146q9 -20 11.5 -33.5t2.5 -31.5q0 -49 -24 -82.5t-57.5 -49.5t-61.5 -16q-34 0 -64 19.5t-39 40.5l-103 245q-19 17 -56 17q-64 0 -114.5 -45t-79.5 -143.5t-29 -250.5
q0 -127 36 -213.5t93.5 -129t124.5 -42.5q81 0 151 26.5t113 76.5q1 1 5.5 6.5t9.5 7.5t11 1l44 -21q10 -4 10 -12q0 -6 -6 -17q-51 -89 -151 -145.5t-213 -56.5q-290 0 -431.5 137zM605.5 1304q44.5 61 105.5 149q48 72 64 88t42.5 26t54.5 10q49 0 81 -33t32 -84
q0 -26 -9 -49.5t-24 -37.5q-12 -11 -87 -57q-80 -48 -152.5 -95.5t-155.5 -109.5l-56 58q60 74 104.5 135z" />
    <glyph glyph-name="Ccircumflex" unicode="&#x108;" horiz-adv-x="1465" 
d="M488.5 40.5q-182.5 70.5 -296.5 235t-114 430.5q0 249 118.5 416.5t300 247t371.5 79.5q150 0 242 -20t168 -50q19 -8 35.5 -13t27.5 -5l17 -320q2 -15 -23.5 -27.5t-42.5 -12.5l-14 -1q-26 0 -50 7t-27 22q-27 149 -102.5 236.5t-232.5 87.5q-103 0 -190 -45.5
t-148 -188.5t-61 -413q0 -256 67 -398.5t160.5 -192.5t193.5 -50q97 0 170 47.5t118.5 126t63.5 174.5q6 33 48 33q18 0 44.5 -9.5t26.5 -24.5l-28 -304q-2 -16 -67 -50.5t-165.5 -61t-209.5 -26.5q-218 0 -400.5 70.5zM859 1964q48 0 77.5 -16t49.5 -44l243 -339h-143
l-227 201l-222 -201h-148l247 348q35 51 123 51z" />
    <glyph glyph-name="ccircumflex" unicode="&#x109;" horiz-adv-x="1088" 
d="M211.5 108q-141.5 137 -141.5 382q0 161 72 279.5t201.5 181.5t299.5 63q154 0 249 -48t137 -146q9 -20 11.5 -33.5t2.5 -31.5q0 -49 -24 -82.5t-57.5 -49.5t-61.5 -16q-34 0 -64 19.5t-39 40.5l-103 245q-19 17 -56 17q-64 0 -114.5 -45t-79.5 -143.5t-29 -250.5
q0 -127 36 -213.5t93.5 -129t124.5 -42.5q81 0 151 26.5t113 76.5q1 1 5.5 6.5t9.5 7.5t11 1l44 -21q10 -4 10 -12q0 -6 -6 -17q-51 -89 -151 -145.5t-213 -56.5q-290 0 -431.5 137zM663 1559q86 0 127 -60l243 -359h-143l-227 211l-222 -211h-148l247 368q35 51 123 51z
" />
    <glyph glyph-name="Cdotaccent" unicode="&#x10a;" horiz-adv-x="1465" 
d="M488.5 40.5q-182.5 70.5 -296.5 235t-114 430.5q0 249 118.5 416.5t300 247t371.5 79.5q150 0 242 -20t168 -50q19 -8 35.5 -13t27.5 -5l17 -320q2 -15 -23.5 -27.5t-42.5 -12.5l-14 -1q-26 0 -50 7t-27 22q-27 149 -102.5 236.5t-232.5 87.5q-103 0 -190 -45.5
t-148 -188.5t-61 -413q0 -256 67 -398.5t160.5 -192.5t193.5 -50q97 0 170 47.5t118.5 126t63.5 174.5q6 33 48 33q18 0 44.5 -9.5t26.5 -24.5l-28 -304q-2 -16 -67 -50.5t-165.5 -61t-209.5 -26.5q-218 0 -400.5 70.5zM764 1578.5q-43 23.5 -68 65t-25 94.5t25 95t68 65.5
t95 23.5q51 0 94 -23.5t68.5 -65.5t25.5 -95t-25.5 -94.5t-68.5 -65t-94 -23.5q-52 0 -95 23.5z" />
    <glyph glyph-name="cdotaccent" unicode="&#x10b;" horiz-adv-x="1088" 
d="M211.5 108q-141.5 137 -141.5 382q0 161 72 279.5t201.5 181.5t299.5 63q154 0 249 -48t137 -146q9 -20 11.5 -33.5t2.5 -31.5q0 -49 -24 -82.5t-57.5 -49.5t-61.5 -16q-34 0 -64 19.5t-39 40.5l-103 245q-19 17 -56 17q-64 0 -114.5 -45t-79.5 -143.5t-29 -250.5
q0 -127 36 -213.5t93.5 -129t124.5 -42.5q81 0 151 26.5t113 76.5q1 1 5.5 6.5t9.5 7.5t11 1l44 -21q10 -4 10 -12q0 -6 -6 -17q-51 -89 -151 -145.5t-213 -56.5q-290 0 -431.5 137zM568 1193.5q-43 23.5 -68 65t-25 94.5t25 95t68 65.5t95 23.5q51 0 94 -23.5t68.5 -65.5
t25.5 -95t-25.5 -94.5t-68.5 -65t-94 -23.5q-52 0 -95 23.5z" />
    <glyph glyph-name="Ccaron" unicode="&#x10c;" horiz-adv-x="1465" 
d="M488.5 40.5q-182.5 70.5 -296.5 235t-114 430.5q0 249 118.5 416.5t300 247t371.5 79.5q150 0 242 -20t168 -50q19 -8 35.5 -13t27.5 -5l17 -320q2 -15 -23.5 -27.5t-42.5 -12.5l-14 -1q-26 0 -50 7t-27 22q-27 149 -102.5 236.5t-232.5 87.5q-103 0 -190 -45.5
t-148 -188.5t-61 -413q0 -256 67 -398.5t160.5 -192.5t193.5 -50q97 0 170 47.5t118.5 126t63.5 174.5q6 33 48 33q18 0 44.5 -9.5t26.5 -24.5l-28 -304q-2 -16 -67 -50.5t-165.5 -61t-209.5 -26.5q-218 0 -400.5 70.5zM734 1616l-243 344h148l220 -197l225 197h143
l-243 -335q-21 -28 -49.5 -44t-75.5 -16q-90 0 -125 51z" />
    <glyph glyph-name="ccaron" unicode="&#x10d;" horiz-adv-x="1088" 
d="M211.5 108q-141.5 137 -141.5 382q0 161 72 279.5t201.5 181.5t299.5 63q154 0 249 -48t137 -146q9 -20 11.5 -33.5t2.5 -31.5q0 -49 -24 -82.5t-57.5 -49.5t-61.5 -16q-34 0 -64 19.5t-39 40.5l-103 245q-19 17 -56 17q-64 0 -114.5 -45t-79.5 -143.5t-29 -250.5
q0 -127 36 -213.5t93.5 -129t124.5 -42.5q81 0 151 26.5t113 76.5q1 1 5.5 6.5t9.5 7.5t11 1l44 -21q10 -4 10 -12q0 -6 -6 -17q-51 -89 -151 -145.5t-213 -56.5q-290 0 -431.5 137zM538 1191l-243 354h148l220 -207l225 207h143l-243 -345q-19 -28 -48 -44t-77 -16
q-90 0 -125 51z" />
    <glyph glyph-name="Dcaron" unicode="&#x10e;" horiz-adv-x="1708" 
d="M120.5 18q-9.5 18 -9.5 33q0 17 7 26t26 11q60 5 102.5 19.5t42.5 44.5v1082q0 39 -23 59t-50.5 26t-78.5 12q-22 2 -29 8.5t-7 28.5q0 15 9.5 33t24.5 18h696q260 -1 443 -96.5t275 -250.5t92 -334q0 -244 -116 -410.5t-287 -247t-335 -80.5h-758q-15 0 -24.5 18z
M671.5 121q45.5 -20 162.5 -20q141 0 228 42.5t138 180t51 410.5q0 235 -55.5 364.5t-148 176.5t-223.5 47h-197l-1 -1154q0 -27 45.5 -47zM701 1616l-243 344h148l220 -197l225 197h143l-243 -335q-21 -28 -49.5 -44t-75.5 -16q-90 0 -125 51z" />
    <glyph glyph-name="dcaron" unicode="&#x10f;" horiz-adv-x="1461" 
d="M287 42.5q-100 71.5 -145.5 188.5t-45.5 261q0 139 57.5 258t172.5 191.5t280 72.5q85 0 144 -13.5t123 -52.5l-9 157v224q0 66 -51.5 92t-149.5 33q-12 5 -18 14t-6 26q0 14 7 28.5t17 15.5q156 10 402 10h83q11 0 20.5 -9.5t9.5 -30.5v-1333q0 -40 16.5 -60.5t39 -26.5
t56.5 -10q22 -2 29 -8.5t7 -28.5q0 -13 -9.5 -27t-24.5 -14h-344q-38 0 -54.5 11.5t-19.5 31.5t-2 65q-48 -66 -141 -101.5t-187 -35.5q-157 0 -257 71.5zM788 140.5q51 24.5 76 68.5v592q-8 24 -35 49.5t-61.5 42t-64.5 16.5q-146 0 -208 -108.5t-62 -308.5
q0 -376 254 -376q50 0 101 24.5zM1356.5 1186q19.5 46 19.5 87q0 25 -12 46.5t-39 50.5q-37 39 -37 85q0 54 35.5 93t91.5 39q65 0 105.5 -48.5t40.5 -121.5q0 -102 -61.5 -203.5t-151.5 -184.5l-58 52q47 59 66.5 105z" />
    <glyph glyph-name="Dcroat" unicode="&#x110;" horiz-adv-x="1708" 
d="M1246 1322.5q183 -95.5 275 -250.5t92 -334q0 -244 -116 -410.5t-287 -247t-335 -80.5h-758q-15 0 -24.5 18t-9.5 33q0 17 7 26t26 11q60 5 102.5 19.5t42.5 44.5v542h-140q-11 1 -17.5 11t-6.5 23q0 20 7 39.5t17 23.5h140v443q0 39 -23 59t-50.5 26t-78.5 12
q-22 2 -29 8.5t-7 28.5q0 15 9.5 33t24.5 18h696q260 -1 443 -96.5zM1034 143.5q87 42.5 138 180t51 410.5q0 235 -55.5 364.5t-148 176.5t-223.5 47h-197v-531h291q11 -1 17.5 -15.5t6.5 -28.5q0 -19 -6.5 -33.5t-17.5 -19.5h-292v-526q0 -27 45.5 -47t162.5 -20
q141 0 228 42.5z" />
    <glyph glyph-name="dcroat" unicode="&#x111;" horiz-adv-x="1358" 
d="M1308 69.5q7 -6.5 7 -28.5q0 -13 -9.5 -27t-24.5 -14h-344q-38 0 -54.5 11.5t-19.5 31.5t-2 65q-48 -66 -141 -101.5t-187 -35.5q-157 0 -257 71.5t-145.5 188.5t-45.5 261q0 139 57.5 258t172.5 191.5t280 72.5q85 0 144 -13.5t123 -52.5l-9 157v86h-327q-11 1 -17.5 11
t-6.5 23q0 20 7 39.5t17 23.5h327v41q0 66 -51.5 92t-149.5 33q-12 5 -18 14t-6 26q0 14 7 28.5t17 15.5q156 10 402 10h83q11 0 20.5 -9.5t9.5 -30.5v-220h128q11 -1 17.5 -15.5t6.5 -28.5q0 -19 -6.5 -33.5t-17.5 -19.5h-128v-1016q0 -40 16.5 -60.5t39 -26.5t56.5 -10
q22 -2 29 -8.5zM853 801q-8 24 -35 49.5t-61.5 42t-64.5 16.5q-146 0 -208 -108.5t-62 -308.5q0 -376 254 -376q50 0 101 24.5t76 68.5v592z" />
    <glyph glyph-name="Emacron" unicode="&#x112;" horiz-adv-x="1477" 
d="M117 77q7 9 26 11q60 5 103 19.5t43 44.5v1082q0 39 -23 59t-50.5 26t-78.5 12q-22 2 -29 8.5t-7 28.5q0 15 9.5 33t24.5 18h1159l35 -325q1 -15 -15 -24.5t-31 -9.5q-54 0 -72 33q-13 25 -42 84q-28 58 -45.5 85.5t-43 42.5t-66.5 15h-391v-542h267q24 3 46 35t37 72.5
t18 63.5q4 32 46 32q15 0 35 -9.5t20 -24.5v-443q0 -15 -20 -24.5t-35 -9.5q-19 0 -33 7.5t-16 25.5q-2 25 -17 68.5t-38 77t-49 33.5h-261v-485q0 -88 91 -96h289q60 0 104.5 26t84 84t87.5 162q7 16 28 24.5t40 8.5q21 0 40.5 -9t21.5 -25l-40 -372h-1225q-15 0 -24.5 18
t-9.5 33q0 17 7 26zM499 1770h587v-151h-587v151z" />
    <glyph glyph-name="emacron" unicode="&#x113;" horiz-adv-x="1171" 
d="M210 108q-141 137 -141 394q0 161 75.5 277t202.5 175.5t279 59.5q222 0 331 -86.5t137 -253.5q9 -54 9 -165l-694 -1q0 -145 45.5 -235t115.5 -129t148 -39q92 0 154.5 24t109.5 79q1 1 5.5 6.5t9.5 7.5t11 1l44 -21q10 -4 10 -12q0 -6 -6 -17q-54 -94 -158 -148
t-256 -54q-291 0 -432 137zM735 851.5q-35 77.5 -112 77.5q-81 0 -139.5 -80.5t-71.5 -247.5h358q0 173 -35 250.5zM341 1333h587v-151h-587v151z" />
    <glyph glyph-name="Ebreve" unicode="&#x114;" horiz-adv-x="1477" 
d="M117 77q7 9 26 11q60 5 103 19.5t43 44.5v1082q0 39 -23 59t-50.5 26t-78.5 12q-22 2 -29 8.5t-7 28.5q0 15 9.5 33t24.5 18h1159l35 -325q1 -15 -15 -24.5t-31 -9.5q-54 0 -72 33q-13 25 -42 84q-28 58 -45.5 85.5t-43 42.5t-66.5 15h-391v-542h267q24 3 46 35t37 72.5
t18 63.5q4 32 46 32q15 0 35 -9.5t20 -24.5v-443q0 -15 -20 -24.5t-35 -9.5q-19 0 -33 7.5t-16 25.5q-2 25 -17 68.5t-38 77t-49 33.5h-261v-485q0 -88 91 -96h289q60 0 104.5 26t84 84t87.5 162q7 16 28 24.5t40 8.5q21 0 40.5 -9t21.5 -25l-40 -372h-1225q-15 0 -24.5 18
t-9.5 33q0 17 7 26zM533.5 1669q-104.5 84 -95.5 289h133q5 -89 58.5 -132t161.5 -43t161.5 43t58.5 132h133q9 -205 -95.5 -289t-257.5 -84t-257.5 84z" />
    <glyph glyph-name="ebreve" unicode="&#x115;" horiz-adv-x="1171" 
d="M210 108q-141 137 -141 394q0 161 75.5 277t202.5 175.5t279 59.5q222 0 331 -86.5t137 -253.5q9 -54 9 -165l-694 -1q0 -145 45.5 -235t115.5 -129t148 -39q92 0 154.5 24t109.5 79q1 1 5.5 6.5t9.5 7.5t11 1l44 -21q10 -4 10 -12q0 -6 -6 -17q-54 -94 -158 -148
t-256 -54q-291 0 -432 137zM735 851.5q-35 77.5 -112 77.5q-81 0 -139.5 -80.5t-71.5 -247.5h358q0 173 -35 250.5zM375.5 1264q-104.5 84 -95.5 289h133q5 -89 58.5 -132t161.5 -43t161.5 43t58.5 132h133q9 -205 -95.5 -289t-257.5 -84t-257.5 84z" />
    <glyph glyph-name="Edotaccent" unicode="&#x116;" horiz-adv-x="1477" 
d="M117 77q7 9 26 11q60 5 103 19.5t43 44.5v1082q0 39 -23 59t-50.5 26t-78.5 12q-22 2 -29 8.5t-7 28.5q0 15 9.5 33t24.5 18h1159l35 -325q1 -15 -15 -24.5t-31 -9.5q-54 0 -72 33q-13 25 -42 84q-28 58 -45.5 85.5t-43 42.5t-66.5 15h-391v-542h267q24 3 46 35t37 72.5
t18 63.5q4 32 46 32q15 0 35 -9.5t20 -24.5v-443q0 -15 -20 -24.5t-35 -9.5q-19 0 -33 7.5t-16 25.5q-2 25 -17 68.5t-38 77t-49 33.5h-261v-485q0 -88 91 -96h289q60 0 104.5 26t84 84t87.5 162q7 16 28 24.5t40 8.5q21 0 40.5 -9t21.5 -25l-40 -372h-1225q-15 0 -24.5 18
t-9.5 33q0 17 7 26zM696 1578.5q-43 23.5 -68 65t-25 94.5t25 95t68 65.5t95 23.5q51 0 94 -23.5t68.5 -65.5t25.5 -95t-25.5 -94.5t-68.5 -65t-94 -23.5q-52 0 -95 23.5z" />
    <glyph glyph-name="edotaccent" unicode="&#x117;" horiz-adv-x="1171" 
d="M210 108q-141 137 -141 394q0 161 75.5 277t202.5 175.5t279 59.5q222 0 331 -86.5t137 -253.5q9 -54 9 -165l-694 -1q0 -145 45.5 -235t115.5 -129t148 -39q92 0 154.5 24t109.5 79q1 1 5.5 6.5t9.5 7.5t11 1l44 -21q10 -4 10 -12q0 -6 -6 -17q-54 -94 -158 -148
t-256 -54q-291 0 -432 137zM735 851.5q-35 77.5 -112 77.5q-81 0 -139.5 -80.5t-71.5 -247.5h358q0 173 -35 250.5zM538 1193.5q-43 23.5 -68 65t-25 94.5t25 95t68 65.5t95 23.5q51 0 94 -23.5t68.5 -65.5t25.5 -95t-25.5 -94.5t-68.5 -65t-94 -23.5q-52 0 -95 23.5z" />
    <glyph glyph-name="Eogonek" unicode="&#x118;" horiz-adv-x="1477" 
d="M1051 -222q0 -38 22.5 -69t57 -48t69.5 -17q33 0 54 4.5t53 22.5q5 3 12.5 -4.5t13 -21.5t5.5 -30q0 -33 -26 -53q-35 -27 -97.5 -44.5t-123.5 -17.5q-93 0 -156.5 26t-95 71t-31.5 101q0 60 38.5 118t106.5 106t154 78h-963q-15 0 -24.5 18t-9.5 33q0 17 7 26t26 11
q60 5 103 19.5t43 44.5v1082q0 39 -23 59t-50.5 26t-78.5 12q-22 2 -29 8.5t-7 28.5q0 15 9.5 33t24.5 18h1159l35 -325q1 -15 -15 -24.5t-31 -9.5q-54 0 -72 33q-13 25 -42 84q-28 58 -45.5 85.5t-43 42.5t-66.5 15h-391v-542h267q24 3 46 35t37 72.5t18 63.5q4 32 46 32
q15 0 35 -9.5t20 -24.5v-443q0 -15 -20 -24.5t-35 -9.5q-19 0 -33 7.5t-16 25.5q-2 25 -17 68.5t-38 77t-49 33.5h-261v-485q0 -88 91 -96h289q60 0 104.5 26t84 84t87.5 162q7 16 28 24.5t40 8.5q21 0 40.5 -9t21.5 -25l-40 -372h-164q-154 -96 -154 -222z" />
    <glyph glyph-name="eogonek" unicode="&#x119;" horiz-adv-x="1171" 
d="M1062 190q0 -6 -6 -17q-69 -120 -212 -171q-158 -96 -158 -224q0 -38 22.5 -69t57 -48t69.5 -17q33 0 54 4.5t53 22.5q5 3 12.5 -4.5t13 -21.5t5.5 -30q0 -33 -26 -53q-35 -27 -97.5 -44.5t-123.5 -17.5q-93 0 -156.5 26t-95 71t-31.5 101q0 77 63 150t167 124
q-10 -1 -31 -1q-291 0 -432 137t-141 394q0 161 75.5 277t202.5 175.5t279 59.5q222 0 331 -86.5t137 -253.5q9 -54 9 -165l-694 -1q0 -145 45.5 -235t115.5 -129t148 -39q92 0 154.5 24t109.5 79q1 1 5.5 6.5t9.5 7.5t11 1l44 -21q10 -4 10 -12zM483.5 848.5
q-58.5 -80.5 -71.5 -247.5h358q0 173 -35 250.5t-112 77.5q-81 0 -139.5 -80.5z" />
    <glyph glyph-name="Ecaron" unicode="&#x11a;" horiz-adv-x="1477" 
d="M117 77q7 9 26 11q60 5 103 19.5t43 44.5v1082q0 39 -23 59t-50.5 26t-78.5 12q-22 2 -29 8.5t-7 28.5q0 15 9.5 33t24.5 18h1159l35 -325q1 -15 -15 -24.5t-31 -9.5q-54 0 -72 33q-13 25 -42 84q-28 58 -45.5 85.5t-43 42.5t-66.5 15h-391v-542h267q24 3 46 35t37 72.5
t18 63.5q4 32 46 32q15 0 35 -9.5t20 -24.5v-443q0 -15 -20 -24.5t-35 -9.5q-19 0 -33 7.5t-16 25.5q-2 25 -17 68.5t-38 77t-49 33.5h-261v-485q0 -88 91 -96h289q60 0 104.5 26t84 84t87.5 162q7 16 28 24.5t40 8.5q21 0 40.5 -9t21.5 -25l-40 -372h-1225q-15 0 -24.5 18
t-9.5 33q0 17 7 26zM666 1616l-243 344h148l220 -197l225 197h143l-243 -335q-21 -28 -49.5 -44t-75.5 -16q-90 0 -125 51z" />
    <glyph glyph-name="ecaron" unicode="&#x11b;" horiz-adv-x="1171" 
d="M210 108q-141 137 -141 394q0 161 75.5 277t202.5 175.5t279 59.5q222 0 331 -86.5t137 -253.5q9 -54 9 -165l-694 -1q0 -145 45.5 -235t115.5 -129t148 -39q92 0 154.5 24t109.5 79q1 1 5.5 6.5t9.5 7.5t11 1l44 -21q10 -4 10 -12q0 -6 -6 -17q-54 -94 -158 -148
t-256 -54q-291 0 -432 137zM735 851.5q-35 77.5 -112 77.5q-81 0 -139.5 -80.5t-71.5 -247.5h358q0 173 -35 250.5zM508 1191l-243 354h148l220 -207l225 207h143l-243 -345q-19 -28 -48 -44t-77 -16q-90 0 -125 51z" />
    <glyph glyph-name="Gcircumflex" unicode="&#x11c;" horiz-adv-x="1653" 
d="M520.5 44q-186.5 74 -315 239.5t-128.5 422.5t126 424t314 243t379 76q172 0 303.5 -27.5t204.5 -60.5l22 -310q1 -16 -19.5 -28t-36.5 -12l-14 -1q-24 0 -46.5 7t-25.5 22q-39 144 -130 229t-260 85q-93 0 -192 -52.5t-172.5 -196.5t-73.5 -398q0 -227 72.5 -371
t175.5 -207t199 -63q126 0 172.5 36t46.5 93v262q0 40 -28 60t-63.5 26t-94.5 11q-22 2 -29 8.5t-7 28.5q0 15 9.5 33t24.5 18h625q15 0 24.5 -18t9.5 -33q0 -17 -7 -26t-26 -11q-52 -6 -80.5 -20t-28.5 -44l1 -366q-17 -25 -96 -62t-202.5 -64t-267.5 -27q-179 0 -365.5 74
zM894 1964q48 0 77.5 -16t49.5 -44l243 -339h-143l-227 201l-222 -201h-148l247 348q35 51 123 51z" />
    <glyph glyph-name="gcircumflex" unicode="&#x11d;" horiz-adv-x="1181" 
d="M304.5 -451q-115.5 26 -188.5 84.5t-73 151.5q0 82 49.5 135.5t146.5 84.5q-85 35 -113.5 80.5t-28.5 105.5q0 71 58 123t143 79q-105 41 -154.5 119.5t-49.5 175.5t51 170.5t154 114.5t255 41q108 0 177 -20.5t124 -62.5q38 35 84 59t92 24q69 0 118.5 -39t49.5 -121
q0 -68 -22.5 -102t-71.5 -34l-123 176q-44 0 -74 -16q60 -80 60 -186q0 -154 -106 -245t-333 -91q-95 0 -170 18q-23 -19 -37 -46.5t-14 -54.5q0 -38 40 -48.5t128 -10.5h278q105 0 187.5 -38.5t129 -111.5t46.5 -172q0 -90 -64 -175t-191.5 -139.5t-308.5 -54.5
q-133 0 -248.5 26zM645 513.5q34 70.5 34 178.5q0 106 -34 170t-111 64q-76 0 -105.5 -65.5t-29.5 -176.5t29 -176t106 -65t111 70.5zM724.5 -355q61.5 24 96 65.5t34.5 94.5q0 65 -37.5 108.5t-130.5 43.5h-193q-33 0 -91.5 6t-78.5 16q-12 -32 -17.5 -60.5t-5.5 -78.5
q0 -77 44.5 -126t109.5 -71t128 -22q80 0 141.5 24zM561 1559q86 0 127 -60l243 -359h-143l-227 211l-222 -211h-148l247 368q35 51 123 51z" />
    <glyph glyph-name="Gbreve" unicode="&#x11e;" horiz-adv-x="1653" 
d="M520.5 44q-186.5 74 -315 239.5t-128.5 422.5t126 424t314 243t379 76q172 0 303.5 -27.5t204.5 -60.5l22 -310q1 -16 -19.5 -28t-36.5 -12l-14 -1q-24 0 -46.5 7t-25.5 22q-39 144 -130 229t-260 85q-93 0 -192 -52.5t-172.5 -196.5t-73.5 -398q0 -227 72.5 -371
t175.5 -207t199 -63q126 0 172.5 36t46.5 93v262q0 40 -28 60t-63.5 26t-94.5 11q-22 2 -29 8.5t-7 28.5q0 15 9.5 33t24.5 18h625q15 0 24.5 -18t9.5 -33q0 -17 -7 -26t-26 -11q-52 -6 -80.5 -20t-28.5 -44l1 -366q-17 -25 -96 -62t-202.5 -64t-267.5 -27q-179 0 -365.5 74
zM636.5 1669q-104.5 84 -95.5 289h133q5 -89 58.5 -132t161.5 -43t161.5 43t58.5 132h133q9 -205 -95.5 -289t-257.5 -84t-257.5 84z" />
    <glyph glyph-name="gbreve" unicode="&#x11f;" horiz-adv-x="1181" 
d="M304.5 -451q-115.5 26 -188.5 84.5t-73 151.5q0 82 49.5 135.5t146.5 84.5q-85 35 -113.5 80.5t-28.5 105.5q0 71 58 123t143 79q-105 41 -154.5 119.5t-49.5 175.5t51 170.5t154 114.5t255 41q108 0 177 -20.5t124 -62.5q38 35 84 59t92 24q69 0 118.5 -39t49.5 -121
q0 -68 -22.5 -102t-71.5 -34l-123 176q-44 0 -74 -16q60 -80 60 -186q0 -154 -106 -245t-333 -91q-95 0 -170 18q-23 -19 -37 -46.5t-14 -54.5q0 -38 40 -48.5t128 -10.5h278q105 0 187.5 -38.5t129 -111.5t46.5 -172q0 -90 -64 -175t-191.5 -139.5t-308.5 -54.5
q-133 0 -248.5 26zM645 513.5q34 70.5 34 178.5q0 106 -34 170t-111 64q-76 0 -105.5 -65.5t-29.5 -176.5t29 -176t106 -65t111 70.5zM724.5 -355q61.5 24 96 65.5t34.5 94.5q0 65 -37.5 108.5t-130.5 43.5h-193q-33 0 -91.5 6t-78.5 16q-12 -32 -17.5 -60.5t-5.5 -78.5
q0 -77 44.5 -126t109.5 -71t128 -22q80 0 141.5 24zM303.5 1264q-104.5 84 -95.5 289h133q5 -89 58.5 -132t161.5 -43t161.5 43t58.5 132h133q9 -205 -95.5 -289t-257.5 -84t-257.5 84z" />
    <glyph glyph-name="Gdotaccent" unicode="&#x120;" horiz-adv-x="1653" 
d="M520.5 44q-186.5 74 -315 239.5t-128.5 422.5t126 424t314 243t379 76q172 0 303.5 -27.5t204.5 -60.5l22 -310q1 -16 -19.5 -28t-36.5 -12l-14 -1q-24 0 -46.5 7t-25.5 22q-39 144 -130 229t-260 85q-93 0 -192 -52.5t-172.5 -196.5t-73.5 -398q0 -227 72.5 -371
t175.5 -207t199 -63q126 0 172.5 36t46.5 93v262q0 40 -28 60t-63.5 26t-94.5 11q-22 2 -29 8.5t-7 28.5q0 15 9.5 33t24.5 18h625q15 0 24.5 -18t9.5 -33q0 -17 -7 -26t-26 -11q-52 -6 -80.5 -20t-28.5 -44l1 -366q-17 -25 -96 -62t-202.5 -64t-267.5 -27q-179 0 -365.5 74
zM799 1578.5q-43 23.5 -68 65t-25 94.5t25 95t68 65.5t95 23.5q51 0 94 -23.5t68.5 -65.5t25.5 -95t-25.5 -94.5t-68.5 -65t-94 -23.5q-52 0 -95 23.5z" />
    <glyph glyph-name="gdotaccent" unicode="&#x121;" horiz-adv-x="1181" 
d="M304.5 -451q-115.5 26 -188.5 84.5t-73 151.5q0 82 49.5 135.5t146.5 84.5q-85 35 -113.5 80.5t-28.5 105.5q0 71 58 123t143 79q-105 41 -154.5 119.5t-49.5 175.5t51 170.5t154 114.5t255 41q108 0 177 -20.5t124 -62.5q38 35 84 59t92 24q69 0 118.5 -39t49.5 -121
q0 -68 -22.5 -102t-71.5 -34l-123 176q-44 0 -74 -16q60 -80 60 -186q0 -154 -106 -245t-333 -91q-95 0 -170 18q-23 -19 -37 -46.5t-14 -54.5q0 -38 40 -48.5t128 -10.5h278q105 0 187.5 -38.5t129 -111.5t46.5 -172q0 -90 -64 -175t-191.5 -139.5t-308.5 -54.5
q-133 0 -248.5 26zM645 513.5q34 70.5 34 178.5q0 106 -34 170t-111 64q-76 0 -105.5 -65.5t-29.5 -176.5t29 -176t106 -65t111 70.5zM724.5 -355q61.5 24 96 65.5t34.5 94.5q0 65 -37.5 108.5t-130.5 43.5h-193q-33 0 -91.5 6t-78.5 16q-12 -32 -17.5 -60.5t-5.5 -78.5
q0 -77 44.5 -126t109.5 -71t128 -22q80 0 141.5 24zM466 1193.5q-43 23.5 -68 65t-25 94.5t25 95t68 65.5t95 23.5q51 0 94 -23.5t68.5 -65.5t25.5 -95t-25.5 -94.5t-68.5 -65t-94 -23.5q-52 0 -95 23.5z" />
    <glyph glyph-name="uni0122" unicode="&#x122;" horiz-adv-x="1653" 
d="M520.5 44q-186.5 74 -315 239.5t-128.5 422.5t126 424t314 243t379 76q172 0 303.5 -27.5t204.5 -60.5l22 -310q1 -16 -19.5 -28t-36.5 -12l-14 -1q-24 0 -46.5 7t-25.5 22q-39 144 -130 229t-260 85q-93 0 -192 -52.5t-172.5 -196.5t-73.5 -398q0 -227 72.5 -371
t175.5 -207t199 -63q126 0 172.5 36t46.5 93v262q0 40 -28 60t-63.5 26t-94.5 11q-22 2 -29 8.5t-7 28.5q0 15 9.5 33t24.5 18h625q15 0 24.5 -18t9.5 -33q0 -17 -7 -26t-26 -11q-52 -6 -80.5 -20t-28.5 -44l1 -366q-17 -25 -96 -62t-202.5 -64t-267.5 -27q-179 0 -365.5 74
zM996 -172q41 -51 41 -147q0 -68 -24.5 -135.5t-64 -120t-83.5 -78.5q-9 -6 -24 -6q-18 0 -32.5 8.5t-14.5 23.5t16 32q24 26 41.5 76.5t17.5 109.5q-30 0 -59.5 17t-48 49.5t-18.5 75.5q0 73 42 109.5t106 36.5t105 -51z" />
    <glyph glyph-name="uni0123" unicode="&#x123;" horiz-adv-x="1181" 
d="M304.5 -451q-115.5 26 -188.5 84.5t-73 151.5q0 82 49.5 135.5t146.5 84.5q-85 35 -113.5 80.5t-28.5 105.5q0 71 58 123t143 79q-105 41 -154.5 119.5t-49.5 175.5t51 170.5t154 114.5t255 41q108 0 177 -20.5t124 -62.5q38 35 84 59t92 24q69 0 118.5 -39t49.5 -121
q0 -68 -22.5 -102t-71.5 -34l-123 176q-44 0 -74 -16q60 -80 60 -186q0 -154 -106 -245t-333 -91q-95 0 -170 18q-23 -19 -37 -46.5t-14 -54.5q0 -38 40 -48.5t128 -10.5h278q105 0 187.5 -38.5t129 -111.5t46.5 -172q0 -90 -64 -175t-191.5 -139.5t-308.5 -54.5
q-133 0 -248.5 26zM645 513.5q34 70.5 34 178.5q0 106 -34 170t-111 64q-76 0 -105.5 -65.5t-29.5 -176.5t29 -176t106 -65t111 70.5zM724.5 -355q61.5 24 96 65.5t34.5 94.5q0 65 -37.5 108.5t-130.5 43.5h-193q-33 0 -91.5 6t-78.5 16q-12 -32 -17.5 -60.5t-5.5 -78.5
q0 -77 44.5 -126t109.5 -71t128 -22q80 0 141.5 24zM679.5 1389.5q37.5 -36.5 37.5 -95.5q0 -36 -18 -67t-49 -49t-68 -18q-46 0 -83.5 23.5t-58.5 66t-21 98.5q0 104 62.5 198.5t186.5 144.5l36 -71q-128 -55 -136 -187q74 -7 111.5 -43.5z" />
    <glyph glyph-name="Hcircumflex" unicode="&#x124;" horiz-adv-x="1870" 
d="M1771 79.5q7 -6.5 7 -28.5q0 -15 -9.5 -33t-24.5 -18h-635q-15 0 -24.5 18t-9.5 33q0 17 7 26t26 11q60 5 103 19.5t43 44.5v540h-638v-507q0 -40 23 -60t53 -26.5t75 -10.5q22 -2 29 -8.5t7 -28.5q0 -15 -9.5 -33t-24.5 -18h-625q-15 0 -24.5 18t-9.5 33q0 17 7 26
t26 11q136 11 136 64v1082q0 40 -21 60.5t-49.5 26.5t-71.5 10q-22 2 -29 8.5t-7 28.5q0 15 9.5 33t24.5 18h625q15 0 24.5 -18t9.5 -33q0 -17 -7 -26t-26 -11q-145 -11 -145 -64v-453h638v420q0 39 -23 59t-50.5 26t-78.5 12q-22 2 -29 8.5t-7 28.5q0 15 9.5 33t24.5 18
h635q15 0 24.5 -18t9.5 -33q0 -17 -7 -26t-26 -11q-145 -11 -145 -64v-1082q0 -40 23 -59.5t50 -25.5t78 -12q22 -2 29 -8.5zM931 1964q48 0 77.5 -16t49.5 -44l243 -339h-143l-227 201l-222 -201h-148l247 348q35 51 123 51z" />
    <glyph glyph-name="hcircumflex" unicode="&#x125;" horiz-adv-x="1392" 
d="M373 1884q48 0 77.5 -16t49.5 -44l243 -339h-143l-227 201l-222 -201h-148l247 348q35 51 123 51zM85 13.5q-9 13.5 -9 27.5q0 17 7 26t26 11q47 4 81.5 16.5t34.5 37.5v1068q0 46 -16.5 70t-39 32t-58.5 13q-31 5 -35 6q-12 5 -18 14t-6 26q0 14 6.5 28.5t17.5 15.5
q222 14 435 14q10 0 19 -9t11 -31v-387l-10 -147q25 27 92 67.5t156.5 71t177.5 30.5q132 0 211.5 -59.5t79.5 -218.5v-571q0 -35 17.5 -53t41 -23.5t58.5 -8.5l20 -2q18 -2 25.5 -9.5t7.5 -27.5q0 -14 -9 -27.5t-25 -13.5h-547q-16 0 -25 13.5t-9 27.5q0 18 6 26.5t25 10.5
q37 3 71.5 17.5t34.5 36.5v589q0 34 -6 60.5t-32.5 48.5t-80.5 22q-51 0 -106.5 -19.5t-102 -49t-71.5 -56.5v-562q0 -36 16.5 -54t39 -24t56.5 -9q22 -2 29 -8.5t7 -28.5q0 -13 -9.5 -27t-24.5 -14h-545q-16 0 -25 13.5z" />
    <glyph glyph-name="Hbar" unicode="&#x126;" horiz-adv-x="1870" 
d="M1734 79.5q7 -6.5 7 -28.5q0 -15 -9.5 -33t-24.5 -18h-635q-15 0 -24.5 18t-9.5 33q0 17 7 26t26 11q60 5 103 19.5t43 44.5v341h-630v-308q0 -40 23 -60t53 -26.5t75 -10.5q22 -2 29 -8.5t7 -28.5q0 -15 -9.5 -33t-24.5 -18h-625q-15 0 -24.5 18t-9.5 33q0 17 7 26
t26 11q136 11 136 64v735h-157q-11 1 -17.5 19.5t-6.5 34.5q0 19 6.5 33.5t17.5 19.5h157v240q0 40 -21 60.5t-49.5 26.5t-71.5 10q-22 2 -29 8.5t-7 28.5q0 15 9.5 33t24.5 18h625q15 0 24.5 -18t9.5 -33q0 -17 -7 -26t-26 -11q-145 -11 -145 -64v-273h630v240
q0 40 -23.5 60t-53.5 26.5t-75 10.5q-22 2 -29 8.5t-7 28.5q0 15 9.5 33t24.5 18h635q15 0 24.5 -18t9.5 -33q0 -17 -7 -26t-26 -11q-145 -11 -145 -64v-273h177q11 -1 17.5 -11t6.5 -23q0 -21 -7 -45t-17 -28h-177v-702q0 -40 23 -60t53 -26.5t75 -10.5q22 -2 29 -8.5z
M587 629h630v258h-630v-258z" />
    <glyph glyph-name="hbar" unicode="&#x127;" horiz-adv-x="1392" 
d="M1308.5 68.5q7.5 -7.5 7.5 -27.5q0 -14 -9 -27.5t-25 -13.5h-547q-16 0 -25 13.5t-9 27.5q0 18 6 26.5t25 10.5q37 3 71.5 17.5t34.5 36.5v589q0 34 -6 60.5t-32.5 48.5t-80.5 22q-51 0 -108 -20t-104.5 -49t-72.5 -56v-562q0 -35 17.5 -53.5t40.5 -24t59 -9.5
q22 -2 29 -8.5t7 -28.5q0 -13 -9.5 -27t-24.5 -14h-545q-16 0 -25 13.5t-9 27.5q0 17 7 26t26 11q47 4 81.5 16.5t34.5 37.5v1059h-144q-11 1 -17.5 11t-6.5 23q0 20 7 39.5t17 23.5h144v41q0 46 -16.5 70t-39 32t-58.5 13q-31 5 -35 6q-12 5 -18 14t-6 26q0 14 6.5 28.5
t17.5 15.5q222 14 430 14q10 0 19 -9t11 -31v-220h244q11 -1 17.5 -15.5t6.5 -28.5q0 -19 -6.5 -33.5t-17.5 -19.5h-244v-199l-5 -147q25 27 92 67.5t156.5 71t177.5 30.5q132 0 211.5 -59.5t79.5 -218.5v-571q0 -34 16.5 -52t39.5 -23.5t58 -9.5q9 0 23 -2q18 -2 25.5 -9.5
z" />
    <glyph glyph-name="Itilde" unicode="&#x128;" horiz-adv-x="913" 
d="M119.5 18q-9.5 18 -9.5 33q0 17 7 26t26 11q60 5 102.5 19.5t42.5 44.5l1 1082q0 40 -23.5 60t-53.5 26.5t-75 10.5q-22 2 -29 8.5t-7 28.5q0 15 9.5 33t24.5 18h635q15 0 24.5 -18t9.5 -33q0 -17 -7 -26t-26 -11q-145 -11 -145 -64l-1 -1082q0 -40 23.5 -60t53.5 -26.5
t75 -10.5q22 -2 29 -8.5t7 -28.5q0 -15 -9.5 -33t-24.5 -18h-635q-15 0 -24.5 18zM522.5 1587.5q-40.5 18.5 -97.5 54.5q-49 32 -83.5 48t-68.5 16q-41 0 -63.5 -15.5t-44.5 -44.5q-14 -18 -23.5 -26t-22.5 -8q-19 0 -37.5 23.5t-18.5 48.5q0 40 32.5 90t88.5 85t123 35
q43 0 81.5 -18.5t89.5 -53.5q49 -34 83.5 -50.5t71.5 -16.5q43 0 67 16t46 45q15 18 24.5 25.5t22.5 7.5q19 0 37.5 -23.5t18.5 -48.5q0 -40 -33.5 -90t-89 -84.5t-118.5 -34.5q-45 1 -85.5 19.5z" />
    <glyph glyph-name="itilde" unicode="&#x129;" horiz-adv-x="724" 
d="M81 13.5q-9 13.5 -9 27.5q0 17 7.5 26.5t25.5 10.5q47 4 81 16.5t34 37.5l1 646q0 46 -16.5 70t-39 32t-58.5 13q-31 5 -35 6q-12 5 -18 14t-6 26q0 14 6.5 28.5t17.5 15.5q222 14 435 14q11 0 20.5 -9.5t9.5 -30.5v-792q0 -35 18.5 -53.5t42.5 -24t61 -9.5
q22 -2 29 -8.5t7 -28.5q0 -13 -9.5 -27t-24.5 -14h-555q-16 0 -25 13.5zM438.5 1138.5q-40.5 18.5 -97.5 54.5q-49 32 -83.5 48t-68.5 16q-41 0 -63.5 -15.5t-44.5 -44.5q-14 -18 -23.5 -26t-22.5 -8q-19 0 -37.5 23.5t-18.5 48.5q0 40 32.5 90t88.5 85t123 35
q43 0 81.5 -18.5t89.5 -53.5q49 -34 83.5 -50.5t71.5 -16.5q43 0 67 16t46 45q15 18 24.5 25.5t22.5 7.5q19 0 37.5 -23.5t18.5 -48.5q0 -40 -33.5 -90t-89 -84.5t-118.5 -34.5q-45 1 -85.5 19.5z" />
    <glyph glyph-name="Imacron" unicode="&#x12a;" horiz-adv-x="913" 
d="M119.5 18q-9.5 18 -9.5 33q0 17 7 26t26 11q60 5 102.5 19.5t42.5 44.5l1 1082q0 40 -23.5 60t-53.5 26.5t-75 10.5q-22 2 -29 8.5t-7 28.5q0 15 9.5 33t24.5 18h635q15 0 24.5 -18t9.5 -33q0 -17 -7 -26t-26 -11q-145 -11 -145 -64l-1 -1082q0 -40 23.5 -60t53.5 -26.5
t75 -10.5q22 -2 29 -8.5t7 -28.5q0 -15 -9.5 -33t-24.5 -18h-635q-15 0 -24.5 18zM164 1770h587v-151h-587v151z" />
    <glyph glyph-name="imacron" unicode="&#x12b;" horiz-adv-x="724" 
d="M81 13.5q-9 13.5 -9 27.5q0 17 7.5 26.5t25.5 10.5q47 4 81 16.5t34 37.5l1 646q0 46 -16.5 70t-39 32t-58.5 13q-31 5 -35 6q-12 5 -18 14t-6 26q0 14 6.5 28.5t17.5 15.5q222 14 435 14q11 0 20.5 -9.5t9.5 -30.5v-792q0 -35 18.5 -53.5t42.5 -24t61 -9.5
q22 -2 29 -8.5t7 -28.5q0 -13 -9.5 -27t-24.5 -14h-555q-16 0 -25 13.5zM80 1333h587v-151h-587v151z" />
    <glyph glyph-name="Ibreve" unicode="&#x12c;" horiz-adv-x="913" 
d="M119.5 18q-9.5 18 -9.5 33q0 17 7 26t26 11q60 5 102.5 19.5t42.5 44.5l1 1082q0 40 -23.5 60t-53.5 26.5t-75 10.5q-22 2 -29 8.5t-7 28.5q0 15 9.5 33t24.5 18h635q15 0 24.5 -18t9.5 -33q0 -17 -7 -26t-26 -11q-145 -11 -145 -64l-1 -1082q0 -40 23.5 -60t53.5 -26.5
t75 -10.5q22 -2 29 -8.5t7 -28.5q0 -15 -9.5 -33t-24.5 -18h-635q-15 0 -24.5 18zM198.5 1669q-104.5 84 -95.5 289h133q5 -89 58.5 -132t161.5 -43t161.5 43t58.5 132h133q9 -205 -95.5 -289t-257.5 -84t-257.5 84z" />
    <glyph glyph-name="ibreve" unicode="&#x12d;" horiz-adv-x="724" 
d="M81 13.5q-9 13.5 -9 27.5q0 17 7.5 26.5t25.5 10.5q47 4 81 16.5t34 37.5l1 646q0 46 -16.5 70t-39 32t-58.5 13q-31 5 -35 6q-12 5 -18 14t-6 26q0 14 6.5 28.5t17.5 15.5q222 14 435 14q11 0 20.5 -9.5t9.5 -30.5v-792q0 -35 18.5 -53.5t42.5 -24t61 -9.5
q22 -2 29 -8.5t7 -28.5q0 -13 -9.5 -27t-24.5 -14h-555q-16 0 -25 13.5zM114.5 1264q-104.5 84 -95.5 289h133q5 -89 58.5 -132t161.5 -43t161.5 43t58.5 132h133q9 -205 -95.5 -289t-257.5 -84t-257.5 84z" />
    <glyph glyph-name="Iogonek" unicode="&#x12e;" horiz-adv-x="913" 
d="M806 79.5q7 -6.5 7 -28.5q0 -15 -9.5 -33t-24.5 -18h-256q-154 -96 -154 -222q0 -38 22.5 -69t57 -48t69.5 -17q33 0 54 4.5t53 22.5q5 3 12.5 -4.5t13 -21.5t5.5 -30q0 -33 -26 -53q-35 -27 -97.5 -44.5t-123.5 -17.5q-93 0 -156.5 26t-95 71t-31.5 101q0 60 38.5 118
t106.5 106t154 78h-281q-15 0 -24.5 18t-9.5 33q0 17 7 26t26 11q60 5 102.5 19.5t42.5 44.5l1 1082q0 40 -23.5 60t-53.5 26.5t-75 10.5q-22 2 -29 8.5t-7 28.5q0 15 9.5 33t24.5 18h635q15 0 24.5 -18t9.5 -33q0 -17 -7 -26t-26 -11q-145 -11 -145 -64l-1 -1082
q0 -40 23.5 -60t53.5 -26.5t75 -10.5q22 -2 29 -8.5z" />
    <glyph glyph-name="iogonek" unicode="&#x12f;" horiz-adv-x="724" 
d="M277 1193.5q-43 23.5 -68 65t-25 94.5t25 95t68 65.5t95 23.5q51 0 94 -23.5t68.5 -65.5t25.5 -95t-25.5 -94.5t-68.5 -65t-94 -23.5q-52 0 -95 23.5zM688 69.5q7 -6.5 7 -28.5q0 -13 -9.5 -27t-24.5 -14h-162q-154 -96 -154 -222q0 -38 22.5 -69t57 -48t69.5 -17
q33 0 54 4.5t53 22.5q5 3 12.5 -4.5t13 -21.5t5.5 -30q0 -33 -26 -53q-35 -27 -97.5 -44.5t-123.5 -17.5q-93 0 -156.5 26t-95 71t-31.5 101q0 60 38.5 118t106.5 106t154 78h-295q-16 0 -25 13.5t-9 27.5q0 17 7.5 26.5t25.5 10.5q47 4 81 16.5t34 37.5l1 646
q0 46 -16.5 70t-39 32t-58.5 13q-31 5 -35 6q-12 5 -18 14t-6 26q0 14 6.5 28.5t17.5 15.5q222 14 435 14q11 0 20.5 -9.5t9.5 -30.5v-792q0 -35 18.5 -53.5t42.5 -24t61 -9.5q22 -2 29 -8.5z" />
    <glyph glyph-name="Idotaccent" unicode="&#x130;" horiz-adv-x="913" 
d="M119.5 18q-9.5 18 -9.5 33q0 17 7 26t26 11q60 5 102.5 19.5t42.5 44.5l1 1082q0 40 -23.5 60t-53.5 26.5t-75 10.5q-22 2 -29 8.5t-7 28.5q0 15 9.5 33t24.5 18h635q15 0 24.5 -18t9.5 -33q0 -17 -7 -26t-26 -11q-145 -11 -145 -64l-1 -1082q0 -40 23.5 -60t53.5 -26.5
t75 -10.5q22 -2 29 -8.5t7 -28.5q0 -15 -9.5 -33t-24.5 -18h-635q-15 0 -24.5 18zM361 1578.5q-43 23.5 -68 65t-25 94.5t25 95t68 65.5t95 23.5q51 0 94 -23.5t68.5 -65.5t25.5 -95t-25.5 -94.5t-68.5 -65t-94 -23.5q-52 0 -95 23.5z" />
    <glyph glyph-name="dotlessi" unicode="&#x131;" horiz-adv-x="724" 
d="M81 13.5q-9 13.5 -9 27.5q0 17 7.5 26.5t25.5 10.5q47 4 81 16.5t34 37.5l1 646q0 46 -16.5 70t-39 32t-58.5 13q-31 5 -35 6q-12 5 -18 14t-6 26q0 14 6.5 28.5t17.5 15.5q222 14 435 14q11 0 20.5 -9.5t9.5 -30.5v-792q0 -35 18.5 -53.5t42.5 -24t61 -9.5
q22 -2 29 -8.5t7 -28.5q0 -13 -9.5 -27t-24.5 -14h-555q-16 0 -25 13.5z" />
    <glyph glyph-name="IJ" unicode="&#x132;" horiz-adv-x="2132" 
d="M119.5 18q-9.5 18 -9.5 33q0 17 7 26t26 11q60 5 102.5 19.5t42.5 44.5l1 1082q0 40 -23.5 60t-53.5 26.5t-75 10.5q-22 2 -29 8.5t-7 28.5q0 15 9.5 33t24.5 18h635q15 0 24.5 -18t9.5 -33q0 -17 -7 -26t-26 -11q-145 -11 -145 -64l-1 -1082q0 -40 23.5 -60t53.5 -26.5
t75 -10.5q22 -2 29 -8.5t7 -28.5q0 -15 -9.5 -33t-24.5 -18h-635q-15 0 -24.5 18zM1202.5 2.5q-84.5 32.5 -152.5 91.5q-49 42 -73.5 101t-24.5 123q0 105 53.5 164t153.5 59q36 0 64.5 -12t44 -30.5t15.5 -36.5l-59 -378q60 -25 129 -25q107 0 157.5 82.5t50.5 264.5l1 828
q0 40 -32 60t-72.5 26.5t-101.5 10.5q-22 2 -29 8.5t-7 28.5q0 15 9.5 33t24.5 18h705q15 0 24.5 -18t9.5 -33q0 -17 -7.5 -26.5t-25.5 -10.5q-81 -3 -123.5 -18t-42.5 -46v-828q0 -182 -80.5 -286.5t-199 -143.5t-252.5 -39q-75 0 -159.5 32.5z" />
    <glyph glyph-name="ij" unicode="&#x133;" horiz-adv-x="1433" 
d="M81 13.5q-9 13.5 -9 27.5q0 17 7.5 26.5t25.5 10.5q47 4 81 16.5t34 37.5l1 646q0 46 -16.5 70t-39 32t-58.5 13q-31 5 -35 6q-12 5 -18 14t-6 26q0 14 6.5 28.5t17.5 15.5q222 14 435 14q11 0 20.5 -9.5t9.5 -30.5v-792q0 -35 18.5 -53.5t42.5 -24t61 -9.5
q22 -2 29 -8.5t7 -28.5q0 -13 -9.5 -27t-24.5 -14h-555q-16 0 -25 13.5zM277 1193.5q-43 23.5 -68 65t-25 94.5t25 95t68 65.5t95 23.5q51 0 94 -23.5t68.5 -65.5t25.5 -95t-25.5 -94.5t-68.5 -65t-94 -23.5q-52 0 -95 23.5zM682.5 -418.5q-62.5 30.5 -96.5 76t-34 88.5
q0 36 17.5 68t47 51t63.5 19q27 0 43.5 -10.5t35.5 -40t65 -109.5l41 -71q41 0 65.5 70t24.5 220l1 835q0 46 -18 70t-42.5 32t-62.5 13q-32 5 -36 6q-12 5 -18 14t-6 26q0 14 6.5 28.5t17.5 15.5q219 14 445 14q11 0 20.5 -9.5t9.5 -30.5l-1 -869q0 -159 -33.5 -275
t-131 -189t-279.5 -73q-82 0 -144.5 30.5zM987 1193.5q-43 23.5 -68 65t-25 94.5t25 95t68 65.5t95 23.5q51 0 94 -23.5t68.5 -65.5t25.5 -95t-25.5 -94.5t-68.5 -65t-94 -23.5q-52 0 -95 23.5z" />
    <glyph glyph-name="Jcircumflex" unicode="&#x134;" horiz-adv-x="1219" 
d="M289.5 2.5q-84.5 32.5 -152.5 91.5q-49 42 -73.5 101t-24.5 123q0 105 53.5 164t153.5 59q36 0 64.5 -12t44 -30.5t15.5 -36.5l-59 -378q60 -25 129 -25q107 0 157.5 82.5t50.5 264.5l1 828q0 40 -32 60t-72.5 26.5t-101.5 10.5q-22 2 -29 8.5t-7 28.5q0 15 9.5 33
t24.5 18h705q15 0 24.5 -18t9.5 -33q0 -17 -7.5 -26.5t-25.5 -10.5q-81 -3 -123.5 -18t-42.5 -46v-828q0 -182 -80.5 -286.5t-199 -143.5t-252.5 -39q-75 0 -159.5 32.5zM809 1964q48 0 77.5 -16t49.5 -44l243 -339h-143l-227 201l-222 -201h-148l247 348q35 51 123 51z" />
    <glyph glyph-name="jcircumflex" unicode="&#x135;" horiz-adv-x="709" 
d="M-41.5 -418.5q-62.5 30.5 -96.5 76t-34 88.5q0 36 17.5 68t47 51t63.5 19q27 0 43.5 -10.5t35.5 -40t65 -109.5l41 -71q41 0 65.5 70t24.5 220l1 835q0 46 -18 70t-42.5 32t-62.5 13q-32 5 -36 6q-12 5 -18 14t-6 26q0 14 6.5 28.5t17.5 15.5q219 14 445 14
q11 0 20.5 -9.5t9.5 -30.5l-1 -869q0 -159 -33.5 -275t-131 -189t-279.5 -73q-82 0 -144.5 30.5zM358 1559q86 0 127 -60l243 -359h-143l-227 211l-222 -211h-148l247 368q35 51 123 51z" />
    <glyph glyph-name="uni0136" unicode="&#x136;" horiz-adv-x="1673" 
d="M119.5 18q-9.5 18 -9.5 33q0 17 7 26t26 11q55 4 100 24t45 50l1 1072q0 39 -23 59t-50.5 26t-78.5 12q-22 2 -29 8.5t-7 28.5q0 15 9.5 33t24.5 18h625q15 0 24.5 -18t9.5 -33q0 -17 -7.5 -26.5t-25.5 -10.5q-52 -4 -93.5 -19t-41.5 -45l-1 -1082q0 -40 21 -60t47 -25.5
t74 -11.5q22 -2 29 -8.5t7 -28.5q0 -15 -9.5 -33t-24.5 -18h-625q-15 0 -24.5 18zM1154.5 30q-31.5 30 -70.5 92q-37 60 -101 178q-71 132 -121 212t-107.5 134.5t-114.5 50.5l538 579q9 11 9 18q0 17 -30 23.5t-85 12.5q-18 2 -24.5 11t-6.5 26q0 15 9.5 33t24.5 18h492
q15 0 24.5 -18t9.5 -33q0 -37 -33 -37q-54 0 -111 -18.5t-90 -51.5l-397 -399q50 -22 118.5 -116t177.5 -266q91 -143 121 -186q71 -100 126 -150t93 -54q21 -2 28.5 -11t7.5 -32q0 -14 -9.5 -30t-24.5 -16h-383q-39 0 -70.5 30zM1021 -172q41 -51 41 -147
q0 -68 -24.5 -135.5t-64 -120t-83.5 -78.5q-9 -6 -24 -6q-18 0 -32.5 8.5t-14.5 23.5t16 32q24 26 41.5 76.5t17.5 109.5q-30 0 -59.5 17t-48 49.5t-18.5 75.5q0 73 42 109.5t106 36.5t105 -51z" />
    <glyph glyph-name="uni0137" unicode="&#x137;" horiz-adv-x="1294" 
d="M58 13.5q-9 13.5 -9 27.5q0 17 7 26t26 11q96 8 96 54v1197q0 46 -16.5 70t-39 32t-58.5 13q-31 5 -35 6q-12 5 -18 14t-6 26q0 14 6.5 28.5t17.5 15.5q221 14 430 14q11 0 20.5 -9.5t9.5 -30.5v-1023l374 357q9 8 9 15q0 19 -39.5 32.5t-84.5 16.5q-18 2 -24.5 13
t-6.5 30q0 14 9.5 29.5t24.5 15.5h457q16 0 25 -15.5t9 -29.5q0 -19 -8.5 -31t-24.5 -12q-47 0 -98.5 -19.5t-89.5 -49.5l-187 -171q46 -94 99.5 -186t122.5 -203q13 -20 48 -79q30 -49 70 -82t78 -38q18 -2 25.5 -9.5t7.5 -27.5q0 -14 -9 -27.5t-25 -13.5h-399
q-18 0 -56 74.5t-106 222.5q-50 115 -76 164l-125 -121v-175q0 -36 13 -54t32.5 -24t51.5 -9q22 -2 29 -8.5t7 -28.5q0 -14 -9 -27.5t-25 -13.5h-505q-16 0 -25 13.5zM741.5 -178q45.5 -49 45.5 -139q0 -63 -27 -123t-83 -104t-139 -57l-36 71q58 15 91 45t42 83
q-73 7 -109.5 43.5t-36.5 95.5q0 36 18 67t49 49t68 18q72 0 117.5 -49z" />
    <glyph glyph-name="kgreenlandic" unicode="&#x138;" horiz-adv-x="1316" 
d="M77 9.5q-9 9.5 -9 21.5q0 17 7 26t26 11q106 11 106 64v658q0 47 -16 72t-37.5 33t-55.5 14q-26 5 -30 6q-12 5 -18 14t-6 26q0 13 6.5 23t17.5 11q156 10 351 10h74q10 0 19 -9t11 -31v-448l366 318q8 7 14.5 14t6.5 14q0 20 -27.5 30t-105.5 19q-18 2 -24.5 13t-6.5 30
q0 14 9.5 29.5t24.5 15.5h457q16 0 25 -15.5t9 -29.5q0 -19 -8.5 -31t-24.5 -12q-47 0 -98.5 -19.5t-89.5 -49.5l-237 -206q23 -26 57.5 -73t69.5 -97q73 -103 119 -163t90 -104l35 -36q37 -40 59.5 -58.5t48.5 -21.5q18 -2 25.5 -9.5t7.5 -27.5q0 -14 -9 -27.5t-25 -13.5
h-484q-16 0 -25 13.5t-9 27.5q0 17 6.5 26t24.5 11q12 2 19 10.5t7 21.5q0 15 -10 32q-59 99 -118.5 186t-106.5 138l-72 -63v-238q0 -40 12 -60.5t30.5 -27t49.5 -9.5q22 -2 29 -8.5t7 -28.5q0 -12 -9 -21.5t-25 -9.5h-515q-16 0 -25 9.5z" />
    <glyph glyph-name="Lacute" unicode="&#x139;" horiz-adv-x="1404" 
d="M120.5 18q-9.5 18 -9.5 33q0 17 7 26t26 11q55 4 100 24t45 50v1072q0 40 -21.5 60.5t-52 27t-78.5 9.5q-22 2 -29 8.5t-7 28.5q0 15 9.5 33t24.5 18h685q15 0 24.5 -18t9.5 -33q0 -37 -33 -37q-93 0 -142.5 -21t-49.5 -73v-1060q0 -45 23 -60.5t66 -15.5h274
q44 0 90.5 52t86.5 130t66 157q5 16 31.5 24.5t47.5 8.5q22 0 40.5 -9t16.5 -25l-59 -439h-1167q-15 0 -24.5 18zM559.5 1739q44.5 61 105.5 149q48 72 64 88t42.5 26t54.5 10q49 0 81 -33t32 -84q0 -26 -9 -49.5t-24 -37.5q-12 -11 -87 -57q-80 -48 -152.5 -95.5
t-155.5 -109.5l-56 58q60 74 104.5 135z" />
    <glyph glyph-name="lacute" unicode="&#x13a;" horiz-adv-x="705" 
d="M56 13.5q-9 13.5 -9 27.5q0 17 7.5 26.5t25.5 10.5q47 4 81 16.5t34 37.5l1 1196q0 47 -19 71t-45 32t-67 13q-34 5 -38 6q-12 5 -18 14t-6 26q0 14 7 28.5t17 15.5q216 14 445 14q11 0 20.5 -9.5t9.5 -30.5v-1343q0 -35 18.5 -53.5t42.5 -24t61 -9.5q22 -2 29 -8.5
t7 -28.5q0 -14 -9 -27.5t-25 -13.5h-545q-16 0 -25 13.5zM223.5 1773q44.5 61 105.5 149q48 72 64 88t42.5 26t54.5 10q49 0 81 -33t32 -84q0 -26 -9 -49.5t-24 -37.5q-12 -11 -87 -57q-80 -48 -152.5 -95.5t-155.5 -109.5l-56 58q60 74 104.5 135z" />
    <glyph glyph-name="uni013B" unicode="&#x13b;" horiz-adv-x="1404" 
d="M120.5 18q-9.5 18 -9.5 33q0 17 7 26t26 11q55 4 100 24t45 50v1072q0 40 -21.5 60.5t-52 27t-78.5 9.5q-22 2 -29 8.5t-7 28.5q0 15 9.5 33t24.5 18h685q15 0 24.5 -18t9.5 -33q0 -37 -33 -37q-93 0 -142.5 -21t-49.5 -73v-1060q0 -45 23 -60.5t66 -15.5h274
q44 0 90.5 52t86.5 130t66 157q5 16 31.5 24.5t47.5 8.5q22 0 40.5 -9t16.5 -25l-59 -439h-1167q-15 0 -24.5 18zM783 -172q41 -51 41 -147q0 -68 -24.5 -135.5t-64 -120t-83.5 -78.5q-9 -6 -24 -6q-18 0 -32.5 8.5t-14.5 23.5t16 32q24 26 41.5 76.5t17.5 109.5
q-30 0 -59.5 17t-48 49.5t-18.5 75.5q0 73 42 109.5t106 36.5t105 -51z" />
    <glyph glyph-name="uni013C" unicode="&#x13c;" horiz-adv-x="705" 
d="M56 13.5q-9 13.5 -9 27.5q0 17 7.5 26.5t25.5 10.5q47 4 81 16.5t34 37.5l1 1196q0 47 -19 71t-45 32t-67 13q-34 5 -38 6q-12 5 -18 14t-6 26q0 14 7 28.5t17 15.5q216 14 445 14q11 0 20.5 -9.5t9.5 -30.5v-1343q0 -35 18.5 -53.5t42.5 -24t61 -9.5q22 -2 29 -8.5
t7 -28.5q0 -14 -9 -27.5t-25 -13.5h-545q-16 0 -25 13.5zM453.5 -178q45.5 -49 45.5 -139q0 -63 -27 -123t-83 -104t-139 -57l-36 71q58 15 91 45t42 83q-73 7 -109.5 43.5t-36.5 95.5q0 36 18 67t49 49t68 18q72 0 117.5 -49z" />
    <glyph glyph-name="Lcaron" unicode="&#x13d;" horiz-adv-x="1404" 
d="M120.5 18q-9.5 18 -9.5 33q0 17 7 26t26 11q55 4 100 24t45 50v1072q0 40 -21.5 60.5t-52 27t-78.5 9.5q-22 2 -29 8.5t-7 28.5q0 15 9.5 33t24.5 18h685q15 0 24.5 -18t9.5 -33q0 -37 -33 -37q-93 0 -142.5 -21t-49.5 -73v-1060q0 -45 23 -60.5t66 -15.5h274
q44 0 90.5 52t86.5 130t66 157q5 16 31.5 24.5t47.5 8.5q22 0 40.5 -9t16.5 -25l-59 -439h-1167q-15 0 -24.5 18zM1081.5 1167q19.5 46 19.5 87q0 25 -12 46.5t-39 50.5q-37 39 -37 85q0 54 35.5 93t91.5 39q65 0 105.5 -48.5t40.5 -121.5q0 -102 -61.5 -203.5
t-151.5 -184.5l-58 52q47 59 66.5 105z" />
    <glyph glyph-name="lcaron" unicode="&#x13e;" horiz-adv-x="808" 
d="M56 13.5q-9 13.5 -9 27.5q0 17 7.5 26.5t25.5 10.5q47 4 81 16.5t34 37.5l1 1196q0 47 -19 71t-45 32t-67 13q-34 5 -38 6q-12 5 -18 14t-6 26q0 14 7 28.5t17 15.5q216 14 445 14q11 0 20.5 -9.5t9.5 -30.5v-1343q0 -35 18.5 -53.5t42.5 -24t61 -9.5q22 -2 29 -8.5
t7 -28.5q0 -14 -9 -27.5t-25 -13.5h-545q-16 0 -25 13.5zM678.5 1208q19.5 46 19.5 87q0 25 -12 46.5t-39 50.5q-37 39 -37 85q0 54 35.5 93t91.5 39q65 0 105.5 -48.5t40.5 -121.5q0 -102 -61.5 -203.5t-151.5 -184.5l-58 52q47 59 66.5 105z" />
    <glyph glyph-name="Ldot" unicode="&#x13f;" horiz-adv-x="1511" 
d="M120.5 18q-9.5 18 -9.5 33q0 17 7 26t26 11q55 4 100 24t45 50v1072q0 40 -21.5 60.5t-52 27t-78.5 9.5q-22 2 -29 8.5t-7 28.5q0 15 9.5 33t24.5 18h685q15 0 24.5 -18t9.5 -33q0 -37 -33 -37q-93 0 -142.5 -21t-49.5 -73v-1060q0 -45 23 -60.5t66 -15.5h274
q44 0 90.5 52t86.5 130t66 157q5 16 31.5 24.5t47.5 8.5q22 0 40.5 -9t16.5 -25l-59 -439h-1167q-15 0 -24.5 18zM1118.5 962.5q25.5 42.5 69.5 67.5t98 25t98.5 -25t70.5 -67.5t26 -93.5t-26 -96.5t-71 -72.5t-98 -27t-97.5 27t-70 72t-25.5 97q0 51 25.5 93.5z" />
    <glyph glyph-name="ldot" unicode="&#x140;" horiz-adv-x="1098" 
d="M56 13.5q-9 13.5 -9 27.5q0 17 7.5 26.5t25.5 10.5q47 4 81 16.5t34 37.5l1 1196q0 47 -19 71t-45 32t-67 13q-34 5 -38 6q-12 5 -18 14t-6 26q0 14 7 28.5t17 15.5q216 14 445 14q11 0 20.5 -9.5t9.5 -30.5v-1343q0 -35 18.5 -53.5t42.5 -24t61 -9.5q22 -2 29 -8.5
t7 -28.5q0 -14 -9 -27.5t-25 -13.5h-545q-16 0 -25 13.5zM642.5 831.5q25.5 42.5 69.5 67.5t98 25t98.5 -25t70.5 -67.5t26 -93.5t-26 -96.5t-71 -72.5t-98 -27t-97.5 27t-70 72t-25.5 97q0 51 25.5 93.5z" />
    <glyph glyph-name="Lslash" unicode="&#x141;" horiz-adv-x="1404" 
d="M1327.5 464q18.5 -9 16.5 -25l-59 -439h-1167q-15 0 -24.5 18t-9.5 33q0 17 7 26t26 11q55 4 100 24t45 50v535l-131 -45q-10 -3 -23 12t-19 30t-6 29q0 20 9 29l170 59v423q0 40 -21.5 60.5t-52 27t-78.5 9.5q-22 2 -29 8.5t-7 28.5q0 15 9.5 33t24.5 18h685
q15 0 24.5 -18t9.5 -33q0 -37 -33 -37q-93 0 -142.5 -21t-49.5 -73v-308l203 70q11 4 20.5 -3.5t14.5 -19.5q10 -23 10 -53q0 -18 -6 -24l-242 -84v-638q0 -45 23 -60.5t66 -15.5h274q44 0 90.5 52t86.5 130t66 157q5 16 31.5 24.5t47.5 8.5q22 0 40.5 -9z" />
    <glyph glyph-name="lslash" unicode="&#x142;" horiz-adv-x="705" 
d="M520 835v-670q0 -35 18.5 -53.5t42.5 -24t61 -9.5q22 -2 29 -8.5t7 -28.5q0 -14 -9 -27.5t-25 -13.5h-545q-16 0 -25 13.5t-9 27.5q0 17 7.5 26.5t25.5 10.5q47 4 81 16.5t34 37.5v579l-147 -59q-10 -3 -23 12t-19 30t-6 29q0 20 9 29l187 75v501q0 47 -19 71t-45 32
t-67 13q-34 5 -38 6q-12 5 -18 14t-6 26q0 14 7 28.5t17 15.5q216 14 445 14q11 0 20.5 -9.5t9.5 -30.5v-557l120 48q11 4 20.5 -3.5t14.5 -19.5q10 -23 10 -53q0 -18 -6 -24z" />
    <glyph glyph-name="Nacute" unicode="&#x143;" horiz-adv-x="1719" 
d="M58.5 18q-9.5 18 -9.5 33q0 17 7 26t26 11q185 14 185 84v1008q0 40 -33 73t-78.5 53.5t-79.5 24.5q-22 2 -29 8.5t-7 28.5q0 15 9.5 33t24.5 18h488l810 -952h12v767q0 39 -30 59t-58.5 25.5t-93.5 12.5q-22 2 -29 8.5t-7 28.5q0 15 9.5 33t24.5 18h475q15 0 24.5 -18
t9.5 -33q0 -17 -7 -26t-26 -11q-175 -20 -175 -92v-1126q0 -18 3 -38l3 -35q3 -35 -33.5 -52.5t-76.5 -17.5q-15 0 -30.5 6.5t-23.5 15.5l-932 1098h-17v-905q0 -35 28.5 -55t65 -27.5t87.5 -12.5l21 -2q22 -2 29 -8.5t7 -28.5q0 -15 -9.5 -33t-24.5 -18h-515
q-15 0 -24.5 18zM795.5 1739q44.5 61 105.5 149q48 72 64 88t42.5 26t54.5 10q49 0 81 -33t32 -84q0 -26 -9 -49.5t-24 -37.5q-12 -11 -87 -57q-80 -48 -152.5 -95.5t-155.5 -109.5l-56 58q60 74 104.5 135z" />
    <glyph glyph-name="nacute" unicode="&#x144;" horiz-adv-x="1413" 
d="M80 13.5q-9 13.5 -9 27.5q0 17 7 26t26 11q106 13 106 64v636q0 46 -17 70t-39.5 32t-58.5 13q-29 4 -34 6q-12 5 -18 14t-6 26q0 14 6.5 28.5t17.5 15.5q234 14 423 14q10 0 19 -9t11 -31v-112q23 27 86 67.5t146.5 71t164.5 30.5q148 0 235 -63.5t87 -234.5v-541
q0 -56 28 -73t58.5 -20t40.5 -4q18 -2 25.5 -9.5t7.5 -27.5q0 -14 -9 -27.5t-25 -13.5h-537q-16 0 -25 13.5t-9 27.5q0 18 6 26.5t25 10.5q37 4 66.5 21t29.5 43v569q0 39 -6 70t-32.5 56t-80.5 25q-51 0 -104.5 -19.5t-98 -48.5t-69.5 -57v-562q0 -40 14.5 -60.5t35.5 -27
t54 -9.5q22 -2 29 -8.5t7 -28.5q0 -13 -9.5 -27t-24.5 -14h-525q-16 0 -25 13.5zM656.5 1304q44.5 61 105.5 149q48 72 64 88t42.5 26t54.5 10q49 0 81 -33t32 -84q0 -26 -9 -49.5t-24 -37.5q-12 -11 -87 -57q-80 -48 -152.5 -95.5t-155.5 -109.5l-56 58q60 74 104.5 135z
" />
    <glyph glyph-name="uni0145" unicode="&#x145;" horiz-adv-x="1719" 
d="M58.5 18q-9.5 18 -9.5 33q0 17 7 26t26 11q185 14 185 84v1008q0 40 -33 73t-78.5 53.5t-79.5 24.5q-22 2 -29 8.5t-7 28.5q0 15 9.5 33t24.5 18h488l810 -952h12v767q0 39 -30 59t-58.5 25.5t-93.5 12.5q-22 2 -29 8.5t-7 28.5q0 15 9.5 33t24.5 18h475q15 0 24.5 -18
t9.5 -33q0 -17 -7 -26t-26 -11q-175 -20 -175 -92v-1126q0 -18 3 -38l3 -35q3 -35 -33.5 -52.5t-76.5 -17.5q-15 0 -30.5 6.5t-23.5 15.5l-932 1098h-17v-905q0 -35 28.5 -55t65 -27.5t87.5 -12.5l21 -2q22 -2 29 -8.5t7 -28.5q0 -15 -9.5 -33t-24.5 -18h-515
q-15 0 -24.5 18zM996 -172q41 -51 41 -147q0 -68 -24.5 -135.5t-64 -120t-83.5 -78.5q-9 -6 -24 -6q-18 0 -32.5 8.5t-14.5 23.5t16 32q24 26 41.5 76.5t17.5 109.5q-30 0 -59.5 17t-48 49.5t-18.5 75.5q0 73 42 109.5t106 36.5t105 -51z" />
    <glyph glyph-name="uni0146" unicode="&#x146;" horiz-adv-x="1413" 
d="M80 13.5q-9 13.5 -9 27.5q0 17 7 26t26 11q106 13 106 64v636q0 46 -17 70t-39.5 32t-58.5 13q-29 4 -34 6q-12 5 -18 14t-6 26q0 14 6.5 28.5t17.5 15.5q234 14 423 14q10 0 19 -9t11 -31v-112q23 27 86 67.5t146.5 71t164.5 30.5q148 0 235 -63.5t87 -234.5v-541
q0 -56 28 -73t58.5 -20t40.5 -4q18 -2 25.5 -9.5t7.5 -27.5q0 -14 -9 -27.5t-25 -13.5h-537q-16 0 -25 13.5t-9 27.5q0 18 6 26.5t25 10.5q37 4 66.5 21t29.5 43v569q0 39 -6 70t-32.5 56t-80.5 25q-51 0 -104.5 -19.5t-98 -48.5t-69.5 -57v-562q0 -40 14.5 -60.5t35.5 -27
t54 -9.5q22 -2 29 -8.5t7 -28.5q0 -13 -9.5 -27t-24.5 -14h-525q-16 0 -25 13.5zM818.5 -178q45.5 -49 45.5 -139q0 -63 -27 -123t-83 -104t-139 -57l-36 71q58 15 91 45t42 83q-73 7 -109.5 43.5t-36.5 95.5q0 36 18 67t49 49t68 18q72 0 117.5 -49z" />
    <glyph glyph-name="Ncaron" unicode="&#x147;" horiz-adv-x="1719" 
d="M58.5 18q-9.5 18 -9.5 33q0 17 7 26t26 11q185 14 185 84v1008q0 40 -33 73t-78.5 53.5t-79.5 24.5q-22 2 -29 8.5t-7 28.5q0 15 9.5 33t24.5 18h488l810 -952h12v767q0 39 -30 59t-58.5 25.5t-93.5 12.5q-22 2 -29 8.5t-7 28.5q0 15 9.5 33t24.5 18h475q15 0 24.5 -18
t9.5 -33q0 -17 -7 -26t-26 -11q-175 -20 -175 -92v-1126q0 -18 3 -38l3 -35q3 -35 -33.5 -52.5t-76.5 -17.5q-15 0 -30.5 6.5t-23.5 15.5l-932 1098h-17v-905q0 -35 28.5 -55t65 -27.5t87.5 -12.5l21 -2q22 -2 29 -8.5t7 -28.5q0 -15 -9.5 -33t-24.5 -18h-515
q-15 0 -24.5 18zM788 1616l-243 344h148l220 -197l225 197h143l-243 -335q-21 -28 -49.5 -44t-75.5 -16q-90 0 -125 51z" />
    <glyph glyph-name="ncaron" unicode="&#x148;" horiz-adv-x="1413" 
d="M80 13.5q-9 13.5 -9 27.5q0 17 7 26t26 11q106 13 106 64v636q0 46 -17 70t-39.5 32t-58.5 13q-29 4 -34 6q-12 5 -18 14t-6 26q0 14 6.5 28.5t17.5 15.5q234 14 423 14q10 0 19 -9t11 -31v-112q23 27 86 67.5t146.5 71t164.5 30.5q148 0 235 -63.5t87 -234.5v-541
q0 -56 28 -73t58.5 -20t40.5 -4q18 -2 25.5 -9.5t7.5 -27.5q0 -14 -9 -27.5t-25 -13.5h-537q-16 0 -25 13.5t-9 27.5q0 18 6 26.5t25 10.5q37 4 66.5 21t29.5 43v569q0 39 -6 70t-32.5 56t-80.5 25q-51 0 -104.5 -19.5t-98 -48.5t-69.5 -57v-562q0 -40 14.5 -60.5t35.5 -27
t54 -9.5q22 -2 29 -8.5t7 -28.5q0 -13 -9.5 -27t-24.5 -14h-525q-16 0 -25 13.5zM589 1191l-243 354h148l220 -207l225 207h143l-243 -345q-19 -28 -48 -44t-77 -16q-90 0 -125 51z" />
    <glyph glyph-name="Eng" unicode="&#x14a;" horiz-adv-x="1719" 
d="M770.5 -401.5q-74.5 47.5 -74.5 134.5q0 44 27 74t68.5 44t84.5 14l117 -212q97 0 161.5 27t103 91t51.5 174l-918 1135h-17v-895q0 -39 34.5 -59.5t72.5 -26.5t95 -11q22 -2 29 -8.5t7 -28.5q0 -15 -9.5 -33t-24.5 -18h-515q-15 0 -24.5 18t-9.5 33q0 17 7 26t26 11
q185 14 185 84v1062q0 39 -25.5 59.5t-57 27t-78.5 10.5q-22 2 -29 8.5t-7 28.5q0 15 9.5 33t24.5 18h458l759 -936h12v751q0 39 -30 59.5t-65 27t-87 10.5q-22 2 -29 8.5t-7 28.5q0 15 9.5 33t24.5 18h475q15 0 24.5 -18t9.5 -33q0 -17 -7 -26t-26 -11q-67 -7 -121 -27.5
t-54 -64.5v-1151q0 -150 -29 -264t-129 -193.5t-296 -79.5q-131 0 -205.5 47.5z" />
    <glyph glyph-name="eng" unicode="&#x14b;" horiz-adv-x="1394" 
d="M596.5 -415q-65.5 33 -102.5 81t-37 91q0 37 19 67t49 46.5t61 16.5q25 0 47 -12t35 -36l104 -185q44 0 78 30.5t56.5 119.5t22.5 254v653q0 60 -23 105.5t-100 45.5q-51 0 -106.5 -19.5t-102 -49t-71.5 -56.5v-562q0 -40 16.5 -60.5t39 -26.5t56.5 -10q22 -2 29 -8.5
t7 -28.5q0 -13 -9.5 -27t-24.5 -14h-545q-16 0 -25 13.5t-9 27.5q0 17 7 26t26 11q116 14 116 64v636q0 46 -17 70t-39.5 32t-58.5 13q-29 4 -34 6q-12 5 -18 14t-6 26q0 14 6.5 28.5t17.5 15.5q234 14 425 14q10 0 19 -9t11 -31v-112q22 27 87 67.5t150 71t167 30.5
q149 0 236 -63.5t87 -234.5v-626q0 -157 -40 -274t-150.5 -190.5t-309.5 -73.5q-81 0 -146.5 33z" />
    <glyph glyph-name="Omacron" unicode="&#x14c;" horiz-adv-x="1679" 
d="M445 70.5q-169 99.5 -259.5 269.5t-90.5 376t90 373t259 263.5t395 96.5t395 -96.5t259.5 -263.5t90.5 -373t-91 -376t-260 -269.5t-394 -99.5t-394 99.5zM1114 233.5q87 168.5 87 480.5q0 310 -89.5 476t-274.5 166t-272.5 -165.5t-87.5 -476.5q0 -310 90.5 -479.5
t275.5 -169.5q184 0 271 168.5zM548 1770h587v-151h-587v151z" />
    <glyph glyph-name="omacron" unicode="&#x14d;" horiz-adv-x="1302" 
d="M148 779q72 117 202.5 176t306.5 59t304 -59t196.5 -176t68.5 -287t-70.5 -287t-199.5 -175.5t-306 -58.5q-176 0 -305 58.5t-199 175.5t-70 287t72 287zM447 257.5q20 -92.5 69.5 -142t136.5 -49.5q86 0 134.5 49.5t67.5 141.5t19 235q0 142 -20 234.5t-69.5 142
t-135.5 49.5t-135 -49.5t-68 -142t-19 -234.5t20 -234.5zM360 1333h587v-151h-587v151z" />
    <glyph glyph-name="Obreve" unicode="&#x14e;" horiz-adv-x="1679" 
d="M445 70.5q-169 99.5 -259.5 269.5t-90.5 376t90 373t259 263.5t395 96.5t395 -96.5t259.5 -263.5t90.5 -373t-91 -376t-260 -269.5t-394 -99.5t-394 99.5zM1114 233.5q87 168.5 87 480.5q0 310 -89.5 476t-274.5 166t-272.5 -165.5t-87.5 -476.5q0 -310 90.5 -479.5
t275.5 -169.5q184 0 271 168.5zM582.5 1669q-104.5 84 -95.5 289h133q5 -89 58.5 -132t161.5 -43t161.5 43t58.5 132h133q9 -205 -95.5 -289t-257.5 -84t-257.5 84z" />
    <glyph glyph-name="obreve" unicode="&#x14f;" horiz-adv-x="1302" 
d="M148 779q72 117 202.5 176t306.5 59t304 -59t196.5 -176t68.5 -287t-70.5 -287t-199.5 -175.5t-306 -58.5q-176 0 -305 58.5t-199 175.5t-70 287t72 287zM447 257.5q20 -92.5 69.5 -142t136.5 -49.5q86 0 134.5 49.5t67.5 141.5t19 235q0 142 -20 234.5t-69.5 142
t-135.5 49.5t-135 -49.5t-68 -142t-19 -234.5t20 -234.5zM394.5 1264q-104.5 84 -95.5 289h133q5 -89 58.5 -132t161.5 -43t161.5 43t58.5 132h133q9 -205 -95.5 -289t-257.5 -84t-257.5 84z" />
    <glyph glyph-name="Ohungarumlaut" unicode="&#x150;" horiz-adv-x="1679" 
d="M445 70.5q-169 99.5 -259.5 269.5t-90.5 376t90 373t259 263.5t395 96.5t395 -96.5t259.5 -263.5t90.5 -373t-91 -376t-260 -269.5t-394 -99.5t-394 99.5zM1114 233.5q87 168.5 87 480.5q0 310 -89.5 476t-274.5 166t-272.5 -165.5t-87.5 -476.5q0 -310 90.5 -479.5
t275.5 -169.5q184 0 271 168.5zM633 1748q42 80 82 166q12 26 22.5 47t16.5 28q15 19 36.5 30.5t46.5 11.5q36 0 68 -25q44 -34 44 -85q0 -39 -23 -69q-14 -17 -48 -50q-63 -61 -126.5 -129.5t-138.5 -166.5l-84 68q62 94 104 174zM1064.5 1744q39.5 75 88.5 175
q27 59 35 70q15 19 36.5 30.5t46.5 11.5q36 0 68 -25q22 -17 33 -39.5t11 -46.5q0 -38 -23 -68q-14 -17 -48 -50q-63 -61 -126.5 -129.5t-138.5 -166.5l-84 68q62 95 101.5 170z" />
    <glyph glyph-name="ohungarumlaut" unicode="&#x151;" horiz-adv-x="1302" 
d="M148 779q72 117 202.5 176t306.5 59t304 -59t196.5 -176t68.5 -287t-70.5 -287t-199.5 -175.5t-306 -58.5q-176 0 -305 58.5t-199 175.5t-70 287t72 287zM447 257.5q20 -92.5 69.5 -142t136.5 -49.5q86 0 134.5 49.5t67.5 141.5t19 235q0 142 -20 234.5t-69.5 142
t-135.5 49.5t-135 -49.5t-68 -142t-19 -234.5t20 -234.5zM449 1323q42 80 82 166q12 26 22.5 47t16.5 28q15 19 36.5 30.5t46.5 11.5q36 0 68 -25q44 -34 44 -85q0 -39 -23 -69q-14 -17 -48 -50q-63 -61 -126.5 -129.5t-138.5 -166.5l-84 68q62 94 104 174zM880.5 1319
q39.5 75 88.5 175q27 59 35 70q15 19 36.5 30.5t46.5 11.5q36 0 68 -25q22 -17 33 -39.5t11 -46.5q0 -38 -23 -68q-14 -17 -48 -50q-63 -61 -126.5 -129.5t-138.5 -166.5l-84 68q62 95 101.5 170z" />
    <glyph glyph-name="OE" unicode="&#x152;" horiz-adv-x="2254" 
d="M430.5 71.5q-160.5 100.5 -254 271.5t-93.5 373t95 370t258 265.5t358 97.5q66 0 110.5 -5.5t93.5 -14.5q48 -9 75 -10h998l35 -325q1 -16 -11 -25t-26 -9q-24 0 -41 6.5t-28 26.5l-35 67q-32 64 -52 95t-48 48t-71 17h-414v-542h294q24 3 46 35t37 72.5t18 63.5
q4 32 46 32q15 0 31.5 -9.5t16.5 -24.5v-443q0 -15 -16.5 -24.5t-31.5 -9.5q-19 0 -33 7.5t-16 25.5q-2 25 -17 68.5t-38 77t-49 33.5h-288v-485q0 -88 89 -96h321q83 0 143 67t119 196q9 19 30 30.5t55 11.5q20 0 33.5 -8.5t15.5 -25.5l-39 -372h-1000q-53 0 -93 -3.5
t-102 -11.5q-55 -7 -90 -10.5t-78 -3.5q-193 0 -353.5 100.5zM957 81q58 16 86 62l1 -2v1149q-14 19 -33.5 33t-74 25.5t-153.5 11.5q-100 0 -174 -77.5t-114 -223.5t-40 -345t40.5 -345.5t116 -225t176.5 -78.5q111 0 169 16z" />
    <glyph glyph-name="oe" unicode="&#x153;" horiz-adv-x="1921" 
d="M328.5 29.5q-124.5 58.5 -192 175.5t-67.5 287t69.5 287t195.5 176t296 59q243 0 385 -120q69 59 159 89.5t192 30.5q227 0 338 -86.5t140 -253.5q6 -32 7.5 -70t1.5 -95l-674 -1q0 -145 41.5 -235t104.5 -129t133 -39q97 0 162 23.5t112 79.5q1 1 5.5 6.5t9.5 7.5t11 1
l44 -21q10 -4 10 -12q0 -6 -6 -17q-52 -94 -159.5 -148t-264.5 -54q-252 0 -384 118q-70 -57 -164.5 -87.5t-210.5 -30.5q-170 0 -294.5 58.5zM1482.5 851.5q-37.5 77.5 -119.5 77.5q-70 0 -120 -80t-61 -248h338q0 173 -37.5 250.5zM754 115.5q46 49.5 64.5 141.5t18.5 235
q0 142 -19 234.5t-66.5 142t-129.5 49.5q-79 0 -123 -49.5t-61.5 -142t-17.5 -234.5t18.5 -234.5t63.5 -142t124 -49.5q82 0 128 49.5z" />
    <glyph glyph-name="Racute" unicode="&#x154;" horiz-adv-x="1633" 
d="M119.5 18q-9.5 18 -9.5 33q0 17 7 26t26 11q136 11 136 64l1 1082q0 40 -21 60t-47.5 25.5t-74.5 11.5q-22 2 -29 8.5t-7 28.5q0 15 9.5 33t24.5 18l109 1q27 1 82 1q54 0 200 4q170 4 274 4q276 0 422.5 -93t146.5 -286q0 -126 -50 -205t-128.5 -121t-187.5 -70
q90 -9 146.5 -49t88.5 -94t71 -146q26 -59 41.5 -92.5t36.5 -66.5q32 -61 65.5 -87t74.5 -30q21 -2 28.5 -11t7.5 -32q0 -14 -9.5 -30t-24.5 -16h-341q-53 0 -90 39t-60.5 96t-54.5 156q-34 110 -62 176t-75.5 112t-117.5 46h-119v-440q0 -40 25 -60.5t59 -26.5t86 -10
q22 -2 29 -8.5t7 -28.5q0 -15 -9.5 -33t-24.5 -18h-637q-15 0 -24.5 18zM957.5 781.5q71.5 70.5 71.5 237.5q0 155 -68.5 234t-210.5 79h-141v-621h144q133 0 204.5 70.5zM669.5 1739q44.5 61 105.5 149q48 72 64 88t42.5 26t54.5 10q49 0 81 -33t32 -84q0 -26 -9 -49.5
t-24 -37.5q-12 -11 -87 -57q-80 -48 -152.5 -95.5t-155.5 -109.5l-56 58q60 74 104.5 135z" />
    <glyph glyph-name="racute" unicode="&#x155;" horiz-adv-x="1065" 
d="M77 13.5q-9 13.5 -9 27.5q0 17 7 26t26 11q49 4 82.5 16.5t33.5 37.5v646q0 47 -17 72t-40 33t-60 14q-5 1 -15 2.5t-17 3.5q-12 5 -18 14t-6 26q0 14 7 28.5t17 15.5q181 7 394 10h29q10 0 19 -9t11 -31v-203q29 65 83.5 124.5t126.5 97.5t149 38q86 0 127 -52.5
t41 -129.5q0 -49 -23 -93t-57.5 -70.5t-66.5 -26.5l-146 191q-66 0 -126 -65.5t-96 -155.5v-447q0 -33 22.5 -50t54.5 -23.5t83 -11.5l21 -2q22 -2 29 -8.5t7 -28.5q0 -14 -9 -27.5t-25 -13.5h-614q-16 0 -25 13.5zM484.5 1304q44.5 61 105.5 149q48 72 64 88t42.5 26
t54.5 10q49 0 81 -33t32 -84q0 -26 -9 -49.5t-24 -37.5q-12 -11 -87 -57q-80 -48 -152.5 -95.5t-155.5 -109.5l-56 58q60 74 104.5 135z" />
    <glyph glyph-name="uni0156" unicode="&#x156;" horiz-adv-x="1633" 
d="M119.5 18q-9.5 18 -9.5 33q0 17 7 26t26 11q136 11 136 64l1 1082q0 40 -21 60t-47.5 25.5t-74.5 11.5q-22 2 -29 8.5t-7 28.5q0 15 9.5 33t24.5 18l109 1q27 1 82 1q54 0 200 4q170 4 274 4q276 0 422.5 -93t146.5 -286q0 -126 -50 -205t-128.5 -121t-187.5 -70
q90 -9 146.5 -49t88.5 -94t71 -146q26 -59 41.5 -92.5t36.5 -66.5q32 -61 65.5 -87t74.5 -30q21 -2 28.5 -11t7.5 -32q0 -14 -9.5 -30t-24.5 -16h-341q-53 0 -90 39t-60.5 96t-54.5 156q-34 110 -62 176t-75.5 112t-117.5 46h-119v-440q0 -40 25 -60.5t59 -26.5t86 -10
q22 -2 29 -8.5t7 -28.5q0 -15 -9.5 -33t-24.5 -18h-637q-15 0 -24.5 18zM957.5 781.5q71.5 70.5 71.5 237.5q0 155 -68.5 234t-210.5 79h-141v-621h144q133 0 204.5 70.5zM893 -172q41 -51 41 -147q0 -68 -24.5 -135.5t-64 -120t-83.5 -78.5q-9 -6 -24 -6q-18 0 -32.5 8.5
t-14.5 23.5t16 32q24 26 41.5 76.5t17.5 109.5q-30 0 -59.5 17t-48 49.5t-18.5 75.5q0 73 42 109.5t106 36.5t105 -51z" />
    <glyph glyph-name="uni0157" unicode="&#x157;" horiz-adv-x="1065" 
d="M77 13.5q-9 13.5 -9 27.5q0 17 7 26t26 11q49 4 82.5 16.5t33.5 37.5v646q0 47 -17 72t-40 33t-60 14q-5 1 -15 2.5t-17 3.5q-12 5 -18 14t-6 26q0 14 7 28.5t17 15.5q181 7 394 10h29q10 0 19 -9t11 -31v-203q29 65 83.5 124.5t126.5 97.5t149 38q86 0 127 -52.5
t41 -129.5q0 -49 -23 -93t-57.5 -70.5t-66.5 -26.5l-146 191q-66 0 -126 -65.5t-96 -155.5v-447q0 -33 22.5 -50t54.5 -23.5t83 -11.5l21 -2q22 -2 29 -8.5t7 -28.5q0 -14 -9 -27.5t-25 -13.5h-614q-16 0 -25 13.5zM489.5 -178q45.5 -49 45.5 -139q0 -63 -27 -123t-83 -104
t-139 -57l-36 71q58 15 91 45t42 83q-73 7 -109.5 43.5t-36.5 95.5q0 36 18 67t49 49t68 18q72 0 117.5 -49z" />
    <glyph glyph-name="Rcaron" unicode="&#x158;" horiz-adv-x="1633" 
d="M119.5 18q-9.5 18 -9.5 33q0 17 7 26t26 11q136 11 136 64l1 1082q0 40 -21 60t-47.5 25.5t-74.5 11.5q-22 2 -29 8.5t-7 28.5q0 15 9.5 33t24.5 18l109 1q27 1 82 1q54 0 200 4q170 4 274 4q276 0 422.5 -93t146.5 -286q0 -126 -50 -205t-128.5 -121t-187.5 -70
q90 -9 146.5 -49t88.5 -94t71 -146q26 -59 41.5 -92.5t36.5 -66.5q32 -61 65.5 -87t74.5 -30q21 -2 28.5 -11t7.5 -32q0 -14 -9.5 -30t-24.5 -16h-341q-53 0 -90 39t-60.5 96t-54.5 156q-34 110 -62 176t-75.5 112t-117.5 46h-119v-440q0 -40 25 -60.5t59 -26.5t86 -10
q22 -2 29 -8.5t7 -28.5q0 -15 -9.5 -33t-24.5 -18h-637q-15 0 -24.5 18zM957.5 781.5q71.5 70.5 71.5 237.5q0 155 -68.5 234t-210.5 79h-141v-621h144q133 0 204.5 70.5zM662 1616l-243 344h148l220 -197l225 197h143l-243 -335q-21 -28 -49.5 -44t-75.5 -16q-90 0 -125 51
z" />
    <glyph glyph-name="rcaron" unicode="&#x159;" horiz-adv-x="1065" 
d="M77 13.5q-9 13.5 -9 27.5q0 17 7 26t26 11q49 4 82.5 16.5t33.5 37.5v646q0 47 -17 72t-40 33t-60 14q-5 1 -15 2.5t-17 3.5q-12 5 -18 14t-6 26q0 14 7 28.5t17 15.5q181 7 394 10h29q10 0 19 -9t11 -31v-203q29 65 83.5 124.5t126.5 97.5t149 38q86 0 127 -52.5
t41 -129.5q0 -49 -23 -93t-57.5 -70.5t-66.5 -26.5l-146 191q-66 0 -126 -65.5t-96 -155.5v-447q0 -33 22.5 -50t54.5 -23.5t83 -11.5l21 -2q22 -2 29 -8.5t7 -28.5q0 -14 -9 -27.5t-25 -13.5h-614q-16 0 -25 13.5zM417 1191l-243 354h148l220 -207l225 207h143l-243 -345
q-19 -28 -48 -44t-77 -16q-90 0 -125 51z" />
    <glyph glyph-name="Sacute" unicode="&#x15a;" horiz-adv-x="1329" 
d="M538 -11q-75 19 -113.5 34t-46.5 18q-16 6 -38 17q-3 1 -13 6t-18 5q-11 0 -18.5 -6t-17.5 -17q-20 -23 -37.5 -32t-36.5 -9q-26 0 -41 13.5t-14 34.5q2 22 2 45v40q0 67 -4.5 135t-5.5 79q-5 62 -5 85q0 70 58 70q48 0 60 -42q11 -42 26 -83t42 -88q61 -105 168 -169
t232 -64q58 0 108 20t80.5 60.5t30.5 98.5q0 80 -44 139.5t-106.5 101t-168.5 96.5l-63 33q-128 68 -203.5 118.5t-132 131.5t-56.5 193q0 117 64.5 207t180 139t263.5 49q77 0 129.5 -10t102.5 -27q5 -2 28.5 -8.5t41.5 -6.5q15 0 22.5 4t16 12.5t14.5 12.5q11 7 28 7
q26 0 48.5 -11.5t22.5 -26.5q1 -51 8 -126t9 -97q8 -66 8 -85q0 -31 -17.5 -44.5t-45.5 -13.5q-36 0 -50 23q38 -76 -10.5 48t-126 192.5t-214.5 68.5q-103 0 -173.5 -41.5t-70.5 -131.5q0 -76 51 -137.5t124.5 -106.5t187.5 -102q134 -66 222.5 -124.5t149 -141.5
t60.5 -193q0 -124 -71.5 -217.5t-192 -144t-263.5 -50.5q-96 0 -171 19zM565.5 1739q44.5 61 105.5 149q48 72 64 88t42.5 26t54.5 10q49 0 81 -33t32 -84q0 -26 -9 -49.5t-24 -37.5q-12 -11 -87 -57q-80 -48 -152.5 -95.5t-155.5 -109.5l-56 58q60 74 104.5 135z" />
    <glyph glyph-name="sacute" unicode="&#x15b;" horiz-adv-x="1050" 
d="M382 -11q-63 19 -107 41q-16 8 -31 8q-18 0 -27 -5t-18 -16q-10 -12 -20 -17.5t-30 -5.5t-35.5 8.5t-15.5 21.5l-4 114q-5 180 -5 188q0 22 15.5 32.5t36.5 10.5q17 0 30 -6t16 -16q17 -60 51 -131q17 -35 51 -71.5t89.5 -63t127.5 -26.5q84 0 131.5 29t47.5 85
q0 46 -26.5 80.5t-90 67.5t-178.5 74q-117 41 -198.5 117t-81.5 195q0 86 55.5 157.5t153 112.5t216.5 41q56 0 101 -11.5t93 -29.5q7 -2 22.5 -7.5t22.5 -5.5q15 0 20.5 5.5t8.5 14t6 13.5q6 10 19.5 15.5t29.5 5.5q23 0 40 -9.5t17 -25.5q0 -12 -1 -23q-2 -52 -2 -113
q0 -32 3 -61q2 -36 2 -49q0 -28 -15 -41.5t-38 -13.5q-16 0 -28.5 5.5t-15.5 14.5q-20 60 -47.5 108.5t-83 85t-142.5 36.5q-59 0 -103.5 -26t-44.5 -84q0 -45 24 -78t72.5 -59t129.5 -53q169 -56 268.5 -135.5t99.5 -213.5q0 -151 -122 -230t-353 -79q-73 0 -136 19z
M475.5 1304q44.5 61 105.5 149q48 72 64 88t42.5 26t54.5 10q49 0 81 -33t32 -84q0 -26 -9 -49.5t-24 -37.5q-12 -11 -87 -57q-80 -48 -152.5 -95.5t-155.5 -109.5l-56 58q60 74 104.5 135z" />
    <glyph glyph-name="Scircumflex" unicode="&#x15c;" horiz-adv-x="1329" 
d="M538 -11q-75 19 -113.5 34t-46.5 18q-16 6 -38 17q-3 1 -13 6t-18 5q-11 0 -18.5 -6t-17.5 -17q-20 -23 -37.5 -32t-36.5 -9q-26 0 -41 13.5t-14 34.5q2 22 2 45v40q0 67 -4.5 135t-5.5 79q-5 62 -5 85q0 70 58 70q48 0 60 -42q11 -42 26 -83t42 -88q61 -105 168 -169
t232 -64q58 0 108 20t80.5 60.5t30.5 98.5q0 80 -44 139.5t-106.5 101t-168.5 96.5l-63 33q-128 68 -203.5 118.5t-132 131.5t-56.5 193q0 117 64.5 207t180 139t263.5 49q77 0 129.5 -10t102.5 -27q5 -2 28.5 -8.5t41.5 -6.5q15 0 22.5 4t16 12.5t14.5 12.5q11 7 28 7
q26 0 48.5 -11.5t22.5 -26.5q1 -51 8 -126t9 -97q8 -66 8 -85q0 -31 -17.5 -44.5t-45.5 -13.5q-36 0 -50 23q38 -76 -10.5 48t-126 192.5t-214.5 68.5q-103 0 -173.5 -41.5t-70.5 -131.5q0 -76 51 -137.5t124.5 -106.5t187.5 -102q134 -66 222.5 -124.5t149 -141.5
t60.5 -193q0 -124 -71.5 -217.5t-192 -144t-263.5 -50.5q-96 0 -171 19zM683 1964q48 0 77.5 -16t49.5 -44l243 -339h-143l-227 201l-222 -201h-148l247 348q35 51 123 51z" />
    <glyph glyph-name="scircumflex" unicode="&#x15d;" horiz-adv-x="1050" 
d="M382 -11q-63 19 -107 41q-16 8 -31 8q-18 0 -27 -5t-18 -16q-10 -12 -20 -17.5t-30 -5.5t-35.5 8.5t-15.5 21.5l-4 114q-5 180 -5 188q0 22 15.5 32.5t36.5 10.5q17 0 30 -6t16 -16q17 -60 51 -131q17 -35 51 -71.5t89.5 -63t127.5 -26.5q84 0 131.5 29t47.5 85
q0 46 -26.5 80.5t-90 67.5t-178.5 74q-117 41 -198.5 117t-81.5 195q0 86 55.5 157.5t153 112.5t216.5 41q56 0 101 -11.5t93 -29.5q7 -2 22.5 -7.5t22.5 -5.5q15 0 20.5 5.5t8.5 14t6 13.5q6 10 19.5 15.5t29.5 5.5q23 0 40 -9.5t17 -25.5q0 -12 -1 -23q-2 -52 -2 -113
q0 -32 3 -61q2 -36 2 -49q0 -28 -15 -41.5t-38 -13.5q-16 0 -28.5 5.5t-15.5 14.5q-20 60 -47.5 108.5t-83 85t-142.5 36.5q-59 0 -103.5 -26t-44.5 -84q0 -45 24 -78t72.5 -59t129.5 -53q169 -56 268.5 -135.5t99.5 -213.5q0 -151 -122 -230t-353 -79q-73 0 -136 19z
M533 1559q86 0 127 -60l243 -359h-143l-227 211l-222 -211h-148l247 368q35 51 123 51z" />
    <glyph glyph-name="Scedilla" unicode="&#x15e;" horiz-adv-x="1329" 
d="M1173.5 177.5q-62.5 -89.5 -169.5 -142.5t-238 -63l-20 -72q111 -6 173 -57t62 -130q0 -62 -34 -110t-98.5 -74.5t-152.5 -26.5q-74 0 -135 20t-93 41q-8 5 -8 12l2 8q8 18 32 67q3 7 7 9t11 -1q36 -15 69 -23.5t70 -8.5q57 0 91 25.5t34 65.5q0 39 -46 65.5t-132 25.5
l27 167q-69 7 -123 23t-85 28t-39 15q-16 6 -38 17q-3 1 -13 6t-18 5q-11 0 -18.5 -6t-17.5 -17q-20 -23 -37.5 -32t-36.5 -9q-26 0 -41 13.5t-14 34.5q2 22 2 45v40q0 67 -4.5 135t-5.5 79q-5 62 -5 85q0 70 58 70q48 0 60 -42q11 -42 26 -83t42 -88q61 -105 168 -169
t232 -64q58 0 108 20t80.5 60.5t30.5 98.5q0 80 -44 139.5t-106.5 101t-168.5 96.5l-63 33q-128 68 -203.5 118.5t-132 131.5t-56.5 193q0 117 64.5 207t180 139t263.5 49q77 0 129.5 -10t102.5 -27q5 -2 28.5 -8.5t41.5 -6.5q15 0 22.5 4t16 12.5t14.5 12.5q11 7 28 7
q26 0 48.5 -11.5t22.5 -26.5q1 -51 8 -126t9 -97q8 -66 8 -85q0 -31 -17.5 -44.5t-45.5 -13.5q-36 0 -50 23q38 -76 -10.5 48t-126 192.5t-214.5 68.5q-103 0 -173.5 -41.5t-70.5 -131.5q0 -76 51 -137.5t124.5 -106.5t187.5 -102q134 -66 222.5 -124.5t149 -141.5
t60.5 -193q0 -115 -62.5 -204.5z" />
    <glyph glyph-name="scedilla" unicode="&#x15f;" horiz-adv-x="1050" 
d="M889 61.5q-104 -78.5 -302 -89.5l-20 -72q111 -6 173 -57t62 -130q0 -62 -34 -110t-98.5 -74.5t-152.5 -26.5q-74 0 -135 20t-93 41q-8 5 -8 12l2 8q7 18 32 67q3 7 7 9t11 -1q36 -15 69 -23.5t70 -8.5q57 0 91 25.5t34 65.5q0 39 -46 65.5t-132 25.5l27 168
q-90 14 -171 54q-16 8 -31 8q-18 0 -27 -5t-18 -16q-10 -12 -20 -17.5t-30 -5.5t-35.5 8.5t-15.5 21.5l-4 114q-5 180 -5 188q0 22 15.5 32.5t36.5 10.5q17 0 30 -6t16 -16q17 -60 51 -131q17 -35 51 -71.5t89.5 -63t127.5 -26.5q84 0 131.5 29t47.5 85q0 46 -26.5 80.5
t-90 67.5t-178.5 74q-117 41 -198.5 117t-81.5 195q0 86 55.5 157.5t153 112.5t216.5 41q56 0 101 -11.5t93 -29.5q7 -2 22.5 -7.5t22.5 -5.5q15 0 20.5 5.5t8.5 14t6 13.5q6 10 19.5 15.5t29.5 5.5q23 0 40 -9.5t17 -25.5q0 -12 -1 -23q-2 -52 -2 -113q0 -32 3 -61
q2 -36 2 -49q0 -28 -15 -41.5t-38 -13.5q-16 0 -28.5 5.5t-15.5 14.5q-20 60 -47.5 108.5t-83 85t-142.5 36.5q-59 0 -103.5 -26t-44.5 -84q0 -45 24 -78t72.5 -59t129.5 -53q169 -56 268.5 -135.5t99.5 -213.5q0 -139 -104 -217.5z" />
    <glyph glyph-name="Scaron" unicode="&#x160;" horiz-adv-x="1329" 
d="M538 -11q-75 19 -113.5 34t-46.5 18q-16 6 -38 17q-3 1 -13 6t-18 5q-11 0 -18.5 -6t-17.5 -17q-20 -23 -37.5 -32t-36.5 -9q-26 0 -41 13.5t-14 34.5q2 22 2 45v40q0 67 -4.5 135t-5.5 79q-5 62 -5 85q0 70 58 70q48 0 60 -42q11 -42 26 -83t42 -88q61 -105 168 -169
t232 -64q58 0 108 20t80.5 60.5t30.5 98.5q0 80 -44 139.5t-106.5 101t-168.5 96.5l-63 33q-128 68 -203.5 118.5t-132 131.5t-56.5 193q0 117 64.5 207t180 139t263.5 49q77 0 129.5 -10t102.5 -27q5 -2 28.5 -8.5t41.5 -6.5q15 0 22.5 4t16 12.5t14.5 12.5q11 7 28 7
q26 0 48.5 -11.5t22.5 -26.5q1 -51 8 -126t9 -97q8 -66 8 -85q0 -31 -17.5 -44.5t-45.5 -13.5q-36 0 -50 23q38 -76 -10.5 48t-126 192.5t-214.5 68.5q-103 0 -173.5 -41.5t-70.5 -131.5q0 -76 51 -137.5t124.5 -106.5t187.5 -102q134 -66 222.5 -124.5t149 -141.5
t60.5 -193q0 -124 -71.5 -217.5t-192 -144t-263.5 -50.5q-96 0 -171 19zM558 1616l-243 344h148l220 -197l225 197h143l-243 -335q-21 -28 -49.5 -44t-75.5 -16q-90 0 -125 51z" />
    <glyph glyph-name="scaron" unicode="&#x161;" horiz-adv-x="1050" 
d="M382 -11q-63 19 -107 41q-16 8 -31 8q-18 0 -27 -5t-18 -16q-10 -12 -20 -17.5t-30 -5.5t-35.5 8.5t-15.5 21.5l-4 114q-5 180 -5 188q0 22 15.5 32.5t36.5 10.5q17 0 30 -6t16 -16q17 -60 51 -131q17 -35 51 -71.5t89.5 -63t127.5 -26.5q84 0 131.5 29t47.5 85
q0 46 -26.5 80.5t-90 67.5t-178.5 74q-117 41 -198.5 117t-81.5 195q0 86 55.5 157.5t153 112.5t216.5 41q56 0 101 -11.5t93 -29.5q7 -2 22.5 -7.5t22.5 -5.5q15 0 20.5 5.5t8.5 14t6 13.5q6 10 19.5 15.5t29.5 5.5q23 0 40 -9.5t17 -25.5q0 -12 -1 -23q-2 -52 -2 -113
q0 -32 3 -61q2 -36 2 -49q0 -28 -15 -41.5t-38 -13.5q-16 0 -28.5 5.5t-15.5 14.5q-20 60 -47.5 108.5t-83 85t-142.5 36.5q-59 0 -103.5 -26t-44.5 -84q0 -45 24 -78t72.5 -59t129.5 -53q169 -56 268.5 -135.5t99.5 -213.5q0 -151 -122 -230t-353 -79q-73 0 -136 19z
M408 1191l-243 354h148l220 -207l225 207h143l-243 -345q-19 -28 -48 -44t-77 -16q-90 0 -125 51z" />
    <glyph glyph-name="uni0162" unicode="&#x162;" horiz-adv-x="1401" 
d="M1361.5 1284.5q7.5 -134.5 12.5 -284.5q0 -15 -18 -24.5t-33 -9.5q-20 0 -37.5 8t-19.5 25q-12 108 -46 214.5t-108 106.5h-237v-1135q0 -40 31 -60t71 -26.5t100 -10.5q22 -2 29 -8.5t7 -28.5q0 -15 -9.5 -33t-24.5 -18h-289l-28 -100q111 -6 173 -57t62 -130
q0 -62 -34 -110t-98.5 -74.5t-152.5 -26.5q-74 0 -135 20t-93 41q-8 5 -8 12l2 8q8 18 32 67q3 7 7 9t11 -1q36 -15 69 -23.5t70 -8.5q57 0 91 25.5t34 65.5q0 39 -46 65.5t-132 25.5l31 192h-311q-15 0 -24.5 18t-9.5 33q0 17 7 26t26 11q91 5 148.5 24.5t57.5 69.5v1138
h-250q-52 0 -85.5 -60.5t-49 -134.5t-19.5 -126q-2 -17 -19.5 -25t-37.5 -8q-15 0 -33 9.5t-18 24.5q5 150 12.5 284.5t17.5 134.5h1287q10 0 17.5 -134.5z" />
    <glyph glyph-name="uni0163" unicode="&#x163;" horiz-adv-x="814" 
d="M769 138q11 -15 17 -32.5t0 -21.5q-25 -27 -77.5 -53.5t-112 -43.5t-104.5 -17h-23l-20 -70q111 -6 173 -57t62 -130q0 -62 -34 -110t-98.5 -74.5t-152.5 -26.5q-74 0 -135 20t-93 41q-8 5 -8 12l2 8q8 18 32 67q3 7 7 9t11 -1q36 -15 69 -23.5t70 -8.5q57 0 91 25.5
t34 65.5q0 39 -46 65.5t-132 25.5l30 184q-154 51 -154 231v662h-107q-10 1 -17 15.5t-7 28.5q0 18 6.5 30t18.5 16l125 37q23 5 52.5 40.5t55.5 92t41 123.5q9 39 77 39q76 0 76 -34v-279h221q11 -1 17.5 -11t6.5 -23q0 -31 -9.5 -52t-20.5 -21h-215v-575q0 -85 8.5 -129.5
t28 -61t56.5 -16.5q33 0 78 13t83 32q6 3 17 -12z" />
    <glyph glyph-name="Tcaron" unicode="&#x164;" horiz-adv-x="1401" 
d="M309.5 18q-9.5 18 -9.5 33q0 17 7 26t26 11q91 5 148.5 24.5t57.5 69.5v1138h-250q-52 0 -85.5 -60.5t-49 -134.5t-19.5 -126q-2 -17 -19.5 -25t-37.5 -8q-15 0 -33 9.5t-18 24.5q5 150 12.5 284.5t17.5 134.5h1287q10 0 17.5 -134.5t12.5 -284.5q0 -15 -18 -24.5
t-33 -9.5q-20 0 -37.5 8t-19.5 25q-12 108 -46 214.5t-108 106.5h-237v-1135q0 -40 31 -60t71 -26.5t100 -10.5q22 -2 29 -8.5t7 -28.5q0 -15 -9.5 -33t-24.5 -18h-745q-15 0 -24.5 18zM592 1616l-243 344h148l220 -197l225 197h143l-243 -335q-21 -28 -49.5 -44t-75.5 -16
q-90 0 -125 51z" />
    <glyph glyph-name="tcaron" unicode="&#x165;" horiz-adv-x="814" 
d="M262.5 26q-85.5 56 -85.5 197v662h-107q-10 1 -17 15.5t-7 28.5q0 18 6.5 30t18.5 16l125 37q23 5 52.5 40.5t55.5 92t41 123.5q9 39 77 39q76 0 76 -34v-279h221q11 -1 17.5 -11t6.5 -23q0 -31 -9.5 -52t-20.5 -21h-215v-575q0 -85 8.5 -129.5t28 -61t56.5 -16.5
q33 0 78 13t83 32q6 3 17 -12t17 -32.5t0 -21.5q-25 -27 -77.5 -53.5t-112 -43.5t-104.5 -17q-144 0 -229.5 56zM664.5 1206q19.5 46 19.5 87q0 25 -12 46.5t-39 50.5q-37 39 -37 85q0 54 35.5 93t91.5 39q65 0 105.5 -48.5t40.5 -121.5q0 -102 -61.5 -203.5t-151.5 -184.5
l-58 52q47 59 66.5 105z" />
    <glyph glyph-name="Tbar" unicode="&#x166;" horiz-adv-x="1401" 
d="M1373.5 1284.5q7.5 -134.5 12.5 -284.5q0 -15 -18 -24.5t-33 -9.5q-20 0 -37.5 8t-19.5 25q-12 108 -46 214.5t-108 106.5h-237v-627h249q11 -1 17.5 -11t6.5 -23q0 -21 -7 -45t-17 -28h-249v-401q0 -40 31 -60t71 -26.5t100 -10.5q22 -2 29 -8.5t7 -28.5q0 -15 -9.5 -33
t-24.5 -18h-745q-15 0 -24.5 18t-9.5 33q0 17 7 26t26 11q91 5 148.5 24.5t57.5 69.5v404h-281q-11 1 -17.5 19.5t-6.5 34.5q0 19 6.5 33.5t17.5 19.5h281v627h-250q-52 0 -85.5 -60.5t-49 -134.5t-19.5 -126q-2 -17 -19.5 -25t-37.5 -8q-15 0 -33 9.5t-18 24.5
q5 150 12.5 284.5t17.5 134.5h1287q10 0 17.5 -134.5z" />
    <glyph glyph-name="tbar" unicode="&#x167;" horiz-adv-x="814" 
d="M724 138q11 -15 17 -32.5t0 -21.5q-25 -27 -77.5 -53.5t-112 -43.5t-104.5 -17q-144 0 -229.5 56t-85.5 197v237h-108q-11 1 -17.5 19.5t-6.5 34.5q0 19 6.5 33.5t17.5 19.5h108v318h-107q-10 1 -17 15.5t-7 28.5q0 18 6.5 30t18.5 16l125 37q23 5 52.5 40.5t55.5 92
t41 123.5q9 39 77 39q76 0 76 -34v-279h221q11 -1 17.5 -11t6.5 -23q0 -31 -9.5 -52t-20.5 -21h-215v-320h270q11 -1 17.5 -11t6.5 -23q0 -21 -7 -45t-17 -28h-270v-148q0 -85 8.5 -129.5t28 -61t56.5 -16.5q33 0 78 13t83 32q6 3 17 -12z" />
    <glyph glyph-name="Utilde" unicode="&#x168;" horiz-adv-x="1707" 
d="M1378 228q-65 -123 -187 -190t-290 -67q-309 0 -485 133t-175 444l1 686q0 40 -21 60.5t-49.5 26.5t-71.5 10q-22 2 -29 8.5t-7 28.5q0 15 9.5 33t24.5 18h634q15 0 24.5 -18t9.5 -33q0 -17 -7.5 -26.5t-25.5 -10.5q-65 -5 -110 -19.5t-45 -44.5l-1 -743
q0 -168 35.5 -268.5t107.5 -145.5t185 -45q141 0 235 62.5t138 164.5t44 222v730q0 43 -53 61t-124 26q-22 2 -29 8.5t-7 28.5q0 15 9.5 33t24.5 18h467q15 0 24.5 -18t9.5 -33q0 -17 -7.5 -26.5t-25.5 -10.5q-79 -3 -122.5 -28.5t-43.5 -72.5l-2 -714q0 -165 -65 -288z
M972.5 1587.5q-40.5 18.5 -97.5 54.5q-49 32 -83.5 48t-68.5 16q-41 0 -63.5 -15.5t-44.5 -44.5q-14 -18 -23.5 -26t-22.5 -8q-19 0 -37.5 23.5t-18.5 48.5q0 40 32.5 90t88.5 85t123 35q43 0 81.5 -18.5t89.5 -53.5q49 -34 83.5 -50.5t71.5 -16.5q43 0 67 16t46 45
q15 18 24.5 25.5t22.5 7.5q19 0 37.5 -23.5t18.5 -48.5q0 -40 -33.5 -90t-89 -84.5t-118.5 -34.5q-45 1 -85.5 19.5z" />
    <glyph glyph-name="utilde" unicode="&#x169;" horiz-adv-x="1386" 
d="M349.5 -3q-72.5 24 -115 89.5t-42.5 183.5v549q0 40 -16 60.5t-38 27t-56 9.5q-22 2 -29 8.5t-7 28.5q0 13 9.5 27t24.5 14h391q37 0 37 -36v-597q0 -234 111 -234q83 0 143.5 28t111.5 83v581q0 40 -20.5 60.5t-49 27t-72.5 9.5q-22 2 -29 8.5t-7 28.5q0 14 9 27.5
t25 13.5h423q37 0 37 -36v-736q0 -63 11.5 -83.5t32.5 -20.5q36 0 52 8q15 8 27 -19t12 -53q0 -14 -5 -17q-34 -22 -105.5 -42t-181.5 -20q-87 0 -115 53.5t-27 118.5q-32 -46 -90.5 -86t-130 -64t-142.5 -24q-106 0 -178.5 24zM751.5 1138.5q-40.5 18.5 -97.5 54.5
q-49 32 -83.5 48t-68.5 16q-41 0 -63.5 -15.5t-44.5 -44.5q-14 -18 -23.5 -26t-22.5 -8q-19 0 -37.5 23.5t-18.5 48.5q0 40 32.5 90t88.5 85t123 35q43 0 81.5 -18.5t89.5 -53.5q49 -34 83.5 -50.5t71.5 -16.5q43 0 67 16t46 45q15 18 24.5 25.5t22.5 7.5q19 0 37.5 -23.5
t18.5 -48.5q0 -40 -33.5 -90t-89 -84.5t-118.5 -34.5q-45 1 -85.5 19.5z" />
    <glyph glyph-name="Umacron" unicode="&#x16a;" horiz-adv-x="1707" 
d="M1378 228q-65 -123 -187 -190t-290 -67q-309 0 -485 133t-175 444l1 686q0 40 -21 60.5t-49.5 26.5t-71.5 10q-22 2 -29 8.5t-7 28.5q0 15 9.5 33t24.5 18h634q15 0 24.5 -18t9.5 -33q0 -17 -7.5 -26.5t-25.5 -10.5q-65 -5 -110 -19.5t-45 -44.5l-1 -743
q0 -168 35.5 -268.5t107.5 -145.5t185 -45q141 0 235 62.5t138 164.5t44 222v730q0 43 -53 61t-124 26q-22 2 -29 8.5t-7 28.5q0 15 9.5 33t24.5 18h467q15 0 24.5 -18t9.5 -33q0 -17 -7.5 -26.5t-25.5 -10.5q-79 -3 -122.5 -28.5t-43.5 -72.5l-2 -714q0 -165 -65 -288z
M614 1770h587v-151h-587v151z" />
    <glyph glyph-name="umacron" unicode="&#x16b;" horiz-adv-x="1386" 
d="M349.5 -3q-72.5 24 -115 89.5t-42.5 183.5v549q0 40 -16 60.5t-38 27t-56 9.5q-22 2 -29 8.5t-7 28.5q0 13 9.5 27t24.5 14h391q37 0 37 -36v-597q0 -234 111 -234q83 0 143.5 28t111.5 83v581q0 40 -20.5 60.5t-49 27t-72.5 9.5q-22 2 -29 8.5t-7 28.5q0 14 9 27.5
t25 13.5h423q37 0 37 -36v-736q0 -63 11.5 -83.5t32.5 -20.5q36 0 52 8q15 8 27 -19t12 -53q0 -14 -5 -17q-34 -22 -105.5 -42t-181.5 -20q-87 0 -115 53.5t-27 118.5q-32 -46 -90.5 -86t-130 -64t-142.5 -24q-106 0 -178.5 24zM393 1333h587v-151h-587v151z" />
    <glyph glyph-name="Ubreve" unicode="&#x16c;" horiz-adv-x="1707" 
d="M1378 228q-65 -123 -187 -190t-290 -67q-309 0 -485 133t-175 444l1 686q0 40 -21 60.5t-49.5 26.5t-71.5 10q-22 2 -29 8.5t-7 28.5q0 15 9.5 33t24.5 18h634q15 0 24.5 -18t9.5 -33q0 -17 -7.5 -26.5t-25.5 -10.5q-65 -5 -110 -19.5t-45 -44.5l-1 -743
q0 -168 35.5 -268.5t107.5 -145.5t185 -45q141 0 235 62.5t138 164.5t44 222v730q0 43 -53 61t-124 26q-22 2 -29 8.5t-7 28.5q0 15 9.5 33t24.5 18h467q15 0 24.5 -18t9.5 -33q0 -17 -7.5 -26.5t-25.5 -10.5q-79 -3 -122.5 -28.5t-43.5 -72.5l-2 -714q0 -165 -65 -288z
M648.5 1669q-104.5 84 -95.5 289h133q5 -89 58.5 -132t161.5 -43t161.5 43t58.5 132h133q9 -205 -95.5 -289t-257.5 -84t-257.5 84z" />
    <glyph glyph-name="ubreve" unicode="&#x16d;" horiz-adv-x="1386" 
d="M349.5 -3q-72.5 24 -115 89.5t-42.5 183.5v549q0 40 -16 60.5t-38 27t-56 9.5q-22 2 -29 8.5t-7 28.5q0 13 9.5 27t24.5 14h391q37 0 37 -36v-597q0 -234 111 -234q83 0 143.5 28t111.5 83v581q0 40 -20.5 60.5t-49 27t-72.5 9.5q-22 2 -29 8.5t-7 28.5q0 14 9 27.5
t25 13.5h423q37 0 37 -36v-736q0 -63 11.5 -83.5t32.5 -20.5q36 0 52 8q15 8 27 -19t12 -53q0 -14 -5 -17q-34 -22 -105.5 -42t-181.5 -20q-87 0 -115 53.5t-27 118.5q-32 -46 -90.5 -86t-130 -64t-142.5 -24q-106 0 -178.5 24zM427.5 1264q-104.5 84 -95.5 289h133
q5 -89 58.5 -132t161.5 -43t161.5 43t58.5 132h133q9 -205 -95.5 -289t-257.5 -84t-257.5 84z" />
    <glyph glyph-name="Uring" unicode="&#x16e;" horiz-adv-x="1707" 
d="M1378 228q-65 -123 -187 -190t-290 -67q-309 0 -485 133t-175 444l1 686q0 40 -21 60.5t-49.5 26.5t-71.5 10q-22 2 -29 8.5t-7 28.5q0 15 9.5 33t24.5 18h634q15 0 24.5 -18t9.5 -33q0 -17 -7.5 -26.5t-25.5 -10.5q-65 -5 -110 -19.5t-45 -44.5l-1 -743
q0 -168 35.5 -268.5t107.5 -145.5t185 -45q141 0 235 62.5t138 164.5t44 222v730q0 43 -53 61t-124 26q-22 2 -29 8.5t-7 28.5q0 15 9.5 33t24.5 18h467q15 0 24.5 -18t9.5 -33q0 -17 -7.5 -26.5t-25.5 -10.5q-79 -3 -122.5 -28.5t-43.5 -72.5l-2 -714q0 -165 -65 -288z
M749 1576q-71 35 -112 99.5t-41 149.5t41 149t112 99t157 35q85 0 156 -36.5t112.5 -101.5t41.5 -148q0 -85 -41.5 -148.5t-112 -98t-156.5 -34.5t-157 35zM1014 1726q35 39 35 100t-35 99t-108 38t-107.5 -39t-34.5 -100t34.5 -99t107.5 -38t108 39z" />
    <glyph glyph-name="uring" unicode="&#x16f;" horiz-adv-x="1386" 
d="M349.5 -3q-72.5 24 -115 89.5t-42.5 183.5v549q0 40 -16 60.5t-38 27t-56 9.5q-22 2 -29 8.5t-7 28.5q0 13 9.5 27t24.5 14h391q37 0 37 -36v-597q0 -234 111 -234q83 0 143.5 28t111.5 83v581q0 40 -20.5 60.5t-49 27t-72.5 9.5q-22 2 -29 8.5t-7 28.5q0 14 9 27.5
t25 13.5h423q37 0 37 -36v-736q0 -63 11.5 -83.5t32.5 -20.5q36 0 52 8q15 8 27 -19t12 -53q0 -14 -5 -17q-34 -22 -105.5 -42t-181.5 -20q-87 0 -115 53.5t-27 118.5q-32 -46 -90.5 -86t-130 -64t-142.5 -24q-106 0 -178.5 24zM528 1151q-71 35 -112 99.5t-41 149.5t41 149
t112 99t157 35q85 0 156 -36.5t112.5 -101.5t41.5 -148q0 -85 -41.5 -148.5t-112 -98t-156.5 -34.5t-157 35zM793 1301q35 39 35 100t-35 99t-108 38t-107.5 -39t-34.5 -100t34.5 -99t107.5 -38t108 39z" />
    <glyph glyph-name="Uhungarumlaut" unicode="&#x170;" horiz-adv-x="1707" 
d="M1378 228q-65 -123 -187 -190t-290 -67q-309 0 -485 133t-175 444l1 686q0 40 -21 60.5t-49.5 26.5t-71.5 10q-22 2 -29 8.5t-7 28.5q0 15 9.5 33t24.5 18h634q15 0 24.5 -18t9.5 -33q0 -17 -7.5 -26.5t-25.5 -10.5q-65 -5 -110 -19.5t-45 -44.5l-1 -743
q0 -168 35.5 -268.5t107.5 -145.5t185 -45q141 0 235 62.5t138 164.5t44 222v730q0 43 -53 61t-124 26q-22 2 -29 8.5t-7 28.5q0 15 9.5 33t24.5 18h467q15 0 24.5 -18t9.5 -33q0 -17 -7.5 -26.5t-25.5 -10.5q-79 -3 -122.5 -28.5t-43.5 -72.5l-2 -714q0 -165 -65 -288z
M699 1748q42 80 82 166q12 26 22.5 47t16.5 28q15 19 36.5 30.5t46.5 11.5q36 0 68 -25q44 -34 44 -85q0 -39 -23 -69q-14 -17 -48 -50q-63 -61 -126.5 -129.5t-138.5 -166.5l-84 68q62 94 104 174zM1130.5 1744q39.5 75 88.5 175q27 59 35 70q15 19 36.5 30.5t46.5 11.5
q36 0 68 -25q22 -17 33 -39.5t11 -46.5q0 -38 -23 -68q-14 -17 -48 -50q-63 -61 -126.5 -129.5t-138.5 -166.5l-84 68q62 95 101.5 170z" />
    <glyph glyph-name="uhungarumlaut" unicode="&#x171;" horiz-adv-x="1386" 
d="M349.5 -3q-72.5 24 -115 89.5t-42.5 183.5v549q0 40 -16 60.5t-38 27t-56 9.5q-22 2 -29 8.5t-7 28.5q0 13 9.5 27t24.5 14h391q37 0 37 -36v-597q0 -234 111 -234q83 0 143.5 28t111.5 83v581q0 40 -20.5 60.5t-49 27t-72.5 9.5q-22 2 -29 8.5t-7 28.5q0 14 9 27.5
t25 13.5h423q37 0 37 -36v-736q0 -63 11.5 -83.5t32.5 -20.5q36 0 52 8q15 8 27 -19t12 -53q0 -14 -5 -17q-34 -22 -105.5 -42t-181.5 -20q-87 0 -115 53.5t-27 118.5q-32 -46 -90.5 -86t-130 -64t-142.5 -24q-106 0 -178.5 24zM482 1323q42 80 82 166q12 26 22.5 47
t16.5 28q15 19 36.5 30.5t46.5 11.5q36 0 68 -25q44 -34 44 -85q0 -39 -23 -69q-14 -17 -48 -50q-63 -61 -126.5 -129.5t-138.5 -166.5l-84 68q62 94 104 174zM913.5 1319q39.5 75 88.5 175q27 59 35 70q15 19 36.5 30.5t46.5 11.5q36 0 68 -25q22 -17 33 -39.5t11 -46.5
q0 -38 -23 -68q-14 -17 -48 -50q-63 -61 -126.5 -129.5t-138.5 -166.5l-84 68q62 95 101.5 170z" />
    <glyph glyph-name="Uogonek" unicode="&#x172;" horiz-adv-x="1707" 
d="M1634.5 1401q9.5 -18 9.5 -33q0 -17 -7.5 -26.5t-25.5 -10.5q-79 -3 -122.5 -28.5t-43.5 -72.5l-2 -714q0 -146 -51.5 -260t-148.5 -185.5t-233 -91.5q-123 -89 -123 -201q0 -38 22.5 -69t57 -48t69.5 -17q33 0 54 4.5t53 22.5q5 3 12.5 -4.5t13 -21.5t5.5 -30
q0 -33 -26 -53q-35 -27 -97.5 -44.5t-123.5 -17.5q-93 0 -156.5 26t-95 71t-31.5 101q0 77 62.5 150t166.5 123q-296 6 -464.5 139.5t-167.5 437.5l1 686q0 40 -21 60.5t-49.5 26.5t-71.5 10q-22 2 -29 8.5t-7 28.5q0 15 9.5 33t24.5 18h634q15 0 24.5 -18t9.5 -33
q0 -17 -7.5 -26.5t-25.5 -10.5q-65 -5 -110 -19.5t-45 -44.5l-1 -743q0 -168 35.5 -268.5t107.5 -145.5t185 -45q141 0 235 62.5t138 164.5t44 222v730q0 43 -53 61t-124 26q-22 2 -29 8.5t-7 28.5q0 15 9.5 33t24.5 18h467q15 0 24.5 -18z" />
    <glyph glyph-name="uogonek" unicode="&#x173;" horiz-adv-x="1386" 
d="M1313 107q12 -27 12 -53q0 -14 -5 -17q-28 -18 -84 -36t-140 -24q-120 -87 -120 -199q0 -38 22.5 -69t57 -48t69.5 -17q33 0 54 4.5t53 22.5q5 3 12.5 -4.5t13 -21.5t5.5 -30q0 -33 -26 -53q-35 -27 -97.5 -44.5t-123.5 -17.5q-93 0 -156.5 26t-95 71t-31.5 101
q0 81 69 157.5t182 125.5q-57 16 -75.5 64.5t-17.5 101.5q-32 -46 -90.5 -86t-130 -64t-142.5 -24q-106 0 -178.5 24t-115 89.5t-42.5 183.5v549q0 40 -16 60.5t-38 27t-56 9.5q-22 2 -29 8.5t-7 28.5q0 13 9.5 27t24.5 14h391q37 0 37 -36v-597q0 -234 111 -234
q83 0 143.5 28t111.5 83v581q0 40 -20.5 60.5t-49 27t-72.5 9.5q-22 2 -29 8.5t-7 28.5q0 14 9 27.5t25 13.5h423q37 0 37 -36v-736q0 -63 11.5 -83.5t32.5 -20.5q36 0 52 8q15 8 27 -19z" />
    <glyph glyph-name="Wcircumflex" unicode="&#x174;" horiz-adv-x="2307" 
d="M123.5 1274.5q-18.5 24.5 -46 37t-75.5 19.5q-23 3 -30 9.5t-7 27.5q0 15 9.5 33t24.5 18h651q15 0 24.5 -18t9.5 -33q0 -17 -7 -26t-26 -11q-79 0 -112.5 -20t-33.5 -52q0 -14 5 -29l315 -812l325 971h174l385 -941l292 785q5 15 5 28q0 70 -184 70q-19 2 -26 11t-7 26
q0 15 9.5 33t24.5 18h485q15 0 24.5 -18t9.5 -33q0 -22 -7.5 -29.5t-28.5 -7.5q-67 0 -104.5 -18t-55.5 -48t-38 -85l-450 -1198h-123l-412 1005l-339 -1005h-123l-502 1223q-17 45 -35.5 69.5zM1243 1964q48 0 77.5 -16t49.5 -44l243 -339h-143l-227 201l-222 -201h-148
l247 348q35 51 123 51z" />
    <glyph glyph-name="wcircumflex" unicode="&#x175;" horiz-adv-x="1768" 
d="M70 894.5q-29 16.5 -74 21.5q-22 2 -29 8.5t-7 28.5q0 13 9.5 27t24.5 14h565q16 0 25 -13.5t9 -27.5q0 -17 -7.5 -26.5t-25.5 -10.5q-54 -3 -81.5 -11.5t-27.5 -28.5l201 -570l199 680h226l256 -664l196 551q0 22 -35.5 31t-102.5 12q-18 1 -25.5 10.5t-7.5 26.5
q0 14 9 27.5t25 13.5h374q15 0 24.5 -14t9.5 -27q0 -22 -7 -28.5t-29 -8.5q-45 -5 -74 -21.5t-47 -65.5l-314 -838h-194l-260 670l-215 -670h-214l-328 838q-19 49 -48 65.5zM956 1559q86 0 127 -60l243 -359h-143l-227 211l-222 -211h-148l247 368q35 51 123 51z" />
    <glyph glyph-name="Ycircumflex" unicode="&#x176;" horiz-adv-x="1499" 
d="M1523.5 1405q9.5 -14 9.5 -27q0 -22 -7 -28.5t-29 -8.5q-38 -4 -59.5 -8.5t-46 -23t-45.5 -55.5l-405 -719v-370q0 -33 19.5 -49.5t46.5 -21t71 -5.5q24 0 35 -1q25 -3 35.5 -9.5t10.5 -27.5q0 -15 -9.5 -33t-24.5 -18h-695q-15 0 -24.5 18t-9.5 33t12 25t31 12l37 2
q62 1 95 12t33 50v373l-443 729q-23 37 -49.5 55t-49 23t-60.5 9q-22 2 -29 8.5t-7 28.5q0 13 9.5 27t24.5 14h705q16 0 25 -13.5t9 -27.5q0 -17 -7 -26t-26 -11q-9 -1 -27 -1q-66 -4 -94.5 -6.5t-43 -10t-14.5 -22.5q0 -7 9 -22t10 -17l332 -613l348 628q8 15 8 22
q0 18 -36.5 26.5t-114.5 15.5q-18 1 -25.5 10.5t-7.5 26.5q0 14 9 27.5t25 13.5h415q15 0 24.5 -14zM829 1964q48 0 77.5 -16t49.5 -44l243 -339h-143l-227 201l-222 -201h-148l247 348q35 51 123 51z" />
    <glyph glyph-name="ycircumflex" unicode="&#x177;" horiz-adv-x="1151" 
d="M177 -426q-49 23 -81.5 62t-32.5 85q0 55 30.5 89t81.5 34l112 -127q54 0 94.5 27t74 75.5t85.5 141.5l-411 868q-23 48 -51 65.5t-71 21.5q-22 2 -29 8.5t-7 28.5q0 14 9 27.5t24 13.5h567q16 0 25 -13.5t9 -27.5q0 -17 -7 -26t-26 -11q-49 -6 -78.5 -14.5t-29.5 -28.5
l231 -591l207 590q0 21 -30.5 29.5t-82.5 14.5q-19 2 -26 11t-7 26q0 14 9 27.5t25 13.5h355q15 0 24.5 -14t9.5 -27q0 -22 -7 -28.5t-29 -8.5q-42 -4 -66.5 -21t-45.5 -66l-279 -673l-14 -34q-85 -204 -142 -315t-136 -183.5t-187 -72.5q-48 0 -97 23zM632 1559
q86 0 127 -60l243 -359h-143l-227 211l-222 -211h-148l247 368q35 51 123 51z" />
    <glyph glyph-name="Ydieresis" unicode="&#x178;" horiz-adv-x="1499" 
d="M1523.5 1405q9.5 -14 9.5 -27q0 -22 -7 -28.5t-29 -8.5q-38 -4 -59.5 -8.5t-46 -23t-45.5 -55.5l-405 -719v-370q0 -33 19.5 -49.5t46.5 -21t71 -5.5q24 0 35 -1q25 -3 35.5 -9.5t10.5 -27.5q0 -15 -9.5 -33t-24.5 -18h-695q-15 0 -24.5 18t-9.5 33t12 25t31 12l37 2
q62 1 95 12t33 50v373l-443 729q-23 37 -49.5 55t-49 23t-60.5 9q-22 2 -29 8.5t-7 28.5q0 13 9.5 27t24.5 14h705q16 0 25 -13.5t9 -27.5q0 -17 -7 -26t-26 -11q-9 -1 -27 -1q-66 -4 -94.5 -6.5t-43 -10t-14.5 -22.5q0 -7 9 -22t10 -17l332 -613l348 628q8 15 8 22
q0 18 -36.5 26.5t-114.5 15.5q-18 1 -25.5 10.5t-7.5 26.5q0 14 9 27.5t25 13.5h415q15 0 24.5 -14zM501.5 1629.5q-38.5 24.5 -59 66.5t-20.5 92q0 51 20.5 93t59 66.5t88.5 24.5t88.5 -24.5t59.5 -66.5t21 -93q0 -50 -21 -92t-59.5 -66.5t-88.5 -24.5t-88.5 24.5z
M978.5 1629.5q-38.5 24.5 -59 66.5t-20.5 92q0 51 20.5 93t59 66.5t88.5 24.5t88.5 -24.5t59.5 -66.5t21 -93q0 -50 -21 -92t-59.5 -66.5t-88.5 -24.5t-88.5 24.5z" />
    <glyph glyph-name="Zacute" unicode="&#x179;" horiz-adv-x="1412" 
d="M569 214l-98 -131h494q43 0 94.5 49.5t95.5 130t68 167.5q2 19 11 26t26 7t44 -9.5t27 -24.5l-50 -388q-18 -40 -47 -41h-1135q-20 0 -27 9.5t-7 20.5v6q0 24 42 87l720 1082l99 131h-462q-42 0 -83 -47t-73.5 -120t-50.5 -150q-4 -19 -12.5 -26t-24.5 -7t-38.5 9.5
t-22.5 24.5l29 358q18 40 47 41h1062q13 0 23.5 -6.5t10.5 -19.5v-16q0 -8 -3 -19t-7 -18zM652.5 1739q44.5 61 105.5 149q48 72 64 88t42.5 26t54.5 10q49 0 81 -33t32 -84q0 -26 -9 -49.5t-24 -37.5q-12 -11 -87 -57q-80 -48 -152.5 -95.5t-155.5 -109.5l-56 58
q60 74 104.5 135z" />
    <glyph glyph-name="zacute" unicode="&#x17a;" horiz-adv-x="1076" 
d="M999 364q12 -9 11 -25l-20 -298q-1 -18 -15.5 -29t-31.5 -12h-858q-19 0 -33.5 19t-14.5 41t12 45.5t45 72.5l496 660l66 71h-263q-53 0 -97 -49.5t-70.5 -112t-30.5 -95.5q-2 -17 -28 -25t-49 -8q-13 0 -22.5 9t-8.5 25l20 298q1 17 16 29.5t31 13.5h811q52 0 52 -54
q0 -17 -13 -44.5t-34 -56.5l-478 -650l-89 -104l301 8q49 1 91.5 49t69.5 107.5t31 90.5q2 18 22.5 25.5t55.5 7.5q13 0 25 -9zM518.5 1304q44.5 61 105.5 149q48 72 64 88t42.5 26t54.5 10q49 0 81 -33t32 -84q0 -26 -9 -49.5t-24 -37.5q-12 -11 -87 -57
q-80 -48 -152.5 -95.5t-155.5 -109.5l-56 58q60 74 104.5 135z" />
    <glyph glyph-name="Zdotaccent" unicode="&#x17b;" horiz-adv-x="1412" 
d="M569 214l-98 -131h494q43 0 94.5 49.5t95.5 130t68 167.5q2 19 11 26t26 7t44 -9.5t27 -24.5l-50 -388q-18 -40 -47 -41h-1135q-20 0 -27 9.5t-7 20.5v6q0 24 42 87l720 1082l99 131h-462q-42 0 -83 -47t-73.5 -120t-50.5 -150q-4 -19 -12.5 -26t-24.5 -7t-38.5 9.5
t-22.5 24.5l29 358q18 40 47 41h1062q13 0 23.5 -6.5t10.5 -19.5v-16q0 -8 -3 -19t-7 -18zM675 1578.5q-43 23.5 -68 65t-25 94.5t25 95t68 65.5t95 23.5q51 0 94 -23.5t68.5 -65.5t25.5 -95t-25.5 -94.5t-68.5 -65t-94 -23.5q-52 0 -95 23.5z" />
    <glyph glyph-name="zdotaccent" unicode="&#x17c;" horiz-adv-x="1076" 
d="M999 364q12 -9 11 -25l-20 -298q-1 -18 -15.5 -29t-31.5 -12h-858q-19 0 -33.5 19t-14.5 41t12 45.5t45 72.5l496 660l66 71h-263q-53 0 -97 -49.5t-70.5 -112t-30.5 -95.5q-2 -17 -28 -25t-49 -8q-13 0 -22.5 9t-8.5 25l20 298q1 17 16 29.5t31 13.5h811q52 0 52 -54
q0 -17 -13 -44.5t-34 -56.5l-478 -650l-89 -104l301 8q49 1 91.5 49t69.5 107.5t31 90.5q2 18 22.5 25.5t55.5 7.5q13 0 25 -9zM481 1193.5q-43 23.5 -68 65t-25 94.5t25 95t68 65.5t95 23.5q51 0 94 -23.5t68.5 -65.5t25.5 -95t-25.5 -94.5t-68.5 -65t-94 -23.5
q-52 0 -95 23.5z" />
    <glyph glyph-name="Zcaron" unicode="&#x17d;" horiz-adv-x="1412" 
d="M569 214l-98 -131h494q43 0 94.5 49.5t95.5 130t68 167.5q2 19 11 26t26 7t44 -9.5t27 -24.5l-50 -388q-18 -40 -47 -41h-1135q-20 0 -27 9.5t-7 20.5v6q0 24 42 87l720 1082l99 131h-462q-42 0 -83 -47t-73.5 -120t-50.5 -150q-4 -19 -12.5 -26t-24.5 -7t-38.5 9.5
t-22.5 24.5l29 358q18 40 47 41h1062q13 0 23.5 -6.5t10.5 -19.5v-16q0 -8 -3 -19t-7 -18zM645 1616l-243 344h148l220 -197l225 197h143l-243 -335q-21 -28 -49.5 -44t-75.5 -16q-90 0 -125 51z" />
    <glyph glyph-name="zcaron" unicode="&#x17e;" horiz-adv-x="1076" 
d="M999 364q12 -9 11 -25l-20 -298q-1 -18 -15.5 -29t-31.5 -12h-858q-19 0 -33.5 19t-14.5 41t12 45.5t45 72.5l496 660l66 71h-263q-53 0 -97 -49.5t-70.5 -112t-30.5 -95.5q-2 -17 -28 -25t-49 -8q-13 0 -22.5 9t-8.5 25l20 298q1 17 16 29.5t31 13.5h811q52 0 52 -54
q0 -17 -13 -44.5t-34 -56.5l-478 -650l-89 -104l301 8q49 1 91.5 49t69.5 107.5t31 90.5q2 18 22.5 25.5t55.5 7.5q13 0 25 -9zM451 1191l-243 354h148l220 -207l225 207h143l-243 -345q-19 -28 -48 -44t-77 -16q-90 0 -125 51z" />
    <glyph glyph-name="longs" unicode="&#x17f;" horiz-adv-x="723" 
d="M59 13.5q-9 13.5 -9 27.5q0 17 7 26t26 11q47 4 81.5 16.5t34.5 37.5v944q0 132 48.5 243t146.5 177.5t239 66.5q129 0 189 -41.5t60 -105.5q0 -40 -16 -72.5t-43 -50.5t-59 -18q-11 1 -11 3l-148 171q-29 0 -48.5 -27t-30.5 -102t-11 -213v-942q0 -35 25 -53.5
t57.5 -24.5t79.5 -9q22 -2 29 -8.5t7 -28.5q0 -14 -9 -27.5t-25 -13.5h-595q-16 0 -25 13.5z" />
    <glyph glyph-name="uni018F" unicode="&#x18f;" horiz-adv-x="1653" 
d="M1115 1373q188 -76 314 -243t126 -424t-124 -422.5t-305.5 -239.5t-359.5 -74q-224 0 -373.5 84t-219 210t-69.5 253q0 53 9 88.5t20 35.5h1042q1 21 1 65q0 254 -73.5 398t-172.5 196.5t-192 52.5q-169 0 -260 -85t-130 -229q-3 -15 -25.5 -22t-46.5 -7l-14 1
q-16 0 -36.5 12t-19.5 28l22 310q73 33 204.5 60.5t303.5 27.5q191 0 379 -76zM935.5 112.5q87.5 47.5 150 156t82.5 283.5l-699 -6q-12 -36 -12 -122q0 -91 34 -173.5t100.5 -134t157.5 -51.5q99 0 186.5 47.5z" />
    <glyph glyph-name="florin" unicode="&#x192;" horiz-adv-x="1186" 
d="M-127 -407q-63 41 -63 115q0 38 18 71.5t47 53.5t60 20l195 -191q34 0 61.5 93t50.5 243l81 524h-158q-11 1 -17.5 15.5t-6.5 28.5q0 18 7 29.5t18 16.5l173 17l30 190q34 217 163.5 357.5t375.5 140.5q64 0 126 -23.5t101 -67t39 -99.5q0 -44 -15.5 -83.5t-42 -63.5
t-57.5 -24l-244 243q-8 8 -16 8q-29 0 -58 -91.5t-56 -264.5l-35 -222h217q11 -1 17.5 -11t6.5 -23q0 -21 -7 -45t-17 -28h-233l-76 -492q-33 -213 -157.5 -345.5t-361.5 -132.5q-103 0 -166 41z" />
    <glyph glyph-name="Ohorn" unicode="&#x1a0;" horiz-adv-x="1679" 
d="M1514 1071.5q81 -160.5 81 -355.5q0 -206 -91 -376t-260 -269.5t-394 -99.5t-394 99.5t-259.5 269.5t-90.5 376t90 373t259 263.5t395 96.5q134 0 250 -35q89 6 142.5 53t75.5 108.5t22 118.5q0 33 -2 44h216q2 -14 4 -51.5t2 -59.5q0 -93 -52 -160t-119 -102t-105 -36
q149 -97 230 -257.5zM1125 233.5q87 168.5 87 480.5q0 310 -89.5 476t-274.5 166t-272.5 -165.5t-87.5 -476.5q0 -310 90.5 -479.5t275.5 -169.5q184 0 271 168.5z" />
    <glyph glyph-name="ohorn" unicode="&#x1a1;" horiz-adv-x="1303" 
d="M1170.5 755q55.5 -110 55.5 -263q0 -170 -70.5 -287t-199.5 -175.5t-306 -58.5q-176 0 -305 58.5t-199 175.5t-70 287t72 287t202.5 176t306.5 59q93 0 176 -17q82 11 130 58t67 106t19 114q0 33 -2 44h216q2 -14 4 -51.5t2 -59.5q0 -86 -45 -146.5t-105.5 -93
t-108.5 -39.5q105 -64 160.5 -174zM787.5 115.5q48.5 49.5 67.5 141.5t19 235q0 142 -20 234.5t-69.5 142t-135.5 49.5t-135 -49.5t-68 -142t-19 -234.5t20 -234.5t69.5 -142t136.5 -49.5q86 0 134.5 49.5z" />
    <glyph glyph-name="Uhorn" unicode="&#x1af;" horiz-adv-x="1706" 
d="M1815 1686.5q2 -37.5 2 -59.5q0 -94 -39 -161.5t-91 -102t-87 -34.5q-78 -3 -116.5 -27t-38.5 -72l-2 -714q0 -165 -65 -288t-187 -190t-290 -67q-309 0 -485 133t-175 444l1 686q0 40 -21 60.5t-49.5 26.5t-71.5 10q-22 2 -29 8.5t-7 28.5q0 15 9.5 33t24.5 18h634
q15 0 24.5 -18t9.5 -33q0 -17 -7.5 -26.5t-25.5 -10.5q-65 -5 -110 -19.5t-45 -44.5l-1 -743q0 -168 35.5 -268.5t107.5 -145.5t185 -45q141 0 235 62.5t138 164.5t44 222v730q0 43 -53 61t-124 26q-22 2 -29 8.5t-7 28.5q0 15 9.5 33t24.5 18h253q88 0 132 35t56.5 85
t12.5 116q0 74 -2 83h216q2 -14 4 -51.5z" />
    </font>
</defs>
</svg>
