<?xml version="1.0" standalone="no"?>
<!DOCTYPE svg PUBLIC "-//W3C//DTD SVG 1.1//EN" "http://www.w3.org/Graphics/SVG/1.1/DTD/svg11.dtd" >
<svg xmlns="http://www.w3.org/2000/svg" xmlns:xlink="http://www.w3.org/1999/xlink" version="1.1">
<metadata>
Created by FontForge 20170731 at Tue Nov 19 00:50:02 2019
 By Aleksey,,,
Copyright 2019 The Gelasio Project Authors (https://github.com/SorkinType/Gelasio)
</metadata>
<defs>
<font id="Gelasio-SemiBoldItalic" horiz-adv-x="0" >
  <font-face 
    font-family="Gelasio SemiBold"
    font-weight="600"
    font-style="italic"
    font-stretch="normal"
    units-per-em="2048"
    panose-1="0 0 7 0 0 0 0 0 0 0"
    ascent="1638"
    descent="-410"
    x-height="994"
    cap-height="1419"
    bbox="-812 -651 3024 2444"
    underline-thickness="106"
    underline-position="-296"
    slope="-8.5"
    unicode-range="U+000D-FB04"
  />
<missing-glyph horiz-adv-x="2048" 
d="M166 1547h1556v-1547h-1556v1547zM1616 90v1367h-1344v-1367h1344zM856 767l-365 371l92 86l361 -367l361 367l92 -86l-365 -371l365 -370l-92 -85l-361 366l-361 -366l-92 85z" />
    <glyph glyph-name="f_f" unicode="ff" horiz-adv-x="1403" 
d="M1589 1533q52 -40 52 -99q0 -36 -25.5 -65t-62 -45t-64.5 -16q-10 0 -12 3l-93 164q-35 0 -62 -28.5t-51 -109t-45 -230.5l-15 -113h226q9 0 14.5 -7.5t5.5 -17.5q0 -20 -9.5 -46t-20.5 -31h-230l-113 -836q-17 -131 -84 -245t-176.5 -183.5t-248.5 -69.5
q-112 0 -157.5 42.5t-45.5 103.5q0 58 37.5 96t91.5 38q31 0 35 -3l78 -179q67 4 119 83.5t79 280.5l118 872h-404l-114 -836q-17 -131 -84 -245t-176.5 -183.5t-248.5 -69.5q-111 0 -157 42.5t-46 103.5q0 59 37 96.5t93 37.5q29 0 35 -3l77 -179q68 4 119.5 83.5
t78.5 280.5l118 872h-133q-9 0 -14 13.5t-5 28.5q0 17 9 31t22 19l134 9l12 82q22 137 78 249t155.5 180.5t241.5 68.5q108 0 159.5 -40t51.5 -99q0 -36 -25.5 -65t-62 -45t-64.5 -16q-10 0 -12 3l-92 164q-35 0 -62 -28.5t-51.5 -109t-45.5 -230.5l-15 -113l403 -1l13 82
q22 137 78 249t155.5 180.5t241.5 68.5q107 0 159 -40z" />
    <glyph glyph-name="fi" unicode="fi" horiz-adv-x="1356" 
d="M-261 -397.5q-47 44.5 -47 106.5q0 58 39 96t95 38l110 -187q67 4 118.5 83.5t79.5 280.5l121 872h-144q-9 1 -13 11.5t-4 24.5q0 42 31 56l142 10l13 70q25 144 104 259.5t208.5 182.5t298.5 67q99 0 166.5 -26t100 -67t32.5 -86q0 -67 -38 -104.5t-128 -37.5l-106 210
q-20 13 -54 13q-60 0 -125 -41t-117 -128t-71 -217l-13 -95h339l208 2l79 1q10 0 17.5 -9t5.5 -31l-122 -782h1q-1 -6 -1 -18q0 -54 58 -54q24 0 67 9q10 2 14 2q9 0 13.5 -6t10.5 -23q1 -3 1 -9q0 -13 -6.5 -25.5t-18.5 -16.5q-65 -22 -161 -34.5t-148 -12.5
q-65 0 -89.5 29.5t-24.5 68.5q0 22 19 149.5t67 442.5q3 17 7 42t9 59q4 26 4 35q0 43 -33 60t-77 19h-252l-117 -836q-19 -131 -86 -245t-176.5 -183.5t-248.5 -69.5q-111 0 -158 44.5z" />
    <glyph glyph-name="fl" unicode="fl" horiz-adv-x="1395" 
d="M1278.5 103q6.5 -6 6.5 -25q0 -14 -6 -26t-19 -16q-156 -49 -284 -49q-83 0 -113 38t-30 86q0 24 6 56q38 248 98 638t85 560q0 25 -14 39t-39 23q-3 -35 -29 -62t-61 -42t-62 -15q-10 0 -12 3l-92 164q-35 0 -62 -28.5t-51.5 -109t-45.5 -230.5l-15 -113h227
q9 -1 14.5 -8t5.5 -17q0 -20 -9.5 -46t-20.5 -31h-230l-114 -836q-17 -131 -84 -245t-176.5 -183.5t-248.5 -69.5q-111 0 -157 42.5t-46 103.5q0 59 37 96.5t93 37.5q29 0 35 -3l77 -179q68 4 119.5 83.5t78.5 280.5l118 872h-133q-9 1 -13.5 13t-4.5 28q0 38 30 51l134 9
l12 82q22 137 78 249t155.5 180.5t241.5 68.5q96 0 151 -34q210 9 388 9q10 0 17.5 -7t7.5 -23q0 -1 -76 -496q-132 -866 -132 -874q0 -24 13.5 -37.5t45.5 -13.5q13 0 50 7q8 1 19.5 3t17.5 2q12 0 18.5 -6z" />
    <glyph glyph-name="f_f_i" unicode="ffi" horiz-adv-x="2022" 
d="M-254 -399.5q-46 42.5 -46 103.5q0 59 37 96.5t93 37.5q29 0 35 -3l77 -179q68 4 119.5 83.5t78.5 280.5l118 872h-133q-18 0 -18 42q0 18 9 31.5t21 18.5l134 9l12 82q22 137 78 249t155.5 180.5t241.5 68.5q108 0 159.5 -40t51.5 -99q0 -36 -25.5 -65t-62 -45
t-64.5 -16q-10 0 -12 3l-92 164q-35 0 -62 -28.5t-51.5 -109t-45.5 -230.5l-15 -113h396l12 70q25 144 104 259.5t209 182.5t298 67q99 0 166.5 -26t100.5 -67t33 -86q0 -142 -166 -142l-106 210q-20 13 -54 13q-61 0 -126 -41t-116.5 -128t-70.5 -217l-13 -95h343l208 2
l79 1q10 0 17.5 -9t5.5 -31l-122 -782h1q-1 -6 -1 -18q0 -54 58 -54q24 0 67 9q10 2 14 2q9 0 13.5 -6t10.5 -23q1 -3 1 -9q0 -13 -6.5 -25.5t-18.5 -16.5q-65 -22 -161 -34.5t-148 -12.5q-65 0 -89.5 29.5t-24.5 68.5q0 22 19 149.5t67 442.5q3 17 7 42t9 59q4 26 4 35
q0 43 -33 60t-77 19h-257l-117 -836q-18 -131 -85 -245t-177 -183.5t-249 -69.5q-98 0 -140 44.5t-42 106.5q0 34 18.5 57.5t46.5 35t55 11.5l101 -157q67 4 119 83.5t80 280.5l121 872h-397l-114 -836q-17 -131 -84 -245t-176.5 -183.5t-248.5 -69.5q-111 0 -157 42.5z" />
    <glyph glyph-name="f_f_l" unicode="ffl" horiz-adv-x="2047" 
d="M1926 103q7 -6 7 -25q0 -14 -6.5 -26t-18.5 -16q-156 -49 -285 -49q-83 0 -113 38t-30 86q0 24 6 56q39 248 111.5 720t72.5 478q0 27 -15.5 41t-44.5 23q-2 -35 -28 -62.5t-61.5 -43t-63.5 -15.5q-11 0 -11 3l-66 164q-35 0 -62 -28.5t-51.5 -109t-45.5 -230.5l-15 -113
h227q9 0 14.5 -7.5t5.5 -17.5q0 -20 -9.5 -46t-20.5 -31h-230l-114 -836q-17 -131 -84 -245t-176.5 -183.5t-248.5 -69.5q-111 0 -157 42.5t-46 103.5q0 38 19 68.5t49 48t62 17.5q29 0 35 -3l77 -179q68 4 119.5 83.5t78.5 280.5l118 872h-399l-114 -836q-17 -131 -84 -245
t-176.5 -183.5t-248.5 -69.5q-111 0 -157 42.5t-46 103.5q0 59 36 96.5t94 37.5q29 0 35 -3l77 -179q68 4 119.5 83.5t78.5 280.5l118 872h-133q-18 0 -18 38q0 18 9.5 33.5t20.5 20.5l134 9l12 82q22 137 78 249t155.5 180.5t241.5 68.5q108 0 159.5 -40t51.5 -99
q0 -36 -25.5 -65t-62 -45t-64.5 -16q-10 0 -12 3l-92 164q-35 0 -62 -28.5t-51.5 -109t-45.5 -230.5l-15 -113l399 -1l12 82q22 137 78 249t155.5 180.5t241.5 68.5q94 0 139 -34q206 9 380 9q10 0 17.5 -7t7.5 -23q0 -1 -76 -496q-132 -866 -132 -874q0 -24 13.5 -37.5
t45.5 -13.5q13 0 50 7q8 1 19.5 3t17.5 2q12 0 19 -6z" />
    <glyph glyph-name=".notdef" horiz-adv-x="2048" 
d="M166 1547h1556v-1547h-1556v1547zM1616 90v1367h-1344v-1367h1344zM856 767l-365 371l92 86l361 -367l361 367l92 -86l-365 -371l365 -370l-92 -85l-361 366l-361 -366l-92 85z" />
    <glyph glyph-name=".null" 
 />
    <glyph glyph-name=".null" 
 />
    <glyph glyph-name="nonmarkingreturn" unicode="&#xd;" 
 />
    <glyph glyph-name="space" unicode=" " horiz-adv-x="511" 
 />
    <glyph glyph-name="exclam" unicode="!" horiz-adv-x="740" 
d="M334 801q4 140 6 304q2 134 4 194t9 90q12 59 61 99t116 40q69 0 110.5 -37t41.5 -94q0 -18 -3 -38q-5 -28 -18 -66.5t-39 -110.5q-58 -160 -106.5 -310t-103.5 -367h-93q11 156 15 296zM164.5 230.5q22.5 42.5 63.5 69t92 26.5q71 0 112.5 -45t41.5 -114q0 -51 -24 -95
t-65 -69.5t-90 -25.5q-71 0 -112 47.5t-41 118.5q0 45 22.5 87.5z" />
    <glyph glyph-name="quotedbl" unicode="&#x22;" horiz-adv-x="977" 
d="M270 1164q14 117 18 149q21 178 27 210q13 68 64 113t119 45q51 0 76.5 -25t25.5 -69q0 -13 -2.5 -30t-6.5 -28q-7 -24 -36 -84.5t-65.5 -132t-50.5 -99.5q-74 -143 -124 -246h-73q14 80 28 197zM712 1164q14 117 18 149q21 178 27 210q13 68 64 113t119 45
q51 0 76.5 -25t25.5 -69q0 -13 -2.5 -30t-6.5 -28q-7 -24 -36 -84.5t-65.5 -132t-50.5 -99.5q-74 -143 -124 -246h-73q14 80 28 197z" />
    <glyph glyph-name="numbersign" unicode="#" horiz-adv-x="1399" 
d="M343 420h-234l14 106h254l126 374h-274l15 106h294l139 413h127l-140 -413h317l140 413h127l-141 -413h247l-15 -106h-266l-127 -374h267l-14 -106h-287l-140 -420h-125l140 420h-319l-139 -420h-125zM821 526l126 374h-318l-127 -374h319z" />
    <glyph glyph-name="dollar" unicode="$" horiz-adv-x="1291" 
d="M1175.5 1342.5q15.5 -8.5 14.5 -20.5q-1 -23 -6 -57q-2 -17 -9 -95t-9 -151q-1 -36 -14 -46.5t-38 -10.5q-16 0 -33 8t-18 19q-38 289 -301 289q-100 0 -168.5 -41.5t-68.5 -137.5q0 -62 38 -115.5t92.5 -95.5t140.5 -96q101 -64 171 -121.5t117 -133.5t47 -168
q0 -103 -60 -194t-178 -147.5t-282 -57.5l-21 -172q-36 -44 -73 -44q-17 0 -29.5 9.5t-12.5 18.5q0 7 8 9l23 187q-83 12 -156.5 40.5t-112.5 55.5q-5 4 -14 -1t-18 -15q-15 -19 -35.5 -29.5t-35.5 -10.5q-20 0 -34.5 16.5t-10.5 33.5q21 95 36 206.5t18 177.5q1 28 15 37.5
t37 9.5q19 0 36.5 -11t17.5 -29q1 -6 1 -20q2 -44 8.5 -85.5t25.5 -94.5q33 -97 116.5 -143.5t193.5 -46.5q129 0 203.5 51.5t74.5 148.5q0 54 -31.5 100.5t-79.5 83.5t-130 91q-57 38 -64 43q-91 63 -154 120.5t-104.5 133t-41.5 168.5q0 101 57 181t165 127.5t256 50.5
l22 168q31 26 66 26q19 0 33.5 -8t14.5 -15q0 -5 -8 -5l-22 -172q57 -8 106.5 -23.5t71.5 -26.5q11 -6 31 -6q13 0 21 5.5t20 17.5q10 12 17.5 17t19.5 5q22 0 37.5 -8.5z" />
    <glyph glyph-name="percent" unicode="%" horiz-adv-x="1759" 
d="M270 748q-74 37 -113.5 105.5t-39.5 162.5q0 120 53 218.5t152.5 156.5t232.5 58q105 0 181 -37.5t116.5 -108t40.5 -166.5q0 -121 -54 -218t-155.5 -152.5t-236.5 -55.5q-103 0 -177 37zM1287 1419h160l-921 -1419h-158zM629.5 910q49.5 115 49.5 267q0 98 -33.5 143
t-106.5 45q-75 0 -124 -54.5t-72 -142.5t-23 -191q0 -96 33 -139t107 -43q120 0 169.5 115zM1082.5 8.5q-74.5 36.5 -114 105t-39.5 162.5q0 120 53 219t152.5 157t233.5 58q105 0 181 -37.5t116.5 -108t40.5 -166.5q0 -122 -53 -218.5t-154 -152t-239 -55.5
q-103 0 -177.5 36.5zM1442.5 170q49.5 115 49.5 267q0 99 -33.5 144t-106.5 45q-75 0 -124 -54.5t-72 -142.5t-23 -191q0 -96 33 -139.5t107 -43.5q120 0 169.5 115z" />
    <glyph glyph-name="ampersand" unicode="&#x26;" horiz-adv-x="1576" 
d="M1579 887q7 -9 7 -23q0 -21 -10.5 -33.5t-29.5 -12.5q-45 0 -84.5 -25.5t-65.5 -71.5q-15 -23 -31 -56.5t-31 -67.5q-40 -90 -76 -157t-98 -147l20 -25l60 -73q34 -41 93.5 -76t116.5 -41q18 -2 24.5 -6t6.5 -17q0 -21 -11 -38t-29 -17h-417l-84 105
q-86 -64 -192.5 -102.5t-215.5 -38.5q-162 0 -274.5 48t-168.5 126t-56 168q0 107 52 188t139.5 141t220.5 123q-55 80 -86.5 156t-31.5 158q0 117 63 203.5t171.5 133t241.5 46.5q107 0 183.5 -28.5t117 -81t40.5 -121.5q0 -91 -49 -165.5t-130.5 -135t-199.5 -122.5
l36 -46q131 -174 291 -378q47 63 80 136t49.5 134.5t16.5 91.5q0 39 -37.5 55.5t-91.5 23.5q-25 3 -25 25q0 24 11.5 38.5t29.5 14.5h433q14 0 21 -9zM653 1305.5q-50 -64.5 -50 -172.5q0 -69 26.5 -128.5t79.5 -129.5q108 51 169.5 141t61.5 194q0 37 -15 74t-47 61.5
t-78 24.5q-97 0 -147 -64.5zM744.5 131q65.5 13 133.5 55q-108 134 -209.5 267t-158.5 218q-86 -60 -130.5 -132.5t-44.5 -187.5q0 -60 30.5 -113.5t90 -86.5t141.5 -33t147.5 13z" />
    <glyph glyph-name="quotesingle" unicode="'" horiz-adv-x="514" 
d="M256 1164q14 117 18 149q21 178 27 210q13 68 64 113t119 45q51 0 76.5 -25t25.5 -69q0 -13 -2.5 -30t-6.5 -28q-7 -24 -36 -84.5t-65.5 -132t-50.5 -99.5q-74 -143 -124 -246h-73q14 80 28 197z" />
    <glyph glyph-name="parenleft" unicode="(" horiz-adv-x="866" 
d="M292 989q109 252 294.5 406t401.5 154q12 0 38 -2l-27 -87q-24 0 -33 -2q-162 -28 -279 -178t-178 -376.5t-61 -483.5q0 -238 53 -413.5t159 -266.5l-15 -83q-116 23 -222 122.5t-173 274t-67 407.5q0 276 109 528z" />
    <glyph glyph-name="parenright" unicode=")" horiz-adv-x="866" 
d="M609 218q-109 -252 -294.5 -406t-401.5 -154q-12 0 -38 2l27 87q24 0 33 2q150 29 268 179.5t184 378.5t66 480q0 238 -53 413.5t-159 266.5l15 83q116 -23 222 -122.5t173 -274t67 -407.5q0 -276 -109 -528z" />
    <glyph glyph-name="asterisk" unicode="*" horiz-adv-x="980" 
d="M252.5 689q-28.5 26 -28.5 63q0 23 10.5 48t28.5 43q39 37 145 112q89 63 128 96q-11 2 -114 12q-16 1 -90.5 8t-95.5 14q-33 12 -54 37.5t-21 57.5q0 49 36 80.5t87 31.5q25 0 58 -15q10 -4 33 -22.5t41 -34t28 -23.5q34 -29 67 -55.5t49 -35.5q-1 53 -22 207
q-12 93 -12 113q2 56 36 89.5t87 33.5q51 0 71 -30t20 -73q0 -30 -24 -94.5t-63 -157.5q-7 -16 -20.5 -48.5t-14.5 -40.5q18 9 84 62q78 61 102 74q52 29 82.5 40t56.5 11q39 0 65.5 -20.5t26.5 -62.5q0 -41 -29.5 -75.5t-76.5 -48.5q-23 -6 -94 -13t-85 -8
q-109 -10 -123 -13q32 -38 101 -97q68 -60 100.5 -99t32.5 -81q0 -44 -31 -77t-76 -33q-27 0 -54 15.5t-42 40.5q-11 19 -51 183q-22 93 -30 116q-21 -36 -66 -133q-26 -54 -51 -104.5t-35 -61.5q-23 -27 -51 -42t-55 -15q-38 0 -66.5 26z" />
    <glyph glyph-name="plus" unicode="+" horiz-adv-x="1399" 
d="M631 498h-399v139h399v413h159v-413h398v-139h-398v-435h-159v435z" />
    <glyph glyph-name="comma" unicode="," horiz-adv-x="632" 
d="M382.5 273q46.5 -50 46.5 -131q0 -98 -52 -204.5t-122 -188.5t-116 -106q-18 -8 -28 -8q-28 0 -44.5 15t-16.5 31q0 18 29 48q43 46 73.5 116t37.5 145q-47 18 -77 58.5t-30 95.5q0 50 24 91t64.5 64.5t87.5 23.5q77 0 123.5 -50z" />
    <glyph glyph-name="hyphen" unicode="-" horiz-adv-x="773" 
d="M128 629h553l-18 -133h-554z" />
    <glyph glyph-name="period" unicode="." horiz-adv-x="632" 
d="M125.5 236.5q22.5 42.5 63.5 68t93 25.5q71 0 112 -45.5t41 -115.5q0 -51 -24 -94.5t-64.5 -69t-89.5 -25.5q-73 0 -113.5 47t-40.5 119q0 48 22.5 90.5z" />
    <glyph glyph-name="slash" unicode="/" horiz-adv-x="964" 
d="M830 1625h156l-849 -2040h-154z" />
    <glyph glyph-name="zero" unicode="0" horiz-adv-x="1376" 
d="M357 32.5q-108 61.5 -163 177.5t-55 279q0 197 77 360.5t223.5 259.5t347.5 96q156 0 264 -61t163 -175t55 -272q0 -202 -77.5 -367.5t-224.5 -262t-346 -96.5q-156 0 -264 61.5zM830 166.5q75 100.5 108 257.5t33 335q0 172 -45.5 261.5t-159.5 89.5q-116 0 -190 -97
t-107 -253t-33 -341q0 -173 43 -263t158 -90q118 0 193 100.5z" />
    <glyph glyph-name="one" unicode="1" horiz-adv-x="962" 
d="M96.5 66q8.5 14 27.5 16q88 7 155.5 25.5t72.5 48.5l130 830q-6 -2 -25 -14q-51 -29 -98.5 -47.5t-102.5 -18.5q-16 0 -31 21.5t-15 43.5q0 30 4.5 56.5t14.5 26.5q110 0 208 39t164 96h193l-155 -1020q-6 -42 55.5 -61t153.5 -26q22 -2 28 -8.5t5 -28.5q-1 -15 -10 -30
t-24 -15h-725q-15 0 -24.5 10.5t-9.5 22.5q0 19 8.5 33z" />
    <glyph glyph-name="two" unicode="2" horiz-adv-x="1237" 
d="M415 337q157 127 261 272t104 292q0 53 -19.5 99t-60.5 74.5t-102 28.5q-52 0 -83.5 -10t-42.5 -19t-34 -34l-78 -243q-10 -31 -33 -48.5t-53 -17.5q-32 0 -67 16t-59.5 48.5t-24.5 80.5q0 87 75 163t192.5 121t237.5 45q236 0 349.5 -88t107.5 -245
q-5 -176 -184.5 -337.5t-467.5 -313.5h658l-33 -221h-1017l9 75q208 135 365 262z" />
    <glyph glyph-name="three" unicode="3" horiz-adv-x="1229" 
d="M250.5 -396.5q-107.5 35.5 -179 114t-71.5 198.5q0 72 25.5 126t68 83t91.5 29q38 0 67 -22t30 -55l-73 -288q22 -50 80 -88t147 -38t174 45t139 133t54 209q0 115 -43.5 190.5t-110.5 110t-138 34.5h-63l19 112h63q93 0 171 52.5t124 149.5t44 223q0 78 -45 131.5
t-150 53.5q-50 0 -90.5 -11.5t-59.5 -27.5l-91 -272q-11 -30 -34 -47.5t-53 -17.5q-32 0 -66 15t-57.5 46.5t-23.5 77.5q0 96 77 172.5t196.5 119.5t239.5 43q147 0 247 -41t150 -115.5t52 -174.5q1 -109 -64 -200t-173.5 -149.5t-233.5 -74.5q106 -3 203 -52t158 -133.5
t62 -187.5q2 -156 -85 -271.5t-235 -176.5t-324 -61q-111 0 -218.5 35.5z" />
    <glyph glyph-name="four" unicode="4" horiz-adv-x="1272" 
d="M36 0l-35 87l644 1134q7 13 39 25.5t64 12.5q43 0 85 -14t68.5 -36t26.5 -45q0 -18 -7 -30l-709 -981h460l46 383l57 40h206l-49 -423h219l-17 -153h-216l-43 -384h-260l43 384h-622z" />
    <glyph glyph-name="five" unicode="5" horiz-adv-x="1179" 
d="M172 -388.5q-97 42.5 -155.5 116t-58.5 161.5q0 51 22 86.5t54 53.5t61 18q38 0 61.5 -19.5t30.5 -55.5q11 -57 31.5 -150t27.5 -116q12 -18 44 -30.5t83 -12.5q130 0 212.5 75.5t119 193.5t36.5 251q0 95 -26.5 167t-74.5 111.5t-111 39.5q-87 0 -178.5 -34t-146.5 -102
l-62 33l188 791h748l-31 -242h-636l-111 -414q58 37 143.5 59t164.5 22q140 0 235.5 -51.5t143 -142.5t48.5 -210q2 -165 -81.5 -313t-234.5 -238t-341 -90q-109 0 -206 42.5z" />
    <glyph glyph-name="six" unicode="6" horiz-adv-x="1271" 
d="M317.5 38.5q-108.5 67.5 -162 181.5t-53.5 255q0 245 117 468.5t337 383t518 215.5l-15 -92q-242 -67 -386 -239t-205 -391q33 33 87 64t118.5 50.5t126.5 19.5q135 0 225.5 -47t134.5 -130t44 -191q0 -170 -78 -310.5t-219 -222.5t-323 -82q-158 0 -266.5 67.5z
M766.5 137q73.5 71 111.5 188t38 252q0 115 -46 182t-143 67q-56 0 -119 -23t-112.5 -56t-67.5 -60q-55 -152 -55 -359q0 -127 50.5 -194.5t169.5 -67.5q100 0 173.5 71z" />
    <glyph glyph-name="seven" unicode="7" horiz-adv-x="1112" 
d="M393 929q-43 0 -79.5 -32t-60 -69t-33.5 -60q-15 -33 -67 -33q-14 0 -25.5 9t-8.5 25l85 421l904 -1l40 -67l-680 -1505l-239 1l685 1311h-521z" />
    <glyph glyph-name="eight" unicode="8" horiz-adv-x="1330" 
d="M162.5 532.5q42.5 84.5 120 143t178.5 79.5q-82 66 -125 145t-43 178q0 112 68.5 198.5t185.5 134t259 47.5q135 0 233 -40.5t150 -114t52 -169.5q0 -126 -89 -226.5t-216 -159.5q119 -75 186.5 -157.5t67.5 -194.5q0 -115 -64.5 -212t-192.5 -155t-309 -58
q-159 0 -272.5 50.5t-172.5 136.5t-59 193q0 97 42.5 181.5zM966.5 934q40.5 93 40.5 191q0 111 -58 173.5t-169 62.5q-118 0 -176 -61.5t-58 -177.5q0 -55 35.5 -105t91.5 -93.5t139 -96.5l47 -30q67 44 107.5 137zM409.5 572.5q-47.5 -85.5 -47.5 -196.5q0 -88 32.5 -158
t97 -111t157.5 -41q73 0 138.5 28.5t105.5 85t38 136.5q-1 70 -56.5 136t-131 119.5t-207.5 135.5q-79 -49 -126.5 -134.5z" />
    <glyph glyph-name="nine" unicode="9" horiz-adv-x="1271" 
d="M644.5 -45q144.5 172 208.5 401q-56 -54 -149 -94t-201 -40q-133 0 -223 50.5t-133 136t-43 192.5q0 168 80 306.5t220.5 218t314.5 79.5q160 0 268.5 -69.5t160.5 -186t52 -260.5q0 -231 -110 -459.5t-330 -392.5t-530 -203l15 98q255 51 399.5 223zM744 386.5
q82 39.5 136 98.5q24 85 37.5 178.5t13.5 183.5q0 128 -50.5 195.5t-170.5 67.5q-100 0 -173.5 -71.5t-111.5 -188.5t-38 -252q0 -115 46 -183t143 -68q86 0 168 39.5z" />
    <glyph glyph-name="colon" unicode=":" horiz-adv-x="763" 
d="M160.5 228.5q22.5 42.5 63.5 68t93 25.5q71 0 112 -45.5t41 -115.5q0 -51 -24 -94.5t-64.5 -69t-89.5 -25.5q-73 0 -113.5 47t-40.5 119q0 48 22.5 90.5zM265.5 973.5q22.5 42.5 63.5 68t93 25.5q71 0 112 -45.5t41 -115.5q0 -51 -24 -94.5t-64.5 -69t-89.5 -25.5
q-73 0 -113.5 47t-40.5 119q0 48 22.5 90.5z" />
    <glyph glyph-name="semicolon" unicode=";" horiz-adv-x="763" 
d="M470.5 273q46.5 -50 46.5 -131q0 -98 -52 -204.5t-122 -188.5t-116 -106q-18 -8 -28 -8q-28 0 -44.5 15t-16.5 31q0 18 29 48q43 46 73.5 116t37.5 145q-47 18 -77 58.5t-30 95.5q0 50 24 91t64.5 64.5t87.5 23.5q77 0 123.5 -50zM292.5 973.5q22.5 42.5 63.5 68t93 25.5
q71 0 112 -45.5t41 -115.5q0 -51 -24 -94.5t-64.5 -69t-89.5 -25.5q-73 0 -113.5 47t-40.5 119q0 48 22.5 90.5z" />
    <glyph glyph-name="less" unicode="&#x3c;" horiz-adv-x="1399" 
d="M1158 971l-790 -406l790 -402v-164l-972 509v119l972 510v-166z" />
    <glyph glyph-name="equal" unicode="=" horiz-adv-x="1399" 
d="M231 844h956v-146h-956v146zM231 417h956v-146h-956v146z" />
    <glyph glyph-name="greater" unicode="&#x3e;" horiz-adv-x="1399" 
d="M291 1137l971 -510v-119l-971 -509v164l790 402l-790 406v166z" />
    <glyph glyph-name="question" unicode="?" horiz-adv-x="1075" 
d="M508 676.5q30 62.5 67 103.5t96 92q51 44 81.5 76t55.5 78.5t36 108.5q8 53 8 112q0 86 -40 141t-140 55q-61 0 -107.5 -22t-72.5 -53l-70 -289q-7 -25 -38.5 -42t-71.5 -17q-64 0 -100.5 36.5t-36.5 105.5q0 105 76.5 188.5t194.5 130.5t236 47q159 0 259 -43.5
t144 -114.5t44 -157q0 -73 -21 -134q-20 -62 -59 -112t-84 -87t-117 -88q-70 -49 -111.5 -83t-72.5 -78t-38 -98l-14 -85h-159l12 77q13 89 43 151.5zM352 231q24 43 66 70t93 27q71 0 113 -44t42 -112q0 -50 -25 -94t-68 -71t-92 -27q-70 0 -111.5 47t-41.5 116q0 45 24 88
z" />
    <glyph glyph-name="at" unicode="@" horiz-adv-x="1954" 
d="M527 -254q-174 72 -280 227t-106 392q0 322 159 563.5t406.5 369t501.5 127.5q172 0 322.5 -62t244 -190.5t93.5 -319.5q0 -221 -103 -391t-249 -263t-263 -93q-91 0 -143.5 36t-66.5 89q-45 -54 -112 -85.5t-123 -31.5q-108 0 -184 56t-76 194q0 156 71 304t197.5 242
t284.5 94q62 0 100.5 -29t48.5 -67l40 73h207l-253 -617q-7 -13 -13 -39.5t-6 -45.5q0 -29 14 -47t47 -18q86 0 193 81t182.5 223t75.5 315q0 154 -77 264.5t-204 167t-273 56.5q-221 0 -428.5 -118t-338 -333.5t-130.5 -494.5q0 -230 105.5 -364t251.5 -185.5t288 -51.5
q148 0 261 39t169.5 78t108.5 84l50 -72q-48 -46 -130.5 -97.5t-206.5 -91.5t-273 -40q-209 0 -383 72zM917 242q36 24 68.5 65t53.5 91l142 377q2 22 2 35q0 44 -19 71.5t-61 27.5q-94 0 -166 -104t-111 -239t-39 -214q0 -60 13 -97t50 -37q31 0 67 24z" />
    <glyph glyph-name="A" unicode="A" horiz-adv-x="1493" 
d="M1473 79.5q9 -7.5 9 -27.5q-1 -18 -12.5 -35t-26.5 -17h-579q-15 0 -22.5 16.5t-7.5 32.5q0 36 36 39l48 3q48 2 65.5 7t17.5 24q0 5 -3 17l-58 292h-556l-140 -253q-5 -8 -9 -21t-4 -20q0 -22 36.5 -32.5t110.5 -17.5q22 -2 29 -10t7 -25q0 -19 -9 -35.5t-26 -16.5h-464
q-14 0 -20.5 13.5t-6.5 29.5q0 25 9.5 33.5t27.5 11.5q51 9 80 16.5t55.5 25t43.5 49.5l724 1268h186l295 -1269q24 -86 132 -90q23 -1 32 -8.5zM434 521h488l-129 647z" />
    <glyph glyph-name="B" unicode="B" horiz-adv-x="1483" 
d="M1186.5 710.5q85.5 -35.5 138 -103t51.5 -165.5q-2 -211 -173.5 -326.5t-517.5 -115.5h-631q-15 0 -21.5 15t-6.5 33q0 37 38 40q67 4 110 18.5t48 45.5l163 1082q1 5 1 15q0 33 -22 50t-49.5 22t-77.5 10q-17 2 -24 6t-7 15q0 10 1 16q1 14 13.5 32.5t27.5 18.5h552
q200 0 323.5 -32t181 -98t58.5 -170q1 -86 -44.5 -167t-128.5 -135t-189 -64q100 -7 185.5 -42.5zM688 1331l-77 -537h144q309 0 309 333q0 111 -79 157.5t-240 46.5h-57zM857 123.5q83 24.5 141 103.5t59 231q0 110 -52.5 165t-126 70t-173.5 15h-107l-82 -572
q1 -21 51.5 -29t100.5 -8q106 0 189 24.5z" />
    <glyph glyph-name="C" unicode="C" horiz-adv-x="1415" 
d="M416 53.5q-147 81.5 -221 228t-74 340.5q0 245 119 433.5t315.5 291t421.5 102.5q167 0 268 -25.5t176 -62.5l-34 -303q-1 -20 -28.5 -30.5t-47.5 -10.5q-53 0 -55 49q1 147 -70.5 217t-223.5 70q-124 0 -241 -78.5t-193 -242t-76 -403.5q0 -170 41.5 -298t116 -197
t171.5 -69q116 0 185 33.5t111.5 96t89.5 177.5q8 19 19 26.5t31 7.5q19 0 48.5 -8.5t28.5 -22.5l-36 -274q-5 -16 -78 -48t-181.5 -56.5t-222.5 -24.5q-213 0 -360 81.5z" />
    <glyph glyph-name="D" unicode="D" horiz-adv-x="1650" 
d="M34.5 77q8.5 9 27.5 11q63 5 110 19.5t50 44.5l166 1093q1 35 -21.5 53t-51 23.5t-73.5 9.5q-17 2 -23.5 6t-6.5 16q0 9 1 15q0 14 12.5 32.5t28.5 18.5h615q252 0 410.5 -79t227.5 -205t69 -276q0 -260 -112 -455t-308.5 -299.5t-443.5 -104.5h-660q-15 0 -22.5 18.5
t-4.5 32.5q1 17 9.5 26zM534.5 114q8.5 -9 43.5 -14.5t112 -5.5q168 0 295 84t199 259.5t72 440.5q0 170 -55 269.5t-156.5 141.5t-251.5 42h-92l-178 -1190q3 -18 11.5 -27z" />
    <glyph glyph-name="E" unicode="E" horiz-adv-x="1431" 
d="M1349.5 397.5q14.5 -8.5 13.5 -25.5l-78 -372h-1242q-14 0 -21 14t-7 29q0 21 8.5 32t29.5 13q66 5 117 20t54 44l161 1091q1 36 -25 54.5t-57 24t-80 9.5q-18 2 -24.5 6t-6.5 16q0 23 13 44.5t30 21.5h1145l-21 -318q-2 -16 -19 -25t-32 -9q-19 0 -33 8.5t-14 27.5
q0 36 -13.5 89t-49.5 96t-100 43h-403l-78 -555h278q24 3 49 35t44 72t26 65q5 18 25 25.5t44 7.5q14 0 27.5 -9t10.5 -25l-64 -443q-3 -16 -18 -25t-29 -9q-24 0 -42 7.5t-18 23.5q0 28 -6.5 71t-23 77.5t-42.5 34.5h-274l-72 -509q0 -38 21.5 -54.5t56.5 -20.5h369
q74 0 133 54t93.5 115.5t49.5 103.5q6 17 21.5 25t33.5 8q25 0 39.5 -8.5z" />
    <glyph glyph-name="F" unicode="F" horiz-adv-x="1326" 
d="M1353 1419l-14 -349q-4 -16 -24 -25t-37 -9q-36 0 -36 31q0 24 -20.5 90t-58.5 120t-92 54h-378l-87 -591h264q24 3 48.5 35t43 71.5t26.5 64.5q5 18 24 25.5t43 7.5q14 0 27.5 -9t11.5 -25l-63 -443q-2 -16 -18 -25t-30 -9q-25 0 -42.5 7.5t-17.5 24.5q0 29 -6.5 72
t-22.5 76.5t-42 33.5h-259l-68 -462q-2 -53 60 -72.5t189 -24.5q17 -1 25 -7t8 -23q-1 -20 -10.5 -39t-23.5 -19h-732q-14 0 -21 14t-7 29q0 21 8 32t29 13q168 10 175 64l161 1092q1 36 -22 54t-55 23.5t-82 9.5q-18 2 -24.5 6t-6.5 16q0 23 13 44.5t30 21.5h1114z" />
    <glyph glyph-name="G" unicode="G" horiz-adv-x="1597" 
d="M448.5 43.5q-155.5 73.5 -244 220.5t-88.5 359q0 258 123 445.5t320.5 284t415.5 96.5q148 0 249.5 -14t154.5 -31.5t112 -42.5l-45 -310q-1 -20 -21 -30.5t-37 -10.5q-28 0 -42.5 5t-16.5 23q-12 124 -64 193.5t-130.5 95.5t-182.5 26q-166 0 -280.5 -113.5t-170 -286
t-55.5 -349.5q0 -173 46.5 -294t126.5 -182t179 -61q123 0 189 31.5t82 71.5l52 305q-1 31 -29 47t-60 21t-91 10q-31 1 -31 23q0 23 8.5 44t35.5 21h605q13 0 19.5 -14t6.5 -30q0 -41 -39 -44q-131 -11 -132 -64l-57 -366q-19 -26 -97.5 -62.5t-198 -63.5t-258.5 -27
q-199 0 -354.5 73.5z" />
    <glyph glyph-name="H" unicode="H" horiz-adv-x="1803" 
d="M42.5 17q-7.5 17 -7.5 33q0 34 39 38q142 10 152 64l162 1101q0 31 -19.5 47t-44.5 21t-70 10q-19 2 -25 10.5t-6 28.5q0 17 13 33t29 16h582q13 0 19.5 -13t6.5 -28q0 -42 -38 -47q-61 -5 -105.5 -19.5t-49.5 -44.5l-74 -491h677l70 475q0 32 -20 48.5t-46 22t-71 9.5
q-20 2 -26 9.5t-6 27.5q0 18 13.5 34.5t29.5 16.5h571q14 0 20.5 -14.5t6.5 -30.5q-1 -19 -9.5 -30t-29.5 -13q-134 -13 -141 -64l-163 -1099q0 -32 23 -48.5t47.5 -21t80.5 -10.5q18 -2 24 -9t6 -22q0 -21 -10.5 -39t-27.5 -18h-598q-16 0 -24 17.5t-6 32.5q3 18 11 27.5
t28 10.5q61 5 105.5 19.5t49.5 44.5l78 532h-677l-75 -517q0 -32 21 -48t46 -21t71 -10q18 -2 24 -9t6 -22q0 -21 -10.5 -39t-27.5 -18h-582q-15 0 -22.5 17z" />
    <glyph glyph-name="I" unicode="I" horiz-adv-x="881" 
d="M49.5 75q8.5 12 29.5 13q60 4 106 19t51 45l162 1082q2 12 2 17q0 32 -22.5 48.5t-50.5 22t-72 9.5q-18 2 -24.5 6t-6.5 15l2 16q1 14 14.5 32.5t29.5 18.5h598q14 0 19.5 -13.5t5.5 -30.5q-2 -41 -41 -44q-145 -11 -153 -64l-160 -1082q-2 -14 -2 -17q0 -32 22.5 -48.5
t48.5 -21.5t75 -10q17 -2 24 -6t7 -17q0 -2 -2 -14q-2 -15 -14.5 -33t-27.5 -18h-605q-13 0 -18.5 13t-5.5 29q0 21 8.5 33z" />
    <glyph glyph-name="J" unicode="J" horiz-adv-x="1166" 
d="M206.5 4q-93.5 34 -154.5 108t-61 187q0 58 24.5 103.5t69.5 71t106 25.5q41 0 73.5 -22.5t32.5 -52.5l-40 -268q8 -44 48 -70.5t97 -26.5q71 0 116.5 32.5t75 107.5t48.5 207l127 849q1 32 -20 47t-57.5 20t-118.5 9q-17 1 -24 5.5t-7 15.5q0 24 8.5 45.5t27.5 21.5h664
q14 0 20.5 -15t6.5 -32t-11 -28.5t-29 -12.5q-156 -16 -164 -64l-121 -828q-39 -268 -187 -368.5t-358 -100.5q-99 0 -192.5 34z" />
    <glyph glyph-name="K" unicode="K" horiz-adv-x="1589" 
d="M43 14q-7 14 -7 30q0 21 8 32t29 12q142 11 150 64l163 1082q3 11 1 22q-2 30 -23.5 45.5t-47.5 20.5t-68 9q-18 2 -24.5 6t-6.5 16q0 23 13 44.5t30 21.5h575q15 0 21.5 -18t4.5 -33q-3 -17 -12.5 -26.5t-27.5 -10.5q-60 -4 -98 -18.5t-42 -45.5l-165 -1093
q-1 -4 -1 -12q0 -29 24.5 -44.5t52.5 -20t82 -9.5q18 -2 25 -6.5t7 -17.5q0 -19 -12.5 -41.5t-28.5 -22.5h-601q-14 0 -21 14zM1102.5 18.5q-22.5 18.5 -43.5 51.5q-44 73 -113 196q-107 191 -175.5 296t-119.5 130l548 564q13 14 13 26q0 19 -36 31t-87 17q-14 1 -19.5 7
t-5.5 16q0 21 13 43t31 22h492q15 0 21.5 -18t4.5 -33q-8 -37 -41 -37q-87 0 -154.5 -31.5t-104.5 -70.5l-396 -403q72 -77 138.5 -172.5t151.5 -230.5l68 -105q147 -218 247 -228q29 -3 29 -36q0 -25 -9.5 -39t-28.5 -14h-356q-45 0 -67.5 18.5z" />
    <glyph glyph-name="L" unicode="L" horiz-adv-x="1348" 
d="M35.5 75q8.5 11 29.5 13q147 14 155 64l167 1093q2 35 -19 53t-48.5 23.5t-71.5 9.5q-18 2 -24.5 6t-6.5 16q0 23 13 44.5t30 21.5h622q15 0 22.5 -18.5t4.5 -32.5q-7 -37 -40 -37q-66 0 -122.5 -22t-65.5 -72l-162 -1077q0 -59 75 -59h277q57 0 107.5 47.5t88 112
t85.5 164.5q22 46 26 54q8 17 24 25t34 8q24 0 43.5 -9t16.5 -25l-110 -478h-1130q-14 0 -21.5 14.5t-7.5 29.5q0 20 8.5 31z" />
    <glyph glyph-name="M" unicode="M" horiz-adv-x="2044" 
d="M-25.5 14q-5.5 14 -5.5 30q0 21 7.5 31.5t28.5 12.5q56 4 96.5 10.5t74.5 27t41 58.5l198 1050q1 5 1 13q0 33 -30.5 51t-67 23.5t-91.5 9.5q-18 2 -25 6.5t-7 17.5q0 24 13.5 43.5t29.5 20.5h599l184 -982h12l382 809q43 96 70 173h552q14 0 20 -14.5t6 -31.5
q-1 -19 -9.5 -29.5t-28.5 -12.5q-65 -5 -115.5 -20t-53.5 -44l-76 -1085q-2 -38 23.5 -58t58.5 -26t81 -10q20 -2 26.5 -7.5t5.5 -21.5q0 -18 -13 -38.5t-28 -20.5h-639q-14 0 -21 15t-7 31q0 19 8.5 29.5t28.5 12.5q69 5 123.5 20t56.5 44l85 1129h-36l-598 -1281h-86
l-296 1281h-34l-202 -1096q-1 -5 -1 -14q0 -33 28.5 -50.5t64 -23t88.5 -9.5q19 -2 25.5 -7t6.5 -19q0 -19 -12.5 -40.5t-28.5 -21.5h-495q-13 0 -18.5 14z" />
    <glyph glyph-name="N" unicode="N" horiz-adv-x="1656" 
d="M-17.5 12q-6.5 12 -6.5 24q0 24 7.5 36.5t31.5 15.5q188 15 199 84l165 1032q1 6 1 16q0 50 -49 78t-104 33q-19 2 -27 7t-8 17q0 19 14 41.5t31 22.5h445l593 -1126h12l138 941q1 4 1 12q0 34 -33.5 52t-67 23t-93.5 10q-23 2 -32 9t-7 23q2 17 15 36.5t29 19.5h505
q14 0 20 -12.5t6 -28.5q0 -20 -10.5 -32.5t-30.5 -14.5q-9 -1 -63 -6.5t-93 -28t-45 -62.5l-171 -1121q-2 -16 -2 -22v-16.5t-4 -34.5q-16 -70 -136 -70q-21 0 -60 7t-44 15l-619 1187h-17l-155 -1009q-3 -42 47.5 -57.5t129.5 -22.5l21 -2q31 -3 31 -28q0 -24 -12.5 -42
t-29.5 -18h-503q-13 0 -19.5 12z" />
    <glyph glyph-name="O" unicode="O" horiz-adv-x="1618" 
d="M401 52.5q-142 81.5 -213 224t-71 325.5q0 225 100 419.5t284 311t425 116.5q211 0 355 -79t215 -218t71 -321q0 -225 -100.5 -422.5t-286.5 -317.5t-430 -120q-207 0 -349 81.5zM1046.5 185q105.5 120 149.5 308t44 409q0 150 -29 249t-98 152t-188 53
q-177 0 -284.5 -120t-152.5 -307.5t-45 -408.5q0 -226 73.5 -340.5t251.5 -114.5q173 0 278.5 120z" />
    <glyph glyph-name="P" unicode="P" horiz-adv-x="1380" 
d="M9 15q-7 15 -7 33q0 37 37 40q65 5 115 20t55 44l163 1098q0 33 -21 49.5t-48 22t-70 9.5q-26 2 -42 6.5t-16 15.5q0 23 13 44.5t31 21.5h601q555 0 555 -358q0 -162 -83.5 -276t-234.5 -172t-351 -58h-138l-55 -378q-2 -33 24 -51t67.5 -25.5t109.5 -12.5q20 -2 27 -9
t7 -26q0 -17 -11.5 -35t-28.5 -18h-677q-15 0 -22 15zM958.5 744q99.5 105 99.5 319q0 86 -29 144.5t-100.5 91t-194.5 32.5h-57l-102 -692h99q185 0 284.5 105z" />
    <glyph glyph-name="Q" unicode="Q" horiz-adv-x="1618" 
d="M975 -154.5q48 -70.5 147 -117t247 -44.5v-67q-35 -15 -100.5 -25.5t-151.5 -10.5q-133 0 -245.5 46.5t-178.5 131.5t-66 195l1 25q-167 23 -281.5 109t-171.5 218t-57 296q0 225 100 419.5t284.5 311t425.5 116.5q211 0 355 -79t215 -218t71 -321q0 -198 -78.5 -376.5
t-225.5 -303t-344 -164.5q6 -71 54 -141.5zM517.5 179.5q73.5 -114.5 251.5 -114.5q173 0 278.5 120t149.5 308t44 409q0 150 -28.5 249t-98 152t-188.5 53q-177 0 -284.5 -120t-152.5 -307.5t-45 -408.5q0 -226 73.5 -340.5z" />
    <glyph glyph-name="R" unicode="R" horiz-adv-x="1568" 
d="M56.5 15.5q-6.5 15.5 -6.5 31.5q0 20 7.5 30t25.5 11q147 11 155 64l152 1099q1 4 1 10q0 32 -25.5 44t-75.5 20q-34 5 -50.5 11t-16.5 20q0 27 10 45t32 18h574q214 0 340 -40.5t179 -114t53 -181.5q0 -109 -54 -199t-145.5 -149t-200.5 -80q58 -19 100.5 -66t69 -101
t60.5 -139q32 -81 48 -111q40 -71 81.5 -107t105.5 -42q18 -1 25 -13t7 -34q0 -12 -8 -27t-26 -15h-349q-67 0 -105 75q-17 34 -30.5 77.5t-33.5 116.5q-30 107 -52.5 173t-59.5 118t-89 65h-163l-63 -453q0 -35 21 -52t46 -22t73 -10q31 -3 31 -29q0 -20 -7.5 -39.5
t-31.5 -19.5h-585q-13 0 -19.5 15.5zM1014 808q86 96 86 266q0 96 -29.5 152t-98 81.5t-191.5 25.5h-89l-86 -621h137q185 0 271 96z" />
    <glyph glyph-name="S" unicode="S" horiz-adv-x="1274" 
d="M122 303q18 112 19 168q1 49 51 49q25 0 43 -12t18 -30q1 -9 1 -42t7 -77t22 -89q37 -108 119 -160.5t194 -52.5q83 0 145.5 31t96 84t33.5 117q0 69 -36 123.5t-90.5 95.5t-148.5 99q-15 10 -27.5 18t-22.5 14q-97 62 -160.5 117t-104 131t-40.5 175q0 123 67.5 210
t182.5 132t257 45q65 0 115 -8.5t84.5 -20.5t87.5 -33q15 -6 26 -6q18 0 27.5 6.5t21.5 20.5q10 12 18.5 18t23.5 6q18 0 35 -8.5t16 -21.5q-2 -23 -11 -118q-10 -97 -13 -197q-1 -33 -12.5 -46t-35.5 -13q-22 0 -39 7t-21 21q-49 313 -312 313q-112 0 -183 -52.5
t-71 -154.5q0 -72 40 -130t98.5 -100.5t152.5 -97.5q106 -63 176 -115t122.5 -132.5t52.5 -186.5q0 -112 -61 -210t-184 -159t-299 -61q-79 0 -139 13t-105 33.5t-124 61.5q-8 4 -14 0t-19 -17q-25 -25 -40 -33t-28 -8q-28 0 -42.5 16t-11.5 36q24 119 42 231z" />
    <glyph glyph-name="T" unicode="T" horiz-adv-x="1356" 
d="M230 75q9 11 30 13q99 8 159.5 26.5t67.5 67.5l175 1149h-164q-73 0 -132 -71t-95.5 -158t-47.5 -138q-5 -18 -21 -25.5t-35 -7.5q-18 0 -44.5 9.5t-23.5 24.5q10 65 35 175t48.5 194.5t30.5 84.5h1204q0 -78 -8.5 -169t-23.5 -219q-6 -49 -8 -66q-3 -15 -30.5 -24.5
t-44.5 -9.5q-48 0 -45 33v33q0 103 -9.5 173.5t-41 115.5t-93.5 45h-161l-174 -1153q-2 -36 34 -54.5t76.5 -24t113.5 -11.5q21 -2 28 -9t6 -29q-1 -16 -14 -33t-29 -17h-743q-14 0 -21.5 14.5t-7.5 29.5q0 20 9 31z" />
    <glyph glyph-name="U" unicode="U" horiz-adv-x="1654" 
d="M394 80q-147 109 -147 322q0 79 9 136l102 726q1 33 -26.5 45t-78.5 18q-32 4 -48 9t-16 16q0 26 11 46.5t32 20.5h618q13 0 19.5 -15t6.5 -32q0 -18 -10 -29t-29 -12q-77 -2 -123.5 -17.5t-50.5 -46.5l-104 -717q-14 -106 -13 -175q4 -158 80 -234t219 -76
q153 0 248.5 67t144 175t73.5 252l102 695q1 39 -37.5 57t-119.5 20q-17 1 -24 5t-7 16q0 23 13 45t30 22h436q13 0 19 -14.5t6 -31.5q0 -19 -9.5 -30t-28.5 -12q-80 -3 -126.5 -28.5t-53.5 -72.5l-104 -692q-41 -292 -187.5 -429.5t-404.5 -137.5q-274 0 -421 109z" />
    <glyph glyph-name="V" unicode="V" horiz-adv-x="1496" 
d="M194.5 1304.5q-19.5 16.5 -41.5 20.5t-56 5q-17 0 -25 1q-17 2 -23.5 6t-6.5 16q0 21 14 43.5t31 22.5h625q13 0 18.5 -14t5.5 -31q0 -40 -40 -43q-81 -5 -117 -20t-36 -45l171 -1105h8l616 1089q6 14 6 24q0 25 -34.5 38.5t-112.5 18.5q-15 1 -21 7.5t-6 17.5
q0 25 12 44t33 19h455q12 0 18.5 -11t6.5 -25q0 -26 -10.5 -38t-33.5 -14q-8 -1 -47.5 -4t-74.5 -23t-59 -59l-725 -1263h-284l-241 1272q-6 34 -25.5 50.5z" />
    <glyph glyph-name="W" unicode="W" horiz-adv-x="2204" 
d="M249.5 1304.5q-19.5 16.5 -44.5 20.5t-61 5q-21 0 -29 1q-18 2 -24.5 6t-6.5 16q0 26 14 46t31 20h639q13 0 19 -14t6 -30q-1 -20 -11.5 -32t-29.5 -12q-86 0 -132.5 -17.5t-43.5 -52.5l83 -972h12l545 1110h210l114 -1111h11l464 962q4 9 4 18q0 31 -50.5 47t-125.5 16
q-27 0 -27 24q0 31 13.5 47.5t30.5 16.5h512q12 0 18.5 -13.5t6.5 -28.5q0 -26 -9.5 -35t-33.5 -11l-23 -2q-56 -3 -94 -16.5t-61 -58.5l-670 -1272h-220l-110 1062h-12l-538 -1062h-210l-144 1272q-3 34 -22.5 50.5z" />
    <glyph glyph-name="X" unicode="X" horiz-adv-x="1580" 
d="M-55.5 13.5q-6.5 13.5 -6.5 29.5q0 23 12 32.5t34 12.5q14 2 24 2q56 4 100.5 18t83.5 57l487 505l-307 584q-15 32 -40.5 47t-51 19.5t-81.5 9.5q-19 2 -26 10.5t-7 24.5q0 19 14.5 36.5t30.5 17.5h616q24 0 24 -39q0 -19 -11.5 -34t-30.5 -15q-66 0 -93 -6.5t-27 -22.5
l216 -453l364 408q15 15 15 26q0 21 -38 34.5t-98 13.5q-17 0 -22 8t-5 25q1 20 13 37.5t27 17.5h486q12 0 17.5 -11t5.5 -26q0 -27 -10 -38t-34 -13q-9 -1 -50 -4t-83 -21t-76 -52l-475 -485l326 -604q22 -45 60 -59t68.5 -15.5t38.5 -2.5q15 -1 21.5 -11t6.5 -23
q0 -22 -13 -38t-30 -16h-616q-13 0 -19.5 12.5t-6.5 27.5q0 18 11.5 32t31.5 16q70 4 96 10.5t26 22.5l-223 471l-371 -430q-6 -7 -10.5 -14t-4.5 -13q0 -41 173 -47q16 -2 22 -10.5t6 -24.5q0 -17 -12 -35t-28 -18h-531q-13 0 -19.5 13.5z" />
    <glyph glyph-name="Y" unicode="Y" horiz-adv-x="1419" 
d="M272.5 73.5q14.5 12.5 37.5 14.5q26 2 40 2q41 1 67 5t45.5 17t24.5 40l66 382l-320 720q-20 46 -48.5 64.5t-82.5 22.5q-18 1 -23.5 9.5t-5.5 24.5q0 18 12.5 31t29.5 13h603q14 0 20 -12t6 -26q0 -17 -15 -33t-34 -17q-90 -3 -125 -9t-35 -25l263 -658l438 619
q12 17 12 31q0 42 -129 42q-16 0 -25.5 12t-9.5 27q0 16 13 32.5t29 16.5h432q15 0 22 -14t4 -27q-4 -22 -12.5 -28.5t-30.5 -8.5q-5 -1 -38.5 -4t-65.5 -24t-60 -59l-523 -709l-63 -394q0 -26 19 -38.5t45.5 -16.5t69.5 -5l45 -3q21 -3 30.5 -7.5t9.5 -18.5
q0 -23 -14.5 -42.5t-29.5 -19.5h-681q-13 0 -20 13.5t-7 28.5q0 19 14.5 31.5z" />
    <glyph glyph-name="Z" unicode="Z" horiz-adv-x="1352" 
d="M27 76.5q11 17.5 45 56.5l925 1198h-436q-46 0 -104 -62.5t-107 -139.5t-62 -110q-8 -19 -22 -26t-36 -7q-15 0 -32.5 9.5t-14.5 24.5l90 358q25 39 55 41h1012q14 0 24 -8t10 -22v-24q0 -13 -8.5 -23.5t-10.5 -13.5l-966 -1245h466q64 0 133.5 70t122 154t68.5 123
q8 19 21.5 26t35.5 7q16 0 37 -9.5t18 -24.5l-111 -388q-26 -40 -53 -41h-1074q-17 0 -27 9t-10 23v15q0 12 11 29.5z" />
    <glyph glyph-name="bracketleft" unicode="[" horiz-adv-x="866" 
d="M364 1549h518l-13 -96h-251l-254 -1669h251l-14 -97h-516z" />
    <glyph glyph-name="backslash" unicode="\" horiz-adv-x="964" 
d="M599 -415l-295 2040h138l292 -2040h-135z" />
    <glyph glyph-name="bracketright" unicode="]" horiz-adv-x="866" 
d="M538 -313h-515l13 97h251l251 1669h-250l14 96h516z" />
    <glyph glyph-name="asciicircum" unicode="^" horiz-adv-x="1399" 
d="M760 1428h139l328 -1128h-146l-269 963l-489 -963h-167z" />
    <glyph glyph-name="underscore" unicode="_" horiz-adv-x="1399" 
d="M1305 -190l-15 -106h-1418l15 106h1418z" />
    <glyph glyph-name="grave" unicode="`" horiz-adv-x="1024" 
d="M579 1231.5q-65 48.5 -140 100.5q-12 9 -37 26.5t-32 25.5q-11 12 -17.5 29t-6.5 36q0 26 10.5 51.5t33.5 46.5q37 33 83 33q27 0 50.5 -10t37.5 -26q8 -9 24.5 -38.5t23.5 -42.5q44 -80 83.5 -147t92.5 -144l-65 -58q-76 69 -141 117.5z" />
    <glyph glyph-name="a" unicode="a" horiz-adv-x="1292" 
d="M196 16.5q-70 43.5 -104.5 119t-34.5 169.5q0 159 87 324t241.5 274t345.5 109q86 0 158.5 -20.5t121.5 -55.5q69 39 99.5 54.5t49.5 15.5q32 0 31 -24l-139 -800q-2 -28 -2 -35q0 -24 17.5 -35.5t40.5 -11.5q17 0 62 10q22 4 23 4q27 0 27 -35q0 -33 -25 -43
q-49 -20 -122.5 -38.5t-156.5 -18.5q-73 0 -109.5 35.5t-36.5 96.5q0 15 32 173l21 104q-36 -85 -103.5 -180.5t-160 -164t-192.5 -69.5q-101 -1 -171 42.5zM616 219.5q79 81.5 143 188t96 183.5l45 225q-4 28 -25.5 52.5t-59 39.5t-86.5 15q-116 0 -204 -85.5t-134.5 -216
t-46.5 -260.5q0 -122 32 -172.5t90 -50.5q71 0 150 81.5z" />
    <glyph glyph-name="b" unicode="b" horiz-adv-x="1264" 
d="M270.5 1363q-7.5 7 -22.5 14q-9 4 -18 11q-1 33 -20 46.5t-53 21.5q-4 1 -13 3.5t-15 5.5q-7 7 -7 21q0 13 5 23q16 6 24 8q59 23 89 24q157 6 304 6q10 0 17.5 -7t7.5 -23q0 -6 -1 -10l-57 -403l-51 -282q69 95 164.5 143t187.5 48q127 0 210 -53.5t121.5 -145
t38.5 -208.5q0 -52 -8 -114q-21 -140 -96 -256.5t-203.5 -186.5t-300.5 -70q-100 0 -202.5 24t-178.5 59t-101 64l185 1216q1 14 -6.5 21zM432 101q51 -27 119 -27q138 0 219.5 113.5t104.5 304.5q9 92 9 142q0 118 -39.5 179.5t-133.5 61.5q-73 0 -142.5 -50.5
t-117.5 -116.5l-81 -540q11 -40 62 -67z" />
    <glyph glyph-name="c" unicode="c" horiz-adv-x="1041" 
d="M925 956q88 -58 88 -173q0 -61 -52 -94.5t-126 -33.5q-24 0 -33.5 1.5t-16.5 10.5t-13 32l-55 218q-18 16 -78 16q-75 0 -136 -66.5t-96 -192t-35 -294.5q0 -139 61.5 -205.5t154.5 -66.5q79 0 143 32t128 91q7 8 11.5 11t10.5 -1l37 -33q5 -4 5 -9q0 -4 -4.5 -10
t-6.5 -9q-81 -100 -178.5 -154t-230.5 -54q-137 0 -234.5 52.5t-148.5 149.5t-51 227q0 170 81.5 310.5t219 221.5t298.5 81q169 0 257 -58z" />
    <glyph glyph-name="d" unicode="d" horiz-adv-x="1297" 
d="M229.5 26.5q-81.5 55.5 -118.5 148t-37 207.5q0 166 78 311.5t217.5 233t314.5 87.5q81 0 134 -13.5t98 -38.5l19 142l31 233q2 14 2 19q0 48 -36.5 65.5t-96.5 25.5q-26 4 -38 7q-10 4 -15 11t-5 20t6.5 24.5t14.5 13.5q92 8 185.5 14.5t135.5 7.5q43 2 81 -2.5
t51 -15.5q10 -5 7 -20l-194 -1334q-2 -14 -2 -19q0 -53 58 -53q17 0 53 8q7 1 18.5 3t16.5 2q12 0 18.5 -9.5t6.5 -26.5q0 -13 -6.5 -25.5t-18.5 -16.5q-163 -52 -261 -52q-95 0 -129.5 39t-34.5 88q0 9 5 41q-40 -55 -101 -96t-127 -63t-122 -22q-127 0 -208.5 55.5z
M639 135.5q52 26.5 97 68t71 84.5l78 510q-16 48 -64 84.5t-122 36.5q-111 0 -184.5 -83t-108 -210.5t-34.5 -262.5t47 -194.5t120 -59.5q48 0 100 26.5z" />
    <glyph glyph-name="e" unicode="e" horiz-adv-x="1083" 
d="M932 609.5q-90 -78.5 -239.5 -128.5t-333.5 -74q-1 -15 -1 -47q0 -134 66 -194.5t163 -60.5q87 0 162 28.5t161 88.5q9 7 14 7q8 0 25 -17t19 -29l2 -5q0 -5 -3 -9t-4 -5q-87 -92 -204 -142.5t-250 -50.5q-137 0 -236.5 51t-151.5 144.5t-52 218.5q0 174 85 318.5
t226.5 227.5t302.5 83q120 0 196 -34t109.5 -84t33.5 -103q0 -105 -90 -183.5zM521.5 879q-60.5 -54 -102.5 -155.5t-55 -239.5q190 41 291 123.5t100 215.5q0 50 -27 80t-80 30q-66 0 -126.5 -54z" />
    <glyph glyph-name="f" unicode="f" horiz-adv-x="744" 
d="M-227.5 -399.5q-45.5 42.5 -45.5 103.5q0 38 19 68.5t49 48t61 17.5q15 0 35 -3l78 -179q41 2 70.5 33.5t54 110.5t42.5 220l115 872h-156q-11 1 -15.5 17.5t-2.5 31.5q5 32 30 43l156 9l13 82q34 222 135.5 360t306.5 138q107 0 155.5 -39.5t48.5 -99.5q0 -36 -23.5 -62
t-57.5 -39.5t-63 -13.5q-10 0 -12 3l-87 153q-33 0 -55 -28.5t-41.5 -107t-40.5 -232.5l-16 -113h230q9 -1 14.5 -8t5.5 -17q0 -20 -9.5 -46t-20.5 -31h-233l-110 -836q-17 -134 -75.5 -247t-159 -182t-238.5 -69q-112 0 -157.5 42.5z" />
    <glyph glyph-name="g" unicode="g" horiz-adv-x="1278" 
d="M239 -425q-119 34 -183.5 100t-64.5 158q1 79 53.5 134t135.5 84q-33 25 -48.5 55t-15.5 73q0 78 56 140t137 95q-76 35 -116 98.5t-39 135.5q0 120 65 202.5t174 123t244 40.5q113 0 194.5 -24.5t129.5 -70.5q38 38 102 68t121 30q64 0 104 -38t39 -106q0 -56 -32 -87
t-76 -31q-28 0 -51 12t-30 33q-13 27 -30 78q-2 2 -9 2q-14 0 -40 -8.5t-48 -19.5q11 -20 19 -47.5t8 -55.5q0 -121 -59.5 -207.5t-166.5 -131t-248 -44.5q-101 0 -172 17q-30 -13 -51.5 -37.5t-22.5 -48.5q0 -31 27 -51t81 -26l297 -33q133 -15 214.5 -49.5t118.5 -90
t37 -136.5q0 -117 -77.5 -200.5t-208.5 -126.5t-290 -43t-278 34zM732 537q48 80 48 214q0 176 -164 176q-104 0 -146 -75t-42 -204q0 -91 37.5 -141t117.5 -50q101 0 149 80zM762 -312.5q91 49.5 92 152.5q0 51 -63 78t-170 39l-258 31q-54 5 -86 17q-22 -25 -34 -62.5
t-12 -83.5q0 -109 76.5 -165t230.5 -56q133 0 224 49.5z" />
    <glyph glyph-name="h" unicode="h" horiz-adv-x="1306" 
d="M278 1361q0 31 -13 48t-31.5 24t-46.5 12q-23 3 -37 9q-19 10 -19 34q0 12 9.5 30.5t21.5 19.5q138 9 312 9h72q10 0 17.5 -9t6.5 -31l-70 -434l-51 -296q54 54 114 102.5t154.5 91.5t203.5 43q108 0 169.5 -48.5t61.5 -155.5q0 -22 -3 -46l-94 -598q-2 -35 12.5 -50
t45.5 -15q14 0 33.5 3.5t26.5 4.5q20 5 27 5q12 0 18.5 -9.5t6.5 -26.5q0 -13 -6.5 -25.5t-18.5 -16.5q-165 -49 -262 -49t-131 35t-34 82l95 627q0 41 -5 64.5t-28 39t-72 15.5q-93 0 -175.5 -56.5t-147.5 -128.5l-104 -665h-268l208 1337q2 18 2 24z" />
    <glyph glyph-name="i" unicode="i" horiz-adv-x="702" 
d="M174.5 21.5q-28.5 34.5 -28.5 76.5q0 35 5 65l109 622q2 22 2 30q0 33 -13 50t-31 23t-47 9q-29 4 -34 6q-11 5 -15.5 13.5t-2.5 26.5q2 14 10.5 28.5t19.5 15.5q158 10 344 10h38q10 0 17.5 -9t6.5 -31l-132 -814q0 -27 15.5 -37t45.5 -10q20 0 54 8q23 5 33 5
q11 0 17.5 -12t6.5 -29q0 -26 -24 -34q-75 -25 -138 -36t-153 -11q-77 0 -105.5 34.5zM336.5 1220q-39.5 39 -39.5 101q0 55 26.5 100t71 71t95.5 26q63 0 103 -39t40 -101q0 -54 -26.5 -99t-71.5 -71.5t-96 -26.5q-63 0 -102.5 39z" />
    <glyph glyph-name="j" unicode="j" horiz-adv-x="697" 
d="M-159 -423.5q-56 25.5 -85 66t-29 84.5q0 50 34 86t83 36q46 0 65 -37l80 -159q41 1 73.5 29.5t63.5 116.5t54 257l112 756q0 28 -13 44t-32.5 23.5t-52.5 14.5l-35 9q-10 4 -14.5 12.5t-3.5 24.5q1 14 10 30t20 17q159 10 350 10h39q10 0 17.5 -9t6.5 -31l-129 -878
q-22 -147 -92 -268t-172.5 -190.5t-217.5 -69.5q-76 0 -132 25.5zM370.5 1220q-39.5 39 -39.5 101q0 55 26.5 100t71 71t95.5 26q63 0 103 -39t40 -101q0 -54 -26.5 -99t-71.5 -71.5t-96 -26.5q-63 0 -102.5 39z" />
    <glyph glyph-name="k" unicode="k" horiz-adv-x="1236" 
d="M825 837q16 13 16 26q0 19 -34 28t-85 14q-26 3 -26 30q0 23 13 40.5t29 17.5l479 -1q14 0 21 -12.5t7 -27.5q0 -20 -11 -34.5t-29 -13.5q-59 1 -133.5 -26.5t-118.5 -67.5l-212 -187q34 -34 66.5 -88t79.5 -145q43 -80 70 -127.5t57 -89.5q23 -32 45 -52t47 -20
q10 0 40 7q20 4 25 4q12 0 18.5 -11.5t6.5 -26.5q0 -13 -6.5 -26t-18.5 -16q-86 -25 -155.5 -35.5t-154.5 -10.5q-89 0 -121 70q-27 57 -62 144q-42 103 -71.5 164t-65.5 106l-112 -91l-61 -379h-270l209 1362q0 30 -13.5 47t-32.5 24t-49 12q-22 3 -38 9q-19 10 -19 40
q0 16 9.5 29.5t21.5 14.5q142 9 313 9h72q10 0 17.5 -7.5t7.5 -25.5l-117 -771l-41 -249z" />
    <glyph glyph-name="l" unicode="l" horiz-adv-x="679" 
d="M242.5 887.5q75.5 472.5 75.5 477.5q0 34 -24 48t-69 23q-38 9 -56 18.5t-18 30.5q0 13 9.5 32.5t23.5 20.5q213 10 397 10q10 0 17.5 -7t7.5 -23q0 -1 -76 -496q-132 -866 -132 -874q0 -24 13.5 -37.5t45.5 -13.5q13 0 50 7q8 1 19.5 3t17.5 2q12 0 18.5 -6t6.5 -25
q0 -14 -6 -26t-19 -16q-156 -49 -284 -49q-80 0 -109.5 38t-29.5 86q0 16 2.5 32.5t3.5 23.5q40 248 115.5 720.5z" />
    <glyph glyph-name="m" unicode="m" horiz-adv-x="1968" 
d="M1722 152q0 -27 9.5 -40t29.5 -13q24 0 88 14q14 3 22.5 -7t8.5 -28q0 -23 -13 -28q-162 -63 -296 -63q-130 0 -130 114q0 22 4 41l88 575q3 14 3 29q0 44 -26 75.5t-91 31.5q-73 0 -135 -36t-127 -95l-108 -722h-274l110 719q3 12 3 28q0 44 -26 75t-92 31
q-59 0 -111 -25t-91 -59t-83 -81l-109 -688h-272l123 778q3 17 3 29q0 34 -15 52t-35.5 25t-52.5 13q-28 5 -32 6q-19 9 -19 30l1 10q0 13 9.5 28t20.5 16q157 10 344 10h38q11 0 19 -9.5t5 -30.5l-26 -172q32 41 94.5 94t148.5 94t178 41q118 0 181 -41t72 -149
q91 81 186 135.5t212 54.5q120 0 187.5 -45.5t67.5 -166.5q0 -32 -4 -63l-85 -551q-3 -19 -3 -36z" />
    <glyph glyph-name="n" unicode="n" horiz-adv-x="1345" 
d="M1084 154q0 -28 9 -41.5t29 -13.5q25 0 89 14q14 3 22.5 -7t8.5 -28q0 -9 -3.5 -17t-10.5 -11q-54 -26 -127.5 -43.5t-161.5 -19.5q-136 -3 -136 114q0 22 4 41l87 587q3 20 3 37q0 44 -20 66t-63 22q-89 0 -175 -49.5t-144 -115.5l-110 -689h-272l121 778q2 10 2 28
q0 34 -15 52.5t-35 25.5t-52 13q-5 1 -15 2.5t-16 3.5q-11 5 -15.5 13.5t-2.5 26.5q2 14 10.5 28.5t19.5 15.5q157 10 346 10h38q11 0 19 -9.5t5 -30.5l-26 -172q7 6 72 69.5t173 111.5t219 48q94 0 153 -49t59 -165q0 -19 -4 -65l-82 -547q-3 -18 -3 -34z" />
    <glyph glyph-name="o" unicode="o" horiz-adv-x="1235" 
d="M156 712q69 134 199.5 218t307.5 84q250 0 367 -123t117 -338q0 -158 -69.5 -290.5t-201 -211.5t-309.5 -79q-246 0 -363 122.5t-117 337.5q0 146 69 280zM724 138.5q64 79.5 94 206t30 271.5q0 150 -41 230t-143 80q-97 0 -160 -80t-92.5 -207t-29.5 -271
q0 -149 39.5 -229t139.5 -80q99 0 163 79.5z" />
    <glyph glyph-name="p" unicode="p" horiz-adv-x="1299" 
d="M-92.5 -414q-6.5 12 -6.5 26q0 22 9 30t31 10q39 5 63 10.5t45.5 24.5t27.5 56l151 1035q2 18 2 26q0 34 -13.5 52t-33 25t-49.5 13q-5 1 -14 2.5t-15 3.5q-14 4 -21 11.5t-7 21.5q0 13 8.5 33t22.5 21q209 10 382 10q10 0 17.5 -7t7.5 -23l-23 -154q68 99 166 149.5
t190 50.5q124 0 202 -54.5t113 -143t35 -197.5q0 -164 -72 -313t-209 -242t-322 -93q-112 0 -215 30l-10 -108l-29 -179q-1 -28 45.5 -41t123.5 -20q29 -3 29 -27q0 -17 -11.5 -34t-29.5 -17h-570q-14 0 -20.5 12zM759 146q72 81 106 209.5t34 272.5q0 117 -35.5 182
t-120.5 65q-64 0 -137 -49.5t-117 -111.5l-86 -565q8 -20 34.5 -39.5t64.5 -32t77 -12.5q108 0 180 81z" />
    <glyph glyph-name="q" unicode="q" horiz-adv-x="1266" 
d="M549.5 -431q-6.5 13 -6.5 28q0 33 38 37q64 6 103 20t44 44l42 273l28 192q-83 -100 -175 -146t-182 -46q-125 0 -206 55t-118 147t-37 207q0 168 80.5 314t223 233t317.5 87q83 0 136 -15.5t111 -52.5q22 10 56 27q40 21 54 25q14 7 48 18.5t48 11.5q15 0 24.5 -10.5
t8.5 -26.5l-188 -1284q0 -29 16.5 -44t39 -20.5t60.5 -8.5q32 -3 32 -30q0 -22 -12 -35t-29 -13h-535q-15 0 -21.5 13zM643.5 136q52.5 27 97 68.5t72.5 84.5l78 507q-16 49 -60.5 86t-117.5 37q-109 0 -184.5 -82t-112.5 -208.5t-37 -257.5q0 -142 46 -202t119 -60
q47 0 99.5 27z" />
    <glyph glyph-name="r" unicode="r" horiz-adv-x="1044" 
d="M676 948q85 66 191 66q84 0 127.5 -46t43.5 -120q0 -98 -60 -156.5t-166 -58.5l-62 203q-54 0 -119 -42t-113 -93l-111 -701h-272l123 778q3 17 3 29q0 34 -16.5 52t-38.5 25t-57 13q-30 5 -34 6q-19 9 -19 30q0 20 9.5 36.5t21.5 17.5q162 10 351 10h38q10 0 17.5 -7
t7.5 -23q-9 -58 -19 -171q69 86 154 152z" />
    <glyph glyph-name="s" unicode="s" horiz-adv-x="1000" 
d="M168 28.5q-114 52.5 -114 159.5q0 53 35 85t99 32l158 -219q36 -31 117 -31q42 0 80.5 16t62.5 46t24 71q0 39 -24.5 71t-61 58t-102.5 64q-40 22 -71 42q-67 41 -113.5 83t-74.5 98.5t-28 131.5q0 86 55 149t147.5 95.5t203.5 32.5q127 0 214.5 -25t131 -68t44.5 -96
q0 -32 -24 -56.5t-57 -38.5t-55 -14l-143 189q-22 16 -45 24.5t-53 8.5q-78 0 -127.5 -34.5t-48.5 -94.5q1 -38 27 -69.5t65.5 -57.5t119.5 -72q87 -51 144.5 -96t92.5 -102.5t35 -130.5q0 -80 -49.5 -149.5t-145.5 -112t-228 -42.5q-177 0 -291 52.5z" />
    <glyph glyph-name="t" unicode="t" horiz-adv-x="806" 
d="M182.5 14.5q-50.5 40.5 -50.5 144.5q0 33 4 64l104 669h-128q-9 1 -13.5 13t-4.5 26q0 22 11.5 39t25.5 21q72 9 119.5 36t88 83.5t90.5 162.5q13 27 34 38t56 11h39q11 0 17 -6.5t5 -14.5l-53 -307h252q10 -1 15 -9.5t5 -21.5q0 -23 -11 -44.5t-23 -26.5h-252l-96 -611
q-6 -31 -6 -68q0 -61 22.5 -79.5t62.5 -18.5q43 0 78 13.5t72 34.5q6 3 17.5 9t16.5 6q13 0 21.5 -14.5t8.5 -32.5t-11 -26q-62 -46 -109.5 -72.5t-111.5 -42.5t-153 -16q-92 0 -142.5 40.5z" />
    <glyph glyph-name="u" unicode="u" horiz-adv-x="1328" 
d="M236 28q-73 56 -73 184q0 39 7 81l78 529q1 7 1 18q0 30 -16 42t-43 12q-18 0 -48 -6q-22 -5 -33 -5q-24 0 -29 29q-2 12 5.5 26t23.5 19q176 50 265 50q153 0 153 -96q0 -10 -5 -38q-3 -12 -3 -21l-90 -589q-4 -30 -4 -46q0 -111 118 -111q78 0 132.5 23t112.5 64
l119 801h238q33 0 33 -28l-124 -822q0 -53 38 -53q18 0 46.5 6.5t35.5 7.5q13 3 22 -7.5t9 -27.5q0 -9 -3.5 -17t-10.5 -11q-6 -2 -50.5 -20t-105.5 -30.5t-120 -12.5q-70 0 -100 33t-30 81q0 9 2 21q-28 -33 -86.5 -66t-132.5 -54.5t-145 -21.5q-114 0 -187 56z" />
    <glyph glyph-name="v" unicode="v" horiz-adv-x="1203" 
d="M368.5 -10q-20.5 11 -20.5 31q0 19 1 26q0 5 0.5 18t-0.5 32q-6 194 -53.5 396t-117.5 320q-20 31 -47 31q-34 0 -72 -39q-14 -16 -27 -16q-14 0 -25 12t-11 34q0 14 7 25q50 76 125 115t159 39q59 0 101.5 -26.5t75.5 -83.5q63 -110 92 -279t32 -369q1 -26 -18.5 -78
t-40.5 -82q80 52 163 140.5t139 194.5t56 206q0 32 -6.5 58.5t-19.5 66.5q-13 41 -19 66.5t-6 56.5q0 57 38.5 93t101.5 36q54 0 91 -32t54.5 -82t17.5 -105q0 -135 -100 -297t-247 -303t-279 -214q-4 -1 -19 -1.5t-49 -0.5q-56 0 -76.5 11z" />
    <glyph glyph-name="w" unicode="w" horiz-adv-x="1836" 
d="M395 -9q-21 11 -21 32q0 4 0.5 16.5t0.5 39.5q0 175 -22.5 321t-56 249t-68.5 164q-8 14 -26 22.5t-34 8.5q-33 0 -72 -44q-14 -16 -27 -16t-24 12t-11 34q0 17 6 25q61 86 129 122t156 36q106 0 165.5 -106.5t81.5 -272t25 -383.5q0 -23 -6 -48.5t-18 -62.5l-14 -48
q84 54 170.5 151t144.5 210.5t62 214.5q-2 12 -2.5 20.5t-0.5 14.5q-2 36 -7 61.5t-21 54.5q-7 12 -20 19.5t-27 7.5q-13 0 -40 -15t-42 -31q-14 -16 -31 -16q-13 0 -23 12t-10 32q0 16 5 23q35 53 83.5 89.5t98.5 54t89 18.5q106 1 156 -93t63 -237.5t16 -399.5v-32
q0 -35 -12 -78t-29 -81q90 62 170.5 150.5t132 191.5t51.5 204q0 30 -6 55t-19 65q-13 38 -19 65t-5 59q2 58 39 94.5t97 36.5q54 0 90 -32t53.5 -82.5t17.5 -105.5q0 -137 -90.5 -296t-232 -297t-285.5 -217q-3 -2 -24 -2.5t-60 -0.5q-58 0 -81.5 11t-23.5 32q0 2 2 24.5
t2 51.5q0 120 -15 283l-3 30q-77 -143 -189.5 -253t-231.5 -176q-2 -2 -24 -2.5t-54 -0.5q-58 0 -79 11z" />
    <glyph glyph-name="x" unicode="x" horiz-adv-x="1139" 
d="M62 -3.5q-39 24.5 -61 65t-22 84.5q0 40 15 73t40 52t51 19q40 0 60 -32l47 -84l246 277l-118 315q-14 37 -30 54.5t-38 17.5q-25 0 -47 -15.5t-48 -44.5q-20 -22 -27.5 -28t-16.5 -6q-14 0 -24.5 11t-10.5 26q0 17 11 33q62 90 145 140t182 50q118 0 161 -140l75 -253
l169 277q33 56 76 82.5t88 26.5q51 0 87.5 -25t55.5 -65.5t19 -86.5q0 -39 -16 -69.5t-40.5 -47t-49.5 -16.5q-33 0 -51 25l-60 89l-249 -282l122 -311q14 -36 29 -52.5t37 -16.5q28 0 53.5 19t51.5 50q16 18 31 18t25 -12.5t10 -28.5q0 -12 -8 -26q-57 -92 -134 -139
t-185 -47q-124 0 -172 155l-69 232l-177 -279q-36 -57 -71.5 -83t-75.5 -26q-47 0 -86 24.5z" />
    <glyph glyph-name="y" unicode="y" horiz-adv-x="1296" 
d="M77.5 -420.5q-42.5 28.5 -42.5 77.5q0 52 40.5 80.5t100.5 28.5q9 0 81 -3q29 -3 53 -3q33 0 60 8q67 18 123 68t121 125l15 17q-86 0 -131.5 6.5t-64 22.5t-18.5 47q0 147 -28 303t-70.5 279.5t-82.5 177.5q-9 13 -23.5 21.5t-27.5 8.5q-29 0 -66 -52q-16 -20 -27 -20
q-12 0 -22.5 14t-10.5 35q0 13 6 26q32 56 80.5 93.5t98 55.5t85.5 18q61 0 103.5 -25t72.5 -85q39 -74 73.5 -209.5t55 -287.5t22.5 -271q0 -31 1 -47q2 -45 0 -78q108 135 209 310.5t101 315.5q0 31 -6.5 58t-18.5 62q-13 37 -19.5 65.5t-6.5 61.5q0 59 38 94.5t100 35.5
q55 0 91.5 -31.5t53.5 -81.5t17 -106q0 -112 -53 -231t-129 -225.5t-202 -264.5q-55 -67 -87 -109q-147 -181 -285.5 -297.5t-269.5 -116.5q-68 0 -110.5 28.5z" />
    <glyph glyph-name="z" unicode="z" horiz-adv-x="1009" 
d="M0 11q-12 11 -12 26q0 17 10 34.5t38 51.5l547 662l121 126h-293q-43 0 -85.5 -44.5t-73 -101.5t-37.5 -87q-4 -18 -18.5 -25.5t-32.5 -7.5q-15 0 -32 9.5t-14 24.5l60 274q4 17 20.5 28.5t32.5 12.5h731q28 0 42.5 -9t14.5 -24q0 -21 -6.5 -34t-26.5 -41l-536 -662
l-135 -141h301q45 0 90 46.5t78.5 105.5t41.5 90q5 19 15 26t27 7q16 0 37 -9.5t19 -24.5l-60 -283q-2 -18 -18.5 -29t-33.5 -12h-782q-18 0 -30 11z" />
    <glyph glyph-name="braceleft" unicode="{" horiz-adv-x="976" 
d="M298 399q0 47 -25.5 84t-70.5 58t-101 21h-30l16 110h30q62 0 117.5 25t92 69t44.5 97l58 387q15 104 78 171t145.5 97.5t160.5 30.5h193l-14 -87h-106q-50 0 -87.5 -25t-59 -63.5t-27.5 -80.5l-62 -407q-18 -116 -110.5 -182t-236.5 -88q124 -20 197 -75t73 -151
q0 -19 -3 -42l-62 -407q-3 -18 -3 -36q0 -132 113 -132h120l-14 -87h-207q-70 0 -135 25t-107 80t-42 141q0 28 4 52l59 387q2 10 2 28z" />
    <glyph glyph-name="bar" unicode="|" horiz-adv-x="785" 
d="M250 1535h145v-1902h-145v1902z" />
    <glyph glyph-name="braceright" unicode="}" horiz-adv-x="976" 
d="M724 832q0 -46 23.5 -82.5t66.5 -57t98 -20.5h30l-19 -110h-30q-61 0 -113 -25t-85 -68.5t-41 -97.5l-57 -387q-19 -104 -83 -171t-146.5 -97.5t-160.5 -30.5h-188l13 87h104q51 0 88.5 25t59 64t27.5 80l61 407q18 117 107 182.5t230 87.5q-121 20 -190.5 74t-69.5 148
q0 25 4 46l63 407q3 18 3 37q0 57 -28.5 94.5t-91.5 37.5h-113l13 87h203q70 0 136 -24.5t110 -79t44 -137.5q0 -26 -6 -58l-59 -387q-3 -16 -3 -31z" />
    <glyph glyph-name="asciitilde" unicode="~" horiz-adv-x="1399" 
d="M1053.5 476.5q-69.5 -68.5 -158.5 -68.5q-56 0 -99.5 15.5t-107.5 48.5q-19 10 -61 30q-68 32 -124 32q-53 0 -87.5 -23.5t-69.5 -63.5q-25 -31 -38 -36q-12 -2 -25.5 8.5t-23 27.5t-9.5 33q0 20 6 29q60 92 128.5 152.5t153.5 60.5q51 0 90 -14.5t93 -45.5
q23 -14 62 -34q67 -33 126 -33q56 0 94.5 24.5t75.5 65.5q3 3 16.5 17t24.5 18q11 2 32 -16t21 -30t-1.5 -18.5t-5.5 -13.5q-43 -97 -112.5 -165.5z" />
    <glyph glyph-name="DEL" 
 />
    <glyph glyph-name="uni00A0" unicode="&#xa0;" horiz-adv-x="511" 
 />
    <glyph glyph-name="exclamdown" unicode="&#xa1;" horiz-adv-x="740" 
d="M662.5 1269.5q-22.5 -42.5 -63.5 -69t-92 -26.5q-71 0 -112.5 45t-41.5 114q0 51 24 95t65.5 69.5t90.5 25.5q70 0 111 -47.5t41 -118.5q0 -45 -22.5 -87.5zM495 699q-4 -140 -6 -304q-2 -134 -4 -194t-9 -90q-12 -59 -61.5 -99t-115.5 -40q-69 0 -110.5 37t-41.5 94
q0 16 28.5 109.5t93.5 298.5q45 142 88.5 282t58.5 202h94q-11 -156 -15 -296z" />
    <glyph glyph-name="cent" unicode="&#xa2;" horiz-adv-x="1326" 
d="M631.5 866.5q-60.5 -66.5 -95.5 -191.5t-35 -295q0 -140 61 -206t154 -66q79 0 143.5 32t128.5 91q7 8 11.5 11t10.5 -1l37 -33q5 -4 5 -9q0 -4 -4.5 -10t-6.5 -9q-75 -91 -162.5 -144.5t-202.5 -61.5l-22 -176q-36 -44 -73 -44q-17 0 -29.5 9.5t-12.5 18.5q0 7 8 9
l23 184q-118 12 -202 67t-127.5 147t-43.5 212q0 160 72.5 294.5t197 218t273.5 97.5l25 195q31 26 66 26q19 0 33.5 -8t14.5 -15q0 -5 -8 -5l-25 -191q145 -8 220 -65.5t75 -160.5q0 -59 -52 -92t-125 -33q-24 0 -34 1.5t-17 10.5t-13 31l-54 212q-20 16 -79 16
q-75 0 -135.5 -66.5z" />
    <glyph glyph-name="sterling" unicode="&#xa3;" horiz-adv-x="1367" 
d="M1224.5 447.5q36.5 -28.5 52.5 -72t16 -91.5q0 -105 -65 -172t-168.5 -97.5t-222.5 -30.5q-145 0 -237 21.5t-180 57.5q-36 15 -57 21.5t-41 7.5q-48 -44 -99 -71.5t-118 -27.5q-41 0 -76 20.5t-35 60.5q0 72 80.5 110.5t194.5 37.5q18 20 25 59.5t16 139.5q3 28 6 58.5
t6 63.5l19 159h-171q-9 1 -13.5 14.5t-4.5 29.5q0 21 10 39.5t23 23.5h169l7 62q33 277 179.5 427t429.5 150q96 0 162 -30t98.5 -76t32.5 -95q0 -55 -25.5 -89t-66.5 -34q-60 0 -76 26l-109 195q-17 11 -36 16t-48 5q-67 0 -111 -43.5t-75 -145.5t-56 -284l-12 -84h313
q10 -1 14.5 -8.5t4.5 -18.5q0 -19 -11.5 -47t-22.5 -33h-312l-14 -98q-23 -163 -76.5 -262.5t-151.5 -170.5q72 -28 121.5 -44t115.5 -27.5t144 -11.5q121 0 190.5 39.5t86.5 111.5l-42 165q1 7 16 25t42.5 32.5t64.5 14.5q57 0 93.5 -28.5z" />
    <glyph glyph-name="currency" unicode="&#xa4;" horiz-adv-x="1350" 
d="M993 377l177 -180l-114 -106l-170 173q-83 -53 -192 -53q-107 0 -189 52l-170 -172l-114 106l177 180q-49 84 -49 191t49 191l-177 180l114 107l171 -174q84 54 192 54q107 0 189 -52l169 172l114 -107l-176 -179q48 -85 48 -192t-49 -191zM822 405.5q44 54.5 44 162.5
t-45 163t-128 55q-82 0 -125.5 -54.5t-43.5 -163.5q0 -108 45 -162.5t127 -54.5t126 54.5z" />
    <glyph glyph-name="yen" unicode="&#xa5;" horiz-adv-x="1420" 
d="M296 10q-7 10 -7 23q0 19 12.5 33t32.5 15l30 2q73 3 117 15.5t50 53.5l21 149h-405q-9 1 -14.5 12t-5.5 25q0 20 10 42.5t22 23.5h407l31 231h-415q-9 1 -14.5 11.5t-5.5 23.5q0 20 10.5 42.5t21.5 23.5h388l-279 518q-18 37 -51 56t-61.5 24t-74.5 10q-18 2 -25 6.5
t-7 17.5q0 22 12.5 36.5t28.5 14.5h628q16 0 23 -9t5 -22q-6 -40 -39 -44q-83 -5 -124.5 -13.5t-41.5 -32.5l224 -500l453 506q0 33 -133 40q-15 2 -21.5 8.5t-6.5 18.5q1 23 13 35.5t28 12.5h425q15 0 22.5 -12.5t5.5 -25.5q-4 -22 -12 -28.5t-30 -8.5q-51 -5 -95 -23
t-87 -67l-475 -518h359q9 -1 14.5 -10.5t5.5 -20.5q0 -20 -10.5 -44.5t-21.5 -25.5h-390l-31 -231h398q9 -1 14.5 -10.5t5.5 -21.5q0 -19 -10.5 -44.5t-21.5 -26.5h-400l-21 -148q0 -40 38.5 -53t104.5 -16l37 -3q21 -2 30 -8t7 -24q-1 -17 -13 -33t-27 -16h-638
q-14 0 -21 10z" />
    <glyph glyph-name="brokenbar" unicode="&#xa6;" horiz-adv-x="785" 
d="M250 1535h145v-770h-145v770zM250 401h145v-770h-145v770z" />
    <glyph glyph-name="section" unicode="&#xa7;" horiz-adv-x="1111" 
d="M259.5 -335q-65.5 26 -101.5 69.5t-36 94.5q0 39 18.5 68.5t46.5 45t55 15.5l176 -229q77 1 122.5 50.5t45.5 127.5q0 41 -19 76.5t-48.5 67t-84.5 83.5q-82 76 -127 126q-130 144 -130 292q0 76 28 143t82.5 112.5t130.5 58.5q-43 56 -71.5 118.5t-28.5 119.5
q0 101 53.5 179.5t144.5 122t201 43.5q83 0 147.5 -26t99.5 -69.5t35 -96.5q0 -38 -18.5 -68t-46.5 -46t-55 -16l-177 231q-74 -1 -119 -52t-45 -128q0 -41 18.5 -77t48 -66.5t86.5 -84.5q11 -10 44.5 -41.5t63.5 -62.5q149 -166 149 -317q0 -75 -29.5 -142t-85 -113
t-128.5 -58q45 -58 73.5 -118.5t28.5 -116.5q0 -101 -53 -179t-144 -120.5t-202 -42.5q-83 0 -148.5 26zM697 332.5q14 29.5 17.5 58t3.5 70.5q0 98 -76 174q-44 45 -86 86q-47 44 -86 86q-30 -27 -44 -56.5t-16.5 -56.5t-2.5 -72q0 -98 74 -172l83 -83q43 -40 90 -89
q29 25 43 54.5z" />
    <glyph glyph-name="dieresis" unicode="&#xa8;" horiz-adv-x="1024" 
d="M760 1431.5q14 -23.5 14 -50.5q0 -23 -11 -48q-10 -2 -14 -2q-17 0 -19 16q-7 -43 -39.5 -72.5t-76.5 -26.5q-26 13 -40 36t-14 51q-6 3 -6 12q-7 -44 -40 -73t-77 -26q-26 13 -40 36t-14 50q0 25 12 49q10 2 14 2q17 0 19 -16q7 44 39.5 73t76.5 26q26 -13 40 -36
t14 -50q6 -6 6 -13q7 44 39.5 73t76.5 26q26 -13 40 -36.5z" />
    <glyph glyph-name="copyright" unicode="&#xa9;" horiz-adv-x="1929" 
d="M525.5 -161q-205.5 120 -325.5 325.5t-120 448.5t120 448.5t325.5 326t448.5 120.5t448.5 -120.5t326 -326t120.5 -448.5t-120.5 -448.5t-326 -325.5t-448.5 -120t-448.5 120zM1377 -90.5q185 110.5 293.5 297.5t108.5 406t-108.5 406t-293.5 298t-403 111t-402.5 -111
t-293 -298t-108.5 -406t108.5 -406t293 -297.5t402.5 -110.5t403 110.5zM666.5 247q-116.5 125 -116.5 375q0 162 61 270t167.5 160.5t243.5 52.5q76 0 156.5 -28t126.5 -98q49 -75 49 -135q0 -37 -18.5 -59t-44.5 -22q-33 0 -53.5 13t-32 31t-25.5 48q-8 15 -19 54
q-8 26 -14 41t-16 26q-17 15 -41.5 26t-52.5 11q-139 0 -221.5 -88t-82.5 -313q0 -150 42.5 -239t105 -124.5t128.5 -35.5q99 0 171 43.5t95 157.5q1 10 3.5 15.5t10.5 5.5l72 1q11 0 13.5 -6.5t2.5 -17.5q-4 -99 -55.5 -164t-132.5 -95.5t-176 -30.5q-230 0 -346.5 125z
" />
    <glyph glyph-name="ordfeminine" unicode="&#xaa;" horiz-adv-x="1095" 
d="M253 649q-56 37 -84.5 101t-28.5 146q0 154 73.5 286t204 210t293.5 78q64 0 121.5 -16t93.5 -45q72 27 105.5 38t46.5 11q9 0 14.5 -7.5t5.5 -17.5q0 -9 -18.5 -104.5t-29.5 -150.5q-75 -371 -75 -402q1 -44 25 -44q18 0 41 5.5t28 6.5t22 5q10 1 16 -12t6 -29
q0 -6 -3 -14.5t-6 -9.5q-151 -72 -262 -72q-52 0 -77 30.5t-25 74.5q0 27 14 111l4 22q-63 -104 -157.5 -171t-213.5 -67q-78 0 -134 37zM601.5 806.5q57.5 43.5 95.5 93.5t88 127l62 293q-20 32 -60.5 47.5t-86.5 15.5q-101 0 -173.5 -63.5t-109.5 -170.5t-37 -235
q0 -76 28.5 -113.5t70.5 -37.5q65 0 122.5 43.5z" />
    <glyph glyph-name="guillemotleft" unicode="&#xab;" horiz-adv-x="1230" 
d="M93 607l593 424l-28 -166l-333 -328l251 -340l-27 -137l-473 428zM625 607l593 424l-28 -166l-333 -328l251 -340l-27 -137l-473 428z" />
    <glyph glyph-name="logicalnot" unicode="&#xac;" horiz-adv-x="1399" 
d="M968 499h-807v140h960v-514h-153v374z" />
    <glyph glyph-name="uni00AD" unicode="&#xad;" horiz-adv-x="773" 
d="M128 629h553l-18 -133h-554z" />
    <glyph glyph-name="registered" unicode="&#xae;" horiz-adv-x="1929" 
d="M525.5 -161q-205.5 120 -325.5 325.5t-120 448.5t120 448.5t325.5 326t448.5 120.5t448.5 -120.5t326 -326t120.5 -448.5t-120.5 -448.5t-326 -325.5t-448.5 -120t-448.5 120zM1377 -90.5q185 110.5 293.5 297.5t108.5 406t-108.5 406t-293.5 298t-403 111t-402.5 -111
t-293 -298t-108.5 -406t108.5 -406t293 -297.5t402.5 -110.5t403 110.5zM579 146.5q-6 10.5 -6 20.5q0 12 5 22.5t16 11.5q89 6 89 42v738q0 37 -25 48.5t-68 14.5q-14 2 -18.5 6.5t-4.5 18.5q0 8 5.5 14t16.5 6h407q152 -1 242 -57t90 -185q0 -96 -65 -151t-182 -88
q60 -5 98 -34.5t59.5 -69.5t46.5 -106q16 -42 28 -69t27 -51q20 -39 44 -56.5t52 -20.5q14 -2 23.5 -11t9.5 -23q0 -9 -6.5 -20t-15.5 -11h-143q-52 0 -85.5 31t-52 75.5t-39.5 118.5q-20 69 -36.5 110t-45 69t-72.5 28h-134v-304q0 -37 30 -48.5t82 -14.5q13 -1 18.5 -10
t5.5 -24q0 -10 -6 -20.5t-16 -10.5h-358q-10 0 -16 10.5zM1097 682q64 37 64 145q0 76 -26.5 116.5t-72.5 54.5t-116 14h-107v-367h92q102 0 166 37z" />
    <glyph glyph-name="macron" unicode="&#xaf;" horiz-adv-x="1367" 
d="M86 1416h587l-23 -147h-587z" />
    <glyph glyph-name="degree" unicode="&#xb0;" horiz-adv-x="860" 
d="M152 1291.5q44 77.5 123 120.5t181 43q101 0 179 -43t120.5 -120.5t42.5 -178.5t-43.5 -179t-122.5 -121.5t-180 -43.5t-179.5 43.5t-121.5 121.5t-43 179t44 178.5zM313.5 948q51.5 -57 140.5 -57q88 0 139 57t51 165t-52.5 164t-140.5 56q-89 0 -139 -56t-50 -164
t51.5 -165z" />
    <glyph glyph-name="plusminus" unicode="&#xb1;" horiz-adv-x="1399" 
d="M235 139h372v359h-398v139h398v415h160v-415h397v-139h-397v-359h371v-139h-903v139z" />
    <glyph glyph-name="uni00B2" unicode="&#xb2;" horiz-adv-x="1095" 
d="M203 853q249 150 416 319t167 364q0 61 -29.5 104t-87.5 43q-51 0 -81.5 -14.5t-50 -41t-51.5 -84.5l-33 -58q-11 -22 -19 -34t-24 -21t-41 -9q-42 0 -73.5 20.5t-31.5 59.5q0 38 37 91q29 42 85.5 77t135 56.5t167.5 21.5q114 0 193 -31t118.5 -86.5t39.5 -128.5
q0 -113 -91.5 -226t-224.5 -201t-253 -133h509l-37 -181h-781l7 40q7 36 34 53z" />
    <glyph glyph-name="uni00B3" unicode="&#xb3;" horiz-adv-x="1095" 
d="M900.5 1245.5q68.5 -21.5 110.5 -64.5t42 -103q0 -109 -72.5 -185t-193 -113.5t-264.5 -37.5q-88 0 -165 26.5t-122.5 73t-45.5 102.5q0 41 18.5 75t49 53.5t62.5 19.5q43 0 65 -13t27 -30l-75 -177q2 -1 31.5 -33.5t136.5 -32.5q81 0 139 35t88 98t30 145
q0 60 -25.5 91.5t-68 41.5t-106.5 10h-69q-9 0 -12.5 2.5t-3.5 12.5q0 13 2 22q4 25 9 32t16 7h54q73 0 128.5 29.5t86 83.5t30.5 125q0 56 -35.5 98t-111.5 42q-42 0 -76.5 -14.5t-61.5 -56.5q-12 -22 -19.5 -38t-12.5 -26q-17 -37 -25 -51q-30 -54 -88 -54q-37 0 -64.5 25
t-27.5 59q0 6 2 22q10 59 71.5 104.5t154 70.5t192.5 25q98 0 180 -24.5t130 -70.5t48 -107q0 -76 -41 -134.5t-110 -95t-154 -47.5q78 -1 146.5 -22.5z" />
    <glyph glyph-name="acute" unicode="&#xb4;" horiz-adv-x="1024" 
d="M460 1439q64 64 84 80q21 16 49.5 26t54.5 10q46 0 68 -33q13 -20 13 -45q0 -32 -19.5 -64.5t-46.5 -53.5q-15 -12 -87 -47q-91 -46 -177 -92.5t-193 -115.5l-38 58q131 116 292 277z" />
    <glyph glyph-name="uni00B5" unicode="&#xb5;" horiz-adv-x="1308" 
d="M17 -416.5q-24 29.5 -24 78.5q0 38 22.5 131.5t67.5 266.5q34 129 51 197.5t20 100.5l68 494q0 44 -26 58t-72 18q-18 2 -25 6.5t-7 17.5q0 21 11 32.5t28 11.5h349q33 0 33 -28q0 -6 -40 -292q-53 -383 -55 -409q0 -60 29 -107t105 -47q72 0 130 39t124 108l82 592
q0 44 -26.5 58t-73.5 18q-18 2 -25 6.5t-7 17.5q0 21 11 32.5t28 11.5h350q33 0 33 -28l-29 -209q-79 -558 -79 -579q0 -35 14.5 -54t34.5 -25.5t52 -11.5q28 -5 32 -6q20 -9 20 -31q0 -15 -8.5 -28.5t-21.5 -14.5q-191 -10 -394 -10q-9 0 -16.5 10.5t-7.5 29.5l13 92
q-20 -34 -67 -71t-106 -62t-113 -25q-107 0 -177 35t-114 103v-37q0 -72 4 -202q4 -110 4 -146q0 -73 -36 -122.5t-96 -49.5q-46 0 -70 29.5z" />
    <glyph glyph-name="paragraph" unicode="&#xb6;" horiz-adv-x="1191" 
d="M69.5 -273q-6.5 14 -6.5 30q1 26 9.5 34t33.5 10q50 4 84 10.5t62 26.5t34 60l111 686q-122 41 -191 130.5t-69 213.5q0 157 74.5 269.5t199.5 170t275 53.5l557 -2q13 0 19 -9.5t6 -24.5q0 -27 -10.5 -39.5t-31.5 -14.5q-42 -4 -67 -10.5t-44.5 -26.5t-26.5 -60
l-217 -1372q-4 -50 130 -61q29 -3 29 -31q0 -21 -13.5 -39t-31.5 -18h-332l256 1589h-194l-255 -1589h-371q-13 0 -19.5 14z" />
    <glyph glyph-name="periodcentered" unicode="&#xb7;" horiz-adv-x="652" 
d="M190.5 686.5q22.5 42.5 63.5 68t93 25.5q71 0 112 -45.5t41 -115.5q0 -51 -24 -94.5t-64.5 -69t-89.5 -25.5q-73 0 -113.5 47t-40.5 119q0 48 22.5 90.5z" />
    <glyph glyph-name="cedilla" unicode="&#xb8;" horiz-adv-x="502" 
d="M-44.5 -476q-54.5 18 -87.5 39q-6 4 -6 10q0 5 3 11l29 45l13 20q5 6 9 8t11 -1q38 -14 66.5 -21.5t72.5 -7.5q53 0 90 25t37 69q0 34 -41.5 58t-122.5 23l75 217h144l-61 -136q92 -11 145 -51t53 -103q0 -61 -40 -112.5t-108 -81t-150 -29.5q-77 0 -131.5 18z" />
    <glyph glyph-name="uni00B9" unicode="&#xb9;" horiz-adv-x="1095" 
d="M228.5 773.5q-4.5 13.5 -4.5 27.5q0 13 7.5 26t22.5 14l44 4q90 6 153.5 16.5t67.5 32.5l114 672q-44 -34 -134.5 -64t-159.5 -30q-12 0 -23.5 26t-11.5 51q0 22 9 38t31 17q42 2 118 14t156 38.5t124 68.5h164l-137 -823q-8 -48 246 -61q22 -1 22 -25q0 -4 -2 -16
q-2 -13 -9 -26.5t-18 -13.5h-765q-10 0 -14.5 13.5z" />
    <glyph glyph-name="ordmasculine" unicode="&#xba;" horiz-adv-x="1095" 
d="M320 661.5q-94 49.5 -142 135t-48 191.5q0 128 64.5 238.5t185 177t279.5 66.5q132 0 225.5 -47.5t141 -130t47.5 -187.5q0 -129 -63 -242t-182.5 -182t-281.5 -69q-132 0 -226 49.5zM713.5 770.5q57.5 72.5 80 174.5t22.5 201q0 114 -44 175.5t-131 61.5q-98 0 -155 -70
t-79 -169t-22 -199q0 -118 43.5 -182.5t130.5 -64.5q97 0 154.5 72.5z" />
    <glyph glyph-name="guillemotright" unicode="&#xbb;" horiz-adv-x="1230" 
d="M25 20l28 166l333 328l-251 340l27 137l473 -428l-17 -119zM557 20l28 166l333 328l-251 340l27 137l473 -428l-17 -119z" />
    <glyph glyph-name="onequarter" unicode="&#xbc;" horiz-adv-x="2417" 
d="M189.5 515.5q-4.5 13.5 -4.5 27.5q0 13 7.5 26t22.5 14l44 4q90 6 153.5 16.5t67.5 32.5l114 672q-44 -34 -134.5 -64t-159.5 -30q-12 0 -23.5 26t-11.5 51q0 22 9 38t31 17q42 2 118 14t156 38.5t124 68.5h164l-137 -823q-8 -48 246 -61q22 -1 22 -25q0 -4 -2 -16
q-2 -13 -9 -26.5t-18 -13.5h-765q-10 0 -14.5 13.5zM788 0l763 1419h147l-765 -1419h-145zM1389 184q-6 0 -8 14.5t-1 32.5q2 19 13 36l365 683q16 18 39 25.5t46 7.5q41 0 81.5 -21t65 -50t20.5 -50l-452 -571h337l52 269l213 11l-42 -280h182l-19 -107h-179l-27 -191h-227
l29 191h-488z" />
    <glyph glyph-name="onehalf" unicode="&#xbd;" horiz-adv-x="2417" 
d="M189.5 515.5q-4.5 13.5 -4.5 27.5q0 13 7.5 26t22.5 14l44 4q90 6 153.5 16.5t67.5 32.5l114 672q-44 -34 -134.5 -64t-159.5 -30q-12 0 -23.5 26t-11.5 51q0 22 9 38t31 17q42 2 118 14t156 38.5t124 68.5h164l-137 -823q-8 -48 246 -61q22 -1 22 -25q0 -4 -2 -16
q-2 -13 -9 -26.5t-18 -13.5h-765q-10 0 -14.5 13.5zM788 0l763 1419h147l-765 -1419h-145zM1411 93q249 150 416 319t167 364q0 61 -29.5 104t-87.5 43q-51 0 -81.5 -14.5t-50 -41t-51.5 -84.5l-33 -58q-11 -22 -19 -34t-24 -21t-41 -9q-42 0 -73.5 20.5t-31.5 59.5
q0 38 37 91q29 42 85.5 77t135 56.5t167.5 21.5q114 0 193 -31t118.5 -86.5t39.5 -128.5q0 -113 -91.5 -226t-224.5 -201t-253 -133h509l-37 -181h-781l7 40q7 36 34 53z" />
    <glyph glyph-name="threequarters" unicode="&#xbe;" horiz-adv-x="2417" 
d="M861.5 987.5q68.5 -21.5 110.5 -64.5t42 -103q0 -109 -72.5 -185t-193 -113.5t-264.5 -37.5q-88 0 -165 26.5t-122.5 73t-45.5 102.5q0 41 18.5 75t49 53.5t62.5 19.5q43 0 65 -13t27 -30l-75 -177q2 -1 31.5 -33.5t136.5 -32.5q81 0 139 35t88 98t30 145
q0 60 -25.5 91.5t-68 41.5t-106.5 10h-69q-9 0 -12.5 2.5t-3.5 12.5q0 13 2 22q4 25 9 32t16 7h54q73 0 128.5 29.5t86 83.5t30.5 125q0 56 -35.5 98t-111.5 42q-42 0 -76.5 -14.5t-61.5 -56.5q-12 -22 -19.5 -38t-12.5 -26q-17 -37 -25 -51q-30 -54 -88 -54q-37 0 -64.5 25
t-27.5 59q0 6 2 22q10 59 71.5 104.5t154 70.5t192.5 25q98 0 180 -24.5t130 -70.5t48 -107q0 -76 -41 -134.5t-110 -95t-154 -47.5q78 -1 146.5 -22.5zM788 0l763 1419h147l-765 -1419h-145zM1389 184q-6 0 -8 14.5t-1 32.5q2 19 13 36l365 683q16 18 39 25.5t46 7.5
q41 0 81.5 -21t65 -50t20.5 -50l-452 -571h337l52 269l213 11l-42 -280h182l-19 -107h-179l-27 -191h-227l29 191h-488z" />
    <glyph glyph-name="questiondown" unicode="&#xbf;" horiz-adv-x="1075" 
d="M835 1277q-24 -43 -66 -70t-93 -27q-71 0 -113 44t-42 112q0 50 25 94t68 71t92 27q70 0 111.5 -47t41.5 -116q0 -45 -24 -88zM678.5 832q-30.5 -63 -67 -103.5t-95.5 -91.5q-51 -44 -81.5 -76.5t-55.5 -79t-36 -108.5q-9 -59 -9 -112q0 -86 40.5 -141t140.5 -55
q61 0 107 22t72 53l71 289q7 25 38.5 42t71.5 17q64 0 100.5 -36.5t36.5 -105.5q0 -105 -76.5 -188.5t-194.5 -130.5t-236 -47q-159 0 -259 43.5t-144 114.5t-44 157q0 73 21 134q20 62 59 112t84 87t117 88q70 49 111.5 83t72.5 78t38 98l14 85h159l-12 -77
q-13 -88 -43.5 -151z" />
    <glyph glyph-name="Agrave" unicode="&#xc0;" horiz-adv-x="1493" 
d="M1473 79.5q9 -7.5 9 -27.5q-1 -18 -12.5 -35t-26.5 -17h-579q-15 0 -22.5 16.5t-7.5 32.5q0 36 36 39l48 3q48 2 65.5 7t17.5 24q0 5 -3 17l-58 292h-556l-140 -253q-5 -8 -9 -21t-4 -20q0 -22 36.5 -32.5t110.5 -17.5q22 -2 29 -10t7 -25q0 -19 -9 -35.5t-26 -16.5h-464
q-14 0 -20.5 13.5t-6.5 29.5q0 25 9.5 33.5t27.5 11.5q51 9 80 16.5t55.5 25t43.5 49.5l724 1268h186l295 -1269q24 -86 132 -90q23 -1 32 -8.5zM434 521h488l-129 647zM967 1664q-69 52 -141 101q-53 37 -60 44q-11 12 -17.5 29t-6.5 36q0 26 10.5 52t33.5 46q37 33 83 33
q27 0 50.5 -10t37.5 -26q11 -13 51 -85q87 -162 173 -287l-65 -58q-80 73 -149 125z" />
    <glyph glyph-name="Aacute" unicode="&#xc1;" horiz-adv-x="1493" 
d="M1473 79.5q9 -7.5 9 -27.5q-1 -18 -12.5 -35t-26.5 -17h-579q-15 0 -22.5 16.5t-7.5 32.5q0 36 36 39l48 3q48 2 65.5 7t17.5 24q0 5 -3 17l-58 292h-556l-140 -253q-5 -8 -9 -21t-4 -20q0 -22 36.5 -32.5t110.5 -17.5q22 -2 29 -10t7 -25q0 -19 -9 -35.5t-26 -16.5h-464
q-14 0 -20.5 13.5t-6.5 29.5q0 25 9.5 33.5t27.5 11.5q51 9 80 16.5t55.5 25t43.5 49.5l724 1268h186l295 -1269q24 -86 132 -90q23 -1 32 -8.5zM434 521h488l-129 647zM999 1882q62 73 78 87q19 16 45 26t53 10q47 0 73 -33q20 -26 20 -61q0 -29 -14 -57t-34 -45
q-21 -16 -83 -50q-90 -52 -171 -101.5t-178 -118.5l-47 58q128 130 258 285z" />
    <glyph glyph-name="Acircumflex" unicode="&#xc2;" horiz-adv-x="1493" 
d="M1473 79.5q9 -7.5 9 -27.5q-1 -18 -12.5 -35t-26.5 -17h-579q-15 0 -22.5 16.5t-7.5 32.5q0 36 36 39l48 3q48 2 65.5 7t17.5 24q0 5 -3 17l-58 292h-556l-140 -253q-5 -8 -9 -21t-4 -20q0 -22 36.5 -32.5t110.5 -17.5q22 -2 29 -10t7 -25q0 -19 -9 -35.5t-26 -16.5h-464
q-14 0 -20.5 13.5t-6.5 29.5q0 25 9.5 33.5t27.5 11.5q51 9 80 16.5t55.5 25t43.5 49.5l724 1268h186l295 -1269q24 -86 132 -90q23 -1 32 -8.5zM434 521h488l-129 647zM921.5 1943.5q28.5 13.5 71.5 13.5t68 -16t39 -44l193 -339h-133l-196 208l-253 -208h-138l298 348
q22 24 50.5 37.5z" />
    <glyph glyph-name="Atilde" unicode="&#xc3;" horiz-adv-x="1493" 
d="M1473 79.5q9 -7.5 9 -27.5q-1 -18 -12.5 -35t-26.5 -17h-579q-15 0 -22.5 16.5t-7.5 32.5q0 36 36 39l48 3q48 2 65.5 7t17.5 24q0 5 -3 17l-58 292h-556l-140 -253q-5 -8 -9 -21t-4 -20q0 -22 36.5 -32.5t110.5 -17.5q22 -2 29 -10t7 -25q0 -19 -9 -35.5t-26 -16.5h-464
q-14 0 -20.5 13.5t-6.5 29.5q0 25 9.5 33.5t27.5 11.5q51 9 80 16.5t55.5 25t43.5 49.5l724 1268h186l295 -1269q24 -86 132 -90q23 -1 32 -8.5zM434 521h488l-129 647zM1014 1579q-39 18 -92 53q-46 31 -78.5 46.5t-66.5 15.5q-36 0 -57.5 -16t-43.5 -44q-12 -16 -21 -24.5
t-20 -8.5q-18 0 -35.5 21.5t-17.5 45.5q0 36 31.5 83.5t85 81.5t116.5 34q41 0 77 -17.5t88 -51.5q47 -33 80 -49t69 -16q37 0 59 16t46 45q15 18 22.5 25t18.5 7q18 0 36 -22t18 -46q0 -36 -32.5 -83t-86 -80.5t-113.5 -33.5q-44 0 -83 18z" />
    <glyph glyph-name="Adieresis" unicode="&#xc4;" horiz-adv-x="1493" 
d="M1473 79.5q9 -7.5 9 -27.5q-1 -18 -12.5 -35t-26.5 -17h-579q-15 0 -22.5 16.5t-7.5 32.5q0 36 36 39l48 3q48 2 65.5 7t17.5 24q0 5 -3 17l-58 292h-556l-140 -253q-5 -8 -9 -21t-4 -20q0 -22 36.5 -32.5t110.5 -17.5q22 -2 29 -10t7 -25q0 -19 -9 -35.5t-26 -16.5h-464
q-14 0 -20.5 13.5t-6.5 29.5q0 25 9.5 33.5t27.5 11.5q51 9 80 16.5t55.5 25t43.5 49.5l724 1268h186l295 -1269q24 -86 132 -90q23 -1 32 -8.5zM434 521h488l-129 647zM605.5 1583.5q-33.5 37.5 -33.5 96.5q0 51 23 97.5t63.5 74.5t89.5 28q60 0 94 -38t34 -97
q0 -51 -23 -97t-64 -74t-91 -28q-59 0 -92.5 37.5zM1064.5 1583q-33.5 37 -33.5 97q0 51 23 97.5t64 74.5t90 28q59 0 93 -38t34 -97q0 -51 -23 -97t-64 -74t-90 -28q-60 0 -93.5 37z" />
    <glyph glyph-name="Aring" unicode="&#xc5;" horiz-adv-x="1493" 
d="M1473 79.5q9 -7.5 9 -27.5q-1 -18 -12.5 -35t-26.5 -17h-579q-15 0 -22.5 16.5t-7.5 32.5q0 36 36 39l48 3q48 2 65.5 7t17.5 24q0 5 -3 17l-58 292h-556l-140 -253q-5 -8 -9 -21t-4 -20q0 -22 36.5 -32.5t110.5 -17.5q22 -2 29 -10t7 -25q0 -19 -9 -35.5t-26 -16.5h-464
q-14 0 -20.5 13.5t-6.5 29.5q0 25 9.5 33.5t27.5 11.5q51 9 80 16.5t55.5 25t43.5 49.5l721 1263q-79 22 -126 79t-47 140q0 92 47 164.5t126 113.5t172 41q75 0 134.5 -29t93.5 -82t34 -123q0 -74 -31.5 -136.5t-87 -105t-125.5 -61.5l294 -1265q24 -86 132 -90
q23 -1 32 -8.5zM850.5 1799q-43.5 -49 -43.5 -125q0 -51 31 -81.5t97 -30.5q83 0 127.5 49t44.5 123q0 52 -31.5 83t-98.5 31q-83 0 -126.5 -49zM434 521h488l-129 647z" />
    <glyph glyph-name="AE" unicode="&#xc6;" horiz-adv-x="2130" 
d="M-141 16q-5 16 -5 35q1 19 10 27t27 10q51 3 99.5 28.5t79.5 71.5l771 1136l-278 7q-19 0 -29 9.5t-10 27.5t11.5 34.5t27.5 16.5l1532 -1l-20 -317q-2 -15 -20.5 -24.5t-33.5 -9.5q-27 0 -36 9.5t-9 34.5q0 40 -15 91t-52 90.5t-99 39.5l-399 -1l-84 -555h270
q24 2 48.5 34t42.5 72t25 66q5 18 25.5 25.5t45.5 7.5q14 0 27 -9t10 -25l-63 -443q-2 -16 -17 -25t-29 -9q-25 0 -43.5 7.5t-18.5 23.5q0 29 -6 72t-22 77t-42 34h-266l-76 -510q0 -73 93 -73h361q97 0 164.5 84.5t104.5 187.5q5 17 25.5 25t40.5 8t33 -9t11 -25l-73 -371
l-1205 -1q-15 0 -22.5 15.5t-7.5 31.5q0 19 8.5 29.5t28.5 11.5q122 10 133 64l40 299h-586l-166 -262q-10 -14 -10 -31q0 -32 36.5 -50.5t113.5 -19.5q18 -2 23.5 -10.5t4.5 -26.5q0 -16 -12.5 -33.5t-28.5 -17.5h-470q-14 0 -19 16zM985 537l120 787h-150l-518 -787h548z
" />
    <glyph glyph-name="Ccedilla" unicode="&#xc7;" horiz-adv-x="1415" 
d="M1245 1423.5q101 -25.5 176 -62.5l-34 -303q-1 -20 -28.5 -30.5t-47.5 -10.5q-53 0 -55 49q1 147 -70.5 217t-223.5 70q-124 0 -241 -78.5t-193 -242t-76 -403.5q0 -170 41.5 -298t116 -197t171.5 -69q116 0 185 33.5t111.5 96t89.5 177.5q8 19 19 26.5t31 7.5
q19 0 48.5 -8.5t28.5 -22.5l-36 -274q-4 -15 -67.5 -43.5t-160 -53t-200.5 -30.5l-42 -98q100 -16 149 -55.5t49 -106.5q0 -60 -40 -110.5t-108.5 -80.5t-149.5 -30q-78 0 -133 18t-86 39q-6 4 -6 10q0 5 3 10l27 47l15 27q5 7 9 9t11 -1q34 -14 64.5 -21.5t74.5 -7.5
q50 0 85 24.5t35 66.5q0 21 -17 40.5t-52 31t-88 10.5l60 180q-186 16 -313.5 101t-191.5 225t-64 320q0 245 119 433.5t315.5 291t421.5 102.5q167 0 268 -25.5z" />
    <glyph glyph-name="Egrave" unicode="&#xc8;" horiz-adv-x="1431" 
d="M1349.5 397.5q14.5 -8.5 13.5 -25.5l-78 -372h-1242q-14 0 -21 14t-7 29q0 21 8.5 32t29.5 13q66 5 117 20t54 44l161 1091q1 36 -25 54.5t-57 24t-80 9.5q-18 2 -24.5 6t-6.5 16q0 23 13 44.5t30 21.5h1145l-21 -318q-2 -16 -19 -25t-32 -9q-19 0 -33 8.5t-14 27.5
q0 36 -13.5 89t-49.5 96t-100 43h-403l-78 -555h278q24 3 49 35t44 72t26 65q5 18 25 25.5t44 7.5q14 0 27.5 -9t10.5 -25l-64 -443q-3 -16 -18 -25t-29 -9q-24 0 -42 7.5t-18 23.5q0 28 -6.5 71t-23 77.5t-42.5 34.5h-274l-72 -509q0 -38 21.5 -54.5t56.5 -20.5h369
q74 0 133 54t93.5 115.5t49.5 103.5q6 17 21.5 25t33.5 8q25 0 39.5 -8.5zM911 1664q-69 52 -141 101q-53 37 -60 44q-11 12 -17.5 29t-6.5 36q0 26 10.5 52t33.5 46q37 33 83 33q27 0 50.5 -10t37.5 -26q11 -13 51 -85q87 -162 173 -287l-65 -58q-80 73 -149 125z" />
    <glyph glyph-name="Eacute" unicode="&#xc9;" horiz-adv-x="1431" 
d="M1349.5 397.5q14.5 -8.5 13.5 -25.5l-78 -372h-1242q-14 0 -21 14t-7 29q0 21 8.5 32t29.5 13q66 5 117 20t54 44l161 1091q1 36 -25 54.5t-57 24t-80 9.5q-18 2 -24.5 6t-6.5 16q0 23 13 44.5t30 21.5h1145l-21 -318q-2 -16 -19 -25t-32 -9q-19 0 -33 8.5t-14 27.5
q0 36 -13.5 89t-49.5 96t-100 43h-403l-78 -555h278q24 3 49 35t44 72t26 65q5 18 25 25.5t44 7.5q14 0 27.5 -9t10.5 -25l-64 -443q-3 -16 -18 -25t-29 -9q-24 0 -42 7.5t-18 23.5q0 28 -6.5 71t-23 77.5t-42.5 34.5h-274l-72 -509q0 -38 21.5 -54.5t56.5 -20.5h369
q74 0 133 54t93.5 115.5t49.5 103.5q6 17 21.5 25t33.5 8q25 0 39.5 -8.5zM943 1882q62 73 78 87q19 16 45 26t53 10q47 0 73 -33q20 -26 20 -61q0 -29 -14 -57t-34 -45q-21 -16 -83 -50q-90 -52 -171 -101.5t-178 -118.5l-47 58q128 130 258 285z" />
    <glyph glyph-name="Ecircumflex" unicode="&#xca;" horiz-adv-x="1431" 
d="M1349.5 397.5q14.5 -8.5 13.5 -25.5l-78 -372h-1242q-14 0 -21 14t-7 29q0 21 8.5 32t29.5 13q66 5 117 20t54 44l161 1091q1 36 -25 54.5t-57 24t-80 9.5q-18 2 -24.5 6t-6.5 16q0 23 13 44.5t30 21.5h1145l-21 -318q-2 -16 -19 -25t-32 -9q-19 0 -33 8.5t-14 27.5
q0 36 -13.5 89t-49.5 96t-100 43h-403l-78 -555h278q24 3 49 35t44 72t26 65q5 18 25 25.5t44 7.5q14 0 27.5 -9t10.5 -25l-64 -443q-3 -16 -18 -25t-29 -9q-24 0 -42 7.5t-18 23.5q0 28 -6.5 71t-23 77.5t-42.5 34.5h-274l-72 -509q0 -38 21.5 -54.5t56.5 -20.5h369
q74 0 133 54t93.5 115.5t49.5 103.5q6 17 21.5 25t33.5 8q25 0 39.5 -8.5zM865.5 1943.5q28.5 13.5 71.5 13.5t68 -16t39 -44l193 -339h-133l-196 208l-253 -208h-138l298 348q22 24 50.5 37.5z" />
    <glyph glyph-name="Edieresis" unicode="&#xcb;" horiz-adv-x="1431" 
d="M1349.5 397.5q14.5 -8.5 13.5 -25.5l-78 -372h-1242q-14 0 -21 14t-7 29q0 21 8.5 32t29.5 13q66 5 117 20t54 44l161 1091q1 36 -25 54.5t-57 24t-80 9.5q-18 2 -24.5 6t-6.5 16q0 23 13 44.5t30 21.5h1145l-21 -318q-2 -16 -19 -25t-32 -9q-19 0 -33 8.5t-14 27.5
q0 36 -13.5 89t-49.5 96t-100 43h-403l-78 -555h278q24 3 49 35t44 72t26 65q5 18 25 25.5t44 7.5q14 0 27.5 -9t10.5 -25l-64 -443q-3 -16 -18 -25t-29 -9q-24 0 -42 7.5t-18 23.5q0 28 -6.5 71t-23 77.5t-42.5 34.5h-274l-72 -509q0 -38 21.5 -54.5t56.5 -20.5h369
q74 0 133 54t93.5 115.5t49.5 103.5q6 17 21.5 25t33.5 8q25 0 39.5 -8.5zM549.5 1583.5q-33.5 37.5 -33.5 96.5q0 51 23 97.5t63.5 74.5t89.5 28q60 0 94 -38t34 -97q0 -51 -23 -97t-64 -74t-91 -28q-59 0 -92.5 37.5zM1008.5 1583q-33.5 37 -33.5 97q0 51 23 97.5t64 74.5
t90 28q59 0 93 -38t34 -97q0 -51 -23 -97t-64 -74t-90 -28q-60 0 -93.5 37z" />
    <glyph glyph-name="Igrave" unicode="&#xcc;" horiz-adv-x="881" 
d="M49.5 75q8.5 12 29.5 13q60 4 106 19t51 45l162 1082q2 12 2 17q0 32 -22.5 48.5t-50.5 22t-72 9.5q-18 2 -24.5 6t-6.5 15l2 16q1 14 14.5 32.5t29.5 18.5h598q14 0 19.5 -13.5t5.5 -30.5q-2 -41 -41 -44q-145 -11 -153 -64l-160 -1082q-2 -14 -2 -17q0 -32 22.5 -48.5
t48.5 -21.5t75 -10q17 -2 24 -6t7 -17q0 -2 -2 -14q-2 -15 -14.5 -33t-27.5 -18h-605q-13 0 -18.5 13t-5.5 29q0 21 8.5 33zM619 1664q-69 52 -141 101q-53 37 -60 44q-11 12 -17.5 29t-6.5 36q0 26 10.5 52t33.5 46q37 33 83 33q27 0 50.5 -10t37.5 -26q11 -13 51 -85
q87 -162 173 -287l-65 -58q-80 73 -149 125z" />
    <glyph glyph-name="Iacute" unicode="&#xcd;" horiz-adv-x="881" 
d="M49.5 75q8.5 12 29.5 13q60 4 106 19t51 45l162 1082q2 12 2 17q0 32 -22.5 48.5t-50.5 22t-72 9.5q-18 2 -24.5 6t-6.5 15l2 16q1 14 14.5 32.5t29.5 18.5h598q14 0 19.5 -13.5t5.5 -30.5q-2 -41 -41 -44q-145 -11 -153 -64l-160 -1082q-2 -14 -2 -17q0 -32 22.5 -48.5
t48.5 -21.5t75 -10q17 -2 24 -6t7 -17q0 -2 -2 -14q-2 -15 -14.5 -33t-27.5 -18h-605q-13 0 -18.5 13t-5.5 29q0 21 8.5 33zM651 1882q62 73 78 87q19 16 45 26t53 10q47 0 73 -33q20 -26 20 -61q0 -29 -14 -57t-34 -45q-21 -16 -83 -50q-90 -52 -171 -101.5t-178 -118.5
l-47 58q128 130 258 285z" />
    <glyph glyph-name="Icircumflex" unicode="&#xce;" horiz-adv-x="881" 
d="M49.5 75q8.5 12 29.5 13q60 4 106 19t51 45l162 1082q2 12 2 17q0 32 -22.5 48.5t-50.5 22t-72 9.5q-18 2 -24.5 6t-6.5 15l2 16q1 14 14.5 32.5t29.5 18.5h598q14 0 19.5 -13.5t5.5 -30.5q-2 -41 -41 -44q-145 -11 -153 -64l-160 -1082q-2 -14 -2 -17q0 -32 22.5 -48.5
t48.5 -21.5t75 -10q17 -2 24 -6t7 -17q0 -2 -2 -14q-2 -15 -14.5 -33t-27.5 -18h-605q-13 0 -18.5 13t-5.5 29q0 21 8.5 33zM573.5 1943.5q28.5 13.5 71.5 13.5t68 -16t39 -44l193 -339h-133l-196 208l-253 -208h-138l298 348q22 24 50.5 37.5z" />
    <glyph glyph-name="Idieresis" unicode="&#xcf;" horiz-adv-x="881" 
d="M49.5 75q8.5 12 29.5 13q60 4 106 19t51 45l162 1082q2 12 2 17q0 32 -22.5 48.5t-50.5 22t-72 9.5q-18 2 -24.5 6t-6.5 15l2 16q1 14 14.5 32.5t29.5 18.5h598q14 0 19.5 -13.5t5.5 -30.5q-2 -41 -41 -44q-145 -11 -153 -64l-160 -1082q-2 -14 -2 -17q0 -32 22.5 -48.5
t48.5 -21.5t75 -10q17 -2 24 -6t7 -17q0 -2 -2 -14q-2 -15 -14.5 -33t-27.5 -18h-605q-13 0 -18.5 13t-5.5 29q0 21 8.5 33zM257.5 1583.5q-33.5 37.5 -33.5 96.5q0 51 23 97.5t63.5 74.5t89.5 28q60 0 94 -38t34 -97q0 -51 -23 -97t-64 -74t-91 -28q-59 0 -92.5 37.5z
M716.5 1583q-33.5 37 -33.5 97q0 51 23 97.5t64 74.5t90 28q59 0 93 -38t34 -97q0 -51 -23 -97t-64 -74t-90 -28q-60 0 -93.5 37z" />
    <glyph glyph-name="Eth" unicode="&#xd0;" horiz-adv-x="1650" 
d="M1279.5 1340q158.5 -79 227.5 -205t69 -276q0 -260 -112 -455t-308.5 -299.5t-443.5 -104.5h-660q-15 0 -22.5 18.5t-4.5 32.5q1 17 9.5 26t27.5 11q63 5 110 19.5t50 44.5l82 542h-156q-11 1 -17.5 11t-6.5 23q0 20 7 39.5t17 23.5h171l69 454q1 35 -21.5 53t-51 23.5
t-73.5 9.5q-17 2 -23.5 6t-6.5 16q0 9 1 15q0 14 12.5 32.5t28.5 18.5h615q252 0 410.5 -79zM985 178q127 84 199 259.5t72 440.5q0 170 -55 269.5t-156.5 141.5t-251.5 42h-92l-81 -540h354q11 -1 17.5 -11t6.5 -23q0 -20 -7 -39.5t-17 -23.5h-368l-83 -553q3 -18 11.5 -27
t43.5 -14.5t112 -5.5q168 0 295 84z" />
    <glyph glyph-name="Ntilde" unicode="&#xd1;" horiz-adv-x="1656" 
d="M-17.5 12q-6.5 12 -6.5 24q0 24 7.5 36.5t31.5 15.5q188 15 199 84l165 1032q1 6 1 16q0 50 -49 78t-104 33q-19 2 -27 7t-8 17q0 19 14 41.5t31 22.5h445l593 -1126h12l138 941q1 4 1 12q0 34 -33.5 52t-67 23t-93.5 10q-23 2 -32 9t-7 23q2 17 15 36.5t29 19.5h505
q14 0 20 -12.5t6 -28.5q0 -20 -10.5 -32.5t-30.5 -14.5q-9 -1 -63 -6.5t-93 -28t-45 -62.5l-171 -1121q-2 -16 -2 -22v-16.5t-4 -34.5q-16 -70 -136 -70q-21 0 -60 7t-44 15l-619 1187h-17l-155 -1009q-3 -42 47.5 -57.5t129.5 -22.5l21 -2q31 -3 31 -28q0 -24 -12.5 -42
t-29.5 -18h-503q-13 0 -19.5 12zM1087 1579q-39 18 -92 53q-46 31 -78.5 46.5t-66.5 15.5q-36 0 -57.5 -16t-43.5 -44q-12 -16 -21 -24.5t-20 -8.5q-18 0 -35.5 21.5t-17.5 45.5q0 36 31.5 83.5t85 81.5t116.5 34q41 0 77 -17.5t88 -51.5q47 -33 80 -49t69 -16q37 0 59 16
t46 45q15 18 22.5 25t18.5 7q18 0 36 -22t18 -46q0 -36 -32.5 -83t-86 -80.5t-113.5 -33.5q-44 0 -83 18z" />
    <glyph glyph-name="Ograve" unicode="&#xd2;" horiz-adv-x="1618" 
d="M401 52.5q-142 81.5 -213 224t-71 325.5q0 225 100 419.5t284 311t425 116.5q211 0 355 -79t215 -218t71 -321q0 -225 -100.5 -422.5t-286.5 -317.5t-430 -120q-207 0 -349 81.5zM1046.5 185q105.5 120 149.5 308t44 409q0 150 -29 249t-98 152t-188 53
q-177 0 -284.5 -120t-152.5 -307.5t-45 -408.5q0 -226 73.5 -340.5t251.5 -114.5q173 0 278.5 120zM984 1664q-69 52 -141 101q-53 37 -60 44q-11 12 -17.5 29t-6.5 36q0 26 10.5 52t33.5 46q37 33 83 33q27 0 50.5 -10t37.5 -26q11 -13 51 -85q87 -162 173 -287l-65 -58
q-80 73 -149 125z" />
    <glyph glyph-name="Oacute" unicode="&#xd3;" horiz-adv-x="1618" 
d="M401 52.5q-142 81.5 -213 224t-71 325.5q0 225 100 419.5t284 311t425 116.5q211 0 355 -79t215 -218t71 -321q0 -225 -100.5 -422.5t-286.5 -317.5t-430 -120q-207 0 -349 81.5zM1046.5 185q105.5 120 149.5 308t44 409q0 150 -29 249t-98 152t-188 53
q-177 0 -284.5 -120t-152.5 -307.5t-45 -408.5q0 -226 73.5 -340.5t251.5 -114.5q173 0 278.5 120zM1016 1882q62 73 78 87q19 16 45 26t53 10q47 0 73 -33q20 -26 20 -61q0 -29 -14 -57t-34 -45q-21 -16 -83 -50q-90 -52 -171 -101.5t-178 -118.5l-47 58q128 130 258 285z
" />
    <glyph glyph-name="Ocircumflex" unicode="&#xd4;" horiz-adv-x="1618" 
d="M401 52.5q-142 81.5 -213 224t-71 325.5q0 225 100 419.5t284 311t425 116.5q211 0 355 -79t215 -218t71 -321q0 -225 -100.5 -422.5t-286.5 -317.5t-430 -120q-207 0 -349 81.5zM1046.5 185q105.5 120 149.5 308t44 409q0 150 -29 249t-98 152t-188 53
q-177 0 -284.5 -120t-152.5 -307.5t-45 -408.5q0 -226 73.5 -340.5t251.5 -114.5q173 0 278.5 120zM938.5 1943.5q28.5 13.5 71.5 13.5t68 -16t39 -44l193 -339h-133l-196 208l-253 -208h-138l298 348q22 24 50.5 37.5z" />
    <glyph glyph-name="Otilde" unicode="&#xd5;" horiz-adv-x="1618" 
d="M401 52.5q-142 81.5 -213 224t-71 325.5q0 225 100 419.5t284 311t425 116.5q211 0 355 -79t215 -218t71 -321q0 -225 -100.5 -422.5t-286.5 -317.5t-430 -120q-207 0 -349 81.5zM1046.5 185q105.5 120 149.5 308t44 409q0 150 -29 249t-98 152t-188 53
q-177 0 -284.5 -120t-152.5 -307.5t-45 -408.5q0 -226 73.5 -340.5t251.5 -114.5q173 0 278.5 120zM1032 1579q-39 18 -92 53q-46 31 -78.5 46.5t-66.5 15.5q-36 0 -57.5 -16t-43.5 -44q-12 -16 -21 -24.5t-20 -8.5q-18 0 -35.5 21.5t-17.5 45.5q0 36 31.5 83.5t85 81.5
t116.5 34q41 0 77 -17.5t88 -51.5q47 -33 80 -49t69 -16q37 0 59 16t46 45q15 18 22.5 25t18.5 7q18 0 36 -22t18 -46q0 -36 -32.5 -83t-86 -80.5t-113.5 -33.5q-44 0 -83 18z" />
    <glyph glyph-name="Odieresis" unicode="&#xd6;" horiz-adv-x="1618" 
d="M401 52.5q-142 81.5 -213 224t-71 325.5q0 225 100 419.5t284 311t425 116.5q211 0 355 -79t215 -218t71 -321q0 -225 -100.5 -422.5t-286.5 -317.5t-430 -120q-207 0 -349 81.5zM1046.5 185q105.5 120 149.5 308t44 409q0 150 -29 249t-98 152t-188 53
q-177 0 -284.5 -120t-152.5 -307.5t-45 -408.5q0 -226 73.5 -340.5t251.5 -114.5q173 0 278.5 120zM622.5 1583.5q-33.5 37.5 -33.5 96.5q0 51 23 97.5t63.5 74.5t89.5 28q60 0 94 -38t34 -97q0 -51 -23 -97t-64 -74t-91 -28q-59 0 -92.5 37.5zM1081.5 1583
q-33.5 37 -33.5 97q0 51 23 97.5t64 74.5t90 28q59 0 93 -38t34 -97q0 -51 -23 -97t-64 -74t-90 -28q-60 0 -93.5 37z" />
    <glyph glyph-name="multiply" unicode="&#xd7;" horiz-adv-x="1399" 
d="M824 569l353 -366l-99 -101l-355 367l-360 -367l-99 101l359 363l-359 365l99 103l361 -369l354 369l99 -103z" />
    <glyph glyph-name="Oslash" unicode="&#xd8;" horiz-adv-x="1627" 
d="M1509.5 1135q62.5 -133 62.5 -304q0 -225 -100.5 -422.5t-286.5 -317.5t-430 -120q-190 0 -329 71l-103 -136q-6 -7 -17 -7q-25 0 -46 19.5t-19 37.5l102 138q-109 83 -165 214.5t-56 293.5q0 225 100 419.5t284 311t425 116.5q172 0 306 -55l97 136q6 9 20 9
q13 0 28.5 -10.5t25.5 -25t9 -23.5l-94 -132q124 -80 186.5 -213zM645.5 1236q-107.5 -120 -152.5 -307.5t-45 -408.5q0 -158 32 -255l671 1008q-75 83 -221 83q-177 0 -284.5 -120zM1051.5 185q105.5 120 149.5 308t44 409q0 179 -40 280l-675 -1014q78 -103 243 -103
q173 0 278.5 120z" />
    <glyph glyph-name="Ugrave" unicode="&#xd9;" horiz-adv-x="1654" 
d="M394 80q-147 109 -147 322q0 79 9 136l102 726q1 33 -26.5 45t-78.5 18q-32 4 -48 9t-16 16q0 26 11 46.5t32 20.5h618q13 0 19.5 -15t6.5 -32q0 -18 -10 -29t-29 -12q-77 -2 -123.5 -17.5t-50.5 -46.5l-104 -717q-14 -106 -13 -175q4 -158 80 -234t219 -76
q153 0 248.5 67t144 175t73.5 252l102 695q1 39 -37.5 57t-119.5 20q-17 1 -24 5t-7 16q0 23 13 45t30 22h436q13 0 19 -14.5t6 -31.5q0 -19 -9.5 -30t-28.5 -12q-80 -3 -126.5 -28.5t-53.5 -72.5l-104 -692q-41 -292 -187.5 -429.5t-404.5 -137.5q-274 0 -421 109z
M1080 1664q-69 52 -141 101q-53 37 -60 44q-11 12 -17.5 29t-6.5 36q0 26 10.5 52t33.5 46q37 33 83 33q27 0 50.5 -10t37.5 -26q11 -13 51 -85q87 -162 173 -287l-65 -58q-80 73 -149 125z" />
    <glyph glyph-name="Uacute" unicode="&#xda;" horiz-adv-x="1654" 
d="M394 80q-147 109 -147 322q0 79 9 136l102 726q1 33 -26.5 45t-78.5 18q-32 4 -48 9t-16 16q0 26 11 46.5t32 20.5h618q13 0 19.5 -15t6.5 -32q0 -18 -10 -29t-29 -12q-77 -2 -123.5 -17.5t-50.5 -46.5l-104 -717q-14 -106 -13 -175q4 -158 80 -234t219 -76
q153 0 248.5 67t144 175t73.5 252l102 695q1 39 -37.5 57t-119.5 20q-17 1 -24 5t-7 16q0 23 13 45t30 22h436q13 0 19 -14.5t6 -31.5q0 -19 -9.5 -30t-28.5 -12q-80 -3 -126.5 -28.5t-53.5 -72.5l-104 -692q-41 -292 -187.5 -429.5t-404.5 -137.5q-274 0 -421 109z
M1112 1882q62 73 78 87q19 16 45 26t53 10q47 0 73 -33q20 -26 20 -61q0 -29 -14 -57t-34 -45q-21 -16 -83 -50q-90 -52 -171 -101.5t-178 -118.5l-47 58q128 130 258 285z" />
    <glyph glyph-name="Ucircumflex" unicode="&#xdb;" horiz-adv-x="1654" 
d="M394 80q-147 109 -147 322q0 79 9 136l102 726q1 33 -26.5 45t-78.5 18q-32 4 -48 9t-16 16q0 26 11 46.5t32 20.5h618q13 0 19.5 -15t6.5 -32q0 -18 -10 -29t-29 -12q-77 -2 -123.5 -17.5t-50.5 -46.5l-104 -717q-14 -106 -13 -175q4 -158 80 -234t219 -76
q153 0 248.5 67t144 175t73.5 252l102 695q1 39 -37.5 57t-119.5 20q-17 1 -24 5t-7 16q0 23 13 45t30 22h436q13 0 19 -14.5t6 -31.5q0 -19 -9.5 -30t-28.5 -12q-80 -3 -126.5 -28.5t-53.5 -72.5l-104 -692q-41 -292 -187.5 -429.5t-404.5 -137.5q-274 0 -421 109z
M1034.5 1943.5q28.5 13.5 71.5 13.5t68 -16t39 -44l193 -339h-133l-196 208l-253 -208h-138l298 348q22 24 50.5 37.5z" />
    <glyph glyph-name="Udieresis" unicode="&#xdc;" horiz-adv-x="1654" 
d="M394 80q-147 109 -147 322q0 79 9 136l102 726q1 33 -26.5 45t-78.5 18q-32 4 -48 9t-16 16q0 26 11 46.5t32 20.5h618q13 0 19.5 -15t6.5 -32q0 -18 -10 -29t-29 -12q-77 -2 -123.5 -17.5t-50.5 -46.5l-104 -717q-14 -106 -13 -175q4 -158 80 -234t219 -76
q153 0 248.5 67t144 175t73.5 252l102 695q1 39 -37.5 57t-119.5 20q-17 1 -24 5t-7 16q0 23 13 45t30 22h436q13 0 19 -14.5t6 -31.5q0 -19 -9.5 -30t-28.5 -12q-80 -3 -126.5 -28.5t-53.5 -72.5l-104 -692q-41 -292 -187.5 -429.5t-404.5 -137.5q-274 0 -421 109z
M718.5 1583.5q-33.5 37.5 -33.5 96.5q0 51 23 97.5t63.5 74.5t89.5 28q60 0 94 -38t34 -97q0 -51 -23 -97t-64 -74t-91 -28q-59 0 -92.5 37.5zM1177.5 1583q-33.5 37 -33.5 97q0 51 23 97.5t64 74.5t90 28q59 0 93 -38t34 -97q0 -51 -23 -97t-64 -74t-90 -28q-60 0 -93.5 37
z" />
    <glyph glyph-name="Yacute" unicode="&#xdd;" horiz-adv-x="1419" 
d="M272.5 73.5q14.5 12.5 37.5 14.5q26 2 40 2q41 1 67 5t45.5 17t24.5 40l66 382l-320 720q-20 46 -48.5 64.5t-82.5 22.5q-18 1 -23.5 9.5t-5.5 24.5q0 18 12.5 31t29.5 13h603q14 0 20 -12t6 -26q0 -17 -15 -33t-34 -17q-90 -3 -125 -9t-35 -25l263 -658l438 619
q12 17 12 31q0 42 -129 42q-16 0 -25.5 12t-9.5 27q0 16 13 32.5t29 16.5h432q15 0 22 -14t4 -27q-4 -22 -12.5 -28.5t-30.5 -8.5q-5 -1 -38.5 -4t-65.5 -24t-60 -59l-523 -709l-63 -394q0 -26 19 -38.5t45.5 -16.5t69.5 -5l45 -3q21 -3 30.5 -7.5t9.5 -18.5
q0 -23 -14.5 -42.5t-29.5 -19.5h-681q-13 0 -20 13.5t-7 28.5q0 19 14.5 31.5zM982 1882q62 73 78 87q19 16 45 26t53 10q47 0 73 -33q20 -26 20 -61q0 -29 -14 -57t-34 -45q-21 -16 -83 -50q-90 -52 -171 -101.5t-178 -118.5l-47 58q128 130 258 285z" />
    <glyph glyph-name="Thorn" unicode="&#xde;" horiz-adv-x="1386" 
d="M40.5 14.5q-6.5 14.5 -6.5 35.5q0 34 38 38q140 10 149 64l165 1096q1 4 1 11q0 28 -21.5 42.5t-48 19.5t-71.5 10q-20 2 -26 10t-6 28q0 18 13.5 34t29.5 16h585q14 0 20 -12.5t6 -28.5q0 -42 -38 -47q-61 -5 -106 -19.5t-50 -44.5l-14 -103h114q211 0 336 -39.5
t180 -120.5t55 -212q0 -156 -93 -267t-252.5 -168t-356.5 -57h-114l-17 -133q0 -41 47 -56t88 -18.5t50 -4.5q19 -2 25 -10t5 -27q0 -19 -11.5 -35t-27.5 -16h-626q-15 0 -21.5 14.5zM542 386h132q162 0 256.5 98t94.5 295q0 150 -62.5 223.5t-210.5 73.5h-104z" />
    <glyph glyph-name="germandbls" unicode="&#xdf;" horiz-adv-x="1265" 
d="M199 1061q21 135 94.5 247.5t205 181.5t316.5 69q169 0 269 -51t100 -175q0 -64 -33 -115t-78.5 -86t-118.5 -80t-107 -74.5t-34 -65.5q0 -29 28 -57.5t93 -78.5q81 -62 134.5 -113t93.5 -128t40 -174q0 -114 -65 -203t-173 -138t-232 -49q-90 0 -151.5 25.5t-91.5 65.5
t-30 84q0 57 33.5 90t78.5 33q21 0 36.5 -7.5t20.5 -19.5l46 -154q11 -13 29 -21.5t39 -8.5q58 0 98 33.5t60 89t20 119.5q0 62 -22 115t-53 94t-83 98q-45 49 -71 82t-43.5 72t-17.5 83q0 46 17.5 81.5t43 62t69.5 63.5q50 42 79.5 73.5t50.5 78t21 108.5q0 77 -36 120
t-101 43q-64 0 -120 -23.5t-106 -107.5t-73 -250l-151 -1093h-283z" />
    <glyph glyph-name="agrave" unicode="&#xe0;" horiz-adv-x="1292" 
d="M196 16.5q-70 43.5 -104.5 119t-34.5 169.5q0 159 87 324t241.5 274t345.5 109q86 0 158.5 -20.5t121.5 -55.5q69 39 99.5 54.5t49.5 15.5q32 0 31 -24l-139 -800q-2 -28 -2 -35q0 -24 17.5 -35.5t40.5 -11.5q17 0 62 10q22 4 23 4q27 0 27 -35q0 -33 -25 -43
q-49 -20 -122.5 -38.5t-156.5 -18.5q-73 0 -109.5 35.5t-36.5 96.5q0 15 32 173l21 104q-36 -85 -103.5 -180.5t-160 -164t-192.5 -69.5q-101 -1 -171 42.5zM616 219.5q79 81.5 143 188t96 183.5l45 225q-4 28 -25.5 52.5t-59 39.5t-86.5 15q-116 0 -204 -85.5t-134.5 -216
t-46.5 -260.5q0 -122 32 -172.5t90 -50.5q71 0 150 81.5zM681 1228q-66 50 -145 105q-48 32 -59 43q-25 23 -25 66q0 57 45 97q36 33 83 33q26 0 50 -10.5t38 -25.5q7 -8 21 -32t30 -54q47 -86 84 -148.5t88 -137.5l-65 -58q-79 72 -145 122z" />
    <glyph glyph-name="aacute" unicode="&#xe1;" horiz-adv-x="1292" 
d="M196 16.5q-70 43.5 -104.5 119t-34.5 169.5q0 159 87 324t241.5 274t345.5 109q86 0 158.5 -20.5t121.5 -55.5q69 39 99.5 54.5t49.5 15.5q32 0 31 -24l-139 -800q-2 -28 -2 -35q0 -24 17.5 -35.5t40.5 -11.5q17 0 62 10q22 4 23 4q27 0 27 -35q0 -33 -25 -43
q-49 -20 -122.5 -38.5t-156.5 -18.5q-73 0 -109.5 35.5t-36.5 96.5q0 15 32 173l21 104q-36 -85 -103.5 -180.5t-160 -164t-192.5 -69.5q-101 -1 -171 42.5zM616 219.5q79 81.5 143 188t96 183.5l45 225q-4 28 -25.5 52.5t-59 39.5t-86.5 15q-116 0 -204 -85.5t-134.5 -216
t-46.5 -260.5q0 -122 32 -172.5t90 -50.5q71 0 150 81.5zM875 1451q58 70 75 84q19 16 45.5 26t52.5 10q47 0 73 -33q21 -25 21 -60q0 -29 -14 -57t-35 -46q-8 -7 -30.5 -20t-50.5 -28q-180 -95 -338 -207l-47 58q114 117 248 273z" />
    <glyph glyph-name="acircumflex" unicode="&#xe2;" horiz-adv-x="1292" 
d="M196 16.5q-70 43.5 -104.5 119t-34.5 169.5q0 159 87 324t241.5 274t345.5 109q86 0 158.5 -20.5t121.5 -55.5q69 39 99.5 54.5t49.5 15.5q32 0 31 -24l-139 -800q-2 -28 -2 -35q0 -24 17.5 -35.5t40.5 -11.5q17 0 62 10q22 4 23 4q27 0 27 -35q0 -33 -25 -43
q-49 -20 -122.5 -38.5t-156.5 -18.5q-73 0 -109.5 35.5t-36.5 96.5q0 15 32 173l21 104q-36 -85 -103.5 -180.5t-160 -164t-192.5 -69.5q-101 -1 -171 42.5zM616 219.5q79 81.5 143 188t96 183.5l45 225q-4 28 -25.5 52.5t-59 39.5t-86.5 15q-116 0 -204 -85.5t-134.5 -216
t-46.5 -260.5q0 -122 32 -172.5t90 -50.5q71 0 150 81.5zM762 1542.5q29 13.5 72 13.5t67.5 -16t39.5 -44l185 -359h-133l-189 221l-260 -221h-138l306 368q21 24 50 37.5z" />
    <glyph glyph-name="atilde" unicode="&#xe3;" horiz-adv-x="1292" 
d="M196 16.5q-70 43.5 -104.5 119t-34.5 169.5q0 159 87 324t241.5 274t345.5 109q86 0 158.5 -20.5t121.5 -55.5q69 39 99.5 54.5t49.5 15.5q32 0 31 -24l-139 -800q-2 -28 -2 -35q0 -24 17.5 -35.5t40.5 -11.5q17 0 62 10q22 4 23 4q27 0 27 -35q0 -33 -25 -43
q-49 -20 -122.5 -38.5t-156.5 -18.5q-73 0 -109.5 35.5t-36.5 96.5q0 15 32 173l21 104q-36 -85 -103.5 -180.5t-160 -164t-192.5 -69.5q-101 -1 -171 42.5zM616 219.5q79 81.5 143 188t96 183.5l45 225q-4 28 -25.5 52.5t-59 39.5t-86.5 15q-116 0 -204 -85.5t-134.5 -216
t-46.5 -260.5q0 -122 32 -172.5t90 -50.5q71 0 150 81.5zM828 1139.5q-34 17.5 -81 51.5q-42 31 -71 46t-58 15q-31 0 -49.5 -15.5t-39.5 -43.5q-12 -17 -19.5 -24.5t-16.5 -7.5q-16 0 -31 21.5t-15 45.5q0 35 27.5 81.5t74.5 79.5t103 33q37 0 69.5 -17.5t75.5 -50.5
q42 -32 71.5 -47.5t60.5 -15.5q33 0 53 16t40 44q13 17 20.5 24t16.5 7q15 0 31 -21.5t16 -44.5q0 -35 -28.5 -82t-76 -79.5t-100.5 -32.5q-39 0 -73 17.5z" />
    <glyph glyph-name="adieresis" unicode="&#xe4;" horiz-adv-x="1292" 
d="M196 16.5q-70 43.5 -104.5 119t-34.5 169.5q0 159 87 324t241.5 274t345.5 109q86 0 158.5 -20.5t121.5 -55.5q69 39 99.5 54.5t49.5 15.5q32 0 31 -24l-139 -800q-2 -28 -2 -35q0 -24 17.5 -35.5t40.5 -11.5q17 0 62 10q22 4 23 4q27 0 27 -35q0 -33 -25 -43
q-49 -20 -122.5 -38.5t-156.5 -18.5q-73 0 -109.5 35.5t-36.5 96.5q0 15 32 173l21 104q-36 -85 -103.5 -180.5t-160 -164t-192.5 -69.5q-101 -1 -171 42.5zM616 219.5q79 81.5 143 188t96 183.5l45 225q-4 28 -25.5 52.5t-59 39.5t-86.5 15q-116 0 -204 -85.5t-134.5 -216
t-46.5 -260.5q0 -122 32 -172.5t90 -50.5q71 0 150 81.5zM449 1218q-32 37 -32 96q0 17 3 33q13 73 57.5 120.5t108.5 47.5q57 0 89.5 -38t32.5 -98q0 -15 -3 -32q-12 -72 -57 -119t-110 -47q-57 0 -89 37zM908 1218q-32 37 -32 96q0 17 3 33q13 73 57.5 120.5t108.5 47.5
q57 0 89.5 -38t32.5 -98q0 -21 -2 -32q-12 -72 -57.5 -119t-109.5 -47q-58 0 -90 37z" />
    <glyph glyph-name="aring" unicode="&#xe5;" horiz-adv-x="1292" 
d="M196 16.5q-70 43.5 -104.5 119t-34.5 169.5q0 159 87 324t241.5 274t345.5 109q86 0 158.5 -20.5t121.5 -55.5q69 39 99.5 54.5t49.5 15.5q32 0 31 -24l-139 -800q-2 -28 -2 -35q0 -24 17.5 -35.5t40.5 -11.5q17 0 62 10q22 4 23 4q27 0 27 -35q0 -33 -25 -43
q-49 -20 -122.5 -38.5t-156.5 -18.5q-73 0 -109.5 35.5t-36.5 96.5q0 15 32 173l21 104q-36 -85 -103.5 -180.5t-160 -164t-192.5 -69.5q-101 -1 -171 42.5zM616 219.5q79 81.5 143 188t96 183.5l45 225q-4 28 -25.5 52.5t-59 39.5t-86.5 15q-116 0 -204 -85.5t-134.5 -216
t-46.5 -260.5q0 -122 32 -172.5t90 -50.5q71 0 150 81.5zM649.5 1157q-59.5 28 -93.5 80t-34 122q0 90 46.5 163t125.5 114.5t173 41.5q75 0 134.5 -29t93.5 -82t34 -122q0 -90 -46.5 -162t-125.5 -113t-172 -41q-76 0 -135.5 28zM932.5 1310q44.5 49 44.5 123
q0 52 -31.5 83t-98.5 31q-82 0 -124.5 -47t-44.5 -117q-3 -58 28 -90t99 -32q83 0 127.5 49z" />
    <glyph glyph-name="ae" unicode="&#xe6;" horiz-adv-x="1691" 
d="M171.5 15q-60.5 42 -92 113t-31.5 156q0 171 93.5 340.5t252.5 278t343 108.5q98 0 164.5 -25.5t102.5 -67.5q70 46 149.5 71t163.5 25q119 0 194 -34.5t107 -86t33 -104.5q1 -157 -159.5 -246.5t-472.5 -135.5q-1 -12 -1 -36q0 -126 44.5 -201t138.5 -75q96 0 176 29.5
t162 90.5q7 8 11.5 11t10.5 -1l37 -33q5 -4 5 -9q0 -4 -4.5 -10t-6.5 -9q-102 -96 -206.5 -144.5t-254.5 -48.5q-114 0 -205.5 48t-143.5 141.5t-49 223.5q-31 -95 -85.5 -188t-139.5 -158t-195 -65q-81 0 -141.5 42zM1297.5 603.5q91.5 79.5 90.5 214.5q0 51 -25.5 83
t-77.5 32q-63 0 -118 -53.5t-93.5 -155.5t-50.5 -240q183 40 274.5 119.5zM557 215.5q70 75.5 121.5 180t71.5 184.5l12 35q17 50 35 84.5t61 82.5q4 66 -33 105t-102 39q-108 0 -202 -87t-149.5 -225t-55.5 -281q0 -86 25.5 -139.5t73.5 -53.5q72 0 142 75.5z" />
    <glyph glyph-name="ccedilla" unicode="&#xe7;" horiz-adv-x="1041" 
d="M503 866.5q-61 -66.5 -96 -192t-35 -294.5q0 -139 61.5 -205.5t154.5 -66.5q79 0 143 32t128 91q7 8 11.5 11t10.5 -1l37 -33q5 -4 5 -9q0 -4 -4.5 -10t-6.5 -9q-73 -90 -159.5 -143t-200.5 -63l-41 -91q92 -11 145 -51t53 -103q0 -61 -40 -112.5t-108 -81t-150 -29.5
q-77 0 -131.5 18t-87.5 39q-6 4 -6 10q0 5 3 11l29 45l13 20q5 6 9 8t11 -1q38 -14 66.5 -21.5t72.5 -7.5q53 0 90 25t37 69q0 34 -41.5 58t-122.5 23l61 176q-165 25 -255 136.5t-90 286.5q0 170 81.5 310.5t219 221.5t298.5 81q169 0 257 -58t88 -173q0 -61 -52 -94.5
t-126 -33.5q-24 0 -33.5 1.5t-16.5 10.5t-13 32l-55 218q-18 16 -78 16q-75 0 -136 -66.5z" />
    <glyph glyph-name="egrave" unicode="&#xe8;" horiz-adv-x="1083" 
d="M932 609.5q-90 -78.5 -239.5 -128.5t-333.5 -74q-1 -15 -1 -47q0 -134 66 -194.5t163 -60.5q87 0 162 28.5t161 88.5q9 7 14 7q8 0 25 -17t19 -29l2 -5q0 -5 -3 -9t-4 -5q-87 -92 -204 -142.5t-250 -50.5q-137 0 -236.5 51t-151.5 144.5t-52 218.5q0 174 85 318.5
t226.5 227.5t302.5 83q120 0 196 -34t109.5 -84t33.5 -103q0 -105 -90 -183.5zM521.5 879q-60.5 -54 -102.5 -155.5t-55 -239.5q190 41 291 123.5t100 215.5q0 50 -27 80t-80 30q-66 0 -126.5 -54zM613 1228q-66 50 -145 105q-48 32 -59 43q-25 23 -25 66q0 57 45 97
q36 33 83 33q26 0 50 -10.5t38 -25.5q7 -8 21 -32t30 -54q47 -86 84 -148.5t88 -137.5l-65 -58q-79 72 -145 122z" />
    <glyph glyph-name="eacute" unicode="&#xe9;" horiz-adv-x="1083" 
d="M932 609.5q-90 -78.5 -239.5 -128.5t-333.5 -74q-1 -15 -1 -47q0 -134 66 -194.5t163 -60.5q87 0 162 28.5t161 88.5q9 7 14 7q8 0 25 -17t19 -29l2 -5q0 -5 -3 -9t-4 -5q-87 -92 -204 -142.5t-250 -50.5q-137 0 -236.5 51t-151.5 144.5t-52 218.5q0 174 85 318.5
t226.5 227.5t302.5 83q120 0 196 -34t109.5 -84t33.5 -103q0 -105 -90 -183.5zM521.5 879q-60.5 -54 -102.5 -155.5t-55 -239.5q190 41 291 123.5t100 215.5q0 50 -27 80t-80 30q-66 0 -126.5 -54zM807 1451q58 70 75 84q19 16 45.5 26t52.5 10q47 0 73 -33q21 -25 21 -60
q0 -29 -14 -57t-35 -46q-8 -7 -30.5 -20t-50.5 -28q-180 -95 -338 -207l-47 58q114 117 248 273z" />
    <glyph glyph-name="ecircumflex" unicode="&#xea;" horiz-adv-x="1083" 
d="M932 609.5q-90 -78.5 -239.5 -128.5t-333.5 -74q-1 -15 -1 -47q0 -134 66 -194.5t163 -60.5q87 0 162 28.5t161 88.5q9 7 14 7q8 0 25 -17t19 -29l2 -5q0 -5 -3 -9t-4 -5q-87 -92 -204 -142.5t-250 -50.5q-137 0 -236.5 51t-151.5 144.5t-52 218.5q0 174 85 318.5
t226.5 227.5t302.5 83q120 0 196 -34t109.5 -84t33.5 -103q0 -105 -90 -183.5zM521.5 879q-60.5 -54 -102.5 -155.5t-55 -239.5q190 41 291 123.5t100 215.5q0 50 -27 80t-80 30q-66 0 -126.5 -54zM694 1542.5q29 13.5 72 13.5t67.5 -16t39.5 -44l185 -359h-133l-189 221
l-260 -221h-138l306 368q21 24 50 37.5z" />
    <glyph glyph-name="edieresis" unicode="&#xeb;" horiz-adv-x="1083" 
d="M932 609.5q-90 -78.5 -239.5 -128.5t-333.5 -74q-1 -15 -1 -47q0 -134 66 -194.5t163 -60.5q87 0 162 28.5t161 88.5q9 7 14 7q8 0 25 -17t19 -29l2 -5q0 -5 -3 -9t-4 -5q-87 -92 -204 -142.5t-250 -50.5q-137 0 -236.5 51t-151.5 144.5t-52 218.5q0 174 85 318.5
t226.5 227.5t302.5 83q120 0 196 -34t109.5 -84t33.5 -103q0 -105 -90 -183.5zM521.5 879q-60.5 -54 -102.5 -155.5t-55 -239.5q190 41 291 123.5t100 215.5q0 50 -27 80t-80 30q-66 0 -126.5 -54zM380 1218q-32 37 -32 96q0 17 3 33q13 73 57.5 120.5t108.5 47.5
q57 0 89.5 -38t32.5 -98q0 -15 -3 -32q-12 -72 -57 -119t-110 -47q-57 0 -89 37zM839 1218q-32 37 -32 96q0 17 3 33q13 73 57.5 120.5t108.5 47.5q57 0 89.5 -38t32.5 -98q0 -21 -2 -32q-12 -72 -57.5 -119t-109.5 -47q-58 0 -90 37z" />
    <glyph glyph-name="igrave" unicode="&#xec;" horiz-adv-x="702" 
d="M174.5 21.5q-28.5 34.5 -28.5 76.5q0 35 5 65l109 622q2 22 2 30q0 33 -13 50t-31 23t-47 9q-29 4 -34 6q-11 5 -15.5 13.5t-2.5 26.5q2 14 10.5 28.5t19.5 15.5q158 10 344 10h38q10 0 17.5 -9t6.5 -31l-132 -814q0 -27 15.5 -37t45.5 -10q20 0 54 8q23 5 33 5
q11 0 17.5 -12t6.5 -29q0 -26 -24 -34q-75 -25 -138 -36t-153 -11q-77 0 -105.5 34.5zM343 1228q-66 50 -145 105q-48 32 -59 43q-25 23 -25 66q0 57 45 97q36 33 83 33q26 0 50 -10.5t38 -25.5q7 -8 21 -32t30 -54q47 -86 84 -148.5t88 -137.5l-65 -58q-79 72 -145 122z
" />
    <glyph glyph-name="iacute" unicode="&#xed;" horiz-adv-x="702" 
d="M174.5 21.5q-28.5 34.5 -28.5 76.5q0 35 5 65l109 622q2 22 2 30q0 33 -13 50t-31 23t-47 9q-29 4 -34 6q-11 5 -15.5 13.5t-2.5 26.5q2 14 10.5 28.5t19.5 15.5q158 10 344 10h38q10 0 17.5 -9t6.5 -31l-132 -814q0 -27 15.5 -37t45.5 -10q20 0 54 8q23 5 33 5
q11 0 17.5 -12t6.5 -29q0 -26 -24 -34q-75 -25 -138 -36t-153 -11q-77 0 -105.5 34.5zM537 1451q58 70 75 84q19 16 45.5 26t52.5 10q47 0 73 -33q21 -25 21 -60q0 -29 -14 -57t-35 -46q-8 -7 -30.5 -20t-50.5 -28q-180 -95 -338 -207l-47 58q114 117 248 273z" />
    <glyph glyph-name="icircumflex" unicode="&#xee;" horiz-adv-x="702" 
d="M174.5 21.5q-28.5 34.5 -28.5 76.5q0 35 5 65l109 622q2 22 2 30q0 33 -13 50t-31 23t-47 9q-29 4 -34 6q-11 5 -15.5 13.5t-2.5 26.5q2 14 10.5 28.5t19.5 15.5q158 10 344 10h38q10 0 17.5 -9t6.5 -31l-132 -814q0 -27 15.5 -37t45.5 -10q20 0 54 8q23 5 33 5
q11 0 17.5 -12t6.5 -29q0 -26 -24 -34q-75 -25 -138 -36t-153 -11q-77 0 -105.5 34.5zM424 1542.5q29 13.5 72 13.5t67.5 -16t39.5 -44l185 -359h-133l-189 221l-260 -221h-138l306 368q21 24 50 37.5z" />
    <glyph glyph-name="idieresis" unicode="&#xef;" horiz-adv-x="702" 
d="M174.5 21.5q-28.5 34.5 -28.5 76.5q0 35 5 65l109 622q2 22 2 30q0 33 -13 50t-31 23t-47 9q-29 4 -34 6q-11 5 -15.5 13.5t-2.5 26.5q2 14 10.5 28.5t19.5 15.5q158 10 344 10h38q10 0 17.5 -9t6.5 -31l-132 -814q0 -27 15.5 -37t45.5 -10q20 0 54 8q23 5 33 5
q11 0 17.5 -12t6.5 -29q0 -26 -24 -34q-75 -25 -138 -36t-153 -11q-77 0 -105.5 34.5zM110 1218q-32 37 -32 96q0 17 3 33q13 73 57.5 120.5t108.5 47.5q57 0 89.5 -38t32.5 -98q0 -15 -3 -32q-12 -72 -57 -119t-110 -47q-57 0 -89 37zM569 1218q-32 37 -32 96q0 17 3 33
q13 73 57.5 120.5t108.5 47.5q57 0 89.5 -38t32.5 -98q0 -21 -2 -32q-12 -72 -57.5 -119t-109.5 -47q-58 0 -90 37z" />
    <glyph glyph-name="eth" unicode="&#xf0;" horiz-adv-x="1243" 
d="M279 22q-104 51 -157.5 144t-53.5 217q0 163 70 303t199 224t298 84q147 0 231 -81v21q0 54 -20.5 123.5t-63 139.5t-104.5 125l-197 -143l-65 80l197 119q-117 86 -258 103l30 90q182 -16 355 -108l210 154l61 -86l-189 -116q160 -118 249 -296t89 -383
q0 -212 -76 -386.5t-218.5 -276.5t-333.5 -102q-149 0 -253 51zM701.5 143q66.5 77 101 195.5t54.5 275.5q6 34 9.5 80t2.5 88q-40 95 -213 95q-97 0 -162.5 -82.5t-96.5 -209t-31 -260.5q0 -129 38 -194t125 -65q106 0 172.5 77z" />
    <glyph glyph-name="ntilde" unicode="&#xf1;" horiz-adv-x="1345" 
d="M1084 154q0 -28 9 -41.5t29 -13.5q25 0 89 14q14 3 22.5 -7t8.5 -28q0 -9 -3.5 -17t-10.5 -11q-54 -26 -127.5 -43.5t-161.5 -19.5q-136 -3 -136 114q0 22 4 41l87 587q3 20 3 37q0 44 -20 66t-63 22q-89 0 -175 -49.5t-144 -115.5l-110 -689h-272l121 778q2 10 2 28
q0 34 -15 52.5t-35 25.5t-52 13q-5 1 -15 2.5t-16 3.5q-11 5 -15.5 13.5t-2.5 26.5q2 14 10.5 28.5t19.5 15.5q157 10 346 10h38q11 0 19 -9.5t5 -30.5l-26 -172q7 6 72 69.5t173 111.5t219 48q94 0 153 -49t59 -165q0 -19 -4 -65l-82 -547q-3 -18 -3 -34zM805 1139.5
q-34 17.5 -81 51.5q-42 31 -71 46t-58 15q-31 0 -49.5 -15.5t-39.5 -43.5q-12 -17 -19.5 -24.5t-16.5 -7.5q-16 0 -31 21.5t-15 45.5q0 35 27.5 81.5t74.5 79.5t103 33q37 0 69.5 -17.5t75.5 -50.5q42 -32 71.5 -47.5t60.5 -15.5q33 0 53 16t40 44q13 17 20.5 24t16.5 7
q15 0 31 -21.5t16 -44.5q0 -35 -28.5 -82t-76 -79.5t-100.5 -32.5q-39 0 -73 17.5z" />
    <glyph glyph-name="ograve" unicode="&#xf2;" horiz-adv-x="1235" 
d="M156 712q69 134 199.5 218t307.5 84q250 0 367 -123t117 -338q0 -158 -69.5 -290.5t-201 -211.5t-309.5 -79q-246 0 -363 122.5t-117 337.5q0 146 69 280zM724 138.5q64 79.5 94 206t30 271.5q0 150 -41 230t-143 80q-97 0 -160 -80t-92.5 -207t-29.5 -271
q0 -149 39.5 -229t139.5 -80q99 0 163 79.5zM626 1228q-66 50 -145 105q-48 32 -59 43q-25 23 -25 66q0 57 45 97q36 33 83 33q26 0 50 -10.5t38 -25.5q7 -8 21 -32t30 -54q47 -86 84 -148.5t88 -137.5l-65 -58q-79 72 -145 122z" />
    <glyph glyph-name="oacute" unicode="&#xf3;" horiz-adv-x="1235" 
d="M156 712q69 134 199.5 218t307.5 84q250 0 367 -123t117 -338q0 -158 -69.5 -290.5t-201 -211.5t-309.5 -79q-246 0 -363 122.5t-117 337.5q0 146 69 280zM724 138.5q64 79.5 94 206t30 271.5q0 150 -41 230t-143 80q-97 0 -160 -80t-92.5 -207t-29.5 -271
q0 -149 39.5 -229t139.5 -80q99 0 163 79.5zM820 1451q58 70 75 84q19 16 45.5 26t52.5 10q47 0 73 -33q21 -25 21 -60q0 -29 -14 -57t-35 -46q-8 -7 -30.5 -20t-50.5 -28q-180 -95 -338 -207l-47 58q114 117 248 273z" />
    <glyph glyph-name="ocircumflex" unicode="&#xf4;" horiz-adv-x="1235" 
d="M156 712q69 134 199.5 218t307.5 84q250 0 367 -123t117 -338q0 -158 -69.5 -290.5t-201 -211.5t-309.5 -79q-246 0 -363 122.5t-117 337.5q0 146 69 280zM724 138.5q64 79.5 94 206t30 271.5q0 150 -41 230t-143 80q-97 0 -160 -80t-92.5 -207t-29.5 -271
q0 -149 39.5 -229t139.5 -80q99 0 163 79.5zM707 1542.5q29 13.5 72 13.5t67.5 -16t39.5 -44l185 -359h-133l-189 221l-260 -221h-138l306 368q21 24 50 37.5z" />
    <glyph glyph-name="otilde" unicode="&#xf5;" horiz-adv-x="1235" 
d="M156 712q69 134 199.5 218t307.5 84q250 0 367 -123t117 -338q0 -158 -69.5 -290.5t-201 -211.5t-309.5 -79q-246 0 -363 122.5t-117 337.5q0 146 69 280zM724 138.5q64 79.5 94 206t30 271.5q0 150 -41 230t-143 80q-97 0 -160 -80t-92.5 -207t-29.5 -271
q0 -149 39.5 -229t139.5 -80q99 0 163 79.5zM772 1139.5q-34 17.5 -81 51.5q-42 31 -71 46t-58 15q-31 0 -49.5 -15.5t-39.5 -43.5q-12 -17 -19.5 -24.5t-16.5 -7.5q-16 0 -31 21.5t-15 45.5q0 35 27.5 81.5t74.5 79.5t103 33q37 0 69.5 -17.5t75.5 -50.5q42 -32 71.5 -47.5
t60.5 -15.5q33 0 53 16t40 44q13 17 20.5 24t16.5 7q15 0 31 -21.5t16 -44.5q0 -35 -28.5 -82t-76 -79.5t-100.5 -32.5q-39 0 -73 17.5z" />
    <glyph glyph-name="odieresis" unicode="&#xf6;" horiz-adv-x="1235" 
d="M156 712q69 134 199.5 218t307.5 84q250 0 367 -123t117 -338q0 -158 -69.5 -290.5t-201 -211.5t-309.5 -79q-246 0 -363 122.5t-117 337.5q0 146 69 280zM724 138.5q64 79.5 94 206t30 271.5q0 150 -41 230t-143 80q-97 0 -160 -80t-92.5 -207t-29.5 -271
q0 -149 39.5 -229t139.5 -80q99 0 163 79.5zM393 1218q-32 37 -32 96q0 17 3 33q13 73 57.5 120.5t108.5 47.5q57 0 89.5 -38t32.5 -98q0 -15 -3 -32q-12 -72 -57 -119t-110 -47q-57 0 -89 37zM852 1218q-32 37 -32 96q0 17 3 33q13 73 57.5 120.5t108.5 47.5q57 0 89.5 -38
t32.5 -98q0 -21 -2 -32q-12 -72 -57.5 -119t-109.5 -47q-58 0 -90 37z" />
    <glyph glyph-name="divide" unicode="&#xf7;" horiz-adv-x="1399" 
d="M601.5 1040q22.5 42 63.5 67.5t92 25.5q71 0 112.5 -45.5t41.5 -115.5q0 -51 -24 -94t-65 -68.5t-90 -25.5q-73 0 -113 47t-40 119q0 48 22.5 90zM232 637h956v-139h-956v139zM523.5 263.5q22.5 42.5 63.5 68t92 25.5q71 0 112.5 -45.5t41.5 -115.5q0 -51 -24 -94.5
t-65 -69t-90 -25.5q-73 0 -113 47t-40 119q0 48 22.5 90.5z" />
    <glyph glyph-name="oslash" unicode="&#xf8;" horiz-adv-x="1235" 
d="M1101.5 787q45.5 -100 45.5 -234q0 -158 -69.5 -290.5t-201 -211.5t-309.5 -79q-114 0 -200 27l-98 -156q-6 -7 -17 -7q-25 0 -46 19.5t-19 37.5l91 145q-97 56 -144 157t-47 237q0 146 69 280t199.5 218t307.5 84q119 0 209 -29l98 155q6 9 20 9q13 0 28.5 -10.5
t25.5 -25t9 -23.5l-92 -146q95 -57 140.5 -157zM388 213l410 653q-47 60 -134 60q-97 0 -162.5 -80.5t-97.5 -208t-32 -269.5q0 -90 16 -155zM727 139q67 80 99 207t32 270q0 82 -13 143l-408 -648q46 -52 124 -52q99 0 166 80z" />
    <glyph glyph-name="ugrave" unicode="&#xf9;" horiz-adv-x="1328" 
d="M236 28q-73 56 -73 184q0 39 7 81l78 529q1 7 1 18q0 30 -16 42t-43 12q-18 0 -48 -6q-22 -5 -33 -5q-24 0 -29 29q-2 12 5.5 26t23.5 19q176 50 265 50q153 0 153 -96q0 -10 -5 -38q-3 -12 -3 -21l-90 -589q-4 -30 -4 -46q0 -111 118 -111q78 0 132.5 23t112.5 64
l119 801h238q33 0 33 -28l-124 -822q0 -53 38 -53q18 0 46.5 6.5t35.5 7.5q13 3 22 -7.5t9 -27.5q0 -9 -3.5 -17t-10.5 -11q-6 -2 -50.5 -20t-105.5 -30.5t-120 -12.5q-70 0 -100 33t-30 81q0 9 2 21q-28 -33 -86.5 -66t-132.5 -54.5t-145 -21.5q-114 0 -187 56zM652 1228
q-66 50 -145 105q-48 32 -59 43q-25 23 -25 66q0 57 45 97q36 33 83 33q26 0 50 -10.5t38 -25.5q7 -8 21 -32t30 -54q47 -86 84 -148.5t88 -137.5l-65 -58q-79 72 -145 122z" />
    <glyph glyph-name="uacute" unicode="&#xfa;" horiz-adv-x="1328" 
d="M236 28q-73 56 -73 184q0 39 7 81l78 529q1 7 1 18q0 30 -16 42t-43 12q-18 0 -48 -6q-22 -5 -33 -5q-24 0 -29 29q-2 12 5.5 26t23.5 19q176 50 265 50q153 0 153 -96q0 -10 -5 -38q-3 -12 -3 -21l-90 -589q-4 -30 -4 -46q0 -111 118 -111q78 0 132.5 23t112.5 64
l119 801h238q33 0 33 -28l-124 -822q0 -53 38 -53q18 0 46.5 6.5t35.5 7.5q13 3 22 -7.5t9 -27.5q0 -9 -3.5 -17t-10.5 -11q-6 -2 -50.5 -20t-105.5 -30.5t-120 -12.5q-70 0 -100 33t-30 81q0 9 2 21q-28 -33 -86.5 -66t-132.5 -54.5t-145 -21.5q-114 0 -187 56zM847 1451
q58 70 75 84q19 16 45.5 26t52.5 10q47 0 73 -33q21 -25 21 -60q0 -29 -14 -57t-35 -46q-8 -7 -30.5 -20t-50.5 -28q-180 -95 -338 -207l-47 58q114 117 248 273z" />
    <glyph glyph-name="ucircumflex" unicode="&#xfb;" horiz-adv-x="1328" 
d="M236 28q-73 56 -73 184q0 39 7 81l78 529q1 7 1 18q0 30 -16 42t-43 12q-18 0 -48 -6q-22 -5 -33 -5q-24 0 -29 29q-2 12 5.5 26t23.5 19q176 50 265 50q153 0 153 -96q0 -10 -5 -38q-3 -12 -3 -21l-90 -589q-4 -30 -4 -46q0 -111 118 -111q78 0 132.5 23t112.5 64
l119 801h238q33 0 33 -28l-124 -822q0 -53 38 -53q18 0 46.5 6.5t35.5 7.5q13 3 22 -7.5t9 -27.5q0 -9 -3.5 -17t-10.5 -11q-6 -2 -50.5 -20t-105.5 -30.5t-120 -12.5q-70 0 -100 33t-30 81q0 9 2 21q-28 -33 -86.5 -66t-132.5 -54.5t-145 -21.5q-114 0 -187 56zM734 1542.5
q29 13.5 72 13.5t67.5 -16t39.5 -44l185 -359h-133l-189 221l-260 -221h-138l306 368q21 24 50 37.5z" />
    <glyph glyph-name="udieresis" unicode="&#xfc;" horiz-adv-x="1328" 
d="M236 28q-73 56 -73 184q0 39 7 81l78 529q1 7 1 18q0 30 -16 42t-43 12q-18 0 -48 -6q-22 -5 -33 -5q-24 0 -29 29q-2 12 5.5 26t23.5 19q176 50 265 50q153 0 153 -96q0 -10 -5 -38q-3 -12 -3 -21l-90 -589q-4 -30 -4 -46q0 -111 118 -111q78 0 132.5 23t112.5 64
l119 801h238q33 0 33 -28l-124 -822q0 -53 38 -53q18 0 46.5 6.5t35.5 7.5q13 3 22 -7.5t9 -27.5q0 -9 -3.5 -17t-10.5 -11q-6 -2 -50.5 -20t-105.5 -30.5t-120 -12.5q-70 0 -100 33t-30 81q0 9 2 21q-28 -33 -86.5 -66t-132.5 -54.5t-145 -21.5q-114 0 -187 56zM420 1218
q-32 37 -32 96q0 17 3 33q13 73 57.5 120.5t108.5 47.5q57 0 89.5 -38t32.5 -98q0 -15 -3 -32q-12 -72 -57 -119t-110 -47q-57 0 -89 37zM879 1218q-32 37 -32 96q0 17 3 33q13 73 57.5 120.5t108.5 47.5q57 0 89.5 -38t32.5 -98q0 -21 -2 -32q-12 -72 -57.5 -119
t-109.5 -47q-58 0 -90 37z" />
    <glyph glyph-name="yacute" unicode="&#xfd;" horiz-adv-x="1296" 
d="M77.5 -420.5q-42.5 28.5 -42.5 77.5q0 52 40.5 80.5t100.5 28.5q9 0 81 -3q29 -3 53 -3q33 0 60 8q67 18 123 68t121 125l15 17q-86 0 -131.5 6.5t-64 22.5t-18.5 47q0 147 -28 303t-70.5 279.5t-82.5 177.5q-9 13 -23.5 21.5t-27.5 8.5q-29 0 -66 -52q-16 -20 -27 -20
q-12 0 -22.5 14t-10.5 35q0 13 6 26q32 56 80.5 93.5t98 55.5t85.5 18q61 0 103.5 -25t72.5 -85q39 -74 73.5 -209.5t55 -287.5t22.5 -271q0 -31 1 -47q2 -45 0 -78q108 135 209 310.5t101 315.5q0 31 -6.5 58t-18.5 62q-13 37 -19.5 65.5t-6.5 61.5q0 59 38 94.5t100 35.5
q55 0 91.5 -31.5t53.5 -81.5t17 -106q0 -112 -53 -231t-129 -225.5t-202 -264.5q-55 -67 -87 -109q-147 -181 -285.5 -297.5t-269.5 -116.5q-68 0 -110.5 28.5zM869 1451q58 70 75 84q19 16 45.5 26t52.5 10q47 0 73 -33q21 -25 21 -60q0 -29 -14 -57t-35 -46
q-8 -7 -30.5 -20t-50.5 -28q-180 -95 -338 -207l-47 58q114 117 248 273z" />
    <glyph glyph-name="thorn" unicode="&#xfe;" horiz-adv-x="1261" 
d="M1019 959.5q83 -53.5 121.5 -145t38.5 -208.5q0 -52 -8 -114q-21 -140 -96 -256.5t-203.5 -186.5t-300.5 -70q-130 0 -257 38l-11 -134l-48 -327l-250 1l82 569l2 1l185 1215q1 14 -6.5 21t-22.5 14q-9 4 -18 11q-1 33 -20 46.5t-53 21.5q-4 1 -13 3.5t-15 5.5
q-7 7 -7 21q0 13 5 23l25 9q60 22 87 23q156 6 300 6q10 0 17.5 -7t7.5 -23q0 -6 -1 -10l-57 -403l-51 -282q69 94 166.5 142.5t190.5 48.5q127 0 210 -53.5zM881 634q0 118 -39.5 179.5t-133.5 61.5q-73 0 -145.5 -51t-119.5 -116l-81 -540q11 -39 64.5 -66.5t121.5 -27.5
q138 0 219.5 113.5t104.5 304.5q9 92 9 142z" />
    <glyph glyph-name="ydieresis" unicode="&#xff;" horiz-adv-x="1296" 
d="M77.5 -420.5q-42.5 28.5 -42.5 77.5q0 52 40.5 80.5t100.5 28.5q9 0 81 -3q29 -3 53 -3q33 0 60 8q67 18 123 68t121 125l15 17q-86 0 -131.5 6.5t-64 22.5t-18.5 47q0 147 -28 303t-70.5 279.5t-82.5 177.5q-9 13 -23.5 21.5t-27.5 8.5q-29 0 -66 -52q-16 -20 -27 -20
q-12 0 -22.5 14t-10.5 35q0 13 6 26q32 56 80.5 93.5t98 55.5t85.5 18q61 0 103.5 -25t72.5 -85q39 -74 73.5 -209.5t55 -287.5t22.5 -271q0 -31 1 -47q2 -45 0 -78q108 135 209 310.5t101 315.5q0 31 -6.5 58t-18.5 62q-13 37 -19.5 65.5t-6.5 61.5q0 59 38 94.5t100 35.5
q55 0 91.5 -31.5t53.5 -81.5t17 -106q0 -112 -53 -231t-129 -225.5t-202 -264.5q-55 -67 -87 -109q-147 -181 -285.5 -297.5t-269.5 -116.5q-68 0 -110.5 28.5zM443 1218q-32 37 -32 96q0 17 3 33q13 73 57.5 120.5t108.5 47.5q57 0 89.5 -38t32.5 -98q0 -15 -3 -32
q-12 -72 -57 -119t-110 -47q-57 0 -89 37zM902 1218q-32 37 -32 96q0 17 3 33q13 73 57.5 120.5t108.5 47.5q57 0 89.5 -38t32.5 -98q0 -21 -2 -32q-12 -72 -57.5 -119t-109.5 -47q-58 0 -90 37z" />
    <glyph glyph-name="Amacron" unicode="&#x100;" horiz-adv-x="1493" 
d="M1473 79.5q9 -7.5 9 -27.5q-1 -18 -12.5 -35t-26.5 -17h-579q-15 0 -22.5 16.5t-7.5 32.5q0 36 36 39l48 3q48 2 65.5 7t17.5 24q0 5 -3 17l-58 292h-556l-140 -253q-5 -8 -9 -21t-4 -20q0 -22 36.5 -32.5t110.5 -17.5q22 -2 29 -10t7 -25q0 -19 -9 -35.5t-26 -16.5h-464
q-14 0 -20.5 13.5t-6.5 29.5q0 25 9.5 33.5t27.5 11.5q51 9 80 16.5t55.5 25t43.5 49.5l724 1268h186l295 -1269q24 -86 132 -90q23 -1 32 -8.5zM434 521h488l-129 647zM671 1763h588l-23 -148h-587z" />
    <glyph glyph-name="amacron" unicode="&#x101;" horiz-adv-x="1292" 
d="M196 16.5q-70 43.5 -104.5 119t-34.5 169.5q0 159 87 324t241.5 274t345.5 109q86 0 158.5 -20.5t121.5 -55.5q69 39 99.5 54.5t49.5 15.5q32 0 31 -24l-139 -800q-2 -28 -2 -35q0 -24 17.5 -35.5t40.5 -11.5q17 0 62 10q22 4 23 4q27 0 27 -35q0 -33 -25 -43
q-49 -20 -122.5 -38.5t-156.5 -18.5q-73 0 -109.5 35.5t-36.5 96.5q0 15 32 173l21 104q-36 -85 -103.5 -180.5t-160 -164t-192.5 -69.5q-101 -1 -171 42.5zM616 219.5q79 81.5 143 188t96 183.5l45 225q-4 28 -25.5 52.5t-59 39.5t-86.5 15q-116 0 -204 -85.5t-134.5 -216
t-46.5 -260.5q0 -122 32 -172.5t90 -50.5q71 0 150 81.5zM506 1330h588l-23 -148h-587z" />
    <glyph glyph-name="Abreve" unicode="&#x102;" horiz-adv-x="1493" 
d="M1473 79.5q9 -7.5 9 -27.5q-1 -18 -12.5 -35t-26.5 -17h-579q-15 0 -22.5 16.5t-7.5 32.5q0 36 36 39l48 3q48 2 65.5 7t17.5 24q0 5 -3 17l-58 292h-556l-140 -253q-5 -8 -9 -21t-4 -20q0 -22 36.5 -32.5t110.5 -17.5q22 -2 29 -10t7 -25q0 -19 -9 -35.5t-26 -16.5h-464
q-14 0 -20.5 13.5t-6.5 29.5q0 25 9.5 33.5t27.5 11.5q51 9 80 16.5t55.5 25t43.5 49.5l724 1268h186l295 -1269q24 -86 132 -90q23 -1 32 -8.5zM434 521h488l-129 647zM734.5 1651q-82.5 61 -82.5 213q0 44 9 95h126q-1 -9 -1 -25q0 -79 43 -127.5t137 -48.5t155.5 56.5
t79.5 144.5h126q-26 -206 -136.5 -287.5t-251.5 -81.5q-122 0 -204.5 61z" />
    <glyph glyph-name="abreve" unicode="&#x103;" horiz-adv-x="1292" 
d="M196 16.5q-70 43.5 -104.5 119t-34.5 169.5q0 159 87 324t241.5 274t345.5 109q86 0 158.5 -20.5t121.5 -55.5q69 39 99.5 54.5t49.5 15.5q32 0 31 -24l-139 -800q-2 -28 -2 -35q0 -24 17.5 -35.5t40.5 -11.5q17 0 62 10q22 4 23 4q27 0 27 -35q0 -33 -25 -43
q-49 -20 -122.5 -38.5t-156.5 -18.5q-73 0 -109.5 35.5t-36.5 96.5q0 15 32 173l21 104q-36 -85 -103.5 -180.5t-160 -164t-192.5 -69.5q-101 -1 -171 42.5zM616 219.5q79 81.5 143 188t96 183.5l45 225q-4 28 -25.5 52.5t-59 39.5t-86.5 15q-116 0 -204 -85.5t-134.5 -216
t-46.5 -260.5q0 -122 32 -172.5t90 -50.5q71 0 150 81.5zM574.5 1243q-82.5 61 -82.5 214q0 43 9 95h127q-1 -9 -1 -25q0 -77 46.5 -127t132.5 -50q102 0 159 55t76 147h126q-26 -207 -136.5 -288.5t-251.5 -81.5q-122 0 -204.5 61z" />
    <glyph glyph-name="Aogonek" unicode="&#x104;" horiz-adv-x="1493" 
d="M1473 79.5q9 -7.5 9 -27.5q-1 -18 -12.5 -35t-26.5 -17h-213q-77 -48 -116 -105.5t-39 -120.5q0 -38 21.5 -66.5t55 -44t68.5 -15.5q32 0 52.5 4.5t53.5 22.5q5 3 11.5 -3.5t11 -19.5t4.5 -29q0 -33 -25 -51q-35 -27 -92.5 -44t-116.5 -17q-84 0 -143 26t-88.5 69.5
t-29.5 96.5q0 58 36.5 115.5t100 105t142.5 76.5h-273q-15 0 -22.5 16.5t-7.5 32.5q0 36 36 39l48 3q48 2 65.5 7t17.5 24q0 5 -3 17l-58 292h-556l-140 -253q-5 -8 -9 -21t-4 -20q0 -22 36.5 -32.5t110.5 -17.5q22 -2 29 -10t7 -25q0 -19 -9 -35.5t-26 -16.5h-464
q-14 0 -20.5 13.5t-6.5 29.5q0 25 9.5 33.5t27.5 11.5q51 9 80 16.5t55.5 25t43.5 49.5l724 1268h186l295 -1269q24 -86 132 -90q23 -1 32 -8.5zM434 521h488l-129 647z" />
    <glyph glyph-name="aogonek" unicode="&#x105;" horiz-adv-x="1292" 
d="M1220 79q0 -33 -25 -43q-106 -43 -215 -54q-121 -87 -121 -205q0 -37 20 -65.5t51 -44t64 -15.5q31 0 51.5 5t52.5 22q6 3 13 -4.5t12.5 -21.5t5.5 -30q0 -32 -25 -51q-35 -27 -93 -44t-116 -17q-84 0 -143.5 26t-89 69.5t-29.5 96.5q0 82 64.5 157.5t172.5 122.5
q-50 11 -75 44.5t-25 83.5q0 15 32 173l21 104q-36 -85 -103.5 -180.5t-160 -164t-192.5 -69.5q-101 -1 -171 42.5t-104.5 119t-34.5 169.5q0 159 87 324t241.5 274t345.5 109q86 0 158.5 -20.5t121.5 -55.5q69 39 99.5 54.5t49.5 15.5q32 0 31 -24l-139 -800q-2 -28 -2 -35
q0 -24 17.5 -35.5t40.5 -11.5q17 0 62 10q22 4 23 4q27 0 27 -35zM616 219.5q79 81.5 143 188t96 183.5l45 225q-4 28 -25.5 52.5t-59 39.5t-86.5 15q-116 0 -204 -85.5t-134.5 -216t-46.5 -260.5q0 -122 32 -172.5t90 -50.5q71 0 150 81.5z" />
    <glyph glyph-name="Cacute" unicode="&#x106;" horiz-adv-x="1415" 
d="M416 53.5q-147 81.5 -221 228t-74 340.5q0 245 119 433.5t315.5 291t421.5 102.5q167 0 268 -25.5t176 -62.5l-34 -303q-1 -20 -28.5 -30.5t-47.5 -10.5q-53 0 -55 49q1 147 -70.5 217t-223.5 70q-124 0 -241 -78.5t-193 -242t-76 -403.5q0 -170 41.5 -298t116 -197
t171.5 -69q116 0 185 33.5t111.5 96t89.5 177.5q8 19 19 26.5t31 7.5q19 0 48.5 -8.5t28.5 -22.5l-36 -274q-5 -16 -78 -48t-181.5 -56.5t-222.5 -24.5q-213 0 -360 81.5zM1051 1882q62 73 78 87q19 16 45 26t53 10q47 0 73 -33q20 -26 20 -61q0 -29 -14 -57t-34 -45
q-21 -16 -83 -50q-90 -52 -171 -101.5t-178 -118.5l-47 58q128 130 258 285z" />
    <glyph glyph-name="cacute" unicode="&#x107;" horiz-adv-x="1041" 
d="M925 956q88 -58 88 -173q0 -61 -52 -94.5t-126 -33.5q-24 0 -33.5 1.5t-16.5 10.5t-13 32l-55 218q-18 16 -78 16q-75 0 -136 -66.5t-96 -192t-35 -294.5q0 -139 61.5 -205.5t154.5 -66.5q79 0 143 32t128 91q7 8 11.5 11t10.5 -1l37 -33q5 -4 5 -9q0 -4 -4.5 -10
t-6.5 -9q-81 -100 -178.5 -154t-230.5 -54q-137 0 -234.5 52.5t-148.5 149.5t-51 227q0 170 81.5 310.5t219 221.5t298.5 81q169 0 257 -58zM794 1451q58 70 75 84q19 16 45.5 26t52.5 10q47 0 73 -33q21 -25 21 -60q0 -29 -14 -57t-35 -46q-8 -7 -30.5 -20t-50.5 -28
q-180 -95 -338 -207l-47 58q114 117 248 273z" />
    <glyph glyph-name="Ccircumflex" unicode="&#x108;" horiz-adv-x="1415" 
d="M416 53.5q-147 81.5 -221 228t-74 340.5q0 245 119 433.5t315.5 291t421.5 102.5q167 0 268 -25.5t176 -62.5l-34 -303q-1 -20 -28.5 -30.5t-47.5 -10.5q-53 0 -55 49q1 147 -70.5 217t-223.5 70q-124 0 -241 -78.5t-193 -242t-76 -403.5q0 -170 41.5 -298t116 -197
t171.5 -69q116 0 185 33.5t111.5 96t89.5 177.5q8 19 19 26.5t31 7.5q19 0 48.5 -8.5t28.5 -22.5l-36 -274q-5 -16 -78 -48t-181.5 -56.5t-222.5 -24.5q-213 0 -360 81.5zM973.5 1943.5q28.5 13.5 71.5 13.5t68 -16t39 -44l193 -339h-133l-196 208l-253 -208h-138l298 348
q22 24 50.5 37.5z" />
    <glyph glyph-name="ccircumflex" unicode="&#x109;" horiz-adv-x="1041" 
d="M925 956q88 -58 88 -173q0 -61 -52 -94.5t-126 -33.5q-24 0 -33.5 1.5t-16.5 10.5t-13 32l-55 218q-18 16 -78 16q-75 0 -136 -66.5t-96 -192t-35 -294.5q0 -139 61.5 -205.5t154.5 -66.5q79 0 143 32t128 91q7 8 11.5 11t10.5 -1l37 -33q5 -4 5 -9q0 -4 -4.5 -10
t-6.5 -9q-81 -100 -178.5 -154t-230.5 -54q-137 0 -234.5 52.5t-148.5 149.5t-51 227q0 170 81.5 310.5t219 221.5t298.5 81q169 0 257 -58zM681 1542.5q29 13.5 72 13.5t67.5 -16t39.5 -44l185 -359h-133l-189 221l-260 -221h-138l306 368q21 24 50 37.5z" />
    <glyph glyph-name="Cdotaccent" unicode="&#x10a;" horiz-adv-x="1415" 
d="M416 53.5q-147 81.5 -221 228t-74 340.5q0 245 119 433.5t315.5 291t421.5 102.5q167 0 268 -25.5t176 -62.5l-34 -303q-1 -20 -28.5 -30.5t-47.5 -10.5q-53 0 -55 49q1 147 -70.5 217t-223.5 70q-124 0 -241 -78.5t-193 -242t-76 -403.5q0 -170 41.5 -298t116 -197
t171.5 -69q116 0 185 33.5t111.5 96t89.5 177.5q8 19 19 26.5t31 7.5q19 0 48.5 -8.5t28.5 -22.5l-36 -274q-5 -16 -78 -48t-181.5 -56.5t-222.5 -24.5q-213 0 -360 81.5zM882 1590.5q-39 38.5 -39 100.5q0 54 26 99.5t70.5 72t95.5 26.5q63 0 103 -39t40 -101
q0 -53 -26.5 -98.5t-70.5 -72t-96 -26.5q-64 0 -103 38.5z" />
    <glyph glyph-name="cdotaccent" unicode="&#x10b;" horiz-adv-x="1041" 
d="M925 956q88 -58 88 -173q0 -61 -52 -94.5t-126 -33.5q-24 0 -33.5 1.5t-16.5 10.5t-13 32l-55 218q-18 16 -78 16q-75 0 -136 -66.5t-96 -192t-35 -294.5q0 -139 61.5 -205.5t154.5 -66.5q79 0 143 32t128 91q7 8 11.5 11t10.5 -1l37 -33q5 -4 5 -9q0 -4 -4.5 -10
t-6.5 -9q-81 -100 -178.5 -154t-230.5 -54q-137 0 -234.5 52.5t-148.5 149.5t-51 227q0 170 81.5 310.5t219 221.5t298.5 81q169 0 257 -58zM593.5 1220q-39.5 39 -39.5 101q0 55 26.5 100t71 71t95.5 26q63 0 103 -39t40 -101q0 -54 -26.5 -99t-71.5 -71.5t-96 -26.5
q-63 0 -102.5 39z" />
    <glyph glyph-name="Ccaron" unicode="&#x10c;" horiz-adv-x="1415" 
d="M416 53.5q-147 81.5 -221 228t-74 340.5q0 245 119 433.5t315.5 291t421.5 102.5q167 0 268 -25.5t176 -62.5l-34 -303q-1 -20 -28.5 -30.5t-47.5 -10.5q-53 0 -55 49q1 147 -70.5 217t-223.5 70q-124 0 -241 -78.5t-193 -242t-76 -403.5q0 -170 41.5 -298t116 -197
t171.5 -69q116 0 185 33.5t111.5 96t89.5 177.5q8 19 19 26.5t31 7.5q19 0 48.5 -8.5t28.5 -22.5l-36 -274q-5 -16 -78 -48t-181.5 -56.5t-222.5 -24.5q-213 0 -360 81.5zM918 1575.5q-25 13.5 -39 37.5l-192 345h138l190 -205l256 205h133l-294 -336q-25 -28 -53.5 -44
t-70.5 -16q-43 0 -68 13.5z" />
    <glyph glyph-name="ccaron" unicode="&#x10d;" horiz-adv-x="1041" 
d="M925 956q88 -58 88 -173q0 -61 -52 -94.5t-126 -33.5q-24 0 -33.5 1.5t-16.5 10.5t-13 32l-55 218q-18 16 -78 16q-75 0 -136 -66.5t-96 -192t-35 -294.5q0 -139 61.5 -205.5t154.5 -66.5q79 0 143 32t128 91q7 8 11.5 11t10.5 -1l37 -33q5 -4 5 -9q0 -4 -4.5 -10
t-6.5 -9q-81 -100 -178.5 -154t-230.5 -54q-137 0 -234.5 52.5t-148.5 149.5t-51 227q0 170 81.5 310.5t219 221.5t298.5 81q169 0 257 -58zM620.5 1143.5q-25.5 13.5 -39.5 37.5l-190 355h138l188 -215l258 215h133l-295 -346q-24 -28 -52.5 -44t-71.5 -16t-68.5 13.5z" />
    <glyph glyph-name="Dcaron" unicode="&#x10e;" horiz-adv-x="1650" 
d="M34.5 77q8.5 9 27.5 11q63 5 110 19.5t50 44.5l166 1093q1 35 -21.5 53t-51 23.5t-73.5 9.5q-17 2 -23.5 6t-6.5 16q0 9 1 15q0 14 12.5 32.5t28.5 18.5h615q252 0 410.5 -79t227.5 -205t69 -276q0 -260 -112 -455t-308.5 -299.5t-443.5 -104.5h-660q-15 0 -22.5 18.5
t-4.5 32.5q1 17 9.5 26zM534.5 114q8.5 -9 43.5 -14.5t112 -5.5q168 0 295 84t199 259.5t72 440.5q0 170 -55 269.5t-156.5 141.5t-251.5 42h-92l-178 -1190q3 -18 11.5 -27zM880 1575.5q-25 13.5 -39 37.5l-192 345h138l190 -205l256 205h133l-294 -336q-25 -28 -53.5 -44
t-70.5 -16q-43 0 -68 13.5z" />
    <glyph glyph-name="dcaron" unicode="&#x10f;" horiz-adv-x="1297" 
d="M229.5 26.5q-81.5 55.5 -118.5 148t-37 207.5q0 166 78 311.5t217.5 233t314.5 87.5q81 0 134 -13.5t98 -38.5l19 142l31 233q2 14 2 19q0 48 -36.5 65.5t-96.5 25.5q-26 4 -38 7q-10 4 -15 11t-5 20t6.5 24.5t14.5 13.5q92 8 185.5 14.5t135.5 7.5q43 2 81 -2.5
t51 -15.5q10 -5 7 -20l-194 -1334q-2 -14 -2 -19q0 -53 58 -53q17 0 53 8q7 1 18.5 3t16.5 2q12 0 18.5 -9.5t6.5 -26.5q0 -13 -6.5 -25.5t-18.5 -16.5q-163 -52 -261 -52q-95 0 -129.5 39t-34.5 88q0 9 5 41q-40 -55 -101 -96t-127 -63t-122 -22q-127 0 -208.5 55.5z
M639 135.5q52 26.5 97 68t71 84.5l78 510q-16 48 -64 84.5t-122 36.5q-111 0 -184.5 -83t-108 -210.5t-34.5 -262.5t47 -194.5t120 -59.5q48 0 100 26.5zM1401 1205.5q30 52.5 30 101.5q0 24 -8 40t-23 35q-18 23 -27 42.5t-9 50.5q0 32 18 61t48 46.5t64 17.5
q62 0 96.5 -41t34.5 -107q0 -95 -76 -204.5t-182 -202.5l-50 48q54 60 84 112.5z" />
    <glyph glyph-name="Dcroat" unicode="&#x110;" horiz-adv-x="1650" 
d="M1279.5 1340q158.5 -79 227.5 -205t69 -276q0 -260 -112 -455t-308.5 -299.5t-443.5 -104.5h-660q-15 0 -22.5 18.5t-4.5 32.5q1 17 9.5 26t27.5 11q63 5 110 19.5t50 44.5l82 542h-156q-11 1 -17.5 11t-6.5 23q0 20 7 39.5t17 23.5h171l69 454q1 35 -21.5 53t-51 23.5
t-73.5 9.5q-17 2 -23.5 6t-6.5 16q0 9 1 15q0 14 12.5 32.5t28.5 18.5h615q252 0 410.5 -79zM985 178q127 84 199 259.5t72 440.5q0 170 -55 269.5t-156.5 141.5t-251.5 42h-92l-81 -540h354q11 -1 17.5 -11t6.5 -23q0 -20 -7 -39.5t-17 -23.5h-368l-83 -553q3 -18 11.5 -27
t43.5 -14.5t112 -5.5q168 0 295 84z" />
    <glyph glyph-name="dcroat" unicode="&#x111;" horiz-adv-x="1297" 
d="M1410.5 1286q5.5 -7 5.5 -17q0 -6 -1 -9q-2 -20 -11.5 -42t-20.5 -26h-171l-149 -1019q-1 -7 -1 -19q0 -28 14.5 -40.5t42.5 -12.5q17 0 53 8q7 1 18.5 3t16.5 2q12 0 18.5 -9.5t6.5 -26.5q0 -13 -6.5 -25.5t-18.5 -16.5q-163 -52 -261 -52q-95 0 -129 38.5t-34 88.5
q0 9 5 41q-40 -55 -101.5 -96t-127.5 -63t-122 -22q-126 0 -207.5 55.5t-118.5 148t-37 207.5q0 166 78 311.5t217 233t314 87.5q81 0 134 -13.5t99 -38.5l18 142l12 88h-296q-18 1 -18 49q3 19 11.5 34t18.5 19h297l6 43q2 14 2 19q0 48 -36.5 65.5t-96.5 25.5q-26 4 -38 7
q-10 4 -14.5 11t-4.5 20t6.5 24.5t14.5 13.5q90 8 184.5 14.5t136.5 7.5q42 2 80 -2.5t51 -15.5q10 -5 8 -20l-31 -213h169q9 -1 14.5 -8zM885 798q-16 48 -64.5 84.5t-122.5 36.5q-111 0 -184.5 -83t-108 -210.5t-34.5 -262.5t47 -194.5t120 -59.5q48 0 100 26.5t97 68
t71 84.5z" />
    <glyph glyph-name="Emacron" unicode="&#x112;" horiz-adv-x="1431" 
d="M1349.5 397.5q14.5 -8.5 13.5 -25.5l-78 -372h-1242q-14 0 -21 14t-7 29q0 21 8.5 32t29.5 13q66 5 117 20t54 44l161 1091q1 36 -25 54.5t-57 24t-80 9.5q-18 2 -24.5 6t-6.5 16q0 23 13 44.5t30 21.5h1145l-21 -318q-2 -16 -19 -25t-32 -9q-19 0 -33 8.5t-14 27.5
q0 36 -13.5 89t-49.5 96t-100 43h-403l-78 -555h278q24 3 49 35t44 72t26 65q5 18 25 25.5t44 7.5q14 0 27.5 -9t10.5 -25l-64 -443q-3 -16 -18 -25t-29 -9q-24 0 -42 7.5t-18 23.5q0 28 -6.5 71t-23 77.5t-42.5 34.5h-274l-72 -509q0 -38 21.5 -54.5t56.5 -20.5h369
q74 0 133 54t93.5 115.5t49.5 103.5q6 17 21.5 25t33.5 8q25 0 39.5 -8.5zM615 1763h588l-23 -148h-587z" />
    <glyph glyph-name="emacron" unicode="&#x113;" horiz-adv-x="1083" 
d="M932 609.5q-90 -78.5 -239.5 -128.5t-333.5 -74q-1 -15 -1 -47q0 -134 66 -194.5t163 -60.5q87 0 162 28.5t161 88.5q9 7 14 7q8 0 25 -17t19 -29l2 -5q0 -5 -3 -9t-4 -5q-87 -92 -204 -142.5t-250 -50.5q-137 0 -236.5 51t-151.5 144.5t-52 218.5q0 174 85 318.5
t226.5 227.5t302.5 83q120 0 196 -34t109.5 -84t33.5 -103q0 -105 -90 -183.5zM521.5 879q-60.5 -54 -102.5 -155.5t-55 -239.5q190 41 291 123.5t100 215.5q0 50 -27 80t-80 30q-66 0 -126.5 -54zM438 1330h588l-23 -148h-587z" />
    <glyph glyph-name="Ebreve" unicode="&#x114;" horiz-adv-x="1431" 
d="M1349.5 397.5q14.5 -8.5 13.5 -25.5l-78 -372h-1242q-14 0 -21 14t-7 29q0 21 8.5 32t29.5 13q66 5 117 20t54 44l161 1091q1 36 -25 54.5t-57 24t-80 9.5q-18 2 -24.5 6t-6.5 16q0 23 13 44.5t30 21.5h1145l-21 -318q-2 -16 -19 -25t-32 -9q-19 0 -33 8.5t-14 27.5
q0 36 -13.5 89t-49.5 96t-100 43h-403l-78 -555h278q24 3 49 35t44 72t26 65q5 18 25 25.5t44 7.5q14 0 27.5 -9t10.5 -25l-64 -443q-3 -16 -18 -25t-29 -9q-24 0 -42 7.5t-18 23.5q0 28 -6.5 71t-23 77.5t-42.5 34.5h-274l-72 -509q0 -38 21.5 -54.5t56.5 -20.5h369
q74 0 133 54t93.5 115.5t49.5 103.5q6 17 21.5 25t33.5 8q25 0 39.5 -8.5zM678.5 1651q-82.5 61 -82.5 213q0 44 9 95h126q-1 -9 -1 -25q0 -79 43 -127.5t137 -48.5t155.5 56.5t79.5 144.5h126q-26 -206 -136.5 -287.5t-251.5 -81.5q-122 0 -204.5 61z" />
    <glyph glyph-name="ebreve" unicode="&#x115;" horiz-adv-x="1083" 
d="M932 609.5q-90 -78.5 -239.5 -128.5t-333.5 -74q-1 -15 -1 -47q0 -134 66 -194.5t163 -60.5q87 0 162 28.5t161 88.5q9 7 14 7q8 0 25 -17t19 -29l2 -5q0 -5 -3 -9t-4 -5q-87 -92 -204 -142.5t-250 -50.5q-137 0 -236.5 51t-151.5 144.5t-52 218.5q0 174 85 318.5
t226.5 227.5t302.5 83q120 0 196 -34t109.5 -84t33.5 -103q0 -105 -90 -183.5zM521.5 879q-60.5 -54 -102.5 -155.5t-55 -239.5q190 41 291 123.5t100 215.5q0 50 -27 80t-80 30q-66 0 -126.5 -54zM505.5 1243q-82.5 61 -82.5 214q0 43 9 95h127q-1 -9 -1 -25
q0 -77 46.5 -127t132.5 -50q102 0 159 55t76 147h126q-26 -207 -136.5 -288.5t-251.5 -81.5q-122 0 -204.5 61z" />
    <glyph glyph-name="Edotaccent" unicode="&#x116;" horiz-adv-x="1431" 
d="M1349.5 397.5q14.5 -8.5 13.5 -25.5l-78 -372h-1242q-14 0 -21 14t-7 29q0 21 8.5 32t29.5 13q66 5 117 20t54 44l161 1091q1 36 -25 54.5t-57 24t-80 9.5q-18 2 -24.5 6t-6.5 16q0 23 13 44.5t30 21.5h1145l-21 -318q-2 -16 -19 -25t-32 -9q-19 0 -33 8.5t-14 27.5
q0 36 -13.5 89t-49.5 96t-100 43h-403l-78 -555h278q24 3 49 35t44 72t26 65q5 18 25 25.5t44 7.5q14 0 27.5 -9t10.5 -25l-64 -443q-3 -16 -18 -25t-29 -9q-24 0 -42 7.5t-18 23.5q0 28 -6.5 71t-23 77.5t-42.5 34.5h-274l-72 -509q0 -38 21.5 -54.5t56.5 -20.5h369
q74 0 133 54t93.5 115.5t49.5 103.5q6 17 21.5 25t33.5 8q25 0 39.5 -8.5zM774 1590.5q-39 38.5 -39 100.5q0 54 26 99.5t70.5 72t95.5 26.5q63 0 103 -39t40 -101q0 -53 -26.5 -98.5t-70.5 -72t-96 -26.5q-64 0 -103 38.5z" />
    <glyph glyph-name="edotaccent" unicode="&#x117;" horiz-adv-x="1083" 
d="M932 609.5q-90 -78.5 -239.5 -128.5t-333.5 -74q-1 -15 -1 -47q0 -134 66 -194.5t163 -60.5q87 0 162 28.5t161 88.5q9 7 14 7q8 0 25 -17t19 -29l2 -5q0 -5 -3 -9t-4 -5q-87 -92 -204 -142.5t-250 -50.5q-137 0 -236.5 51t-151.5 144.5t-52 218.5q0 174 85 318.5
t226.5 227.5t302.5 83q120 0 196 -34t109.5 -84t33.5 -103q0 -105 -90 -183.5zM521.5 879q-60.5 -54 -102.5 -155.5t-55 -239.5q190 41 291 123.5t100 215.5q0 50 -27 80t-80 30q-66 0 -126.5 -54zM606.5 1220q-39.5 39 -39.5 101q0 55 26.5 100t71 71t95.5 26q63 0 103 -39
t40 -101q0 -54 -26.5 -99t-71.5 -71.5t-96 -26.5q-63 0 -102.5 39z" />
    <glyph glyph-name="Eogonek" unicode="&#x118;" horiz-adv-x="1431" 
d="M1349.5 397.5q14.5 -8.5 13.5 -25.5l-78 -372h-131q-77 -48 -116 -105.5t-39 -120.5q0 -38 21.5 -66.5t55.5 -44t69 -15.5q31 0 51.5 4.5t53.5 22.5q9 5 18.5 -11.5t9.5 -40.5q0 -32 -26 -51q-34 -27 -92 -44t-117 -17q-84 0 -143 26t-88.5 69.5t-29.5 96.5
q0 58 36.5 115.5t100 105t142.5 76.5h-1018q-14 0 -21 14t-7 29q0 21 8.5 32t29.5 13q66 5 117 20t54 44l161 1091q1 36 -25 54.5t-57 24t-80 9.5q-18 2 -24.5 6t-6.5 16q0 23 13 44.5t30 21.5h1145l-21 -318q-2 -16 -19 -25t-32 -9q-19 0 -33 8.5t-14 27.5q0 36 -13.5 89
t-49.5 96t-100 43h-403l-78 -555h278q24 3 49 35t44 72t26 65q5 18 25 25.5t44 7.5q14 0 27.5 -9t10.5 -25l-64 -443q-3 -16 -18 -25t-29 -9q-24 0 -42 7.5t-18 23.5q0 28 -6.5 71t-23 77.5t-42.5 34.5h-274l-72 -509q0 -38 21.5 -54.5t56.5 -20.5h369q74 0 133 54
t93.5 115.5t49.5 103.5q6 17 21.5 25t33.5 8q25 0 39.5 -8.5z" />
    <glyph glyph-name="eogonek" unicode="&#x119;" horiz-adv-x="1083" 
d="M949 212q17 -17 19 -29l2 -5q0 -5 -3 -9t-4 -5q-85 -90 -193 -137q-158 -95 -158 -230q0 -37 20 -65.5t51.5 -43.5t63.5 -15q31 0 52 4.5t53 21.5q5 3 12.5 -4.5t13 -21.5t5.5 -29q0 -32 -26 -52q-34 -27 -92 -43.5t-117 -16.5q-84 0 -143 26t-88.5 69.5t-29.5 96.5
q0 68 47 134.5t129 114.5q-36 -2 -54 -2q-137 0 -236.5 51t-151.5 144.5t-52 218.5q0 174 85 318.5t226.5 227.5t302.5 83q120 0 196 -34t109.5 -84t33.5 -103q0 -105 -90 -183.5t-239.5 -128.5t-333.5 -74q-1 -15 -1 -47q0 -134 66 -194.5t163 -60.5q87 0 162 28.5
t161 88.5q9 7 14 7q8 0 25 -17zM521.5 879q-60.5 -54 -102.5 -155.5t-55 -239.5q190 41 291 123.5t100 215.5q0 50 -27 80t-80 30q-66 0 -126.5 -54z" />
    <glyph glyph-name="Ecaron" unicode="&#x11a;" horiz-adv-x="1431" 
d="M1349.5 397.5q14.5 -8.5 13.5 -25.5l-78 -372h-1242q-14 0 -21 14t-7 29q0 21 8.5 32t29.5 13q66 5 117 20t54 44l161 1091q1 36 -25 54.5t-57 24t-80 9.5q-18 2 -24.5 6t-6.5 16q0 23 13 44.5t30 21.5h1145l-21 -318q-2 -16 -19 -25t-32 -9q-19 0 -33 8.5t-14 27.5
q0 36 -13.5 89t-49.5 96t-100 43h-403l-78 -555h278q24 3 49 35t44 72t26 65q5 18 25 25.5t44 7.5q14 0 27.5 -9t10.5 -25l-64 -443q-3 -16 -18 -25t-29 -9q-24 0 -42 7.5t-18 23.5q0 28 -6.5 71t-23 77.5t-42.5 34.5h-274l-72 -509q0 -38 21.5 -54.5t56.5 -20.5h369
q74 0 133 54t93.5 115.5t49.5 103.5q6 17 21.5 25t33.5 8q25 0 39.5 -8.5zM811 1575.5q-25 13.5 -39 37.5l-192 345h138l190 -205l256 205h133l-294 -336q-25 -28 -53.5 -44t-70.5 -16q-43 0 -68 13.5z" />
    <glyph glyph-name="ecaron" unicode="&#x11b;" horiz-adv-x="1083" 
d="M932 609.5q-90 -78.5 -239.5 -128.5t-333.5 -74q-1 -15 -1 -47q0 -134 66 -194.5t163 -60.5q87 0 162 28.5t161 88.5q9 7 14 7q8 0 25 -17t19 -29l2 -5q0 -5 -3 -9t-4 -5q-87 -92 -204 -142.5t-250 -50.5q-137 0 -236.5 51t-151.5 144.5t-52 218.5q0 174 85 318.5
t226.5 227.5t302.5 83q120 0 196 -34t109.5 -84t33.5 -103q0 -105 -90 -183.5zM521.5 879q-60.5 -54 -102.5 -155.5t-55 -239.5q190 41 291 123.5t100 215.5q0 50 -27 80t-80 30q-66 0 -126.5 -54zM633.5 1143.5q-25.5 13.5 -39.5 37.5l-190 355h138l188 -215l258 215h133
l-295 -346q-24 -28 -52.5 -44t-71.5 -16t-68.5 13.5z" />
    <glyph glyph-name="Gcircumflex" unicode="&#x11c;" horiz-adv-x="1597" 
d="M448.5 43.5q-155.5 73.5 -244 220.5t-88.5 359q0 258 123 445.5t320.5 284t415.5 96.5q148 0 249.5 -14t154.5 -31.5t112 -42.5l-45 -310q-1 -20 -21 -30.5t-37 -10.5q-28 0 -42.5 5t-16.5 23q-12 124 -64 193.5t-130.5 95.5t-182.5 26q-166 0 -280.5 -113.5t-170 -286
t-55.5 -349.5q0 -173 46.5 -294t126.5 -182t179 -61q123 0 189 31.5t82 71.5l52 305q-1 31 -29 47t-60 21t-91 10q-31 1 -31 23q0 23 8.5 44t35.5 21h605q13 0 19.5 -14t6.5 -30q0 -41 -39 -44q-131 -11 -132 -64l-57 -366q-19 -26 -97.5 -62.5t-198 -63.5t-258.5 -27
q-199 0 -354.5 73.5zM979.5 1943.5q28.5 13.5 71.5 13.5t68 -16t39 -44l193 -339h-133l-196 208l-253 -208h-138l298 348q22 24 50.5 37.5z" />
    <glyph glyph-name="gcircumflex" unicode="&#x11d;" horiz-adv-x="1278" 
d="M239 -425q-119 34 -183.5 100t-64.5 158q1 79 53.5 134t135.5 84q-33 25 -48.5 55t-15.5 73q0 78 56 140t137 95q-76 35 -116 98.5t-39 135.5q0 120 65 202.5t174 123t244 40.5q113 0 194.5 -24.5t129.5 -70.5q38 38 102 68t121 30q64 0 104 -38t39 -106q0 -56 -32 -87
t-76 -31q-28 0 -51 12t-30 33q-13 27 -30 78q-2 2 -9 2q-14 0 -40 -8.5t-48 -19.5q11 -20 19 -47.5t8 -55.5q0 -121 -59.5 -207.5t-166.5 -131t-248 -44.5q-101 0 -172 17q-30 -13 -51.5 -37.5t-22.5 -48.5q0 -31 27 -51t81 -26l297 -33q133 -15 214.5 -49.5t118.5 -90
t37 -136.5q0 -117 -77.5 -200.5t-208.5 -126.5t-290 -43t-278 34zM732 537q48 80 48 214q0 176 -164 176q-104 0 -146 -75t-42 -204q0 -91 37.5 -141t117.5 -50q101 0 149 80zM762 -312.5q91 49.5 92 152.5q0 51 -63 78t-170 39l-258 31q-54 5 -86 17q-22 -25 -34 -62.5
t-12 -83.5q0 -109 76.5 -165t230.5 -56q133 0 224 49.5zM677 1542.5q29 13.5 72 13.5t67.5 -16t39.5 -44l185 -359h-133l-189 221l-260 -221h-138l306 368q21 24 50 37.5z" />
    <glyph glyph-name="Gbreve" unicode="&#x11e;" horiz-adv-x="1597" 
d="M448.5 43.5q-155.5 73.5 -244 220.5t-88.5 359q0 258 123 445.5t320.5 284t415.5 96.5q148 0 249.5 -14t154.5 -31.5t112 -42.5l-45 -310q-1 -20 -21 -30.5t-37 -10.5q-28 0 -42.5 5t-16.5 23q-12 124 -64 193.5t-130.5 95.5t-182.5 26q-166 0 -280.5 -113.5t-170 -286
t-55.5 -349.5q0 -173 46.5 -294t126.5 -182t179 -61q123 0 189 31.5t82 71.5l52 305q-1 31 -29 47t-60 21t-91 10q-31 1 -31 23q0 23 8.5 44t35.5 21h605q13 0 19.5 -14t6.5 -30q0 -41 -39 -44q-131 -11 -132 -64l-57 -366q-19 -26 -97.5 -62.5t-198 -63.5t-258.5 -27
q-199 0 -354.5 73.5zM792.5 1651q-82.5 61 -82.5 213q0 44 9 95h126q-1 -9 -1 -25q0 -79 43 -127.5t137 -48.5t155.5 56.5t79.5 144.5h126q-26 -206 -136.5 -287.5t-251.5 -81.5q-122 0 -204.5 61z" />
    <glyph glyph-name="gbreve" unicode="&#x11f;" horiz-adv-x="1278" 
d="M239 -425q-119 34 -183.5 100t-64.5 158q1 79 53.5 134t135.5 84q-33 25 -48.5 55t-15.5 73q0 78 56 140t137 95q-76 35 -116 98.5t-39 135.5q0 120 65 202.5t174 123t244 40.5q113 0 194.5 -24.5t129.5 -70.5q38 38 102 68t121 30q64 0 104 -38t39 -106q0 -56 -32 -87
t-76 -31q-28 0 -51 12t-30 33q-13 27 -30 78q-2 2 -9 2q-14 0 -40 -8.5t-48 -19.5q11 -20 19 -47.5t8 -55.5q0 -121 -59.5 -207.5t-166.5 -131t-248 -44.5q-101 0 -172 17q-30 -13 -51.5 -37.5t-22.5 -48.5q0 -31 27 -51t81 -26l297 -33q133 -15 214.5 -49.5t118.5 -90
t37 -136.5q0 -117 -77.5 -200.5t-208.5 -126.5t-290 -43t-278 34zM732 537q48 80 48 214q0 176 -164 176q-104 0 -146 -75t-42 -204q0 -91 37.5 -141t117.5 -50q101 0 149 80zM762 -312.5q91 49.5 92 152.5q0 51 -63 78t-170 39l-258 31q-54 5 -86 17q-22 -25 -34 -62.5
t-12 -83.5q0 -109 76.5 -165t230.5 -56q133 0 224 49.5zM488.5 1243q-82.5 61 -82.5 214q0 43 9 95h127q-1 -9 -1 -25q0 -77 46.5 -127t132.5 -50q102 0 159 55t76 147h126q-26 -207 -136.5 -288.5t-251.5 -81.5q-122 0 -204.5 61z" />
    <glyph glyph-name="Gdotaccent" unicode="&#x120;" horiz-adv-x="1597" 
d="M448.5 43.5q-155.5 73.5 -244 220.5t-88.5 359q0 258 123 445.5t320.5 284t415.5 96.5q148 0 249.5 -14t154.5 -31.5t112 -42.5l-45 -310q-1 -20 -21 -30.5t-37 -10.5q-28 0 -42.5 5t-16.5 23q-12 124 -64 193.5t-130.5 95.5t-182.5 26q-166 0 -280.5 -113.5t-170 -286
t-55.5 -349.5q0 -173 46.5 -294t126.5 -182t179 -61q123 0 189 31.5t82 71.5l52 305q-1 31 -29 47t-60 21t-91 10q-31 1 -31 23q0 23 8.5 44t35.5 21h605q13 0 19.5 -14t6.5 -30q0 -41 -39 -44q-131 -11 -132 -64l-57 -366q-19 -26 -97.5 -62.5t-198 -63.5t-258.5 -27
q-199 0 -354.5 73.5zM888 1590.5q-39 38.5 -39 100.5q0 54 26 99.5t70.5 72t95.5 26.5q63 0 103 -39t40 -101q0 -53 -26.5 -98.5t-70.5 -72t-96 -26.5q-64 0 -103 38.5z" />
    <glyph glyph-name="gdotaccent" unicode="&#x121;" horiz-adv-x="1278" 
d="M239 -425q-119 34 -183.5 100t-64.5 158q1 79 53.5 134t135.5 84q-33 25 -48.5 55t-15.5 73q0 78 56 140t137 95q-76 35 -116 98.5t-39 135.5q0 120 65 202.5t174 123t244 40.5q113 0 194.5 -24.5t129.5 -70.5q38 38 102 68t121 30q64 0 104 -38t39 -106q0 -56 -32 -87
t-76 -31q-28 0 -51 12t-30 33q-13 27 -30 78q-2 2 -9 2q-14 0 -40 -8.5t-48 -19.5q11 -20 19 -47.5t8 -55.5q0 -121 -59.5 -207.5t-166.5 -131t-248 -44.5q-101 0 -172 17q-30 -13 -51.5 -37.5t-22.5 -48.5q0 -31 27 -51t81 -26l297 -33q133 -15 214.5 -49.5t118.5 -90
t37 -136.5q0 -117 -77.5 -200.5t-208.5 -126.5t-290 -43t-278 34zM732 537q48 80 48 214q0 176 -164 176q-104 0 -146 -75t-42 -204q0 -91 37.5 -141t117.5 -50q101 0 149 80zM762 -312.5q91 49.5 92 152.5q0 51 -63 78t-170 39l-258 31q-54 5 -86 17q-22 -25 -34 -62.5
t-12 -83.5q0 -109 76.5 -165t230.5 -56q133 0 224 49.5zM589.5 1220q-39.5 39 -39.5 101q0 55 26.5 100t71 71t95.5 26q63 0 103 -39t40 -101q0 -54 -26.5 -99t-71.5 -71.5t-96 -26.5q-63 0 -102.5 39z" />
    <glyph glyph-name="uni0122" unicode="&#x122;" horiz-adv-x="1597" 
d="M448.5 43.5q-155.5 73.5 -244 220.5t-88.5 359q0 258 123 445.5t320.5 284t415.5 96.5q148 0 249.5 -14t154.5 -31.5t112 -42.5l-45 -310q-1 -20 -21 -30.5t-37 -10.5q-28 0 -42.5 5t-16.5 23q-12 124 -64 193.5t-130.5 95.5t-182.5 26q-166 0 -280.5 -113.5t-170 -286
t-55.5 -349.5q0 -173 46.5 -294t126.5 -182t179 -61q123 0 189 31.5t82 71.5l52 305q-1 31 -29 47t-60 21t-91 10q-31 1 -31 23q0 23 8.5 44t35.5 21h605q13 0 19.5 -14t6.5 -30q0 -41 -39 -44q-131 -11 -132 -64l-57 -366q-19 -26 -97.5 -62.5t-198 -63.5t-258.5 -27
q-199 0 -354.5 73.5zM796.5 -167q31.5 -36 31.5 -105q0 -24 -3 -49q-10 -66 -44 -130t-79.5 -115t-91.5 -79q-9 -6 -24 -6q-16 0 -28.5 7.5t-12.5 19.5q0 15 20 35q27 25 51.5 74t32.5 106q-41 0 -72 31t-31 82q0 6 2 24q8 70 55 105.5t109 35.5q53 0 84.5 -36z" />
    <glyph glyph-name="uni0123" unicode="&#x123;" horiz-adv-x="1278" 
d="M239 -425q-119 34 -183.5 100t-64.5 158q1 79 53.5 134t135.5 84q-33 25 -48.5 55t-15.5 73q0 78 56 140t137 95q-76 35 -116 98.5t-39 135.5q0 120 65 202.5t174 123t244 40.5q113 0 194.5 -24.5t129.5 -70.5q38 38 102 68t121 30q64 0 104 -38t39 -106q0 -56 -32 -87
t-76 -31q-28 0 -51 12t-30 33q-13 27 -30 78q-2 2 -9 2q-14 0 -40 -8.5t-48 -19.5q11 -20 19 -47.5t8 -55.5q0 -121 -59.5 -207.5t-166.5 -131t-248 -44.5q-101 0 -172 17q-30 -13 -51.5 -37.5t-22.5 -48.5q0 -31 27 -51t81 -26l297 -33q133 -15 214.5 -49.5t118.5 -90
t37 -136.5q0 -117 -77.5 -200.5t-208.5 -126.5t-290 -43t-278 34zM732 537q48 80 48 214q0 176 -164 176q-104 0 -146 -75t-42 -204q0 -91 37.5 -141t117.5 -50q101 0 149 80zM762 -312.5q91 49.5 92 152.5q0 51 -63 78t-170 39l-258 31q-54 5 -86 17q-22 -25 -34 -62.5
t-12 -83.5q0 -109 76.5 -165t230.5 -56q133 0 224 49.5zM611 1190q-32 32 -32 101q0 27 4 52q12 76 56.5 155.5t100.5 141t99 86.5q9 5 24 5t26.5 -7.5t11.5 -20.5q0 -16 -24 -37q-34 -32 -68 -85.5t-41 -99.5q-4 -25 -4 -52q38 -3 71 -26t33 -74q0 -7 -2 -23
q-9 -71 -57 -109.5t-114 -38.5q-52 0 -84 32z" />
    <glyph glyph-name="Hcircumflex" unicode="&#x124;" horiz-adv-x="1803" 
d="M42.5 17q-7.5 17 -7.5 33q0 34 39 38q142 10 152 64l162 1101q0 31 -19.5 47t-44.5 21t-70 10q-19 2 -25 10.5t-6 28.5q0 17 13 33t29 16h582q13 0 19.5 -13t6.5 -28q0 -42 -38 -47q-61 -5 -105.5 -19.5t-49.5 -44.5l-74 -491h677l70 475q0 32 -20 48.5t-46 22t-71 9.5
q-20 2 -26 9.5t-6 27.5q0 18 13.5 34.5t29.5 16.5h571q14 0 20.5 -14.5t6.5 -30.5q-1 -19 -9.5 -30t-29.5 -13q-134 -13 -141 -64l-163 -1099q0 -32 23 -48.5t47.5 -21t80.5 -10.5q18 -2 24 -9t6 -22q0 -21 -10.5 -39t-27.5 -18h-598q-16 0 -24 17.5t-6 32.5q3 18 11 27.5
t28 10.5q61 5 105.5 19.5t49.5 44.5l78 532h-677l-75 -517q0 -32 21 -48t46 -21t71 -10q18 -2 24 -9t6 -22q0 -21 -10.5 -39t-27.5 -18h-582q-15 0 -22.5 17zM1051.5 1943.5q28.5 13.5 71.5 13.5t68 -16t39 -44l193 -339h-133l-196 208l-253 -208h-138l298 348
q22 24 50.5 37.5z" />
    <glyph glyph-name="hcircumflex" unicode="&#x125;" horiz-adv-x="1306" 
d="M278 1361q0 31 -13 48t-31.5 24t-46.5 12q-23 3 -37 9q-19 10 -19 34q0 12 9.5 30.5t21.5 19.5q138 9 312 9h72q10 0 17.5 -9t6.5 -31l-70 -434l-51 -296q54 54 114 102.5t154.5 91.5t203.5 43q108 0 169.5 -48.5t61.5 -155.5q0 -22 -3 -46l-94 -598q-2 -35 12.5 -50
t45.5 -15q14 0 33.5 3.5t26.5 4.5q20 5 27 5q12 0 18.5 -9.5t6.5 -26.5q0 -13 -6.5 -25.5t-18.5 -16.5q-165 -49 -262 -49t-131 35t-34 82l95 627q0 41 -5 64.5t-28 39t-72 15.5q-93 0 -175.5 -56.5t-147.5 -128.5l-104 -665h-268l208 1337q2 18 2 24zM415.5 1993.5
q28.5 13.5 71.5 13.5t68 -16t39 -44l193 -339h-133l-196 208l-253 -208h-138l298 348q22 24 50.5 37.5z" />
    <glyph glyph-name="Hbar" unicode="&#x126;" horiz-adv-x="1803" 
d="M1821.5 1405.5q6.5 -13.5 6.5 -28.5q0 -21 -8.5 -32.5t-29.5 -13.5q-135 -14 -142 -64l-40 -271h131q9 -1 14.5 -8t5.5 -17q0 -18 -11 -45t-22 -32h-133l-108 -726q0 -32 23 -48.5t47.5 -21t80.5 -10.5q19 -2 25.5 -10.5t4.5 -26.5q0 -19 -11 -35t-27 -16h-598
q-15 0 -23 17.5t-7 32.5q3 18 11 27.5t28 10.5q61 5 105.5 19.5t49.5 44.5l70 462h-677l-67 -447q0 -32 21 -48t46 -21t71 -10q18 -2 24 -9t6 -22q0 -21 -10.5 -39t-27.5 -18h-582q-15 0 -22.5 17t-7.5 33q0 34 39 38q142 10 152 64l110 742h-142q-9 1 -14.5 8t-5.5 17
q0 18 10.5 45t22.5 32h144l38 257q0 31 -19.5 47t-45 21t-70.5 10q-19 2 -25 10.5t-6 28.5q0 17 13 33t29 16h582q13 0 20 -14.5t7 -29.5q-1 -21 -10.5 -31.5t-28.5 -12.5q-61 -5 -105.5 -19.5t-49.5 -44.5l-40 -271h677l37 255q0 32 -20 48.5t-46.5 22t-71.5 9.5
q-19 2 -25 9.5t-6 27.5q0 18 13 34.5t29 16.5h572q13 0 19.5 -13.5zM1277 706l28 188h-677l-27 -188h676z" />
    <glyph glyph-name="hbar" unicode="&#x127;" horiz-adv-x="1306" 
d="M1181.5 104.5q6.5 -9.5 6.5 -26.5q0 -13 -6.5 -25.5t-18.5 -16.5q-165 -49 -262 -49t-131 35t-34 82l95 627q0 41 -5 64.5t-28 39t-72 15.5q-93 0 -175.5 -56.5t-147.5 -128.5l-104 -665h-268l180 1155h-133q-18 1 -18 49q5 32 30 43l136 8l13 82q2 18 2 24q0 31 -13 48
t-31.5 24t-46.5 12q-23 3 -37 9q-19 10 -19 34q0 12 9.5 30.5t21.5 19.5q138 9 312 9h72q10 0 17.5 -9t6.5 -31l-40 -250h229q9 -1 14.5 -8t5.5 -17q0 -6 -1 -9q-2 -20 -11.5 -42t-20.5 -26h-233l-13 -82l-51 -296q54 54 114 102.5t154.5 91.5t203.5 43q108 0 169.5 -48.5
t61.5 -155.5q0 -22 -3 -46l-94 -598q-2 -35 12.5 -50t45.5 -15q14 0 33.5 3.5t26.5 4.5q20 5 27 5q12 0 18.5 -9.5z" />
    <glyph glyph-name="Itilde" unicode="&#x128;" horiz-adv-x="881" 
d="M49.5 75q8.5 12 29.5 13q60 4 106 19t51 45l162 1082q2 12 2 17q0 32 -22.5 48.5t-50.5 22t-72 9.5q-18 2 -24.5 6t-6.5 15l2 16q1 14 14.5 32.5t29.5 18.5h598q14 0 19.5 -13.5t5.5 -30.5q-2 -41 -41 -44q-145 -11 -153 -64l-160 -1082q-2 -14 -2 -17q0 -32 22.5 -48.5
t48.5 -21.5t75 -10q17 -2 24 -6t7 -17q0 -2 -2 -14q-2 -15 -14.5 -33t-27.5 -18h-605q-13 0 -18.5 13t-5.5 29q0 21 8.5 33zM667 1579q-39 18 -92 53q-46 31 -78.5 46.5t-66.5 15.5q-36 0 -57.5 -16t-43.5 -44q-12 -16 -21 -24.5t-20 -8.5q-18 0 -35.5 21.5t-17.5 45.5
q0 36 31.5 83.5t85 81.5t116.5 34q41 0 77 -17.5t88 -51.5q47 -33 80 -49t69 -16q37 0 59 16t46 45q15 18 22.5 25t18.5 7q18 0 36 -22t18 -46q0 -36 -32.5 -83t-86 -80.5t-113.5 -33.5q-44 0 -83 18z" />
    <glyph glyph-name="itilde" unicode="&#x129;" horiz-adv-x="702" 
d="M174.5 21.5q-28.5 34.5 -28.5 76.5q0 35 5 65l109 622q2 22 2 30q0 33 -13 50t-31 23t-47 9q-29 4 -34 6q-11 5 -15.5 13.5t-2.5 26.5q2 14 10.5 28.5t19.5 15.5q158 10 344 10h38q10 0 17.5 -9t6.5 -31l-132 -814q0 -27 15.5 -37t45.5 -10q20 0 54 8q23 5 33 5
q11 0 17.5 -12t6.5 -29q0 -26 -24 -34q-75 -25 -138 -36t-153 -11q-77 0 -105.5 34.5zM489 1139.5q-34 17.5 -81 51.5q-42 31 -71 46t-58 15q-31 0 -49.5 -15.5t-39.5 -43.5q-12 -17 -19.5 -24.5t-16.5 -7.5q-16 0 -31 21.5t-15 45.5q0 35 27.5 81.5t74.5 79.5t103 33
q37 0 69.5 -17.5t75.5 -50.5q42 -32 71.5 -47.5t60.5 -15.5q33 0 53 16t40 44q13 17 20.5 24t16.5 7q15 0 31 -21.5t16 -44.5q0 -35 -28.5 -82t-76 -79.5t-100.5 -32.5q-39 0 -73 17.5z" />
    <glyph glyph-name="Imacron" unicode="&#x12a;" horiz-adv-x="881" 
d="M49.5 75q8.5 12 29.5 13q60 4 106 19t51 45l162 1082q2 12 2 17q0 32 -22.5 48.5t-50.5 22t-72 9.5q-18 2 -24.5 6t-6.5 15l2 16q1 14 14.5 32.5t29.5 18.5h598q14 0 19.5 -13.5t5.5 -30.5q-2 -41 -41 -44q-145 -11 -153 -64l-160 -1082q-2 -14 -2 -17q0 -32 22.5 -48.5
t48.5 -21.5t75 -10q17 -2 24 -6t7 -17q0 -2 -2 -14q-2 -15 -14.5 -33t-27.5 -18h-605q-13 0 -18.5 13t-5.5 29q0 21 8.5 33zM323 1763h588l-23 -148h-587z" />
    <glyph glyph-name="imacron" unicode="&#x12b;" horiz-adv-x="702" 
d="M174.5 21.5q-28.5 34.5 -28.5 76.5q0 35 5 65l109 622q2 22 2 30q0 33 -13 50t-31 23t-47 9q-29 4 -34 6q-11 5 -15.5 13.5t-2.5 26.5q2 14 10.5 28.5t19.5 15.5q158 10 344 10h38q10 0 17.5 -9t6.5 -31l-132 -814q0 -27 15.5 -37t45.5 -10q20 0 54 8q23 5 33 5
q11 0 17.5 -12t6.5 -29q0 -26 -24 -34q-75 -25 -138 -36t-153 -11q-77 0 -105.5 34.5zM168 1330h588l-23 -148h-587z" />
    <glyph glyph-name="Ibreve" unicode="&#x12c;" horiz-adv-x="881" 
d="M49.5 75q8.5 12 29.5 13q60 4 106 19t51 45l162 1082q2 12 2 17q0 32 -22.5 48.5t-50.5 22t-72 9.5q-18 2 -24.5 6t-6.5 15l2 16q1 14 14.5 32.5t29.5 18.5h598q14 0 19.5 -13.5t5.5 -30.5q-2 -41 -41 -44q-145 -11 -153 -64l-160 -1082q-2 -14 -2 -17q0 -32 22.5 -48.5
t48.5 -21.5t75 -10q17 -2 24 -6t7 -17q0 -2 -2 -14q-2 -15 -14.5 -33t-27.5 -18h-605q-13 0 -18.5 13t-5.5 29q0 21 8.5 33zM386.5 1651q-82.5 61 -82.5 213q0 44 9 95h126q-1 -9 -1 -25q0 -79 43 -127.5t137 -48.5t155.5 56.5t79.5 144.5h126q-26 -206 -136.5 -287.5
t-251.5 -81.5q-122 0 -204.5 61z" />
    <glyph glyph-name="ibreve" unicode="&#x12d;" horiz-adv-x="702" 
d="M174.5 21.5q-28.5 34.5 -28.5 76.5q0 35 5 65l109 622q2 22 2 30q0 33 -13 50t-31 23t-47 9q-29 4 -34 6q-11 5 -15.5 13.5t-2.5 26.5q2 14 10.5 28.5t19.5 15.5q158 10 344 10h38q10 0 17.5 -9t6.5 -31l-132 -814q0 -27 15.5 -37t45.5 -10q20 0 54 8q23 5 33 5
q11 0 17.5 -12t6.5 -29q0 -26 -24 -34q-75 -25 -138 -36t-153 -11q-77 0 -105.5 34.5zM235.5 1243q-82.5 61 -82.5 214q0 43 9 95h127q-1 -9 -1 -25q0 -77 46.5 -127t132.5 -50q102 0 159 55t76 147h126q-26 -207 -136.5 -288.5t-251.5 -81.5q-122 0 -204.5 61z" />
    <glyph glyph-name="Iogonek" unicode="&#x12e;" horiz-adv-x="881" 
d="M887.5 1405.5q5.5 -13.5 5.5 -30.5q-2 -41 -41 -44q-145 -11 -153 -64l-160 -1082q-2 -14 -2 -17q0 -32 22.5 -48.5t48.5 -21.5t75 -10q17 -2 24 -6t7 -17q0 -2 -2 -14q-2 -15 -14.5 -33t-27.5 -18h-219q-77 -48 -116 -105.5t-39 -120.5q0 -38 21.5 -66.5t55 -44
t68.5 -15.5q32 0 52.5 4.5t53.5 22.5q5 3 11.5 -3.5t11 -19.5t4.5 -29q0 -33 -25 -51q-35 -27 -92.5 -44t-116.5 -17q-84 0 -143 26t-88.5 69.5t-29.5 96.5q0 58 36.5 115.5t100 105t142.5 76.5h-293q-13 0 -18.5 13t-5.5 29q0 21 8.5 33t29.5 13q60 4 106 19t51 45
l162 1082q2 12 2 17q0 32 -22.5 48.5t-50.5 22t-72 9.5q-18 2 -24.5 6t-6.5 15l2 16q1 14 14.5 32.5t29.5 18.5h598q14 0 19.5 -13.5z" />
    <glyph glyph-name="iogonek" unicode="&#x12f;" horiz-adv-x="702" 
d="M336.5 1220q-39.5 39 -39.5 101q0 55 26.5 100t71 71t95.5 26q63 0 103 -39t40 -101q0 -54 -26.5 -99t-71.5 -71.5t-96 -26.5q-63 0 -102.5 39zM588.5 97q6.5 -12 6.5 -29q0 -26 -24 -34q-71 -23 -128.5 -34.5t-136.5 -12.5q-128 -90 -128 -210q0 -37 20 -65.5t51.5 -44
t63.5 -15.5q31 0 51.5 5t52.5 22q6 3 13 -4.5t12.5 -21.5t5.5 -30q0 -33 -25 -51q-35 -27 -92.5 -44t-116.5 -17q-84 0 -143 26t-88.5 69.5t-29.5 96.5q0 58 33.5 114t93.5 102.5t139 76.5q-41 13 -57 42t-16 60q0 35 5 65l109 622q2 22 2 30q0 33 -13 50t-31 23t-47 9
q-29 4 -34 6q-11 5 -15.5 13.5t-2.5 26.5q2 14 10.5 28.5t19.5 15.5q158 10 344 10h38q10 0 17.5 -9t6.5 -31l-132 -814q0 -27 15.5 -37t45.5 -10q20 0 54 8q23 5 33 5q11 0 17.5 -12z" />
    <glyph glyph-name="Idotaccent" unicode="&#x130;" horiz-adv-x="881" 
d="M49.5 75q8.5 12 29.5 13q60 4 106 19t51 45l162 1082q2 12 2 17q0 32 -22.5 48.5t-50.5 22t-72 9.5q-18 2 -24.5 6t-6.5 15l2 16q1 14 14.5 32.5t29.5 18.5h598q14 0 19.5 -13.5t5.5 -30.5q-2 -41 -41 -44q-145 -11 -153 -64l-160 -1082q-2 -14 -2 -17q0 -32 22.5 -48.5
t48.5 -21.5t75 -10q17 -2 24 -6t7 -17q0 -2 -2 -14q-2 -15 -14.5 -33t-27.5 -18h-605q-13 0 -18.5 13t-5.5 29q0 21 8.5 33zM482 1590.5q-39 38.5 -39 100.5q0 54 26 99.5t70.5 72t95.5 26.5q63 0 103 -39t40 -101q0 -53 -26.5 -98.5t-70.5 -72t-96 -26.5q-64 0 -103 38.5z
" />
    <glyph glyph-name="dotlessi" unicode="&#x131;" horiz-adv-x="702" 
d="M174.5 21.5q-28.5 34.5 -28.5 76.5q0 35 5 65l109 622q2 22 2 30q0 33 -13 50t-31 23t-47 9q-29 4 -34 6q-11 5 -15.5 13.5t-2.5 26.5q2 14 10.5 28.5t19.5 15.5q158 10 344 10h38q10 0 17.5 -9t6.5 -31l-132 -814q0 -27 15.5 -37t45.5 -10q20 0 54 8q23 5 33 5
q11 0 17.5 -12t6.5 -29q0 -26 -24 -34q-75 -25 -138 -36t-153 -11q-77 0 -105.5 34.5z" />
    <glyph glyph-name="IJ" unicode="&#x132;" horiz-adv-x="2047" 
d="M49.5 75q8.5 12 29.5 13q60 4 106 19t51 45l162 1082q2 12 2 17q0 32 -22.5 48.5t-50.5 22t-72 9.5q-18 2 -24.5 6t-6.5 15l2 16q1 14 14.5 32.5t29.5 18.5h598q14 0 19.5 -13.5t5.5 -30.5q-2 -41 -41 -44q-145 -11 -153 -64l-160 -1082q-2 -14 -2 -17q0 -32 22.5 -48.5
t48.5 -21.5t75 -10q17 -2 24 -6t7 -17q0 -2 -2 -14q-2 -15 -14.5 -33t-27.5 -18h-605q-13 0 -18.5 13t-5.5 29q0 21 8.5 33zM1087.5 4q-93.5 34 -154.5 108t-61 187q0 58 24.5 103.5t69.5 71t106 25.5q41 0 73.5 -22.5t32.5 -52.5l-40 -268q8 -44 48 -70.5t97 -26.5
q71 0 116.5 32.5t75 107.5t48.5 207l127 849q1 32 -20 47t-57.5 20t-118.5 9q-17 1 -24 5.5t-7 15.5q0 24 8.5 45.5t27.5 21.5h664q14 0 20.5 -15t6.5 -32t-11 -28.5t-29 -12.5q-156 -16 -164 -64l-121 -828q-39 -268 -187 -368.5t-358 -100.5q-99 0 -192.5 34z" />
    <glyph glyph-name="ij" unicode="&#x133;" horiz-adv-x="1391" 
d="M174.5 21.5q-28.5 34.5 -28.5 76.5q0 35 5 65l109 622q2 22 2 30q0 33 -13 50t-31 23t-47 9q-29 4 -34 6q-11 5 -15.5 13.5t-2.5 26.5q2 14 10.5 28.5t19.5 15.5q158 10 344 10h38q10 0 17.5 -9t6.5 -31l-132 -814q0 -27 15.5 -37t45.5 -10q20 0 54 8q23 5 33 5
q11 0 17.5 -12t6.5 -29q0 -26 -24 -34q-75 -25 -138 -36t-153 -11q-77 0 -105.5 34.5zM336.5 1220q-39.5 39 -39.5 101q0 55 26.5 100t71 71t95.5 26q63 0 103 -39t40 -101q0 -54 -26.5 -99t-71.5 -71.5t-96 -26.5q-63 0 -102.5 39zM543 -423.5q-56 25.5 -85 66t-29 84.5
q0 50 34 86t83 36q46 0 65 -37l80 -159q41 1 73.5 29.5t63.5 116.5t54 257l112 756q0 28 -13 44t-32.5 23.5t-52.5 14.5l-35 9q-10 4 -14.5 12.5t-3.5 24.5q1 14 10 30t20 17q159 10 350 10h39q10 0 17.5 -9t6.5 -31l-129 -878q-22 -147 -92 -268t-172.5 -190.5
t-217.5 -69.5q-76 0 -132 25.5zM1072.5 1220q-39.5 39 -39.5 101q0 55 26.5 100t71 71t95.5 26q63 0 103 -39t40 -101q0 -54 -26.5 -99t-71.5 -71.5t-96 -26.5q-63 0 -102.5 39z" />
    <glyph glyph-name="Jcircumflex" unicode="&#x134;" horiz-adv-x="1166" 
d="M206.5 4q-93.5 34 -154.5 108t-61 187q0 58 24.5 103.5t69.5 71t106 25.5q41 0 73.5 -22.5t32.5 -52.5l-40 -268q8 -44 48 -70.5t97 -26.5q71 0 116.5 32.5t75 107.5t48.5 207l127 849q1 32 -20 47t-57.5 20t-118.5 9q-17 1 -24 5.5t-7 15.5q0 24 8.5 45.5t27.5 21.5h664
q14 0 20.5 -15t6.5 -32t-11 -28.5t-29 -12.5q-156 -16 -164 -64l-121 -828q-39 -268 -187 -368.5t-358 -100.5q-99 0 -192.5 34zM935.5 1943.5q28.5 13.5 71.5 13.5t68 -16t39 -44l193 -339h-133l-196 208l-253 -208h-138l298 348q22 24 50.5 37.5z" />
    <glyph glyph-name="jcircumflex" unicode="&#x135;" horiz-adv-x="697" 
d="M-159 -423.5q-56 25.5 -85 66t-29 84.5q0 50 34 86t83 36q46 0 65 -37l80 -159q41 1 73.5 29.5t63.5 116.5t54 257l112 756q0 28 -13 44t-32.5 23.5t-52.5 14.5l-35 9q-10 4 -14.5 12.5t-3.5 24.5q1 14 10 30t20 17q159 10 350 10h39q10 0 17.5 -9t6.5 -31l-129 -878
q-22 -147 -92 -268t-172.5 -190.5t-217.5 -69.5q-76 0 -132 25.5zM458 1542.5q29 13.5 72 13.5t67.5 -16t39.5 -44l185 -359h-133l-189 221l-260 -221h-138l306 368q21 24 50 37.5z" />
    <glyph glyph-name="uni0136" unicode="&#x136;" horiz-adv-x="1589" 
d="M43 14q-7 14 -7 30q0 21 8 32t29 12q142 11 150 64l163 1082q3 11 1 22q-2 30 -23.5 45.5t-47.5 20.5t-68 9q-18 2 -24.5 6t-6.5 16q0 23 13 44.5t30 21.5h575q15 0 21.5 -18t4.5 -33q-3 -17 -12.5 -26.5t-27.5 -10.5q-60 -4 -98 -18.5t-42 -45.5l-165 -1093
q-1 -4 -1 -12q0 -29 24.5 -44.5t52.5 -20t82 -9.5q18 -2 25 -6.5t7 -17.5q0 -19 -12.5 -41.5t-28.5 -22.5h-601q-14 0 -21 14zM1102.5 18.5q-22.5 18.5 -43.5 51.5q-44 73 -113 196q-107 191 -175.5 296t-119.5 130l548 564q13 14 13 26q0 19 -36 31t-87 17q-14 1 -19.5 7
t-5.5 16q0 21 13 43t31 22h492q15 0 21.5 -18t4.5 -33q-8 -37 -41 -37q-87 0 -154.5 -31.5t-104.5 -70.5l-396 -403q72 -77 138.5 -172.5t151.5 -230.5l68 -105q147 -218 247 -228q29 -3 29 -36q0 -25 -9.5 -39t-28.5 -14h-356q-45 0 -67.5 18.5zM792.5 -167
q31.5 -36 31.5 -105q0 -24 -3 -49q-10 -66 -44 -130t-79.5 -115t-91.5 -79q-9 -6 -24 -6q-16 0 -28.5 7.5t-12.5 19.5q0 15 20 35q27 25 51.5 74t32.5 106q-41 0 -72 31t-31 82q0 6 2 24q8 70 55 105.5t109 35.5q53 0 84.5 -36z" />
    <glyph glyph-name="uni0137" unicode="&#x137;" horiz-adv-x="1236" 
d="M825 837q16 13 16 26q0 19 -34 28t-85 14q-26 3 -26 30q0 23 13 40.5t29 17.5l479 -1q14 0 21 -12.5t7 -27.5q0 -20 -11 -34.5t-29 -13.5q-59 1 -133.5 -26.5t-118.5 -67.5l-212 -187q34 -34 66.5 -88t79.5 -145q43 -80 70 -127.5t57 -89.5q23 -32 45 -52t47 -20
q10 0 40 7q20 4 25 4q12 0 18.5 -11.5t6.5 -26.5q0 -13 -6.5 -26t-18.5 -16q-86 -25 -155.5 -35.5t-154.5 -10.5q-89 0 -121 70q-27 57 -62 144q-42 103 -71.5 164t-65.5 106l-112 -91l-61 -379h-270l209 1362q0 30 -13.5 47t-32.5 24t-49 12q-22 3 -38 9q-19 10 -19 40
q0 16 9.5 29.5t21.5 14.5q142 9 313 9h72q10 0 17.5 -7.5t7.5 -25.5l-117 -771l-41 -249zM583.5 -179q36.5 -44 36.5 -106q0 -72 -38 -138.5t-104.5 -114t-148.5 -63.5l-23 67q118 31 150 127q-54 5 -86.5 37.5t-32.5 85.5q0 41 19 75t52.5 54t73.5 20q65 0 101.5 -44z" />
    <glyph glyph-name="kgreenlandic" unicode="&#x138;" horiz-adv-x="1275" 
d="M200 861.5q-15 18.5 -35.5 25.5t-52.5 13q-5 1 -15 2.5t-16 3.5q-11 5 -15 13.5t-3 26.5q2 14 10.5 28.5t19.5 15.5q167 10 401 10q11 0 19 -9.5t5 -30.5l-80 -484l367 359q17 16 17 30q0 19 -32.5 27t-87.5 14q-26 3 -26 30q0 9 1 13q2 14 13.5 29.5t26.5 15.5h486
q14 0 21 -12.5t7 -27.5q0 -20 -11 -34.5t-28 -13.5q-58 2 -133.5 -26.5t-125.5 -67.5l-211 -219q31 -31 67.5 -81.5t92.5 -135.5q46 -71 78 -116.5t63 -84.5q29 -36 48.5 -54t43.5 -18q10 0 40 7q20 4 25 4q10 0 15.5 -6.5t8.5 -22.5q1 -3 1 -9q0 -13 -6.5 -25.5
t-18.5 -16.5q-86 -26 -157 -36.5t-156 -10.5q-42 0 -70.5 14t-41.5 36q-48 98 -118.5 213t-126.5 183l-90 -73l-58 -360h-279l132 809q0 34 -15 52.5z" />
    <glyph glyph-name="Lacute" unicode="&#x139;" horiz-adv-x="1348" 
d="M35.5 75q8.5 11 29.5 13q147 14 155 64l167 1093q2 35 -19 53t-48.5 23.5t-71.5 9.5q-18 2 -24.5 6t-6.5 16q0 23 13 44.5t30 21.5h622q15 0 22.5 -18.5t4.5 -32.5q-7 -37 -40 -37q-66 0 -122.5 -22t-65.5 -72l-162 -1077q0 -59 75 -59h277q57 0 107.5 47.5t88 112
t85.5 164.5q22 46 26 54q8 17 24 25t34 8q24 0 43.5 -9t16.5 -25l-110 -478h-1130q-14 0 -21.5 14.5t-7.5 29.5q0 20 8.5 31zM639 1882q62 73 78 87q19 16 45 26t53 10q47 0 73 -33q20 -26 20 -61q0 -29 -14 -57t-34 -45q-21 -16 -83 -50q-90 -52 -171 -101.5t-178 -118.5
l-47 58q128 130 258 285z" />
    <glyph glyph-name="lacute" unicode="&#x13a;" horiz-adv-x="679" 
d="M242.5 887.5q75.5 472.5 75.5 477.5q0 34 -24 48t-69 23q-38 9 -56 18.5t-18 30.5q0 13 9.5 32.5t23.5 20.5q213 10 397 10q10 0 17.5 -7t7.5 -23q0 -1 -76 -496q-132 -866 -132 -874q0 -24 13.5 -37.5t45.5 -13.5q13 0 50 7q8 1 19.5 3t17.5 2q12 0 18.5 -6t6.5 -25
q0 -14 -6 -26t-19 -16q-156 -49 -284 -49q-80 0 -109.5 38t-29.5 86q0 16 2.5 32.5t3.5 23.5q40 248 115.5 720.5zM538 1968q62 73 78 87q19 16 45 26t53 10q47 0 73 -33q20 -26 20 -61q0 -29 -14 -57t-34 -45q-21 -16 -83 -50q-90 -52 -171 -101.5t-178 -118.5l-47 58
q128 130 258 285z" />
    <glyph glyph-name="uni013B" unicode="&#x13b;" horiz-adv-x="1348" 
d="M35.5 75q8.5 11 29.5 13q147 14 155 64l167 1093q2 35 -19 53t-48.5 23.5t-71.5 9.5q-18 2 -24.5 6t-6.5 16q0 23 13 44.5t30 21.5h622q15 0 22.5 -18.5t4.5 -32.5q-7 -37 -40 -37q-66 0 -122.5 -22t-65.5 -72l-162 -1077q0 -59 75 -59h277q57 0 107.5 47.5t88 112
t85.5 164.5q22 46 26 54q8 17 24 25t34 8q24 0 43.5 -9t16.5 -25l-110 -478h-1130q-14 0 -21.5 14.5t-7.5 29.5q0 20 8.5 31zM671.5 -167q31.5 -36 31.5 -105q0 -24 -3 -49q-10 -66 -44 -130t-79.5 -115t-91.5 -79q-9 -6 -24 -6q-16 0 -28.5 7.5t-12.5 19.5q0 15 20 35
q27 25 51.5 74t32.5 106q-41 0 -72 31t-31 82q0 6 2 24q8 70 55 105.5t109 35.5q53 0 84.5 -36z" />
    <glyph glyph-name="uni013C" unicode="&#x13c;" horiz-adv-x="679" 
d="M242.5 887.5q75.5 472.5 75.5 477.5q0 34 -24 48t-69 23q-38 9 -56 18.5t-18 30.5q0 13 9.5 32.5t23.5 20.5q213 10 397 10q10 0 17.5 -7t7.5 -23q0 -1 -76 -496q-132 -866 -132 -874q0 -24 13.5 -37.5t45.5 -13.5q13 0 50 7q8 1 19.5 3t17.5 2q12 0 18.5 -6t6.5 -25
q0 -14 -6 -26t-19 -16q-156 -49 -284 -49q-80 0 -109.5 38t-29.5 86q0 16 2.5 32.5t3.5 23.5q40 248 115.5 720.5zM300.5 -179q36.5 -44 36.5 -106q0 -72 -38 -138.5t-104.5 -114t-148.5 -63.5l-23 67q118 31 150 127q-54 5 -86.5 37.5t-32.5 85.5q0 41 19 75t52.5 54
t73.5 20q65 0 101.5 -44z" />
    <glyph glyph-name="Lcaron" unicode="&#x13d;" horiz-adv-x="1348" 
d="M35.5 75q8.5 11 29.5 13q147 14 155 64l167 1093q2 35 -19 53t-48.5 23.5t-71.5 9.5q-18 2 -24.5 6t-6.5 16q0 23 13 44.5t30 21.5h622q15 0 22.5 -18.5t4.5 -32.5q-7 -37 -40 -37q-66 0 -122.5 -22t-65.5 -72l-162 -1077q0 -59 75 -59h277q57 0 107.5 47.5t88 112
t85.5 164.5q22 46 26 54q8 17 24 25t34 8q24 0 43.5 -9t16.5 -25l-110 -478h-1130q-14 0 -21.5 14.5t-7.5 29.5q0 20 8.5 31zM1220 1205.5q30 52.5 30 101.5q0 24 -8 40t-23 35q-18 23 -27 42.5t-9 50.5q0 32 18 61t48 46.5t64 17.5q62 0 96.5 -41t34.5 -107
q0 -95 -76 -204.5t-182 -202.5l-50 48q54 60 84 112.5z" />
    <glyph glyph-name="lcaron" unicode="&#x13e;" horiz-adv-x="965" 
d="M242.5 887.5q75.5 472.5 75.5 477.5q0 34 -24 48t-69 23q-38 9 -56 18.5t-18 30.5q0 13 9.5 32.5t23.5 20.5q213 10 397 10q10 0 17.5 -7t7.5 -23q0 -1 -76 -496q-132 -866 -132 -874q0 -24 13.5 -37.5t45.5 -13.5q13 0 50 7q8 1 19.5 3t17.5 2q12 0 18.5 -6t6.5 -25
q0 -14 -6 -26t-19 -16q-156 -49 -284 -49q-80 0 -109.5 38t-29.5 86q0 16 2.5 32.5t3.5 23.5q40 248 115.5 720.5zM777 1205.5q30 52.5 30 101.5q0 24 -8 40t-23 35q-18 23 -27 42.5t-9 50.5q0 32 18 61t48 46.5t64 17.5q62 0 96.5 -41t34.5 -107q0 -95 -76 -204.5
t-182 -202.5l-50 48q54 60 84 112.5z" />
    <glyph glyph-name="Ldot" unicode="&#x13f;" horiz-adv-x="1348" 
d="M35.5 75q8.5 11 29.5 13q147 14 155 64l167 1093q2 35 -19 53t-48.5 23.5t-71.5 9.5q-18 2 -24.5 6t-6.5 16q0 23 13 44.5t30 21.5h622q15 0 22.5 -18.5t4.5 -32.5q-7 -37 -40 -37q-66 0 -122.5 -22t-65.5 -72l-162 -1077q0 -59 75 -59h277q57 0 107.5 47.5t88 112
t85.5 164.5q22 46 26 54q8 17 24 25t34 8q24 0 43.5 -9t16.5 -25l-110 -478h-1130q-14 0 -21.5 14.5t-7.5 29.5q0 20 8.5 31zM972.5 988.5q22.5 42.5 63.5 68t93 25.5q71 0 112 -45.5t41 -115.5q0 -51 -24 -94.5t-64.5 -69t-89.5 -25.5q-73 0 -113.5 47t-40.5 119
q0 48 22.5 90.5z" />
    <glyph glyph-name="ldot" unicode="&#x140;" horiz-adv-x="1033" 
d="M242.5 887.5q75.5 472.5 75.5 477.5q0 34 -24 48t-69 23q-38 9 -56 18.5t-18 30.5q0 13 9.5 32.5t23.5 20.5q213 10 397 10q10 0 17.5 -7t7.5 -23q0 -1 -76 -496q-132 -866 -132 -874q0 -24 13.5 -37.5t45.5 -13.5q13 0 50 7q8 1 19.5 3t17.5 2q12 0 18.5 -6t6.5 -25
q0 -14 -6 -26t-19 -16q-156 -49 -284 -49q-80 0 -109.5 38t-29.5 86q0 16 2.5 32.5t3.5 23.5q40 248 115.5 720.5zM722.5 886.5q22.5 42.5 63.5 68t93 25.5q71 0 112 -45.5t41 -115.5q0 -51 -24 -94.5t-64.5 -69t-89.5 -25.5q-73 0 -113.5 47t-40.5 119q0 48 22.5 90.5z" />
    <glyph glyph-name="Lslash" unicode="&#x141;" horiz-adv-x="1348" 
d="M1283.5 503q19.5 -9 16.5 -25l-111 -478h-1130q-14 0 -21.5 14.5t-7.5 29.5q0 20 9 31t30 13q147 14 154 64l74 484l-165 -62q-9 -3 -20.5 8.5t-19.5 30t-8 32.5q0 20 9 29l222 83l75 488q2 35 -18.5 53t-48.5 23.5t-72 9.5q-18 2 -24.5 6t-6.5 16q0 23 13 44.5t31 21.5
h621q15 0 22.5 -18.5t4.5 -32.5q-7 -37 -40 -37q-66 0 -122 -22t-65 -72l-54 -362l319 119q20 7 32.5 -18t12.5 -58q0 -18 -6 -24l-377 -141l-89 -593q0 -59 74 -59h277q57 0 107 47t88 111.5t85 162.5l28 57q7 17 23.5 25t34.5 8q24 0 43.5 -9z" />
    <glyph glyph-name="lslash" unicode="&#x142;" horiz-adv-x="679" 
d="M496 798q-98 -639 -98 -650q0 -24 13.5 -37.5t45.5 -13.5q13 0 50 7q8 1 19.5 3t17.5 2q12 0 18.5 -6t6.5 -25q0 -14 -6 -26t-19 -16q-156 -49 -284 -49q-80 0 -109.5 38t-29.5 86q0 16 2.5 32.5t3.5 23.5l80 500l-153 -69q-13 -4 -24.5 23t-11.5 52q0 20 9 29l200 90
q91 561 91 573q0 34 -24 48t-69 23q-38 9 -56 18.5t-18 30.5q0 13 9.5 32.5t23.5 20.5q213 10 397 10q10 0 17.5 -7t7.5 -23l-39 -254l-52 -342l162 73l8 2q27 0 27 -71q0 -13 -4 -22.5t-8 -13.5z" />
    <glyph glyph-name="Nacute" unicode="&#x143;" horiz-adv-x="1656" 
d="M-17.5 12q-6.5 12 -6.5 24q0 24 7.5 36.5t31.5 15.5q188 15 199 84l165 1032q1 6 1 16q0 50 -49 78t-104 33q-19 2 -27 7t-8 17q0 19 14 41.5t31 22.5h445l593 -1126h12l138 941q1 4 1 12q0 34 -33.5 52t-67 23t-93.5 10q-23 2 -32 9t-7 23q2 17 15 36.5t29 19.5h505
q14 0 20 -12.5t6 -28.5q0 -20 -10.5 -32.5t-30.5 -14.5q-9 -1 -63 -6.5t-93 -28t-45 -62.5l-171 -1121q-2 -16 -2 -22v-16.5t-4 -34.5q-16 -70 -136 -70q-21 0 -60 7t-44 15l-619 1187h-17l-155 -1009q-3 -42 47.5 -57.5t129.5 -22.5l21 -2q31 -3 31 -28q0 -24 -12.5 -42
t-29.5 -18h-503q-13 0 -19.5 12zM1072 1882q62 73 78 87q19 16 45 26t53 10q47 0 73 -33q20 -26 20 -61q0 -29 -14 -57t-34 -45q-21 -16 -83 -50q-90 -52 -171 -101.5t-178 -118.5l-47 58q128 130 258 285z" />
    <glyph glyph-name="nacute" unicode="&#x144;" horiz-adv-x="1345" 
d="M1084 154q0 -28 9 -41.5t29 -13.5q25 0 89 14q14 3 22.5 -7t8.5 -28q0 -9 -3.5 -17t-10.5 -11q-54 -26 -127.5 -43.5t-161.5 -19.5q-136 -3 -136 114q0 22 4 41l87 587q3 20 3 37q0 44 -20 66t-63 22q-89 0 -175 -49.5t-144 -115.5l-110 -689h-272l121 778q2 10 2 28
q0 34 -15 52.5t-35 25.5t-52 13q-5 1 -15 2.5t-16 3.5q-11 5 -15.5 13.5t-2.5 26.5q2 14 10.5 28.5t19.5 15.5q157 10 346 10h38q11 0 19 -9.5t5 -30.5l-26 -172q7 6 72 69.5t173 111.5t219 48q94 0 153 -49t59 -165q0 -19 -4 -65l-82 -547q-3 -18 -3 -34zM852 1451
q58 70 75 84q19 16 45.5 26t52.5 10q47 0 73 -33q21 -25 21 -60q0 -29 -14 -57t-35 -46q-8 -7 -30.5 -20t-50.5 -28q-180 -95 -338 -207l-47 58q114 117 248 273z" />
    <glyph glyph-name="uni0145" unicode="&#x145;" horiz-adv-x="1656" 
d="M-17.5 12q-6.5 12 -6.5 24q0 24 7.5 36.5t31.5 15.5q188 15 199 84l165 1032q1 6 1 16q0 50 -49 78t-104 33q-19 2 -27 7t-8 17q0 19 14 41.5t31 22.5h445l593 -1126h12l138 941q1 4 1 12q0 34 -33.5 52t-67 23t-93.5 10q-23 2 -32 9t-7 23q2 17 15 36.5t29 19.5h505
q14 0 20 -12.5t6 -28.5q0 -20 -10.5 -32.5t-30.5 -14.5q-9 -1 -63 -6.5t-93 -28t-45 -62.5l-171 -1121q-2 -16 -2 -22v-16.5t-4 -34.5q-16 -70 -136 -70q-21 0 -60 7t-44 15l-619 1187h-17l-155 -1009q-3 -42 47.5 -57.5t129.5 -22.5l21 -2q31 -3 31 -28q0 -24 -12.5 -42
t-29.5 -18h-503q-13 0 -19.5 12zM819.5 -167q31.5 -36 31.5 -105q0 -24 -3 -49q-10 -66 -44 -130t-79.5 -115t-91.5 -79q-9 -6 -24 -6q-16 0 -28.5 7.5t-12.5 19.5q0 15 20 35q27 25 51.5 74t32.5 106q-41 0 -72 31t-31 82q0 6 2 24q8 70 55 105.5t109 35.5q53 0 84.5 -36z
" />
    <glyph glyph-name="uni0146" unicode="&#x146;" horiz-adv-x="1345" 
d="M1084 154q0 -28 9 -41.5t29 -13.5q25 0 89 14q14 3 22.5 -7t8.5 -28q0 -9 -3.5 -17t-10.5 -11q-54 -26 -127.5 -43.5t-161.5 -19.5q-136 -3 -136 114q0 22 4 41l87 587q3 20 3 37q0 44 -20 66t-63 22q-89 0 -175 -49.5t-144 -115.5l-110 -689h-272l121 778q2 10 2 28
q0 34 -15 52.5t-35 25.5t-52 13q-5 1 -15 2.5t-16 3.5q-11 5 -15.5 13.5t-2.5 26.5q2 14 10.5 28.5t19.5 15.5q157 10 346 10h38q11 0 19 -9.5t5 -30.5l-26 -172q7 6 72 69.5t173 111.5t219 48q94 0 153 -49t59 -165q0 -19 -4 -65l-82 -547q-3 -18 -3 -34zM644.5 -179
q36.5 -44 36.5 -106q0 -72 -38 -138.5t-104.5 -114t-148.5 -63.5l-23 67q118 31 150 127q-54 5 -86.5 37.5t-32.5 85.5q0 41 19 75t52.5 54t73.5 20q65 0 101.5 -44z" />
    <glyph glyph-name="Ncaron" unicode="&#x147;" horiz-adv-x="1656" 
d="M-17.5 12q-6.5 12 -6.5 24q0 24 7.5 36.5t31.5 15.5q188 15 199 84l165 1032q1 6 1 16q0 50 -49 78t-104 33q-19 2 -27 7t-8 17q0 19 14 41.5t31 22.5h445l593 -1126h12l138 941q1 4 1 12q0 34 -33.5 52t-67 23t-93.5 10q-23 2 -32 9t-7 23q2 17 15 36.5t29 19.5h505
q14 0 20 -12.5t6 -28.5q0 -20 -10.5 -32.5t-30.5 -14.5q-9 -1 -63 -6.5t-93 -28t-45 -62.5l-171 -1121q-2 -16 -2 -22v-16.5t-4 -34.5q-16 -70 -136 -70q-21 0 -60 7t-44 15l-619 1187h-17l-155 -1009q-3 -42 47.5 -57.5t129.5 -22.5l21 -2q31 -3 31 -28q0 -24 -12.5 -42
t-29.5 -18h-503q-13 0 -19.5 12zM939 1575.5q-25 13.5 -39 37.5l-192 345h138l190 -205l256 205h133l-294 -336q-25 -28 -53.5 -44t-70.5 -16q-43 0 -68 13.5z" />
    <glyph glyph-name="ncaron" unicode="&#x148;" horiz-adv-x="1345" 
d="M1084 154q0 -28 9 -41.5t29 -13.5q25 0 89 14q14 3 22.5 -7t8.5 -28q0 -9 -3.5 -17t-10.5 -11q-54 -26 -127.5 -43.5t-161.5 -19.5q-136 -3 -136 114q0 22 4 41l87 587q3 20 3 37q0 44 -20 66t-63 22q-89 0 -175 -49.5t-144 -115.5l-110 -689h-272l121 778q2 10 2 28
q0 34 -15 52.5t-35 25.5t-52 13q-5 1 -15 2.5t-16 3.5q-11 5 -15.5 13.5t-2.5 26.5q2 14 10.5 28.5t19.5 15.5q157 10 346 10h38q11 0 19 -9.5t5 -30.5l-26 -172q7 6 72 69.5t173 111.5t219 48q94 0 153 -49t59 -165q0 -19 -4 -65l-82 -547q-3 -18 -3 -34zM678.5 1143.5
q-25.5 13.5 -39.5 37.5l-190 355h138l188 -215l258 215h133l-295 -346q-24 -28 -52.5 -44t-71.5 -16t-68.5 13.5z" />
    <glyph glyph-name="Eng" unicode="&#x14a;" horiz-adv-x="1656" 
d="M1755 1406.5q6 -12.5 6 -28.5q0 -20 -10.5 -32.5t-30.5 -14.5l-20 -2q-75 -7 -125.5 -25.5t-58.5 -69.5l-168 -1121q-30 -193 -88.5 -315t-163.5 -184.5t-274 -62.5q-64 0 -108 24t-65 60t-21 73q0 41 21.5 73.5t55.5 50t69 17.5l93 -191q74 0 130.5 35t87 95.5
t30.5 136.5q0 33 -4 52t-11 37l-614 1165h-17l-155 -1009q-2 -42 48.5 -57.5t129.5 -22.5l21 -2q31 -3 31 -28q0 -24 -13 -42t-29 -18h-504q-13 0 -19.5 12t-6.5 24q0 24 8 36.5t32 15.5q187 15 199 84l164 1032q2 12 2 16q0 50 -49.5 78t-104.5 33q-19 2 -26.5 7t-7.5 17
q0 19 13.5 41.5t30.5 22.5h436l599 -1126h12l135 941q1 4 1 12q0 34 -33.5 52t-67 23t-93.5 10q-23 2 -32 9t-7 23q2 17 15 36.5t29 19.5h509q13 0 19 -12.5z" />
    <glyph glyph-name="eng" unicode="&#x14b;" horiz-adv-x="1320" 
d="M436.5 -422.5q-50.5 25.5 -76.5 64.5t-26 79q0 10 1 15q11 56 45.5 92t89.5 36q27 0 42 -6t20 -21l74 -183q42 0 76.5 29t67 117.5t57.5 256.5l99 656q4 36 4 48q0 93 -99 93q-86 0 -173.5 -50t-143.5 -115l-110 -689h-273l122 778q2 10 2 28q0 34 -15 52.5t-35.5 25.5
t-52.5 13q-5 1 -15 2.5t-16 3.5q-11 5 -15.5 13.5t-2.5 26.5q2 14 10.5 28.5t19.5 15.5q158 10 347 10h38q11 0 19 -9.5t5 -30.5l-26 -172q63 61 115.5 104t145 84t201.5 41q97 0 163 -50t66 -163q0 -32 -6 -71l-97 -641q-36 -235 -161.5 -386t-365.5 -151
q-70 0 -120.5 25.5z" />
    <glyph glyph-name="Omacron" unicode="&#x14c;" horiz-adv-x="1618" 
d="M401 52.5q-142 81.5 -213 224t-71 325.5q0 225 100 419.5t284 311t425 116.5q211 0 355 -79t215 -218t71 -321q0 -225 -100.5 -422.5t-286.5 -317.5t-430 -120q-207 0 -349 81.5zM1046.5 185q105.5 120 149.5 308t44 409q0 150 -29 249t-98 152t-188 53
q-177 0 -284.5 -120t-152.5 -307.5t-45 -408.5q0 -226 73.5 -340.5t251.5 -114.5q173 0 278.5 120zM688 1763h588l-23 -148h-587z" />
    <glyph glyph-name="omacron" unicode="&#x14d;" horiz-adv-x="1235" 
d="M156 712q69 134 199.5 218t307.5 84q250 0 367 -123t117 -338q0 -158 -69.5 -290.5t-201 -211.5t-309.5 -79q-246 0 -363 122.5t-117 337.5q0 146 69 280zM724 138.5q64 79.5 94 206t30 271.5q0 150 -41 230t-143 80q-97 0 -160 -80t-92.5 -207t-29.5 -271
q0 -149 39.5 -229t139.5 -80q99 0 163 79.5zM451 1330h588l-23 -148h-587z" />
    <glyph glyph-name="Obreve" unicode="&#x14e;" horiz-adv-x="1618" 
d="M401 52.5q-142 81.5 -213 224t-71 325.5q0 225 100 419.5t284 311t425 116.5q211 0 355 -79t215 -218t71 -321q0 -225 -100.5 -422.5t-286.5 -317.5t-430 -120q-207 0 -349 81.5zM1046.5 185q105.5 120 149.5 308t44 409q0 150 -29 249t-98 152t-188 53
q-177 0 -284.5 -120t-152.5 -307.5t-45 -408.5q0 -226 73.5 -340.5t251.5 -114.5q173 0 278.5 120zM751.5 1651q-82.5 61 -82.5 213q0 44 9 95h126q-1 -9 -1 -25q0 -79 43 -127.5t137 -48.5t155.5 56.5t79.5 144.5h126q-26 -206 -136.5 -287.5t-251.5 -81.5
q-122 0 -204.5 61z" />
    <glyph glyph-name="obreve" unicode="&#x14f;" horiz-adv-x="1235" 
d="M156 712q69 134 199.5 218t307.5 84q250 0 367 -123t117 -338q0 -158 -69.5 -290.5t-201 -211.5t-309.5 -79q-246 0 -363 122.5t-117 337.5q0 146 69 280zM724 138.5q64 79.5 94 206t30 271.5q0 150 -41 230t-143 80q-97 0 -160 -80t-92.5 -207t-29.5 -271
q0 -149 39.5 -229t139.5 -80q99 0 163 79.5zM518.5 1243q-82.5 61 -82.5 214q0 43 9 95h127q-1 -9 -1 -25q0 -77 46.5 -127t132.5 -50q102 0 159 55t76 147h126q-26 -207 -136.5 -288.5t-251.5 -81.5q-122 0 -204.5 61z" />
    <glyph glyph-name="Ohungarumlaut" unicode="&#x150;" horiz-adv-x="1618" 
d="M401 52.5q-142 81.5 -213 224t-71 325.5q0 225 100 419.5t284 311t425 116.5q211 0 355 -79t215 -218t71 -321q0 -225 -100.5 -422.5t-286.5 -317.5t-430 -120q-207 0 -349 81.5zM1046.5 185q105.5 120 149.5 308t44 409q0 150 -29 249t-98 152t-188 53
q-177 0 -284.5 -120t-152.5 -307.5t-45 -408.5q0 -226 73.5 -340.5t251.5 -114.5q173 0 278.5 120zM791.5 1750q55.5 82 105.5 164q41 66 50 75q18 20 42 32t49 12q33 0 61 -24q31 -26 31 -66q0 -41 -37 -84q-6 -8 -25 -24.5t-31 -26.5q-72 -61 -146 -129.5t-163 -165.5
l-68 61q76 94 131.5 176zM1203 1749.5q56 80.5 110 164.5q36 57 51 75q18 20 42 32t49 12q35 0 62 -24q30 -26 30 -64q0 -47 -36 -86q-11 -12 -60 -53q-82 -68 -153.5 -133t-158.5 -160l-68 61q76 95 132 175.5z" />
    <glyph glyph-name="ohungarumlaut" unicode="&#x151;" horiz-adv-x="1235" 
d="M156 712q69 134 199.5 218t307.5 84q250 0 367 -123t117 -338q0 -158 -69.5 -290.5t-201 -211.5t-309.5 -79q-246 0 -363 122.5t-117 337.5q0 146 69 280zM724 138.5q64 79.5 94 206t30 271.5q0 150 -41 230t-143 80q-97 0 -160 -80t-92.5 -207t-29.5 -271
q0 -149 39.5 -229t139.5 -80q99 0 163 79.5zM550.5 1325q55.5 82 105.5 164q41 66 50 75q17 20 41 32t49 12q34 0 62 -24q31 -27 31 -66q0 -40 -38 -84q-10 -12 -56 -50q-84 -73 -152 -136.5t-156 -159.5l-68 61q76 94 131.5 176zM1069 1485q43 67 54 79q17 20 41 32t49 12
q35 0 62 -24q31 -27 31 -64q0 -47 -37 -86q-11 -12 -60 -53q-76 -62 -150 -129.5t-162 -163.5l-68 61q120 149 240 336z" />
    <glyph glyph-name="OE" unicode="&#x152;" horiz-adv-x="2191" 
d="M383 48.5q-132 77.5 -201 215t-69 314.5q0 236 104.5 435.5t295.5 317.5t438 118q66 0 109.5 -5.5t85.5 -14.5q6 -1 29 -5.5t46 -4.5h964l-22 -318q-2 -16 -17 -25t-29 -9q-20 0 -35.5 8t-14.5 25q3 32 -13 88t-53 100t-95 44h-403l-84 -556h270q23 2 48 34.5t44.5 73
t26.5 64.5q5 18 25 25.5t44 7.5q14 0 27 -9t10 -25l-63 -443q-3 -16 -18 -25t-29 -9q-25 0 -43 7.5t-18 24.5q1 27 -5.5 70.5t-23 77.5t-42.5 34h-267l-77 -511q-3 -39 22.5 -56t61.5 -17h370q61 0 117 50.5t96 114.5t56 108q6 17 22.5 25t34.5 8q20 0 33.5 -9t10.5 -25
l-80 -371l-1023 -1q-32 0 -66.5 -3.5t-68.5 -8.5q-60 -8 -107 -12.5t-110 -4.5q-182 0 -314 77.5zM1022 148l168 1100q-21 54 -81.5 83t-182.5 29q-172 0 -282.5 -120t-160.5 -311t-50 -413q0 -137 33 -238.5t97 -157t155 -55.5q267 0 304 83z" />
    <glyph glyph-name="oe" unicode="&#x153;" horiz-adv-x="1837" 
d="M278 30q-105 58 -156 162t-51 243q0 146 69 279.5t200.5 216.5t308.5 83q137 0 233.5 -46t143.5 -129q79 83 186.5 129t227.5 46q119 0 194 -34.5t107 -86t32 -104.5q0 -157 -161.5 -249t-493.5 -132q-1 -15 -1 -47q0 -92 31 -152t82 -87t113 -27q94 0 169.5 29t157.5 91
q3 2 7 6.5t7.5 5.5t7.5 -2l37 -33q5 -4 5 -9q0 -4 -4.5 -10t-6.5 -9q-68 -64 -129.5 -105t-140.5 -64.5t-181 -23.5q-116 0 -206.5 35.5t-148.5 102.5q-147 -137 -377 -137q-157 0 -262 58zM1414.5 604q95.5 81 95.5 214q0 51 -25 83t-77 32q-68 0 -127.5 -53.5t-101.5 -155
t-56 -239.5q196 38 291.5 119zM696 147.5q66 88.5 98 227t32 287.5q0 130 -42 197t-133 67q-96 0 -158.5 -83t-91.5 -213.5t-29 -275.5q0 -146 35.5 -220.5t126.5 -74.5q96 0 162 88.5z" />
    <glyph glyph-name="Racute" unicode="&#x154;" horiz-adv-x="1568" 
d="M56.5 15.5q-6.5 15.5 -6.5 31.5q0 20 7.5 30t25.5 11q147 11 155 64l152 1099q1 4 1 10q0 32 -25.5 44t-75.5 20q-34 5 -50.5 11t-16.5 20q0 27 10 45t32 18h574q214 0 340 -40.5t179 -114t53 -181.5q0 -109 -54 -199t-145.5 -149t-200.5 -80q58 -19 100.5 -66t69 -101
t60.5 -139q32 -81 48 -111q40 -71 81.5 -107t105.5 -42q18 -1 25 -13t7 -34q0 -12 -8 -27t-26 -15h-349q-67 0 -105 75q-17 34 -30.5 77.5t-33.5 116.5q-30 107 -52.5 173t-59.5 118t-89 65h-163l-63 -453q0 -35 21 -52t46 -22t73 -10q31 -3 31 -29q0 -20 -7.5 -39.5
t-31.5 -19.5h-585q-13 0 -19.5 15.5zM1014 808q86 96 86 266q0 96 -29.5 152t-98 81.5t-191.5 25.5h-89l-86 -621h137q185 0 271 96zM948 1883q62 73 78 87q19 16 45 26t53 10q47 0 73 -33q20 -26 20 -61q0 -29 -14 -57t-34 -45q-21 -16 -83 -50q-90 -52 -171 -101.5
t-178 -118.5l-47 58q128 130 258 285z" />
    <glyph glyph-name="racute" unicode="&#x155;" horiz-adv-x="1044" 
d="M676 948q85 66 191 66q84 0 127.5 -46t43.5 -120q0 -98 -60 -156.5t-166 -58.5l-62 203q-54 0 -119 -42t-113 -93l-111 -701h-272l123 778q3 17 3 29q0 34 -16.5 52t-38.5 25t-57 13q-30 5 -34 6q-19 9 -19 30q0 20 9.5 36.5t21.5 17.5q162 10 351 10h38q10 0 17.5 -7
t7.5 -23q-9 -58 -19 -171q69 86 154 152zM789 1451q58 70 75 84q19 16 45.5 26t52.5 10q47 0 73 -33q21 -25 21 -60q0 -29 -14 -57t-35 -46q-8 -7 -30.5 -20t-50.5 -28q-180 -95 -338 -207l-47 58q114 117 248 273z" />
    <glyph glyph-name="uni0156" unicode="&#x156;" horiz-adv-x="1568" 
d="M56.5 15.5q-6.5 15.5 -6.5 31.5q0 20 7.5 30t25.5 11q147 11 155 64l152 1099q1 4 1 10q0 32 -25.5 44t-75.5 20q-34 5 -50.5 11t-16.5 20q0 27 10 45t32 18h574q214 0 340 -40.5t179 -114t53 -181.5q0 -109 -54 -199t-145.5 -149t-200.5 -80q58 -19 100.5 -66t69 -101
t60.5 -139q32 -81 48 -111q40 -71 81.5 -107t105.5 -42q18 -1 25 -13t7 -34q0 -12 -8 -27t-26 -15h-349q-67 0 -105 75q-17 34 -30.5 77.5t-33.5 116.5q-30 107 -52.5 173t-59.5 118t-89 65h-163l-63 -453q0 -35 21 -52t46 -22t73 -10q31 -3 31 -29q0 -20 -7.5 -39.5
t-31.5 -19.5h-585q-13 0 -19.5 15.5zM1014 808q86 96 86 266q0 96 -29.5 152t-98 81.5t-191.5 25.5h-89l-86 -621h137q185 0 271 96zM857.5 -167q31.5 -36 31.5 -105q0 -24 -3 -49q-10 -66 -44 -130t-79.5 -115t-91.5 -79q-9 -6 -24 -6q-16 0 -28.5 7.5t-12.5 19.5
q0 15 20 35q27 25 51.5 74t32.5 106q-41 0 -72 31t-31 82q0 6 2 24q8 70 55 105.5t109 35.5q53 0 84.5 -36z" />
    <glyph glyph-name="uni0157" unicode="&#x157;" horiz-adv-x="1044" 
d="M676 948q85 66 191 66q84 0 127.5 -46t43.5 -120q0 -98 -60 -156.5t-166 -58.5l-62 203q-54 0 -119 -42t-113 -93l-111 -701h-272l123 778q3 17 3 29q0 34 -16.5 52t-38.5 25t-57 13q-30 5 -34 6q-19 9 -19 30q0 20 9.5 36.5t21.5 17.5q162 10 351 10h38q10 0 17.5 -7
t7.5 -23q-9 -58 -19 -171q69 86 154 152zM295.5 -179q36.5 -44 36.5 -106q0 -72 -38 -138.5t-104.5 -114t-148.5 -63.5l-23 67q118 31 150 127q-54 5 -86.5 37.5t-32.5 85.5q0 41 19 75t52.5 54t73.5 20q65 0 101.5 -44z" />
    <glyph glyph-name="Rcaron" unicode="&#x158;" horiz-adv-x="1568" 
d="M56.5 15.5q-6.5 15.5 -6.5 31.5q0 20 7.5 30t25.5 11q147 11 155 64l152 1099q1 4 1 10q0 32 -25.5 44t-75.5 20q-34 5 -50.5 11t-16.5 20q0 27 10 45t32 18h574q214 0 340 -40.5t179 -114t53 -181.5q0 -109 -54 -199t-145.5 -149t-200.5 -80q58 -19 100.5 -66t69 -101
t60.5 -139q32 -81 48 -111q40 -71 81.5 -107t105.5 -42q18 -1 25 -13t7 -34q0 -12 -8 -27t-26 -15h-349q-67 0 -105 75q-17 34 -30.5 77.5t-33.5 116.5q-30 107 -52.5 173t-59.5 118t-89 65h-163l-63 -453q0 -35 21 -52t46 -22t73 -10q31 -3 31 -29q0 -20 -7.5 -39.5
t-31.5 -19.5h-585q-13 0 -19.5 15.5zM1014 808q86 96 86 266q0 96 -29.5 152t-98 81.5t-191.5 25.5h-89l-86 -621h137q185 0 271 96zM815 1576.5q-25 13.5 -39 37.5l-192 345h138l190 -205l256 205h133l-294 -336q-25 -28 -53.5 -44t-70.5 -16q-43 0 -68 13.5z" />
    <glyph glyph-name="rcaron" unicode="&#x159;" horiz-adv-x="1044" 
d="M676 948q85 66 191 66q84 0 127.5 -46t43.5 -120q0 -98 -60 -156.5t-166 -58.5l-62 203q-54 0 -119 -42t-113 -93l-111 -701h-272l123 778q3 17 3 29q0 34 -16.5 52t-38.5 25t-57 13q-30 5 -34 6q-19 9 -19 30q0 20 9.5 36.5t21.5 17.5q162 10 351 10h38q10 0 17.5 -7
t7.5 -23q-9 -58 -19 -171q69 86 154 152zM615.5 1143.5q-25.5 13.5 -39.5 37.5l-190 355h138l188 -215l258 215h133l-295 -346q-24 -28 -52.5 -44t-71.5 -16t-68.5 13.5z" />
    <glyph glyph-name="Sacute" unicode="&#x15a;" horiz-adv-x="1274" 
d="M122 303q18 112 19 168q1 49 51 49q25 0 43 -12t18 -30q1 -9 1 -42t7 -77t22 -89q37 -108 119 -160.5t194 -52.5q83 0 145.5 31t96 84t33.5 117q0 69 -36 123.5t-90.5 95.5t-148.5 99q-15 10 -27.5 18t-22.5 14q-97 62 -160.5 117t-104 131t-40.5 175q0 123 67.5 210
t182.5 132t257 45q65 0 115 -8.5t84.5 -20.5t87.5 -33q15 -6 26 -6q18 0 27.5 6.5t21.5 20.5q10 12 18.5 18t23.5 6q18 0 35 -8.5t16 -21.5q-2 -23 -11 -118q-10 -97 -13 -197q-1 -33 -12.5 -46t-35.5 -13q-22 0 -39 7t-21 21q-49 313 -312 313q-112 0 -183 -52.5
t-71 -154.5q0 -72 40 -130t98.5 -100.5t152.5 -97.5q106 -63 176 -115t122.5 -132.5t52.5 -186.5q0 -112 -61 -210t-184 -159t-299 -61q-79 0 -139 13t-105 33.5t-124 61.5q-8 4 -14 0t-19 -17q-25 -25 -40 -33t-28 -8q-28 0 -42.5 16t-11.5 36q24 119 42 231zM882 1882
q62 73 78 87q19 16 45 26t53 10q47 0 73 -33q20 -26 20 -61q0 -29 -14 -57t-34 -45q-21 -16 -83 -50q-90 -52 -171 -101.5t-178 -118.5l-47 58q128 130 258 285z" />
    <glyph glyph-name="sacute" unicode="&#x15b;" horiz-adv-x="1000" 
d="M168 28.5q-114 52.5 -114 159.5q0 53 35 85t99 32l158 -219q36 -31 117 -31q42 0 80.5 16t62.5 46t24 71q0 39 -24.5 71t-61 58t-102.5 64q-40 22 -71 42q-67 41 -113.5 83t-74.5 98.5t-28 131.5q0 86 55 149t147.5 95.5t203.5 32.5q127 0 214.5 -25t131 -68t44.5 -96
q0 -32 -24 -56.5t-57 -38.5t-55 -14l-143 189q-22 16 -45 24.5t-53 8.5q-78 0 -127.5 -34.5t-48.5 -94.5q1 -38 27 -69.5t65.5 -57.5t119.5 -72q87 -51 144.5 -96t92.5 -102.5t35 -130.5q0 -80 -49.5 -149.5t-145.5 -112t-228 -42.5q-177 0 -291 52.5zM712 1451q58 70 75 84
q19 16 45.5 26t52.5 10q47 0 73 -33q21 -25 21 -60q0 -29 -14 -57t-35 -46q-8 -7 -30.5 -20t-50.5 -28q-180 -95 -338 -207l-47 58q114 117 248 273z" />
    <glyph glyph-name="Scircumflex" unicode="&#x15c;" horiz-adv-x="1274" 
d="M122 303q18 112 19 168q1 49 51 49q25 0 43 -12t18 -30q1 -9 1 -42t7 -77t22 -89q37 -108 119 -160.5t194 -52.5q83 0 145.5 31t96 84t33.5 117q0 69 -36 123.5t-90.5 95.5t-148.5 99q-15 10 -27.5 18t-22.5 14q-97 62 -160.5 117t-104 131t-40.5 175q0 123 67.5 210
t182.5 132t257 45q65 0 115 -8.5t84.5 -20.5t87.5 -33q15 -6 26 -6q18 0 27.5 6.5t21.5 20.5q10 12 18.5 18t23.5 6q18 0 35 -8.5t16 -21.5q-2 -23 -11 -118q-10 -97 -13 -197q-1 -33 -12.5 -46t-35.5 -13q-22 0 -39 7t-21 21q-49 313 -312 313q-112 0 -183 -52.5
t-71 -154.5q0 -72 40 -130t98.5 -100.5t152.5 -97.5q106 -63 176 -115t122.5 -132.5t52.5 -186.5q0 -112 -61 -210t-184 -159t-299 -61q-79 0 -139 13t-105 33.5t-124 61.5q-8 4 -14 0t-19 -17q-25 -25 -40 -33t-28 -8q-28 0 -42.5 16t-11.5 36q24 119 42 231zM804.5 1943.5
q28.5 13.5 71.5 13.5t68 -16t39 -44l193 -339h-133l-196 208l-253 -208h-138l298 348q22 24 50.5 37.5z" />
    <glyph glyph-name="scircumflex" unicode="&#x15d;" horiz-adv-x="1000" 
d="M168 28.5q-114 52.5 -114 159.5q0 53 35 85t99 32l158 -219q36 -31 117 -31q42 0 80.5 16t62.5 46t24 71q0 39 -24.5 71t-61 58t-102.5 64q-40 22 -71 42q-67 41 -113.5 83t-74.5 98.5t-28 131.5q0 86 55 149t147.5 95.5t203.5 32.5q127 0 214.5 -25t131 -68t44.5 -96
q0 -32 -24 -56.5t-57 -38.5t-55 -14l-143 189q-22 16 -45 24.5t-53 8.5q-78 0 -127.5 -34.5t-48.5 -94.5q1 -38 27 -69.5t65.5 -57.5t119.5 -72q87 -51 144.5 -96t92.5 -102.5t35 -130.5q0 -80 -49.5 -149.5t-145.5 -112t-228 -42.5q-177 0 -291 52.5zM599 1542.5
q29 13.5 72 13.5t67.5 -16t39.5 -44l185 -359h-133l-189 221l-260 -221h-138l306 368q21 24 50 37.5z" />
    <glyph glyph-name="Scedilla" unicode="&#x15e;" horiz-adv-x="1274" 
d="M1187 1423.5q17 -8.5 16 -21.5q-2 -23 -11 -118q-10 -97 -13 -197q-1 -33 -12.5 -46t-35.5 -13q-22 0 -39 7t-21 21q-49 313 -312 313q-112 0 -183 -52.5t-71 -154.5q0 -72 40 -130t98.5 -100.5t152.5 -97.5q106 -63 176 -115t122.5 -132.5t52.5 -186.5
q0 -107 -56.5 -202t-170 -157t-276.5 -70l-40 -95q100 -16 149 -55.5t49 -106.5q0 -60 -40 -110.5t-108.5 -80.5t-149.5 -30q-78 0 -133 18t-86 39q-6 4 -6 10q0 5 3 10l27 47l15 27q5 7 9 9t11 -1q34 -14 64.5 -21.5t74.5 -7.5q50 0 85 24.5t35 66.5q0 21 -17 40.5t-52 31
t-88 10.5l61 180q-72 9 -126.5 31.5t-145.5 70.5q-8 4 -14 0t-19 -17q-25 -25 -40 -33t-28 -8q-28 0 -42.5 16t-11.5 36q24 119 42 231t19 168q1 49 51 49q25 0 43 -12t18 -30q1 -9 1 -42t7 -77t22 -89q37 -108 119 -160.5t194 -52.5q83 0 145.5 31t96 84t33.5 117
q0 69 -36 123.5t-90.5 95.5t-148.5 99q-15 10 -27.5 18t-22.5 14q-97 62 -160.5 117t-104 131t-40.5 175q0 123 67.5 210t182.5 132t257 45q65 0 115 -8.5t84.5 -20.5t87.5 -33q15 -6 26 -6q18 0 27.5 6.5t21.5 20.5q10 12 18.5 18t23.5 6q18 0 35 -8.5z" />
    <glyph glyph-name="scedilla" unicode="&#x15f;" horiz-adv-x="1000" 
d="M446.5 902.5q-49.5 -34.5 -48.5 -94.5q1 -38 27 -69.5t65.5 -57.5t119.5 -72q87 -51 144.5 -96t92.5 -102.5t35 -130.5q0 -76 -44.5 -142.5t-130.5 -110t-205 -50.5l-42 -94q92 -11 145 -51t53 -103q0 -61 -40 -112.5t-108 -81t-150 -29.5q-77 0 -131.5 18t-87.5 39
q-6 4 -6 10q0 5 3 11l29 45l13 20q5 6 9 8t11 -1q38 -14 66.5 -21.5t72.5 -7.5q53 0 90 25t37 69q0 34 -41.5 58t-122.5 23l62 178q-140 13 -225 65t-85 143q0 53 35 85t99 32l158 -219q36 -31 117 -31q42 0 80.5 16t62.5 46t24 71q0 39 -24.5 71t-61 58t-102.5 64
q-40 22 -71 42q-67 41 -113.5 83t-74.5 98.5t-28 131.5q0 86 55 149t147.5 95.5t203.5 32.5q127 0 214.5 -25t131 -68t44.5 -96q0 -32 -24 -56.5t-57 -38.5t-55 -14l-143 189q-22 16 -45 24.5t-53 8.5q-78 0 -127.5 -34.5z" />
    <glyph glyph-name="Scaron" unicode="&#x160;" horiz-adv-x="1274" 
d="M122 303q18 112 19 168q1 49 51 49q25 0 43 -12t18 -30q1 -9 1 -42t7 -77t22 -89q37 -108 119 -160.5t194 -52.5q83 0 145.5 31t96 84t33.5 117q0 69 -36 123.5t-90.5 95.5t-148.5 99q-15 10 -27.5 18t-22.5 14q-97 62 -160.5 117t-104 131t-40.5 175q0 123 67.5 210
t182.5 132t257 45q65 0 115 -8.5t84.5 -20.5t87.5 -33q15 -6 26 -6q18 0 27.5 6.5t21.5 20.5q10 12 18.5 18t23.5 6q18 0 35 -8.5t16 -21.5q-2 -23 -11 -118q-10 -97 -13 -197q-1 -33 -12.5 -46t-35.5 -13q-22 0 -39 7t-21 21q-49 313 -312 313q-112 0 -183 -52.5
t-71 -154.5q0 -72 40 -130t98.5 -100.5t152.5 -97.5q106 -63 176 -115t122.5 -132.5t52.5 -186.5q0 -112 -61 -210t-184 -159t-299 -61q-79 0 -139 13t-105 33.5t-124 61.5q-8 4 -14 0t-19 -17q-25 -25 -40 -33t-28 -8q-28 0 -42.5 16t-11.5 36q24 119 42 231zM750 1575.5
q-25 13.5 -39 37.5l-192 345h138l190 -205l256 205h133l-294 -336q-25 -28 -53.5 -44t-70.5 -16q-43 0 -68 13.5z" />
    <glyph glyph-name="scaron" unicode="&#x161;" horiz-adv-x="1000" 
d="M168 28.5q-114 52.5 -114 159.5q0 53 35 85t99 32l158 -219q36 -31 117 -31q42 0 80.5 16t62.5 46t24 71q0 39 -24.5 71t-61 58t-102.5 64q-40 22 -71 42q-67 41 -113.5 83t-74.5 98.5t-28 131.5q0 86 55 149t147.5 95.5t203.5 32.5q127 0 214.5 -25t131 -68t44.5 -96
q0 -32 -24 -56.5t-57 -38.5t-55 -14l-143 189q-22 16 -45 24.5t-53 8.5q-78 0 -127.5 -34.5t-48.5 -94.5q1 -38 27 -69.5t65.5 -57.5t119.5 -72q87 -51 144.5 -96t92.5 -102.5t35 -130.5q0 -80 -49.5 -149.5t-145.5 -112t-228 -42.5q-177 0 -291 52.5zM538.5 1143.5
q-25.5 13.5 -39.5 37.5l-190 355h138l188 -215l258 215h133l-295 -346q-24 -28 -52.5 -44t-71.5 -16t-68.5 13.5z" />
    <glyph glyph-name="uni0162" unicode="&#x162;" horiz-adv-x="1356" 
d="M1417 1419q0 -78 -8.5 -169t-23.5 -219q-6 -49 -8 -66q-3 -15 -30.5 -24.5t-44.5 -9.5q-48 0 -45 33v33q0 103 -9.5 173.5t-41 115.5t-93.5 45h-161l-174 -1153q-2 -36 34 -54.5t76.5 -24t113.5 -11.5q21 -2 28 -9t6 -29q-1 -16 -14 -33t-29 -17h-312l-53 -124
q100 -16 149 -55.5t49 -106.5q0 -60 -40 -110.5t-108.5 -80.5t-149.5 -30q-78 0 -133 18t-86 39q-6 4 -6 10q0 5 3 10l27 47l15 27q5 7 9 9t11 -1q34 -14 64.5 -21.5t74.5 -7.5q50 0 85 24.5t35 66.5q0 21 -17 40.5t-52 31t-88 10.5l69 204h-289q-14 0 -21.5 14.5t-7.5 29.5
q0 20 9 31t30 13q99 8 159.5 26.5t67.5 67.5l175 1149h-164q-73 0 -132 -71t-95.5 -158t-47.5 -138q-5 -18 -21 -25.5t-35 -7.5q-18 0 -44.5 9.5t-23.5 24.5q10 65 35 175t48.5 194.5t30.5 84.5h1204z" />
    <glyph glyph-name="uni0163" unicode="&#x163;" horiz-adv-x="806" 
d="M794 984.5q5 -8.5 5 -21.5q0 -23 -11 -44.5t-23 -26.5h-252l-96 -611q-6 -31 -6 -68q0 -61 22.5 -79.5t62.5 -18.5q43 0 78 13.5t72 34.5q6 3 17.5 9t16.5 6q13 0 21.5 -14.5t8.5 -32.5t-11 -26q-53 -39 -93.5 -63.5t-91 -41.5t-115.5 -23l-42 -94q92 -11 145 -51
t53 -103q0 -61 -40 -112.5t-108 -81t-150 -29.5q-77 0 -131.5 18t-87.5 39q-6 4 -6 10q0 5 3 11l29 45l13 20q5 6 9 8t11 -1q38 -14 66.5 -21.5t72.5 -7.5q53 0 90 25t37 69q0 34 -41.5 58t-122.5 23l61 177q-61 12 -94.5 54t-33.5 126q0 33 4 64l104 669h-128
q-9 1 -13.5 13t-4.5 26q0 22 11.5 39t25.5 21q72 9 119.5 36t88 83.5t90.5 162.5q13 27 34 38t56 11h39q11 0 17 -6.5t5 -14.5l-53 -307h252q10 -1 15 -9.5z" />
    <glyph glyph-name="Tcaron" unicode="&#x164;" horiz-adv-x="1356" 
d="M230 75q9 11 30 13q99 8 159.5 26.5t67.5 67.5l175 1149h-164q-73 0 -132 -71t-95.5 -158t-47.5 -138q-5 -18 -21 -25.5t-35 -7.5q-18 0 -44.5 9.5t-23.5 24.5q10 65 35 175t48.5 194.5t30.5 84.5h1204q0 -78 -8.5 -169t-23.5 -219q-6 -49 -8 -66q-3 -15 -30.5 -24.5
t-44.5 -9.5q-48 0 -45 33v33q0 103 -9.5 173.5t-41 115.5t-93.5 45h-161l-174 -1153q-2 -36 34 -54.5t76.5 -24t113.5 -11.5q21 -2 28 -9t6 -29q-1 -16 -14 -33t-29 -17h-743q-14 0 -21.5 14.5t-7.5 29.5q0 20 9 31zM769 1575.5q-25 13.5 -39 37.5l-192 345h138l190 -205
l256 205h133l-294 -336q-25 -28 -53.5 -44t-70.5 -16q-43 0 -68 13.5z" />
    <glyph glyph-name="tcaron" unicode="&#x165;" horiz-adv-x="806" 
d="M182.5 14.5q-50.5 40.5 -50.5 144.5q0 33 4 64l104 669h-128q-9 1 -13.5 13t-4.5 26q0 22 11.5 39t25.5 21q72 9 119.5 36t88 83.5t90.5 162.5q13 27 34 38t56 11h39q11 0 17 -6.5t5 -14.5l-53 -307h252q10 -1 15 -9.5t5 -21.5q0 -23 -11 -44.5t-23 -26.5h-252l-96 -611
q-6 -31 -6 -68q0 -61 22.5 -79.5t62.5 -18.5q43 0 78 13.5t72 34.5q6 3 17.5 9t16.5 6q13 0 21.5 -14.5t8.5 -32.5t-11 -26q-62 -46 -109.5 -72.5t-111.5 -42.5t-153 -16q-92 0 -142.5 40.5zM689 1205.5q30 52.5 30 101.5q0 24 -8 40t-23 35q-18 23 -27 42.5t-9 50.5
q0 32 18 61t48 46.5t64 17.5q62 0 96.5 -41t34.5 -107q0 -95 -76 -204.5t-182 -202.5l-50 48q54 60 84 112.5z" />
    <glyph glyph-name="Tbar" unicode="&#x166;" horiz-adv-x="1356" 
d="M1417 1419q0 -78 -8.5 -169t-23.5 -219q-6 -49 -8 -66q-3 -15 -30.5 -24.5t-44.5 -9.5q-48 0 -45 33v33q0 103 -9.5 173.5t-41 115.5t-93.5 45h-161l-94 -620h288q10 0 14.5 -8t4.5 -20q0 -18 -11.5 -46.5t-22.5 -32.5h-289l-64 -426q-2 -36 34 -54.5t76.5 -24
t113.5 -11.5q21 -2 28 -9t6 -29q-1 -16 -14 -33t-29 -17h-743q-14 0 -21.5 14.5t-7.5 29.5q0 20 9 31t30 13q99 8 159.5 26.5t67.5 67.5l64 422h-281q-9 0 -13.5 14t-4.5 30q0 20 10 39t23 24h283l94 620h-164q-73 0 -132 -71t-95.5 -158t-47.5 -138q-5 -18 -21 -25.5
t-35 -7.5q-18 0 -44.5 9.5t-23.5 24.5q10 65 35 175t48.5 194.5t30.5 84.5h1204z" />
    <glyph glyph-name="tbar" unicode="&#x167;" horiz-adv-x="806" 
d="M794 984.5q5 -8.5 5 -21.5q0 -23 -11 -44.5t-23 -26.5h-252l-34 -216h233q9 -1 14.5 -8t5.5 -17q0 -6 -1 -9q-2 -20 -11.5 -42t-20.5 -26h-236l-46 -293q-6 -31 -6 -68q0 -61 22.5 -79.5t62.5 -18.5q43 0 78 13.5t72 34.5q6 3 17.5 9t16.5 6q13 0 21.5 -14.5t8.5 -32.5
t-11 -26q-62 -46 -109.5 -72.5t-111.5 -42.5t-153 -16q-92 0 -142.5 40.5t-50.5 144.5q0 33 4 64l55 351h-110q-18 1 -18 49q5 32 30 43l113 7l34 219h-128q-9 1 -13.5 13t-4.5 26q0 22 11.5 39t25.5 21q72 9 119.5 36t88 83.5t90.5 162.5q13 27 34 38t56 11h39
q11 0 17 -6.5t5 -14.5l-53 -307h252q10 -1 15 -9.5z" />
    <glyph glyph-name="Utilde" unicode="&#x168;" horiz-adv-x="1654" 
d="M394 80q-147 109 -147 322q0 79 9 136l102 726q1 33 -26.5 45t-78.5 18q-32 4 -48 9t-16 16q0 26 11 46.5t32 20.5h618q13 0 19.5 -15t6.5 -32q0 -18 -10 -29t-29 -12q-77 -2 -123.5 -17.5t-50.5 -46.5l-104 -717q-14 -106 -13 -175q4 -158 80 -234t219 -76
q153 0 248.5 67t144 175t73.5 252l102 695q1 39 -37.5 57t-119.5 20q-17 1 -24 5t-7 16q0 23 13 45t30 22h436q13 0 19 -14.5t6 -31.5q0 -19 -9.5 -30t-28.5 -12q-80 -3 -126.5 -28.5t-53.5 -72.5l-104 -692q-41 -292 -187.5 -429.5t-404.5 -137.5q-274 0 -421 109z
M1127 1579q-39 18 -92 53q-46 31 -78.5 46.5t-66.5 15.5q-36 0 -57.5 -16t-43.5 -44q-12 -16 -21 -24.5t-20 -8.5q-18 0 -35.5 21.5t-17.5 45.5q0 36 31.5 83.5t85 81.5t116.5 34q41 0 77 -17.5t88 -51.5q47 -33 80 -49t69 -16q37 0 59 16t46 45q15 18 22.5 25t18.5 7
q18 0 36 -22t18 -46q0 -36 -32.5 -83t-86 -80.5t-113.5 -33.5q-44 0 -83 18z" />
    <glyph glyph-name="utilde" unicode="&#x169;" horiz-adv-x="1328" 
d="M236 28q-73 56 -73 184q0 39 7 81l78 529q1 7 1 18q0 30 -16 42t-43 12q-18 0 -48 -6q-22 -5 -33 -5q-24 0 -29 29q-2 12 5.5 26t23.5 19q176 50 265 50q153 0 153 -96q0 -10 -5 -38q-3 -12 -3 -21l-90 -589q-4 -30 -4 -46q0 -111 118 -111q78 0 132.5 23t112.5 64
l119 801h238q33 0 33 -28l-124 -822q0 -53 38 -53q18 0 46.5 6.5t35.5 7.5q13 3 22 -7.5t9 -27.5q0 -9 -3.5 -17t-10.5 -11q-6 -2 -50.5 -20t-105.5 -30.5t-120 -12.5q-70 0 -100 33t-30 81q0 9 2 21q-28 -33 -86.5 -66t-132.5 -54.5t-145 -21.5q-114 0 -187 56zM799 1139.5
q-34 17.5 -81 51.5q-42 31 -71 46t-58 15q-31 0 -49.5 -15.5t-39.5 -43.5q-12 -17 -19.5 -24.5t-16.5 -7.5q-16 0 -31 21.5t-15 45.5q0 35 27.5 81.5t74.5 79.5t103 33q37 0 69.5 -17.5t75.5 -50.5q42 -32 71.5 -47.5t60.5 -15.5q33 0 53 16t40 44q13 17 20.5 24t16.5 7
q15 0 31 -21.5t16 -44.5q0 -35 -28.5 -82t-76 -79.5t-100.5 -32.5q-39 0 -73 17.5z" />
    <glyph glyph-name="Umacron" unicode="&#x16a;" horiz-adv-x="1654" 
d="M394 80q-147 109 -147 322q0 79 9 136l102 726q1 33 -26.5 45t-78.5 18q-32 4 -48 9t-16 16q0 26 11 46.5t32 20.5h618q13 0 19.5 -15t6.5 -32q0 -18 -10 -29t-29 -12q-77 -2 -123.5 -17.5t-50.5 -46.5l-104 -717q-14 -106 -13 -175q4 -158 80 -234t219 -76
q153 0 248.5 67t144 175t73.5 252l102 695q1 39 -37.5 57t-119.5 20q-17 1 -24 5t-7 16q0 23 13 45t30 22h436q13 0 19 -14.5t6 -31.5q0 -19 -9.5 -30t-28.5 -12q-80 -3 -126.5 -28.5t-53.5 -72.5l-104 -692q-41 -292 -187.5 -429.5t-404.5 -137.5q-274 0 -421 109z
M784 1763h588l-23 -148h-587z" />
    <glyph glyph-name="umacron" unicode="&#x16b;" horiz-adv-x="1328" 
d="M236 28q-73 56 -73 184q0 39 7 81l78 529q1 7 1 18q0 30 -16 42t-43 12q-18 0 -48 -6q-22 -5 -33 -5q-24 0 -29 29q-2 12 5.5 26t23.5 19q176 50 265 50q153 0 153 -96q0 -10 -5 -38q-3 -12 -3 -21l-90 -589q-4 -30 -4 -46q0 -111 118 -111q78 0 132.5 23t112.5 64
l119 801h238q33 0 33 -28l-124 -822q0 -53 38 -53q18 0 46.5 6.5t35.5 7.5q13 3 22 -7.5t9 -27.5q0 -9 -3.5 -17t-10.5 -11q-6 -2 -50.5 -20t-105.5 -30.5t-120 -12.5q-70 0 -100 33t-30 81q0 9 2 21q-28 -33 -86.5 -66t-132.5 -54.5t-145 -21.5q-114 0 -187 56zM478 1330
h588l-23 -148h-587z" />
    <glyph glyph-name="Ubreve" unicode="&#x16c;" horiz-adv-x="1654" 
d="M394 80q-147 109 -147 322q0 79 9 136l102 726q1 33 -26.5 45t-78.5 18q-32 4 -48 9t-16 16q0 26 11 46.5t32 20.5h618q13 0 19.5 -15t6.5 -32q0 -18 -10 -29t-29 -12q-77 -2 -123.5 -17.5t-50.5 -46.5l-104 -717q-14 -106 -13 -175q4 -158 80 -234t219 -76
q153 0 248.5 67t144 175t73.5 252l102 695q1 39 -37.5 57t-119.5 20q-17 1 -24 5t-7 16q0 23 13 45t30 22h436q13 0 19 -14.5t6 -31.5q0 -19 -9.5 -30t-28.5 -12q-80 -3 -126.5 -28.5t-53.5 -72.5l-104 -692q-41 -292 -187.5 -429.5t-404.5 -137.5q-274 0 -421 109z
M847.5 1651q-82.5 61 -82.5 213q0 44 9 95h126q-1 -9 -1 -25q0 -79 43 -127.5t137 -48.5t155.5 56.5t79.5 144.5h126q-26 -206 -136.5 -287.5t-251.5 -81.5q-122 0 -204.5 61z" />
    <glyph glyph-name="ubreve" unicode="&#x16d;" horiz-adv-x="1328" 
d="M236 28q-73 56 -73 184q0 39 7 81l78 529q1 7 1 18q0 30 -16 42t-43 12q-18 0 -48 -6q-22 -5 -33 -5q-24 0 -29 29q-2 12 5.5 26t23.5 19q176 50 265 50q153 0 153 -96q0 -10 -5 -38q-3 -12 -3 -21l-90 -589q-4 -30 -4 -46q0 -111 118 -111q78 0 132.5 23t112.5 64
l119 801h238q33 0 33 -28l-124 -822q0 -53 38 -53q18 0 46.5 6.5t35.5 7.5q13 3 22 -7.5t9 -27.5q0 -9 -3.5 -17t-10.5 -11q-6 -2 -50.5 -20t-105.5 -30.5t-120 -12.5q-70 0 -100 33t-30 81q0 9 2 21q-28 -33 -86.5 -66t-132.5 -54.5t-145 -21.5q-114 0 -187 56zM545.5 1243
q-82.5 61 -82.5 214q0 43 9 95h127q-1 -9 -1 -25q0 -77 46.5 -127t132.5 -50q102 0 159 55t76 147h126q-26 -207 -136.5 -288.5t-251.5 -81.5q-122 0 -204.5 61z" />
    <glyph glyph-name="Uring" unicode="&#x16e;" horiz-adv-x="1654" 
d="M394 80q-147 109 -147 322q0 79 9 136l102 726q1 33 -26.5 45t-78.5 18q-32 4 -48 9t-16 16q0 26 11 46.5t32 20.5h618q13 0 19.5 -15t6.5 -32q0 -18 -10 -29t-29 -12q-77 -2 -123.5 -17.5t-50.5 -46.5l-104 -717q-14 -106 -13 -175q4 -158 80 -234t219 -76
q153 0 248.5 67t144 175t73.5 252l102 695q1 39 -37.5 57t-119.5 20q-17 1 -24 5t-7 16q0 23 13 45t30 22h436q13 0 19 -14.5t6 -31.5q0 -19 -9.5 -30t-28.5 -12q-80 -3 -126.5 -28.5t-53.5 -72.5l-104 -692q-41 -292 -187.5 -429.5t-404.5 -137.5q-274 0 -421 109z
M892.5 1458q-59.5 28 -93.5 80.5t-34 122.5q0 92 47 164.5t126 113.5t172 41q75 0 134.5 -29t93.5 -82t34 -123q0 -91 -46.5 -163t-125.5 -112.5t-172 -40.5q-76 0 -135.5 28zM1175.5 1611q44.5 49 44.5 123q0 52 -31.5 83t-98.5 31q-83 0 -126.5 -49t-43.5 -125
q0 -51 31 -81.5t97 -30.5q83 0 127.5 49z" />
    <glyph glyph-name="uring" unicode="&#x16f;" horiz-adv-x="1328" 
d="M236 28q-73 56 -73 184q0 39 7 81l78 529q1 7 1 18q0 30 -16 42t-43 12q-18 0 -48 -6q-22 -5 -33 -5q-24 0 -29 29q-2 12 5.5 26t23.5 19q176 50 265 50q153 0 153 -96q0 -10 -5 -38q-3 -12 -3 -21l-90 -589q-4 -30 -4 -46q0 -111 118 -111q78 0 132.5 23t112.5 64
l119 801h238q33 0 33 -28l-124 -822q0 -53 38 -53q18 0 46.5 6.5t35.5 7.5q13 3 22 -7.5t9 -27.5q0 -9 -3.5 -17t-10.5 -11q-6 -2 -50.5 -20t-105.5 -30.5t-120 -12.5q-70 0 -100 33t-30 81q0 9 2 21q-28 -33 -86.5 -66t-132.5 -54.5t-145 -21.5q-114 0 -187 56zM620.5 1157
q-59.5 28 -93.5 80t-34 122q0 90 46.5 163t125.5 114.5t173 41.5q75 0 134.5 -29t93.5 -82t34 -122q0 -90 -46.5 -162t-125.5 -113t-172 -41q-76 0 -135.5 28zM903.5 1310q44.5 49 44.5 123q0 52 -31.5 83t-98.5 31q-82 0 -124.5 -47t-44.5 -117q-3 -58 28 -90t99 -32
q83 0 127.5 49z" />
    <glyph glyph-name="Uhungarumlaut" unicode="&#x170;" horiz-adv-x="1654" 
d="M394 80q-147 109 -147 322q0 79 9 136l102 726q1 33 -26.5 45t-78.5 18q-32 4 -48 9t-16 16q0 26 11 46.5t32 20.5h618q13 0 19.5 -15t6.5 -32q0 -18 -10 -29t-29 -12q-77 -2 -123.5 -17.5t-50.5 -46.5l-104 -717q-14 -106 -13 -175q4 -158 80 -234t219 -76
q153 0 248.5 67t144 175t73.5 252l102 695q1 39 -37.5 57t-119.5 20q-17 1 -24 5t-7 16q0 23 13 45t30 22h436q13 0 19 -14.5t6 -31.5q0 -19 -9.5 -30t-28.5 -12q-80 -3 -126.5 -28.5t-53.5 -72.5l-104 -692q-41 -292 -187.5 -429.5t-404.5 -137.5q-274 0 -421 109z
M886.5 1750q55.5 82 105.5 164q41 66 50 75q18 20 42 32t49 12q33 0 61 -24q31 -26 31 -66q0 -41 -37 -84q-6 -8 -25 -24.5t-31 -26.5q-72 -61 -146 -129.5t-163 -165.5l-68 61q76 94 131.5 176zM1298 1749.5q56 80.5 110 164.5q36 57 51 75q18 20 42 32t49 12q35 0 62 -24
q30 -26 30 -64q0 -47 -36 -86q-11 -12 -60 -53q-82 -68 -153.5 -133t-158.5 -160l-68 61q76 95 132 175.5z" />
    <glyph glyph-name="uhungarumlaut" unicode="&#x171;" horiz-adv-x="1328" 
d="M236 28q-73 56 -73 184q0 39 7 81l78 529q1 7 1 18q0 30 -16 42t-43 12q-18 0 -48 -6q-22 -5 -33 -5q-24 0 -29 29q-2 12 5.5 26t23.5 19q176 50 265 50q153 0 153 -96q0 -10 -5 -38q-3 -12 -3 -21l-90 -589q-4 -30 -4 -46q0 -111 118 -111q78 0 132.5 23t112.5 64
l119 801h238q33 0 33 -28l-124 -822q0 -53 38 -53q18 0 46.5 6.5t35.5 7.5q13 3 22 -7.5t9 -27.5q0 -9 -3.5 -17t-10.5 -11q-6 -2 -50.5 -20t-105.5 -30.5t-120 -12.5q-70 0 -100 33t-30 81q0 9 2 21q-28 -33 -86.5 -66t-132.5 -54.5t-145 -21.5q-114 0 -187 56zM577.5 1325
q55.5 82 105.5 164q41 66 50 75q17 20 41 32t49 12q34 0 62 -24q31 -27 31 -66q0 -40 -38 -84q-10 -12 -56 -50q-84 -73 -152 -136.5t-156 -159.5l-68 61q76 94 131.5 176zM1096 1485q43 67 54 79q17 20 41 32t49 12q35 0 62 -24q31 -27 31 -64q0 -47 -37 -86
q-11 -12 -60 -53q-76 -62 -150 -129.5t-162 -163.5l-68 61q120 149 240 336z" />
    <glyph glyph-name="Uogonek" unicode="&#x172;" horiz-adv-x="1654" 
d="M1723 1404.5q6 -14.5 6 -31.5q0 -19 -9.5 -30t-28.5 -12q-80 -3 -126.5 -28.5t-53.5 -72.5l-104 -692q-34 -243 -141 -378t-289 -174q-109 -86 -109 -193q0 -38 21.5 -66.5t55 -44t68.5 -15.5q31 0 52 5t53 22q9 5 18.5 -11.5t9.5 -40.5q0 -32 -25 -51q-35 -27 -93 -44
t-116 -17q-84 0 -143.5 26t-89 69.5t-29.5 96.5q0 67 48.5 133.5t130.5 115.5h-14q-274 0 -421 109t-147 322q0 79 9 136l102 726q1 33 -26.5 45t-78.5 18q-32 4 -48 9t-16 16q0 26 11 46.5t32 20.5h618q13 0 19.5 -15t6.5 -32q0 -18 -10 -29t-29 -12q-77 -2 -123.5 -17.5
t-50.5 -46.5l-104 -717q-14 -106 -13 -175q4 -158 80 -234t219 -76q153 0 248.5 67t144 175t73.5 252l102 695q1 39 -37.5 57t-119.5 20q-17 1 -24 5t-7 16q0 23 13 45t30 22h436q13 0 19 -14.5z" />
    <glyph glyph-name="uogonek" unicode="&#x173;" horiz-adv-x="1328" 
d="M1196 97.5q9 -10.5 9 -27.5q0 -9 -3.5 -17t-10.5 -11q-6 -2 -50.5 -20t-105.5 -30.5t-120 -12.5h-11q-117 -86 -117 -202q0 -37 20 -65.5t51 -44t64 -15.5q31 0 51.5 5t52.5 22q6 3 13 -4.5t12.5 -21.5t5.5 -30q0 -32 -25 -51q-35 -27 -93 -44t-116 -17q-84 0 -143.5 26
t-89 69.5t-29.5 96.5q0 59 34.5 115.5t96.5 103.5t142 76q-26 15 -37.5 40.5t-11.5 54.5q0 9 2 21q-28 -33 -86.5 -66t-132.5 -54.5t-145 -21.5q-114 0 -187 56t-73 184q0 39 7 81l78 529q1 7 1 18q0 30 -16 42t-43 12q-18 0 -48 -6q-22 -5 -33 -5q-24 0 -29 29
q-2 12 5.5 26t23.5 19q176 50 265 50q153 0 153 -96q0 -10 -5 -38q-3 -12 -3 -21l-90 -589q-4 -30 -4 -46q0 -111 118 -111q78 0 132.5 23t112.5 64l119 801h238q33 0 33 -28l-124 -822q0 -53 38 -53q18 0 46.5 6.5t35.5 7.5q13 3 22 -7.5z" />
    <glyph glyph-name="Wcircumflex" unicode="&#x174;" horiz-adv-x="2204" 
d="M249.5 1304.5q-19.5 16.5 -44.5 20.5t-61 5q-21 0 -29 1q-18 2 -24.5 6t-6.5 16q0 26 14 46t31 20h639q13 0 19 -14t6 -30q-1 -20 -11.5 -32t-29.5 -12q-86 0 -132.5 -17.5t-43.5 -52.5l83 -972h12l545 1110h210l114 -1111h11l464 962q4 9 4 18q0 31 -50.5 47t-125.5 16
q-27 0 -27 24q0 31 13.5 47.5t30.5 16.5h512q12 0 18.5 -13.5t6.5 -28.5q0 -26 -9.5 -35t-33.5 -11l-23 -2q-56 -3 -94 -16.5t-61 -58.5l-670 -1272h-220l-110 1062h-12l-538 -1062h-210l-144 1272q-3 34 -22.5 50.5zM1337.5 1943.5q28.5 13.5 71.5 13.5t68 -16t39 -44
l193 -339h-133l-196 208l-253 -208h-138l298 348q22 24 50.5 37.5z" />
    <glyph glyph-name="wcircumflex" unicode="&#x175;" horiz-adv-x="1836" 
d="M395 -9q-21 11 -21 32q0 4 0.5 16.5t0.5 39.5q0 175 -22.5 321t-56 249t-68.5 164q-8 14 -26 22.5t-34 8.5q-33 0 -72 -44q-14 -16 -27 -16t-24 12t-11 34q0 17 6 25q61 86 129 122t156 36q106 0 165.5 -106.5t81.5 -272t25 -383.5q0 -23 -6 -48.5t-18 -62.5l-14 -48
q84 54 170.5 151t144.5 210.5t62 214.5q-2 12 -2.5 20.5t-0.5 14.5q-2 36 -7 61.5t-21 54.5q-7 12 -20 19.5t-27 7.5q-13 0 -40 -15t-42 -31q-14 -16 -31 -16q-13 0 -23 12t-10 32q0 16 5 23q35 53 83.5 89.5t98.5 54t89 18.5q106 1 156 -93t63 -237.5t16 -399.5v-32
q0 -35 -12 -78t-29 -81q90 62 170.5 150.5t132 191.5t51.5 204q0 30 -6 55t-19 65q-13 38 -19 65t-5 59q2 58 39 94.5t97 36.5q54 0 90 -32t53.5 -82.5t17.5 -105.5q0 -137 -90.5 -296t-232 -297t-285.5 -217q-3 -2 -24 -2.5t-60 -0.5q-58 0 -81.5 11t-23.5 32q0 2 2 24.5
t2 51.5q0 120 -15 283l-3 30q-77 -143 -189.5 -253t-231.5 -176q-2 -2 -24 -2.5t-54 -0.5q-58 0 -79 11zM1020 1542.5q29 13.5 72 13.5t67.5 -16t39.5 -44l185 -359h-133l-189 221l-260 -221h-138l306 368q21 24 50 37.5z" />
    <glyph glyph-name="Ycircumflex" unicode="&#x176;" horiz-adv-x="1419" 
d="M272.5 73.5q14.5 12.5 37.5 14.5q26 2 40 2q41 1 67 5t45.5 17t24.5 40l66 382l-320 720q-20 46 -48.5 64.5t-82.5 22.5q-18 1 -23.5 9.5t-5.5 24.5q0 18 12.5 31t29.5 13h603q14 0 20 -12t6 -26q0 -17 -15 -33t-34 -17q-90 -3 -125 -9t-35 -25l263 -658l438 619
q12 17 12 31q0 42 -129 42q-16 0 -25.5 12t-9.5 27q0 16 13 32.5t29 16.5h432q15 0 22 -14t4 -27q-4 -22 -12.5 -28.5t-30.5 -8.5q-5 -1 -38.5 -4t-65.5 -24t-60 -59l-523 -709l-63 -394q0 -26 19 -38.5t45.5 -16.5t69.5 -5l45 -3q21 -3 30.5 -7.5t9.5 -18.5
q0 -23 -14.5 -42.5t-29.5 -19.5h-681q-13 0 -20 13.5t-7 28.5q0 19 14.5 31.5zM904.5 1943.5q28.5 13.5 71.5 13.5t68 -16t39 -44l193 -339h-133l-196 208l-253 -208h-138l298 348q22 24 50.5 37.5z" />
    <glyph glyph-name="ycircumflex" unicode="&#x177;" horiz-adv-x="1296" 
d="M77.5 -420.5q-42.5 28.5 -42.5 77.5q0 52 40.5 80.5t100.5 28.5q9 0 81 -3q29 -3 53 -3q33 0 60 8q67 18 123 68t121 125l15 17q-86 0 -131.5 6.5t-64 22.5t-18.5 47q0 147 -28 303t-70.5 279.5t-82.5 177.5q-9 13 -23.5 21.5t-27.5 8.5q-29 0 -66 -52q-16 -20 -27 -20
q-12 0 -22.5 14t-10.5 35q0 13 6 26q32 56 80.5 93.5t98 55.5t85.5 18q61 0 103.5 -25t72.5 -85q39 -74 73.5 -209.5t55 -287.5t22.5 -271q0 -31 1 -47q2 -45 0 -78q108 135 209 310.5t101 315.5q0 31 -6.5 58t-18.5 62q-13 37 -19.5 65.5t-6.5 61.5q0 59 38 94.5t100 35.5
q55 0 91.5 -31.5t53.5 -81.5t17 -106q0 -112 -53 -231t-129 -225.5t-202 -264.5q-55 -67 -87 -109q-147 -181 -285.5 -297.5t-269.5 -116.5q-68 0 -110.5 28.5zM756 1542.5q29 13.5 72 13.5t67.5 -16t39.5 -44l185 -359h-133l-189 221l-260 -221h-138l306 368q21 24 50 37.5
z" />
    <glyph glyph-name="Ydieresis" unicode="&#x178;" horiz-adv-x="1419" 
d="M272.5 73.5q14.5 12.5 37.5 14.5q26 2 40 2q41 1 67 5t45.5 17t24.5 40l66 382l-320 720q-20 46 -48.5 64.5t-82.5 22.5q-18 1 -23.5 9.5t-5.5 24.5q0 18 12.5 31t29.5 13h603q14 0 20 -12t6 -26q0 -17 -15 -33t-34 -17q-90 -3 -125 -9t-35 -25l263 -658l438 619
q12 17 12 31q0 42 -129 42q-16 0 -25.5 12t-9.5 27q0 16 13 32.5t29 16.5h432q15 0 22 -14t4 -27q-4 -22 -12.5 -28.5t-30.5 -8.5q-5 -1 -38.5 -4t-65.5 -24t-60 -59l-523 -709l-63 -394q0 -26 19 -38.5t45.5 -16.5t69.5 -5l45 -3q21 -3 30.5 -7.5t9.5 -18.5
q0 -23 -14.5 -42.5t-29.5 -19.5h-681q-13 0 -20 13.5t-7 28.5q0 19 14.5 31.5zM588.5 1583.5q-33.5 37.5 -33.5 96.5q0 51 23 97.5t63.5 74.5t89.5 28q60 0 94 -38t34 -97q0 -51 -23 -97t-64 -74t-91 -28q-59 0 -92.5 37.5zM1047.5 1583q-33.5 37 -33.5 97q0 51 23 97.5
t64 74.5t90 28q59 0 93 -38t34 -97q0 -51 -23 -97t-64 -74t-90 -28q-60 0 -93.5 37z" />
    <glyph glyph-name="Zacute" unicode="&#x179;" horiz-adv-x="1352" 
d="M27 76.5q11 17.5 45 56.5l925 1198h-436q-46 0 -104 -62.5t-107 -139.5t-62 -110q-8 -19 -22 -26t-36 -7q-15 0 -32.5 9.5t-14.5 24.5l90 358q25 39 55 41h1012q14 0 24 -8t10 -22v-24q0 -13 -8.5 -23.5t-10.5 -13.5l-966 -1245h466q64 0 133.5 70t122 154t68.5 123
q8 19 21.5 26t35.5 7q16 0 37 -9.5t18 -24.5l-111 -388q-26 -40 -53 -41h-1074q-17 0 -27 9t-10 23v15q0 12 11 29.5zM914 1882q62 73 78 87q19 16 45 26t53 10q47 0 73 -33q20 -26 20 -61q0 -29 -14 -57t-34 -45q-21 -16 -83 -50q-90 -52 -171 -101.5t-178 -118.5l-47 58
q128 130 258 285z" />
    <glyph glyph-name="zacute" unicode="&#x17a;" horiz-adv-x="1009" 
d="M0 11q-12 11 -12 26q0 17 10 34.5t38 51.5l547 662l121 126h-293q-43 0 -85.5 -44.5t-73 -101.5t-37.5 -87q-4 -18 -18.5 -25.5t-32.5 -7.5q-15 0 -32 9.5t-14 24.5l60 274q4 17 20.5 28.5t32.5 12.5h731q28 0 42.5 -9t14.5 -24q0 -21 -6.5 -34t-26.5 -41l-536 -662
l-135 -141h301q45 0 90 46.5t78.5 105.5t41.5 90q5 19 15 26t27 7q16 0 37 -9.5t19 -24.5l-60 -283q-2 -18 -18.5 -29t-33.5 -12h-782q-18 0 -30 11zM745 1451q58 70 75 84q19 16 45.5 26t52.5 10q47 0 73 -33q21 -25 21 -60q0 -29 -14 -57t-35 -46q-8 -7 -30.5 -20
t-50.5 -28q-180 -95 -338 -207l-47 58q114 117 248 273z" />
    <glyph glyph-name="Zdotaccent" unicode="&#x17b;" horiz-adv-x="1352" 
d="M27 76.5q11 17.5 45 56.5l925 1198h-436q-46 0 -104 -62.5t-107 -139.5t-62 -110q-8 -19 -22 -26t-36 -7q-15 0 -32.5 9.5t-14.5 24.5l90 358q25 39 55 41h1012q14 0 24 -8t10 -22v-24q0 -13 -8.5 -23.5t-10.5 -13.5l-966 -1245h466q64 0 133.5 70t122 154t68.5 123
q8 19 21.5 26t35.5 7q16 0 37 -9.5t18 -24.5l-111 -388q-26 -40 -53 -41h-1074q-17 0 -27 9t-10 23v15q0 12 11 29.5zM745 1590.5q-39 38.5 -39 100.5q0 54 26 99.5t70.5 72t95.5 26.5q63 0 103 -39t40 -101q0 -53 -26.5 -98.5t-70.5 -72t-96 -26.5q-64 0 -103 38.5z" />
    <glyph glyph-name="zdotaccent" unicode="&#x17c;" horiz-adv-x="1009" 
d="M0 11q-12 11 -12 26q0 17 10 34.5t38 51.5l547 662l121 126h-293q-43 0 -85.5 -44.5t-73 -101.5t-37.5 -87q-4 -18 -18.5 -25.5t-32.5 -7.5q-15 0 -32 9.5t-14 24.5l60 274q4 17 20.5 28.5t32.5 12.5h731q28 0 42.5 -9t14.5 -24q0 -21 -6.5 -34t-26.5 -41l-536 -662
l-135 -141h301q45 0 90 46.5t78.5 105.5t41.5 90q5 19 15 26t27 7q16 0 37 -9.5t19 -24.5l-60 -283q-2 -18 -18.5 -29t-33.5 -12h-782q-18 0 -30 11zM544.5 1220q-39.5 39 -39.5 101q0 55 26.5 100t71 71t95.5 26q63 0 103 -39t40 -101q0 -54 -26.5 -99t-71.5 -71.5
t-96 -26.5q-63 0 -102.5 39z" />
    <glyph glyph-name="Zcaron" unicode="&#x17d;" horiz-adv-x="1352" 
d="M27 76.5q11 17.5 45 56.5l925 1198h-436q-46 0 -104 -62.5t-107 -139.5t-62 -110q-8 -19 -22 -26t-36 -7q-15 0 -32.5 9.5t-14.5 24.5l90 358q25 39 55 41h1012q14 0 24 -8t10 -22v-24q0 -13 -8.5 -23.5t-10.5 -13.5l-966 -1245h466q64 0 133.5 70t122 154t68.5 123
q8 19 21.5 26t35.5 7q16 0 37 -9.5t18 -24.5l-111 -388q-26 -40 -53 -41h-1074q-17 0 -27 9t-10 23v15q0 12 11 29.5zM781 1575.5q-25 13.5 -39 37.5l-192 345h138l190 -205l256 205h133l-294 -336q-25 -28 -53.5 -44t-70.5 -16q-43 0 -68 13.5z" />
    <glyph glyph-name="zcaron" unicode="&#x17e;" horiz-adv-x="1009" 
d="M0 11q-12 11 -12 26q0 17 10 34.5t38 51.5l547 662l121 126h-293q-43 0 -85.5 -44.5t-73 -101.5t-37.5 -87q-4 -18 -18.5 -25.5t-32.5 -7.5q-15 0 -32 9.5t-14 24.5l60 274q4 17 20.5 28.5t32.5 12.5h731q28 0 42.5 -9t14.5 -24q0 -21 -6.5 -34t-26.5 -41l-536 -662
l-135 -141h301q45 0 90 46.5t78.5 105.5t41.5 90q5 19 15 26t27 7q16 0 37 -9.5t19 -24.5l-60 -283q-2 -18 -18.5 -29t-33.5 -12h-782q-18 0 -30 11zM571.5 1143.5q-25.5 13.5 -39.5 37.5l-190 355h138l188 -215l258 215h133l-295 -346q-24 -28 -52.5 -44t-71.5 -16
t-68.5 13.5z" />
    <glyph glyph-name="longs" unicode="&#x17f;" horiz-adv-x="694" 
d="M-22 13.5q-7 13.5 -5 27.5q2 17 11 26t28 11q117 12 124 57l141 941q20 132 83.5 243.5t167 179t235.5 67.5q109 0 161 -35.5t52 -91.5q0 -42 -22 -77t-54.5 -55.5t-62.5 -20.5q-3 0 -7 1t-4 2l-110 169q-34 -2 -61.5 -29.5t-53.5 -104t-47 -217.5l-140 -939
q-1 -5 -1 -13q0 -31 22.5 -47t51 -21t75.5 -9q18 -2 25 -6.5t7 -17.5q0 -8 -1 -13q-3 -14 -14 -27.5t-27 -13.5h-551q-16 0 -23 13.5z" />
    </font>
</defs>
</svg>
